<?xml version="1.0" encoding="UTF-8" standalone="no"?>
<!DOCTYPE svg PUBLIC "-//W3C//DTD SVG 1.1//EN" "http://www.w3.org/Graphics/SVG/1.1/DTD/svg11.dtd">
<svg width="100%" height="100%" viewBox="0 0 192 415" version="1.1" xmlns="http://www.w3.org/2000/svg" xmlns:xlink="http://www.w3.org/1999/xlink" xml:space="preserve" style="fill-rule:evenodd;clip-rule:evenodd;stroke-linecap:round;stroke-linejoin:round;stroke-miterlimit:1.5;">
    <g id="bittuang" transform="matrix(1,0,0,1,-447.924,-293.78)">
        <path d="M498.901,707.971L499.12,708.102L498.807,707.915L498.901,707.971ZM498.686,707.844C494.906,705.622 492.931,705.316 491.478,701.044C489.97,696.611 485.404,695.257 480.794,694.655C476.185,694.054 475.649,696.1 472.334,689.699L471.216,684.247C471.216,684.247 462.467,678.304 462.583,673.294C462.698,668.283 464.481,667.706 462.166,664.986C459.851,662.266 459.882,660.694 460.551,658.373C461.22,656.052 460.42,654.801 458.363,655.878C456.305,656.954 453.616,655.554 453.145,653.441C452.674,651.327 452.163,646.356 452.163,646.356L449.141,644.067L449.247,638.551L448.299,636.551L450.209,633.739C450.209,633.739 455.141,633.228 457.137,632.309C459.132,631.391 465.412,633.357 469.651,633.748C473.89,634.14 483.458,630.802 488.349,628.003C493.241,625.205 505.19,622.73 512.469,623.101C519.748,623.472 525.822,622.302 525.822,622.302L536.32,612.139C536.32,612.139 543.467,594.405 538.988,588.846C534.51,583.288 534.807,576.569 533.823,572.273C532.839,567.977 529.136,563.029 529.136,563.029L528.101,545.385L528.344,541.062C528.344,541.062 532.313,530.998 531.321,529.976C530.329,528.954 526.836,519.39 526.836,519.39C526.836,519.39 525.039,513.352 527.02,510.942C529.001,508.532 536.718,506.885 530.922,498.36C525.126,489.835 522.382,481.761 521.538,479.039C520.694,476.317 518.785,466.042 518.785,466.042L514.077,452.91L515.404,443.575L514.25,436.99C514.25,436.99 517.624,427.829 517.99,420.784C518.355,413.739 525.683,402.67 523.982,394.739C522.282,386.808 521.285,386.364 521.519,384.42C521.519,384.42 516.394,382.195 516.432,372.527C516.47,362.86 513.405,331.961 512.213,325.373C512.213,325.373 512.666,309.964 508.091,301.468L506.499,297.692L506.621,294.155L510.65,295.391C510.65,295.391 514.9,301.577 523.414,297.105L527.774,296.661L532.244,297.496L535.598,295.87L542.303,299.349L552.409,299.019L555.833,299.929L560.105,299.315L562.953,299.245L566.32,300.851L571.146,300.048L575.346,301.505C575.346,301.505 579.704,303.618 585.428,300.984C591.153,298.35 593.066,298.658 593.066,298.658L591.602,304.037L585.771,308.924L580.237,315.16C580.237,315.16 572.112,317.665 578.261,325.12C581.848,329.468 582.969,330.661 583.282,330.899L582.414,334.859L580.783,337.242L582.868,341.078L582.868,347.169C582.868,347.169 583.582,348.847 586.625,350.172C589.667,351.496 590.024,355.967 590.024,355.967C590.024,355.967 591.432,366.449 593.752,371.873C596.072,377.298 595.252,383.39 595.252,383.39C595.252,383.39 598.011,387.775 598.419,389.552C598.827,391.329 597.866,397.333 597.367,401.21C596.868,405.086 599.444,414.772 602.671,416.333C602.671,416.333 604.47,435.24 602.761,437.709C601.053,440.178 599.182,444.196 591.252,451.572L591.68,457.982L595.196,463.495L595.76,472.1C595.76,472.1 598.118,476.562 598.809,481.71C599.5,486.859 603.657,490.498 609.018,495.065L612.073,502.777L614.414,506.927L614.488,523.253C614.488,523.253 616.946,529.306 619.982,531.353L621.123,537.155L621.337,540.701L626.184,546.659C626.184,546.659 629.695,549.391 630.507,558.619C631.318,567.846 637.945,578.522 639.002,581.168L639.048,581.282C637.756,591.31 634.275,606.803 633.299,612.629C632.168,619.375 631.808,625.322 631.808,625.322L631.444,629.706L628.208,640.157L630.471,643.955C630.471,643.955 629.135,648.209 630.768,652.533C632.401,656.857 632.091,664.21 632.091,664.21L635.653,668.45L635.356,675.864L638.276,679.51L637.657,682.787C634.8,678.598 628.927,678.205 628.927,678.205C628.927,678.205 617.75,678.005 613.234,672.95C608.719,667.895 596.78,673.837 596.78,673.837L593.006,673.92L588.855,676.621L585.044,677.902C585.044,677.902 582.195,681.816 573.678,685.631C565.161,689.445 557.516,684.984 552.017,682.609C546.518,680.235 536.403,686.043 536.403,686.043C536.403,686.043 529.19,685.884 528.645,686.821C528.1,687.757 520.738,693.057 520.738,693.057C520.738,693.057 508.664,691.285 507.05,694.946C505.959,697.419 501.479,703.898 498.686,707.844C498.686,707.844 498.686,707.844 498.686,707.844ZM637.735,682.903L637.737,682.907L637.731,682.898L637.735,682.903ZM583.282,330.899L583.313,330.754C583.313,330.754 583.504,331.07 583.282,330.899Z" style="fill:rgb(148,74,173);stroke:white;stroke-width:0.75px;"/>
    </g>
</svg>
