<?xml version="1.0" encoding="UTF-8" standalone="no"?>
<!DOCTYPE svg PUBLIC "-//W3C//DTD SVG 1.1//EN" "http://www.w3.org/Graphics/SVG/1.1/DTD/svg11.dtd">
<svg width="100%" height="100%" viewBox="0 0 183 363" version="1.1" xmlns="http://www.w3.org/2000/svg" xmlns:xlink="http://www.w3.org/1999/xlink" xml:space="preserve" style="fill-rule:evenodd;clip-rule:evenodd;stroke-linecap:round;stroke-linejoin:round;stroke-miterlimit:1.5;">
    <g id="bonggakaradeng" transform="matrix(1,0,0,1,-498.16,-744.456)">
        <path d="M524.487,774.244C525.07,773.374 525.518,772.482 525.327,771.994C524.874,770.836 520.875,770.524 520.875,770.524L519.226,768.816L518.361,767.52L522.36,766.561L524.538,765.658L527.339,766.309L528.588,767.105L531.367,766.242L534.63,765.36L539.098,765.263L541.238,764.482L544.558,762.999L548.396,763.099L550.506,764.325C550.506,764.325 555.363,766.391 559.733,764.698C564.102,763.004 569.449,761.403 572.588,761.353C575.727,761.303 578.623,760.048 577.549,756.901C577.549,756.901 583.082,756.135 585.235,756.783C587.388,757.431 597.973,763.017 600.378,753.856C602.784,744.696 601.312,744.831 601.312,744.831C601.312,744.831 604.062,744.922 604.873,745.209C605.685,745.496 606.201,747.362 606.201,747.362C606.201,747.362 609.722,747.554 612.72,751.002C615.717,754.45 617.95,752.68 622.593,751.689C622.593,751.689 627.234,752.215 630.206,756.479C633.177,760.743 634.847,761.394 637.269,761.036C637.269,761.036 638.704,761.482 638.841,766.468C638.978,771.453 639.702,772.665 639.702,772.665C639.702,772.665 633.891,779.752 640.503,784.84C640.503,784.84 643.609,790.784 648.371,790.604C648.371,790.604 648.92,804.61 659.404,801.475C659.404,801.475 664.976,802.991 666.261,805.584C666.261,805.584 670.845,805.14 671.269,806.612C671.692,808.085 672.093,812.63 670.795,813.891C670.795,813.891 669.783,823.494 670.48,825.81C671.178,828.125 679.209,832.763 679.761,835.197C680.313,837.631 676.773,848.57 672.687,848.727C668.6,848.885 666.044,852.811 664.755,855.618C663.466,858.426 657.934,857.933 657.934,857.933L655.844,861.25L654.598,863.596L650.475,865.814L649.643,868.383L643.713,871.964L642.764,877.328L640.878,877.444L639.119,878.054L636.052,878.054C636.023,878.087 631.7,882.987 635.565,887.201C635.565,887.201 632.713,889.972 632.713,895.235L632.96,897.085C632.96,897.085 629.601,899.363 633.78,902.636L633.601,905.707C633.601,905.707 623.429,912.245 632.619,917.697L634.291,920.267L637.74,922.998L637.74,926.556L639.422,927.726L638.911,930.819L637.38,932.589L638.253,934.545L640.838,935.787C640.838,935.787 642.32,940.888 640.683,942.599C639.046,944.311 639.572,945.423 640.186,947.445C640.801,949.466 642.301,958.267 636.936,964.42C636.936,964.42 634.98,964.873 635.496,968.202C635.496,968.202 632.382,972.208 630.757,972.368C629.132,972.527 627.574,975.993 630.1,977.076C632.626,978.159 637.571,977.684 639.584,977.14C641.598,976.595 641.277,977.476 641.277,977.476C641.277,977.476 635.549,978.504 635.573,986.117L635.382,987.513C635.382,987.513 629.532,990.749 628.941,996.228C628.35,1001.71 626.742,1001.09 625.112,1003.07C623.482,1005.05 624.832,1008.72 626.873,1011.71C628.915,1014.71 629.063,1014.52 628.88,1017.37C628.88,1017.37 638.04,1021.9 636.527,1029.15L637.978,1031.1L636.806,1033.44C636.806,1033.44 638.203,1036.53 630.561,1041.15C630.561,1041.15 629.301,1042.49 630.734,1047.29C632.167,1052.08 631.748,1062.51 631.748,1062.51L632.777,1064.86L632.442,1068.5L631.845,1069.5C631.845,1069.5 630.643,1077.29 633.427,1081.21C636.212,1085.13 634.953,1088.39 630.545,1090.27C626.136,1092.15 624.083,1091.25 615.494,1096.35C606.905,1101.44 603.582,1101.58 599.401,1101.17C595.22,1100.77 593.666,1096.43 585,1105.32L583.445,1106.45C583.445,1106.45 576.826,1089.34 574.967,1087.83C573.108,1086.31 571.6,1083.21 571.082,1079.76L570.976,1078.68C570.976,1078.68 564.254,1079.79 557.624,1074.4C550.993,1069.01 548.931,1072.28 547.695,1072.89C546.46,1073.5 542.142,1073.37 540.444,1070.3C538.747,1067.23 537.654,1058.32 538.512,1055.1C539.369,1051.87 547.681,1047.84 540.252,1045.88L535.61,1045.44C535.61,1045.44 529.068,1041.12 531.328,1034.06C533.588,1027 536.664,1031.5 535.186,1022.04C533.708,1012.59 530.444,1012.64 526.338,1012.53C522.233,1012.43 514.282,1005.83 512.911,999.894C512.911,999.894 497.592,990.934 498.581,981.039L499.019,976.654L499.722,977.234L508.731,977.091L512.471,975.494L514.221,973.845L517.493,972.236L518.585,973.091L521.411,972.452L523.111,970.505L525.567,971.292L528.828,971.658C528.828,971.658 531.227,967.737 532.172,963.954C533.117,960.171 531.797,938.89 531.797,938.89C531.11,933.585 533.859,933.271 533.859,933.271L539.661,932.582L544.404,931.067L544.292,928.953C544.292,928.953 540.855,928.464 541.589,918.393C542.838,901.239 548.752,898.809 548.752,898.809C554.764,898.438 556.172,895.083 556.172,895.083L558.919,895.395C558.919,895.395 560.471,895.558 561.455,893.16C562.439,890.762 561.597,890.217 561.597,890.217L555.855,890.045L554.744,887.634L554.253,881.536L553.556,879.791L549.982,879.738L549.677,874.508C549.677,874.508 552.94,872.525 552.861,871.714C552.781,870.903 549.848,868.064 549.848,868.064C552.467,863.561 548.793,859.416 548.793,859.416L545.949,856.63L545.347,854.131L544.634,849.756L542.993,846.356L539.264,844.802L538.443,839.132L535.871,836.88L538.294,835.19L538.507,832.262L537.615,831.036L538.013,824.619L536.565,823.309L536.296,817.134L533.277,812.575L534.582,810.562L535.108,806.277L533.462,804.456L534.614,803.328L534.295,800.896C534.708,799.137 528.721,796.063 528.721,796.063L529.352,791.641L527.722,790.644L526.639,787.9C524.228,785.246 527.72,782.094 527.72,782.094C527.883,781.016 523.976,778.29 523.976,778.29L526.009,775.145L524.487,774.244Z" style="fill:rgb(87,164,158);stroke:white;stroke-width:0.75px;"/>
    </g>
</svg>
