<?xml version="1.0" encoding="UTF-8" standalone="no"?>
<!DOCTYPE svg PUBLIC "-//W3C//DTD SVG 1.1//EN" "http://www.w3.org/Graphics/SVG/1.1/DTD/svg11.dtd">
<svg width="100%" height="100%" viewBox="0 0 142 148" version="1.1" xmlns="http://www.w3.org/2000/svg" xmlns:xlink="http://www.w3.org/1999/xlink" xml:space="preserve" style="fill-rule:evenodd;clip-rule:evenodd;stroke-linecap:round;stroke-linejoin:round;stroke-miterlimit:1.5;">
    <g id="gandangbatusillanan" transform="matrix(1,0,0,1,-520.698,-541.147)">
        <path d="M523.498,611.273L524.111,609.129L530.626,608.356C530.626,608.356 550.492,603.671 551.258,602.461C552.024,601.251 553.008,598.609 553.008,598.609C553.008,598.609 560.446,590.62 561.447,589.172C562.448,587.723 564.68,587.56 564.68,587.56C564.68,587.56 564.689,582.554 565.751,581.399C566.813,580.243 573.482,573.276 577.892,570.044C580.182,568.365 583.463,570.293 584.413,564.922C585.364,559.551 592.369,552.527 594.001,549.824C594.614,548.808 594.366,547.224 594.366,547.224L597.761,541.522C601.264,543.131 607.73,546.215 609.561,547.846C612.112,550.118 614.333,549.187 618.434,549.838C622.534,550.488 622.975,553.638 623.813,560.091C624.651,566.545 630.016,561.973 630.016,561.973C630.016,561.973 630.065,561.973 631.17,564.938C632.274,567.902 636.953,569.982 636.953,569.982C636.953,569.982 639.309,573.928 642.566,577.853C645.822,581.777 650.302,578.849 650.302,578.849C650.302,578.849 655.142,581.345 654.123,585.033C653.103,588.722 653.249,590.299 653.249,590.299L657.475,592.691C657.475,592.691 656.656,595.686 656.558,597.89C656.461,600.093 657.941,607.694 655.795,607.761C653.648,607.828 648.789,612.016 647.765,613.704C646.741,615.392 643.277,617.58 643.277,617.58L645.071,620.073L642.236,623.854C642.236,623.854 651.862,631.834 652.674,634.061C653.485,636.287 657.752,641.035 657.752,641.035L661.595,645.246L658.655,650.133L654.782,651.674L652.774,656.713L652.847,659.21C651.786,659.382 651.039,659.744 651.039,659.744C651.039,659.744 648.03,664.218 647.656,666.757C647.281,669.295 646.654,671.057 647.426,671.841C648.197,672.625 650.497,674.88 647.986,674.466C645.475,674.052 640.138,674.578 640.138,674.578C640.138,674.578 639.162,682.938 635.669,680.831C633.123,679.295 633.034,679.066 633.172,679.054L630.558,678.64L628.447,676.332L627.11,677.555L625.432,678.887L623.596,680.608L622.265,680.352L620.475,679.317L620.175,680.549L620.678,682.255C620.678,682.255 620.171,682.928 617.973,684.167C615.776,685.405 617.721,687.95 615.72,687.969C613.719,687.987 610.366,688.101 610.366,688.101L608.568,685.605L606.087,686.091L604.751,683.364C604.751,683.364 603.29,680.88 601.102,679.28C598.915,677.68 599.093,679.329 599.173,676.613C599.253,673.897 599.88,670.67 599.042,669.091C598.204,667.511 599.849,663.673 599.176,662.726C598.504,661.779 597.246,660.986 597.246,660.986C597.246,660.986 597.093,657.193 596.605,656.671C596.118,656.15 594.388,653.786 592.205,654.81C590.021,655.835 590.044,655.678 590.128,657.122C590.211,658.565 589.091,661.201 586.165,662.12C583.239,663.039 584.651,661.178 582.945,663.039C581.239,664.9 581.568,665.248 580.027,665.231C578.485,665.215 578.145,665.064 577.268,666.93C576.392,668.796 575.354,667.748 574.35,665.888C573.347,664.028 570.666,660.838 570.073,659.954C569.479,659.071 569.586,658.084 569.586,658.084L568.649,656.665L569.493,654.87C569.493,654.87 574.918,652.342 574.535,649.194L577.146,646.889L577.146,645.551C577.146,645.551 570.869,645.54 568.341,644.704C565.813,643.869 565.457,642.894 565.457,642.894L562.596,643.545L561.202,645.147L553.603,644.969L552.389,645.186L545.727,645.896L543.468,647.445L539.627,647.176L537.543,646.651L534.667,646.83L532.427,646.887L527.53,641.075C527.53,641.075 524.19,637.502 521.073,634.87C522.849,634.148 524.37,633.3 524.535,631.628C524.859,628.34 525.289,626.47 527.27,624.641C529.252,622.811 528.589,621.493 528.589,619.01C528.589,617.344 525.518,613.572 523.498,611.273ZM633.172,679.054L633.307,679.076C633.307,679.076 633.224,679.05 633.172,679.054ZM656.139,659.599L656.249,659.653L656.136,659.597L656.139,659.599ZM656.028,659.547L656.099,659.58L656.023,659.545L656.028,659.547ZM655.917,659.5L655.978,659.526L655.91,659.497L655.917,659.5ZM655.806,659.455L655.861,659.477L655.797,659.452L655.806,659.455ZM655.695,659.414L655.746,659.433L655.683,659.41L655.695,659.414ZM655.583,659.375L655.631,659.392L655.569,659.371L655.583,659.375ZM655.472,659.34L655.516,659.354L655.456,659.335L655.472,659.34ZM655.36,659.308L655.402,659.32L655.342,659.303L655.36,659.308ZM655.249,659.279L655.287,659.289L655.228,659.274L655.249,659.279ZM655.138,659.252L655.173,659.26L655.115,659.247L655.138,659.252ZM655.027,659.228L655.059,659.235L655.002,659.223L655.027,659.228ZM654.916,659.207L654.945,659.212L654.89,659.202L654.916,659.207ZM654.805,659.188L654.831,659.192L654.778,659.184L654.805,659.188ZM653.046,659.181L653.018,659.184L653.034,659.182L653.046,659.181ZM654.695,659.172L654.718,659.175L654.666,659.168L654.695,659.172ZM654.585,659.158L654.605,659.16L654.556,659.155L654.585,659.158ZM654.476,659.146L654.492,659.148L654.447,659.144L654.476,659.146ZM654.367,659.137L654.38,659.138L654.34,659.135L654.367,659.137ZM654.259,659.13L654.269,659.13L654.235,659.129L654.259,659.13ZM654.152,659.125L654.158,659.125L654.133,659.124L654.152,659.125ZM654.045,659.121L654.048,659.122L654.035,659.121L654.045,659.121Z" style="fill:rgb(88,215,206);stroke:white;stroke-width:0.75px;"/>
    </g>
</svg>
