<?xml version="1.0" encoding="UTF-8" standalone="no"?>
<!DOCTYPE svg PUBLIC "-//W3C//DTD SVG 1.1//EN" "http://www.w3.org/Graphics/SVG/1.1/DTD/svg11.dtd">
<svg width="100%" height="100%" viewBox="0 0 249 159" version="1.1" xmlns="http://www.w3.org/2000/svg" xmlns:xlink="http://www.w3.org/1999/xlink" xml:space="preserve" style="fill-rule:evenodd;clip-rule:evenodd;stroke-linecap:round;stroke-linejoin:round;stroke-miterlimit:1.5;">
    <g id="kondodewata" transform="matrix(1,0,0,1,-186.215,-829.484)">
        <path d="M219.605,859.901C219.605,859.901 223.877,851.952 228.435,851.218C232.994,850.485 236.055,844.149 236.055,844.149C236.055,844.149 251.059,841.01 263.212,829.859L272.92,841.471C272.92,841.471 275.571,844.032 278.059,843.42C278.059,843.42 284.774,846.06 289.015,843.234C293.256,840.409 300.435,841.904 302.27,844.412C304.104,846.919 315.556,861.74 332.633,846.653C338.785,841.218 340.464,841.585 340.464,841.585C340.464,841.585 333.748,848.282 333.854,850.182C333.96,852.082 341.284,850.764 341.284,850.764C341.284,850.764 346.797,853.363 347.122,854.906C347.447,856.449 344.755,872.634 356.384,871.165C356.384,871.165 356.062,875.924 360.031,876.505L364.307,879.81L364.452,881.299L368.238,881.964L369.242,883.134C369.242,883.134 373.456,883.996 375.645,883.948C377.833,883.899 384.281,890.195 384.281,890.195C384.281,890.195 381.346,905.755 395.774,911.031L396.739,917.518L398.328,918.935L401.357,920.562L403.572,923.989L406.839,921.284L410.993,923.061L412.808,925.425L418.472,925.753L420.937,926.72L420.937,929.734C420.937,929.734 428.783,937.662 434.079,938.711L434.729,940.035L432.623,940.861C432.623,940.861 433.451,954.262 432.716,956.48C431.981,958.699 428.964,957.933 428.964,957.933C428.964,957.933 425.681,949.268 419.082,956.303L415.51,956.399L414.01,955.748L412.931,955.748L410.656,957.479L406.13,957.43C406.13,957.43 402.431,962.616 398.101,959.205L395.493,958.829L391.235,961.3L387.306,960.754L385.305,963.357L383.075,963.357C383.075,963.357 374.095,957.96 374.397,974.039C374.397,974.039 374.287,979.331 366.361,986.977C366.361,986.977 359.035,988.412 358.005,987.421C356.974,986.43 354.894,984.558 350.022,984.31C345.151,984.063 328.357,984.424 328.357,984.424C328.357,984.424 322.926,981.848 319.523,981.962C316.12,982.076 304.513,981.279 304.513,981.279C304.513,981.279 301.715,984.386 300.195,980.559C298.675,976.731 298.171,973.606 298.171,973.606L293.489,972.046C293.489,972.046 286.302,977.053 281.798,974.374C277.295,971.696 279.023,969.416 279.023,969.416L274.075,969.416C274.075,969.416 269.617,973.902 269.212,970.242L269.243,961.704C269.243,961.704 264.265,949.286 263.497,945.816C262.73,942.345 257.006,935.222 254.543,933.794C252.08,932.366 250.645,927.854 250.645,927.854C250.645,927.854 243.108,919.558 227.013,914.23C219.288,911.674 219.424,909.83 219.424,909.83C219.424,909.83 210.126,905.154 203.29,892.863C200.401,887.667 192.418,882.514 192.418,882.514C192.418,882.514 185.463,875.143 186.749,863.599C187.465,857.166 196.522,859.555 196.522,859.555L202.613,858.101C202.613,858.101 210.006,862.068 215.063,860.887C220.12,859.705 219.605,859.901 219.605,859.901Z" style="fill:rgb(161,161,161);stroke:white;stroke-width:0.75px;"/>
    </g>
</svg>
