<?xml version="1.0" encoding="UTF-8" standalone="no"?>
<!DOCTYPE svg PUBLIC "-//W3C//DTD SVG 1.1//EN" "http://www.w3.org/Graphics/SVG/1.1/DTD/svg11.dtd">
<svg width="100%" height="100%" viewBox="0 0 116 112" version="1.1" xmlns="http://www.w3.org/2000/svg" xmlns:xlink="http://www.w3.org/1999/xlink" xml:space="preserve" style="fill-rule:evenodd;clip-rule:evenodd;stroke-linecap:round;stroke-linejoin:round;stroke-miterlimit:1.5;">
    <g id="kurra" transform="matrix(1,0,0,1,-624.753,-532.377)">
        <path d="M625.128,545.362C627.544,544.404 632.314,544.023 639.658,549.875L643.645,550.31L645.835,551.194L646.821,548.958L650.905,548.778L651.266,543.525L657.01,543.001C657.01,543.001 663.175,531.715 676.631,532.829L682.567,533.126L688.429,535.866L692.212,536.527L694.194,537.601L695.083,538.666L698.968,538.79L701.682,537.765L704.344,537.597L705.108,539.343L705.519,542.512L707.198,543.602L708.433,545.29C708.433,545.29 708.703,546.257 709.09,550.162C709.477,554.067 712.735,561.611 715.033,562.521C717.332,563.43 717.014,566.182 717.014,566.182L721.107,569.76L722.192,573.912C722.192,573.912 724.888,577.268 725.595,580.881C726.302,584.494 728.218,589.896 729.466,592.528C730.714,595.161 730.714,597.619 730.714,597.619L730.714,601.779C730.714,601.779 733.922,605.577 734.815,609.447C735.708,613.318 737.602,615.887 737.602,615.887L738.236,616.309L736.918,619.275L735.672,620.407C735.672,620.407 735.499,621.888 737.085,625.839C738.67,629.789 739.314,630.889 739.314,630.889L739.831,633.618L736.466,639.399L737.487,642.247L736.538,642.238L736.419,643.124C730.159,645.151 723.354,640.605 723.354,640.605L720.96,638.374L718.953,637.955L719.816,637.847L716.277,636.231C716.277,636.231 713.728,637.815 712.331,634.584C710.933,631.353 703.126,630.68 703.126,630.68C692.206,631.788 691.804,624.784 691.804,624.784L686.616,625.311L685.03,622.207L682.181,622.207L678.756,619.879L674.973,618.406C671.82,623.573 669.706,619.119 669.706,619.119C663.045,615.867 649.757,602.877 646.324,595.222C642.891,587.567 640.059,583.814 639.002,581.168C637.945,578.522 631.318,567.846 630.507,558.619C629.695,549.391 626.184,546.659 626.184,546.659L625.128,545.362Z" style="fill:rgb(74,144,173);stroke:white;stroke-width:0.75px;"/>
    </g>
</svg>
