<?xml version="1.0" encoding="UTF-8" standalone="no"?>
<!DOCTYPE svg PUBLIC "-//W3C//DTD SVG 1.1//EN" "http://www.w3.org/Graphics/SVG/1.1/DTD/svg11.dtd">
<svg width="100%" height="100%" viewBox="0 0 136 149" version="1.1" xmlns="http://www.w3.org/2000/svg" xmlns:xlink="http://www.w3.org/1999/xlink" xml:space="preserve" style="fill-rule:evenodd;clip-rule:evenodd;stroke-linecap:round;stroke-linejoin:round;stroke-miterlimit:1.5;">
    <g id="makaleselatan" transform="matrix(1,0,0,1,-670.507,-743.124)">
        <path d="M679.804,835.481L681.553,835.012L685.715,831.962C685.715,831.962 700.627,828.113 702.928,819.272C702.928,819.272 707.218,817.33 705.7,813.509C704.182,809.688 705.152,808.345 705.152,808.345L710.167,802.761C710.167,802.761 711.352,797.937 714.735,793.246C718.118,788.556 720.205,786.511 720.088,783.056C719.971,779.601 725.145,779.463 725.669,771.777C726.192,764.091 726.972,762.745 729.911,759.912C729.911,759.912 732.808,760.035 734.115,759.168C735.422,758.302 738.616,755.712 738.616,755.712L743.1,753.887C743.1,753.887 744.44,748.998 744.382,746.036C744.323,743.074 746.772,743.523 746.772,743.523L749.911,745.117L755.652,745.185C755.652,745.185 757.322,750.994 761.813,746.771C761.813,746.771 765.337,746.176 767.736,748.651C770.135,751.127 771.037,752.029 771.037,752.029C771.037,752.029 771.428,756.042 773.205,756.532C774.982,757.022 773.595,763.431 778.369,766.342C783.144,769.253 787.639,768.764 787.639,768.764C787.639,768.764 800.987,774.538 801.906,775.703C802.414,776.346 804.292,778.426 805.869,780.156C802.022,783.13 798.071,786.246 797.67,786.935C796.939,788.189 797.176,798.22 797.989,799.976C798.802,801.732 797.983,802.292 796.698,803.481C795.413,804.67 791.684,810.171 791.684,810.171C791.573,814.312 788.187,814.559 788.187,814.559L780.581,827.332C780.581,827.332 780.829,828.916 780.216,829.932C778.584,832.635 771.579,839.659 770.628,845.03C769.678,850.401 766.397,848.473 764.107,850.152C759.697,853.384 753.028,860.351 751.966,861.507C750.904,862.662 750.895,867.668 750.895,867.668C750.895,867.668 748.663,867.831 747.662,869.28C746.661,870.728 739.223,878.717 739.223,878.717C739.223,878.717 738.239,881.359 737.473,882.569C736.707,883.779 716.841,888.464 716.841,888.464L710.326,889.237L709.713,891.381C708.724,890.254 707.987,889.481 707.987,889.481C707.987,889.481 705.335,889.36 705.661,886.625C705.988,883.891 709.325,878.403 708.701,878.199C708.077,877.995 706.532,876.987 706.332,874.645C706.133,872.302 705.116,868.092 704.277,866.688C703.437,865.284 703.627,856.739 701.68,855.07C699.734,853.401 692.092,850.634 688.555,853.871C683.149,858.819 683.162,853.477 683.162,853.477C683.162,853.477 677.955,854.052 677.195,852.558C676.412,851.017 673.725,849.867 670.898,849.053L671.053,849.004C671.568,848.846 672.112,848.749 672.687,848.727C676.631,848.575 680.066,838.379 679.804,835.481ZM670.898,849.053L670.882,849.058L670.898,849.053Z" style="fill:rgb(160,95,82);stroke:white;stroke-width:0.75px;"/>
    </g>
</svg>
