<?xml version="1.0" encoding="UTF-8" standalone="no"?>
<!DOCTYPE svg PUBLIC "-//W3C//DTD SVG 1.1//EN" "http://www.w3.org/Graphics/SVG/1.1/DTD/svg11.dtd">
<svg width="100%" height="100%" viewBox="0 0 69 73" version="1.1" xmlns="http://www.w3.org/2000/svg" xmlns:xlink="http://www.w3.org/1999/xlink" xml:space="preserve" style="fill-rule:evenodd;clip-rule:evenodd;stroke-linecap:round;stroke-linejoin:round;stroke-miterlimit:1.5;">
    <g id="makaleutara" transform="matrix(1,0,0,1,-788.929,-638.739)">
        <path d="M789.304,685.309C789.412,685.174 789.507,685.048 789.587,684.933C791.263,682.548 804.837,674.321 804.837,674.321L807.098,668.092L809.755,666.373L812.175,665.014L816.026,663.493L822.04,661.07L825.276,655.934L827.468,651.635C827.468,651.635 832.835,648.675 832.647,639.114L838.549,639.548C838.549,639.548 846.835,642.714 849.438,643.053C852.04,643.391 853.401,643.687 853.401,643.687L856.645,645.229L856.44,648.204L855.888,651.735L855.863,660.163C855.863,660.163 852.467,663.546 854.157,665.66C855.847,667.773 855.047,669.759 855.047,669.759L854.531,674.49L853.68,676.788L855.013,679.821L856.176,683.453L857.212,684.636L857.119,694.637L855.201,699.391L855.334,700.637L851.762,700.26L850.219,697.347L845.348,699.15L840.058,698.681L835.306,697.595L834.287,700.172L832.905,699.846L829.423,699.846L827.507,701.759L825.865,704.67L821.186,706.641L813.534,710.386C813.534,710.386 808.023,711.17 808.066,708.336C808.108,705.503 806.549,703.633 806.549,703.633L805.987,700.354L802.939,700.182L802.237,698.117L796.601,699.677C796.601,699.677 793.026,698.104 796.803,692.902C800.581,687.701 795.877,686.186 795.877,686.186L789.304,685.309Z" style="fill:rgb(181,184,134);stroke:white;stroke-width:0.75px;"/>
    </g>
</svg>
