<?xml version="1.0" encoding="UTF-8" standalone="no"?>
<!DOCTYPE svg PUBLIC "-//W3C//DTD SVG 1.1//EN" "http://www.w3.org/Graphics/SVG/1.1/DTD/svg11.dtd">
<svg width="100%" height="100%" viewBox="0 0 112 97" version="1.1" xmlns="http://www.w3.org/2000/svg" xmlns:xlink="http://www.w3.org/1999/xlink" xml:space="preserve" style="fill-rule:evenodd;clip-rule:evenodd;stroke-linecap:round;stroke-linejoin:round;stroke-miterlimit:1.5;">
    <g id="makale" transform="matrix(1,0,0,1,-744.881,-684.934)">
        <path d="M789.304,685.309L795.877,686.186C795.877,686.186 800.581,687.701 796.803,692.902C793.026,698.104 796.601,699.677 796.601,699.677L802.237,698.117L802.939,700.182L805.987,700.354L806.549,703.633C806.549,703.633 808.108,705.503 808.066,708.336C808.023,711.17 813.534,710.386 813.534,710.386L821.186,706.641L825.865,704.67L827.507,701.759L829.423,699.846L832.905,699.846L834.287,700.172L835.306,697.595L840.058,698.681L845.348,699.15L850.219,697.347L851.762,700.26L855.334,700.637L855.745,704.486L854.821,709.875L854.821,713.669C854.821,713.669 855.092,719.392 846.347,720.073L846.052,721.343L839.143,721.627C839.143,721.627 829.974,726.001 831.319,733.824L834.669,737.331L834.346,740.955L831.371,745.951L830.62,752.074L831.285,753.708C827.654,756.275 829.519,759.641 829.519,759.641L828.426,762.379C830.692,765.702 826.942,768.31 825.767,768.633C824.592,768.956 815.313,772.698 813.116,774.531C812.044,775.426 808.511,778.105 805.091,780.758C805.35,780.557 805.61,780.356 805.869,780.156C804.292,778.426 802.414,776.346 801.906,775.703C800.987,774.538 787.639,768.764 787.639,768.764C787.639,768.764 783.144,769.253 778.369,766.342C773.595,763.431 774.982,757.022 773.205,756.532C771.428,756.042 771.037,752.029 771.037,752.029C771.037,752.029 770.135,751.127 767.736,748.651C765.337,746.176 761.813,746.771 761.813,746.771C757.322,750.994 755.652,745.185 755.652,745.185L749.911,745.117L746.772,743.523C746.772,743.523 746.218,743.421 745.642,743.634C745.642,743.634 745.256,742.653 745.256,742.653L746.922,739.607L748.003,735.983L747.158,732.989L752.108,730.603L752.573,728.377L752.656,726.274L753.136,723.219C753.136,723.219 753.303,722.525 756.411,721.665C759.519,720.805 761.106,717.49 761.106,717.49L760.952,717.435L762.374,716.877C762.374,716.877 762.859,709.625 768.87,708.109L779.486,696.811L779.972,694.487C779.972,694.487 787.166,687.991 789.304,685.309ZM745.585,743.656L745.581,743.658L745.583,743.657L745.585,743.656Z" style="fill:rgb(134,184,136);stroke:white;stroke-width:0.75px;"/>
    </g>
</svg>
