<?xml version="1.0" encoding="UTF-8" standalone="no"?>
<!DOCTYPE svg PUBLIC "-//W3C//DTD SVG 1.1//EN" "http://www.w3.org/Graphics/SVG/1.1/DTD/svg11.dtd">
<svg width="100%" height="100%" viewBox="0 0 220 103" version="1.1" xmlns="http://www.w3.org/2000/svg" xmlns:xlink="http://www.w3.org/1999/xlink" xml:space="preserve" style="fill-rule:evenodd;clip-rule:evenodd;stroke-linecap:round;stroke-linejoin:round;stroke-miterlimit:1.5;">
    <g id="malimbongbalepe" transform="matrix(1,0,0,1,-498.311,-670.537)">
        <path d="M639.689,772.64L639.702,772.665L639.694,772.65L639.689,772.64ZM639.667,772.595L639.677,772.615L639.671,772.603L639.667,772.595ZM622.377,751.736C619.95,752.275 618.189,753.007 616.619,753.033L616.481,753.034C615.196,753.021 614.031,752.511 612.72,751.002C609.722,747.554 606.201,747.362 606.201,747.362C606.201,747.362 605.685,745.496 604.873,745.209C604.163,744.958 601.969,744.857 601.432,744.836L601.312,744.831L601.328,744.832C601.481,744.851 602.634,745.269 600.378,753.856C599.345,757.793 596.801,759.006 594.065,759.059L593.915,759.06C590.325,759.075 586.446,757.148 585.235,756.783C584.629,756.601 583.756,756.53 582.814,756.523L582.498,756.523C580.164,756.539 577.549,756.901 577.549,756.901C578.623,760.048 575.727,761.303 572.588,761.353C569.449,761.403 564.102,763.004 559.733,764.698C558.504,765.174 557.236,765.353 556.049,765.364L555.852,765.364C552.907,765.346 550.506,764.325 550.506,764.325L548.396,763.099L544.558,762.999L541.238,764.482L539.098,765.263L534.63,765.36L531.367,766.242L528.588,767.105L527.339,766.309L524.538,765.658L522.36,766.561L519.383,767.275C519.361,764.568 519.294,753.621 519.648,750.667C519.648,750.667 514.935,741.837 514.366,740.383C513.797,738.928 514.423,733.423 514.423,733.423C514.423,733.423 506.173,729.601 504.97,721.063C503.768,712.526 503.184,710.565 499.12,708.102C498.973,708.013 498.828,707.927 498.686,707.844C501.479,703.899 505.959,697.42 507.05,694.946C508.664,691.285 520.738,693.057 520.738,693.057C520.738,693.057 528.1,687.757 528.645,686.821C529.19,685.884 536.403,686.043 536.403,686.043C536.403,686.043 546.518,680.235 552.017,682.609C557.516,684.984 565.161,689.445 573.678,685.631C582.195,681.816 585.044,677.902 585.044,677.902L588.855,676.621L593.006,673.92L596.78,673.837C596.78,673.837 608.719,667.895 613.234,672.95C617.75,678.005 628.927,678.205 628.927,678.205C628.927,678.205 636.654,678.722 638.693,684.891C640.732,691.059 643.002,692.309 643.002,692.309L644.707,695.6L646.128,697.633L647.231,700.673L651.56,706.077L653.929,707.239L654.815,708.093L659.551,702.581L667.337,702.097L669.262,696.811L674.925,690.425L677.038,692.725L681.176,692.992L686.113,692.422L690.067,693.681L697.633,688.919L697.625,688.929C697.625,688.929 699.824,693.438 702.059,693.649C704.293,693.861 707.013,698.162 707.013,698.162C707.013,698.162 708.7,702.958 711.632,703.642C714.563,704.326 717.319,711.605 717.319,713.761C717.319,715.918 716.444,715.918 712.57,716.904C708.695,717.89 703.424,717.712 701.042,724.565C698.659,731.417 695.386,732.802 695.386,732.802C692.316,738.809 683.229,738.82 682.429,741.331L682.387,741.455L682.37,741.501L682.336,741.592L682.313,741.652L682.277,741.742L682.248,741.811L682.21,741.903L682.177,741.981L682.135,742.076L682.097,742.161L682.053,742.261L682.011,742.351L681.963,742.456L681.917,742.552L681.866,742.661L681.817,742.763L681.763,742.875L681.711,742.982L681.654,743.097L681.544,743.318L681.416,743.572L681.295,743.809L681.158,744.076L681.026,744.329L680.88,744.607L680.738,744.874L680.585,745.162L680.435,745.441L680.276,745.736L680.119,746.025L679.955,746.325L679.791,746.622L679.623,746.927L679.455,747.23L679.285,747.536L679.113,747.844L678.942,748.15L678.767,748.46L678.596,748.764L678.42,749.074L678.253,749.369L677.908,749.974L677.566,750.572L677.233,751.151L676.912,751.708L676.597,752.251L676.305,752.755L676.018,753.246L675.764,753.682L675.516,754.105L675.309,754.457L675.11,754.795L674.96,755.049L674.65,755.572L664.552,755.572L662.148,761.087C662.148,761.087 650.716,761.22 647.883,764.764L647.719,764.965L647.659,765.037L647.544,765.173L647.464,765.264L647.357,765.387L647.263,765.491L647.16,765.606L647.052,765.723L646.952,765.831L646.83,765.962L646.736,766.062L646.597,766.206L646.51,766.296L646.354,766.456L646.276,766.535L646.1,766.712L646.034,766.778L645.838,766.973L645.785,767.025L645.566,767.239L645.53,767.274L645.286,767.509L645.268,767.526C643.506,769.215 641.377,771.054 639.633,772.516C639.633,772.516 639.643,772.541 639.643,772.541L639.633,772.516L639.633,772.516C639.633,772.516 639.597,772.423 639.597,772.423L639.59,772.404L639.554,772.303L639.541,772.263L639.505,772.151L639.487,772.091L639.448,771.953L639.445,771.942L639.421,771.853L639.416,771.831L639.393,771.741L639.386,771.71L639.364,771.619L639.355,771.581L639.334,771.488L639.324,771.441L639.304,771.346L639.293,771.292L639.274,771.195L639.262,771.133L639.244,771.034L639.231,770.964L639.213,770.861L639.2,770.784L639.183,770.679L639.17,770.593L639.153,770.485L639.139,770.391L639.124,770.279L639.11,770.178L639.095,770.062L639.081,769.953L639.066,769.834L639.053,769.716L639.039,769.593L639.026,769.467L639.013,769.34L639,769.205L638.987,769.074L638.975,768.931L638.963,768.796L638.951,768.643L638.941,768.504L638.929,768.342L638.919,768.2L638.909,768.026L638.9,767.881L638.89,767.694L638.882,767.549L638.873,767.344L638.866,767.203L638.857,766.964L638.852,766.843L638.841,766.468C638.712,761.794 637.443,761.11 637.285,761.042L637.269,761.036C636.928,761.087 636.602,761.117 636.286,761.12L636.181,761.12C634.294,761.103 632.713,760.077 630.206,756.479C627.42,752.482 623.167,751.77 622.646,751.696L622.593,751.689L622.377,751.736Z" style="fill:rgb(164,164,87);stroke:white;stroke-width:0.75px;"/>
    </g>
</svg>
