<?xml version="1.0" encoding="UTF-8" standalone="no"?>
<!DOCTYPE svg PUBLIC "-//W3C//DTD SVG 1.1//EN" "http://www.w3.org/Graphics/SVG/1.1/DTD/svg11.dtd">
<svg width="100%" height="100%" viewBox="0 0 124 355" version="1.1" xmlns="http://www.w3.org/2000/svg" xmlns:xlink="http://www.w3.org/1999/xlink" xml:space="preserve" style="fill-rule:evenodd;clip-rule:evenodd;stroke-linecap:round;stroke-linejoin:round;stroke-miterlimit:1.5;">
    <g id="massanda" transform="matrix(1,0,0,1,-417.296,-280.108)">
        <path d="M450.404,633.718L447.657,630.244L447.657,626.641L445.093,623.782L443.204,621.219L443.257,616.396C443.257,616.396 436.957,616.797 438.881,612.408C440.806,608.02 438.14,609.591 438.14,609.591L436.759,606.159L436.712,603.943L436.604,600.551L436.14,594.785L437.706,592.724L437.366,587.882L437.702,584.614C437.702,584.614 439.823,576.479 443.236,573.738C443.236,573.738 443.639,569.388 445.985,566.918C448.331,564.449 448.533,563.264 448.447,559.773C448.362,556.281 448.267,558.863 449.299,554.554C450.331,550.245 451.77,549.785 448.522,544.834C445.274,539.883 447.21,541.833 446.039,536.793C444.868,531.752 442.368,533.09 441.026,529.764C439.685,526.438 441.321,523.384 440.89,521.119C440.46,518.855 440.655,515.564 436.256,514.863C431.858,514.162 433.7,517.39 430.97,515.109C428.24,512.827 425.824,511.858 425.824,511.858C425.824,511.858 423.8,508.512 422.939,504.465C422.077,500.418 422.049,500.048 422.254,496.809C422.459,493.57 425.233,494.59 422.497,489.247C419.76,483.905 416.162,483.688 418.342,478.055C420.522,472.423 423.008,471.585 423.15,467.043C423.292,462.501 428.933,461.99 431.392,460.953C433.851,459.916 435.143,457.208 435.986,453.558C435.986,453.558 441.573,445.163 440.847,439.442C440.121,433.721 440.618,432.886 438.51,430.374C436.402,427.861 432.069,427.097 431.411,424.851C430.752,422.605 431.784,421.133 431.61,416.926C431.435,412.719 432.744,408.665 432.744,408.665L432.954,400.226C432.954,400.226 434.308,390.544 435.623,388.415C436.939,386.287 437.785,382.839 435.668,381.088C433.551,379.337 428.715,374.951 433.803,368.544C438.892,362.137 437.172,359.567 437.172,359.567C437.172,359.567 440.761,347.013 440.952,345.982C441.143,344.952 444.69,342.478 444.608,337.014C444.526,331.549 445.475,328.798 446.449,325.526C447.423,322.254 450.022,319.086 450.022,319.086C450.022,319.086 464.541,312.468 459.108,308.979C453.675,305.49 452.674,303.818 452.652,301.236C452.63,298.654 452.913,296.692 452.913,296.692L455.948,295.177L459.568,294.883C459.568,294.883 458.052,291.904 459.75,289.581C461.448,287.258 465.739,284.866 468.895,284.687C472.052,284.507 480.916,285.831 485.986,282.245C491.055,278.66 492.284,281.656 492.284,281.656L495.303,286.44L497.117,289.964L498.157,294.65L500.921,294.344L506.577,295.433L506.499,297.692L508.091,301.468C512.666,309.964 512.213,325.373 512.213,325.373C513.405,331.961 516.47,362.86 516.432,372.527C516.394,382.195 521.519,384.42 521.519,384.42C521.285,386.364 522.282,386.808 523.982,394.739C525.683,402.67 518.355,413.739 517.99,420.784C517.624,427.829 514.25,436.99 514.25,436.99L515.404,443.575L514.077,452.91L518.785,466.042C518.785,466.042 520.694,476.317 521.538,479.039C522.382,481.761 525.126,489.835 530.922,498.36C536.718,506.885 529.001,508.532 527.02,510.942C525.039,513.352 526.836,519.39 526.836,519.39C526.836,519.39 530.329,528.954 531.321,529.976C532.313,530.998 528.344,541.062 528.344,541.062L528.101,545.385L529.136,563.029C529.136,563.029 532.839,567.977 533.823,572.273C534.807,576.569 534.51,583.288 538.988,588.846C543.467,594.405 536.32,612.139 536.32,612.139L525.822,622.302C525.822,622.302 519.748,623.472 512.469,623.101C505.19,622.73 493.241,625.205 488.349,628.003C483.458,630.802 473.89,634.14 469.651,633.748C465.412,633.357 459.132,631.391 457.137,632.309C455.378,633.119 451.338,633.612 450.404,633.718Z" style="fill:rgb(74,173,89);stroke:white;stroke-width:0.75px;"/>
    </g>
</svg>
