<?xml version="1.0" encoding="UTF-8" standalone="no"?>
<!DOCTYPE svg PUBLIC "-//W3C//DTD SVG 1.1//EN" "http://www.w3.org/Graphics/SVG/1.1/DTD/svg11.dtd">
<svg width="100%" height="100%" viewBox="0 0 261 319" version="1.1" xmlns="http://www.w3.org/2000/svg" xmlns:xlink="http://www.w3.org/1999/xlink" xml:space="preserve" style="fill-rule:evenodd;clip-rule:evenodd;stroke-linecap:round;stroke-linejoin:round;stroke-miterlimit:1.5;">
    <g id="magnkende" transform="matrix(1,0,0,1,-597.386,-480.975)">
        <path d="M700.731,481.35C707.879,488.505 713.165,502.111 709.063,507.506C703.57,514.729 704.537,518.299 704.639,518.806C704.639,518.806 701.72,522.436 702.883,526.876C704.045,531.316 705.251,536.708 705.436,540.268L706.446,542.181L706.728,545.11L709.167,545.908L710.346,547.117L714.105,547.396C714.105,547.396 717.305,549.524 719.959,550.036C722.614,550.547 727.048,553.537 727.048,553.537C727.048,553.537 726.876,555.057 731.875,552.239C731.875,552.239 736.481,551.634 737.481,553.094C738.48,554.555 740.614,554.379 740.614,554.379C740.614,554.379 771.667,561.216 783.94,563.497L785.323,564.181C785.323,564.181 782.836,563.828 783.75,567.738C783.75,567.738 780.491,574.425 783.877,576.856L784.786,580.231C784.786,580.231 791.516,586.055 791.961,592.766C791.961,592.766 789.058,598.36 793.008,600.464L793.53,601.686C793.53,601.686 790.527,601.078 788.106,605.167C785.686,609.256 782.639,611.644 778.945,613.667C775.25,615.69 776.257,619.295 776.214,621.212C776.171,623.13 776.966,638.059 777.133,639.314C777.3,640.57 777.735,644.882 777.692,646.77C777.649,648.657 777.828,648.66 777.828,648.66C777.828,648.66 787.543,653.533 789.846,656.753C792.15,659.972 799.811,663.396 800.602,663.837C800.602,663.837 806.671,673.115 812.869,675.483C812.869,675.483 821.467,677.969 826.535,683.6C831.604,689.231 834.205,691.371 834.205,691.371L834.34,702.03C834.34,702.03 838.921,708.149 839.387,714.783C839.854,721.417 840.148,723.593 841.482,727.571C842.816,731.55 840.225,739.462 840.225,740.987C840.225,742.513 842.945,750.662 845.236,753.639L845.982,756.576C845.982,756.576 849.889,764.412 851.978,770.575C854.067,776.737 857.253,778.455 857.253,778.455C857.253,778.455 858.619,784.809 857.631,787.501C856.642,790.194 854.372,794.21 854.372,794.21L853.989,799.599C853.989,799.599 850.755,796.881 849.089,793.303C847.423,789.724 844.761,787.792 844.761,787.792L843.45,784.985C843.45,784.985 840.564,783.731 839.29,783.347C838.015,782.962 836.375,780.321 836.375,780.321L833.078,777.885L832.605,775.849L829.271,775.745C829.271,775.745 825.973,773.785 825.897,773.182C825.822,772.579 824.904,770.949 823.303,772.395C821.703,773.841 819.546,770.424 819.546,770.424C819.546,770.424 819.381,768.415 818.478,766.309C817.576,764.203 817.592,763.237 814.29,762.794C810.988,762.351 809.271,760.459 809.271,760.459L807.384,759.711L806.928,758.132L807.04,756.152L803.23,756.312L803.23,754.702L804.981,753.164L804.981,752.085C804.981,752.085 804.457,751.585 803.998,750.475C803.538,749.365 804.509,749.285 805.046,747.466C805.583,745.647 804.915,743.423 804.915,743.423C804.915,743.423 809.721,739.753 809.154,738.432C808.587,737.11 806.482,734.441 806.482,734.441L806.18,731.476L804.391,729.546L803.865,725.207L802.894,723.963C802.894,723.963 802.262,721.001 800.073,720.209C797.884,719.416 798.095,716.963 798.095,716.963C798.095,716.963 797.256,715.282 795.046,716.956C792.837,718.629 792.717,719.194 792.717,719.194L787.721,722.106C787.721,722.106 785.057,721.519 783.635,719.318C782.213,717.117 781.169,716.589 779.373,716.277C777.577,715.965 775.997,713.377 775.856,711.993C775.856,711.993 768.471,711.669 767.008,710.592C765.545,709.516 760.397,705.065 760.397,705.065L760.171,705.967C760.171,705.967 757.28,706.747 756.533,705.884C755.785,705.021 753.041,704.21 750.914,705.625L748.887,705.444L747.165,703.354C747.165,703.354 743.113,709.187 740.37,708.7C737.628,708.212 736.141,708.492 736.141,708.492L733.524,706.401L730.989,705.5C730.989,705.5 729.718,705.612 728.995,702.148C728.272,698.684 725.829,697.999 725.829,697.999L722.285,694.218L718.689,693.152L717.092,693.152L713.841,692.118C713.841,692.118 708.725,686.618 708.148,684.989C707.571,683.359 707.369,681.845 706.967,679.075C706.565,676.306 705.697,675.598 704.334,674.146C702.972,672.695 703.687,671.371 702.738,669.846C701.79,668.322 698.74,666.204 695.732,666.217C692.724,666.231 689.941,666.632 686.678,664.751C683.415,662.87 681.354,662.638 678.354,663.866C675.354,665.094 671.736,664.336 668.321,662.987C664.906,661.638 664.168,662.234 661.52,662.318C658.873,662.402 658.691,660.904 656.249,659.653C655.076,659.052 653.828,659.05 652.847,659.21L652.774,656.713L654.782,651.674L658.655,650.133L661.595,645.246L657.752,641.035C657.752,641.035 653.485,636.287 652.674,634.061C651.862,631.834 642.236,623.854 642.236,623.854L645.071,620.073L643.277,617.58C643.277,617.58 646.741,615.392 647.765,613.704C648.789,612.016 653.648,607.828 655.795,607.761C657.941,607.694 656.461,600.093 656.558,597.89C656.656,595.686 657.475,592.691 657.475,592.691L653.249,590.299C653.249,590.299 653.103,588.722 654.123,585.033C655.142,581.345 650.302,578.849 650.302,578.849C650.302,578.849 645.822,581.777 642.566,577.853C639.309,573.928 636.953,569.982 636.953,569.982C636.953,569.982 632.274,567.902 631.17,564.938C630.065,561.973 630.016,561.973 630.016,561.973C630.016,561.973 624.651,566.545 623.813,560.091C622.975,553.638 622.534,550.488 618.434,549.838C614.333,549.187 612.112,550.118 609.561,547.846C607.73,546.214 601.263,543.131 597.761,541.522L601.972,534.451C601.972,534.451 605.358,534.204 605.469,530.063C605.469,530.063 609.198,524.562 610.483,523.373C611.768,522.184 612.587,521.624 611.774,519.868C610.961,518.112 610.724,508.081 611.454,506.827C612.185,505.572 624.704,496.256 626.901,494.423C629.098,492.59 638.377,488.848 639.552,488.525C640.492,488.267 643.077,486.548 642.917,484.17C642.917,484.17 669.345,496.414 669.345,496.414L701.858,482.548C701.489,482.132 701.113,481.732 700.731,481.35ZM642.894,483.945L642.895,483.95L642.893,483.94L642.894,483.945ZM642.876,483.831L642.876,483.831L642.876,483.829L642.876,483.831ZM642.854,483.716L642.855,483.723L642.853,483.712L642.854,483.716ZM642.827,483.6L642.829,483.606L642.825,483.59L642.827,483.6Z" style="fill:rgb(215,88,132);stroke:white;stroke-width:0.75px;"/>
    </g>
</svg>
