<?xml version="1.0" encoding="UTF-8" standalone="no"?>
<!DOCTYPE svg PUBLIC "-//W3C//DTD SVG 1.1//EN" "http://www.w3.org/Graphics/SVG/1.1/DTD/svg11.dtd">
<svg width="100%" height="100%" viewBox="0 0 87 130" version="1.1" xmlns="http://www.w3.org/2000/svg" xmlns:xlink="http://www.w3.org/1999/xlink" xml:space="preserve" style="fill-rule:evenodd;clip-rule:evenodd;stroke-linecap:round;stroke-linejoin:round;stroke-miterlimit:1.5;">
    <g id="rano" transform="matrix(1,0,0,1,-628.394,-848.678)">
        <path d="M670.898,849.053C673.725,849.867 676.412,851.017 677.195,852.558C677.955,854.052 683.162,853.477 683.162,853.477C683.162,853.477 683.149,858.819 688.555,853.871C692.092,850.634 699.734,853.401 701.68,855.07C703.627,856.739 703.437,865.284 704.277,866.688C705.116,868.092 706.133,872.302 706.332,874.645C706.532,876.987 708.077,877.995 708.701,878.199C709.325,878.403 705.988,883.891 705.661,886.625C705.335,889.36 707.987,889.481 707.987,889.481C707.987,889.481 714.804,896.635 714.804,899.118C714.804,901.601 715.467,902.919 713.485,904.749C711.504,906.578 711.074,908.448 710.75,911.736C710.426,915.023 704.86,915.123 702.42,917.358C699.979,919.592 699.419,922.908 699.237,926.505C699.055,930.101 699.536,931.133 699.536,931.133L698.422,933.291L698.422,936.005C698.422,936.005 702.126,937.792 701.773,944.843C701.42,951.894 701.568,953.852 697.608,956.785C693.648,959.717 696.003,959.844 692.418,959.565C688.832,959.286 688.823,960.534 688.15,961.769C687.478,963.004 683.676,962.03 682.254,961.638C680.831,961.247 679.424,961.726 675.816,964.7C672.208,967.675 670.924,967.554 667.971,967.067C665.019,966.581 666.063,967.797 664.609,968.426C663.155,969.055 662.816,968.212 660.786,969.01C658.757,969.808 654.769,973.166 651.886,973.41C649.004,973.655 649.201,973.251 646.785,974.398C644.369,975.545 642.724,976.979 642.724,976.979L641.273,977.228C641.192,977.017 640.848,976.798 639.584,977.14C637.571,977.684 632.626,978.159 630.1,977.076C627.574,975.993 629.132,972.527 630.757,972.368C632.382,972.208 635.496,968.202 635.496,968.202C634.98,964.873 636.936,964.42 636.936,964.42C642.301,958.267 640.801,949.466 640.186,947.445C639.572,945.423 639.046,944.311 640.683,942.599C642.32,940.888 640.838,935.787 640.838,935.787L638.253,934.545L637.38,932.589L638.911,930.819L639.422,927.726L637.74,926.556L637.74,922.998L634.291,920.267L632.619,917.697C623.429,912.245 633.601,905.707 633.601,905.707L633.78,902.636C629.601,899.363 632.96,897.085 632.96,897.085L632.713,895.235C632.713,889.972 635.565,887.201 635.565,887.201C631.7,882.987 636.023,878.087 636.052,878.054L639.119,878.054L640.878,877.444L642.764,877.328L643.713,871.964L649.643,868.383L650.475,865.814L654.598,863.596L655.844,861.25L657.934,857.933C657.934,857.933 663.466,858.426 664.755,855.618C665.845,853.246 667.839,850.074 670.898,849.053Z" style="fill:rgb(173,74,74);stroke:white;stroke-width:0.75px;"/>
    </g>
</svg>
