<?xml version="1.0" encoding="UTF-8" standalone="no"?>
<!DOCTYPE svg PUBLIC "-//W3C//DTD SVG 1.1//EN" "http://www.w3.org/Graphics/SVG/1.1/DTD/svg11.dtd">
<svg width="100%" height="100%" viewBox="0 0 119 102" version="1.1" xmlns="http://www.w3.org/2000/svg" xmlns:xlink="http://www.w3.org/1999/xlink" xml:space="preserve" style="fill-rule:evenodd;clip-rule:evenodd;stroke-linecap:round;stroke-linejoin:round;stroke-miterlimit:1.5;">
    <g id="rantetayo" transform="matrix(1,0,0,1,-705.269,-616.741)">
        <path d="M718.953,637.955L720.96,638.374L723.354,640.605C723.354,640.605 730.159,645.151 736.419,643.124L736.538,642.238L740.901,642.281L741.938,641.358L745.638,641.581C745.638,641.581 749.71,648.032 755.61,645.647C755.61,645.647 757.55,646.955 759.899,645.308C762.248,643.661 762.417,640.386 762.417,640.386C762.417,640.386 768.106,631.964 773.081,629.504L774.569,627.375L775.369,625.8C775.369,625.8 778.909,623.786 782.925,619.701C786.941,615.616 791.978,617.595 791.978,617.595L797.59,619.751L797.125,623.496L798.554,627.301L799.295,629.785C799.295,629.785 809.542,638.647 811.982,642.97L813.367,644.112L815.775,644.34L815.957,647.685L818.428,648.233L818.518,650.207L818.518,652.24L819.834,653.997L820.647,656.175L822.658,658.293L823.382,658.94L822.04,661.07L816.026,663.493L812.175,665.014L809.755,666.373L807.098,668.092L804.837,674.321C804.837,674.321 791.263,682.548 789.587,684.933C787.911,687.318 779.972,694.487 779.972,694.487L779.486,696.811L768.87,708.109C762.859,709.625 762.374,716.877 762.374,716.877L760.952,717.435C748.578,712.996 743.211,706.223 743.211,706.223C743.211,706.223 739.139,701.209 737.198,698.795C735.256,696.382 725.15,684.997 725.15,684.997C725.15,684.997 723.722,681.114 722.14,678.437C722.14,678.437 722.078,676.724 722.078,676.724L722.456,674.092L721.929,671.204L720.249,671.509L717.064,671.509L716.788,669.612L716.872,664.542L716.242,660.176L717.046,655.422L715.383,652.044L713.709,651.803L712.058,650.99C712.042,650.98 712.03,650.976 712.03,650.976L712.058,650.99C712.181,651.069 712.531,651.569 709.348,654.236C706.012,657.032 706.31,652.358 706.371,651.669C706.342,651.68 706.219,651.337 705.738,649.034C705.037,645.681 708.498,641.839 708.498,641.839L713.865,638.594L718.953,637.955ZM722.054,678.292L722.058,678.3L722.047,678.281L722.054,678.292ZM721.967,678.15L721.973,678.159L721.954,678.129L721.967,678.15ZM721.88,678.01L721.885,678.018L721.861,677.981L721.88,678.01ZM721.792,677.873L721.795,677.877L721.792,677.873ZM706.371,651.669C706.375,651.615 706.378,651.586 706.378,651.586C706.378,651.586 706.384,651.664 706.371,651.669Z" style="fill:rgb(173,131,74);stroke:white;stroke-width:0.75px;"/>
    </g>
</svg>
