<?xml version="1.0" encoding="UTF-8" standalone="no"?>
<!DOCTYPE svg PUBLIC "-//W3C//DTD SVG 1.1//EN" "http://www.w3.org/Graphics/SVG/1.1/DTD/svg11.dtd">
<svg width="100%" height="100%" viewBox="0 0 125 161" version="1.1" xmlns="http://www.w3.org/2000/svg" xmlns:xlink="http://www.w3.org/1999/xlink" xml:space="preserve" style="fill-rule:evenodd;clip-rule:evenodd;stroke-linecap:round;stroke-linejoin:round;stroke-miterlimit:1.5;">
    <g id="rembon" transform="matrix(1,0,0,1,-636.966,-674.968)">
        <path d="M639.633,772.516C642.421,770.179 646.2,766.871 647.883,764.764C650.716,761.22 662.148,761.087 662.148,761.087L664.552,755.572L674.65,755.572C674.65,755.572 681.629,743.842 682.429,741.331C683.229,738.82 692.316,738.809 695.386,732.802C695.386,732.802 698.659,731.417 701.042,724.565C703.424,717.712 708.695,717.89 712.57,716.904C716.444,715.918 717.319,715.918 717.319,713.761C717.319,711.605 714.563,704.326 711.632,703.642C708.7,702.958 707.013,698.162 707.013,698.162C707.013,698.162 704.293,693.861 702.059,693.649C699.824,693.438 697.625,688.929 697.625,688.929C697.625,688.929 700.978,684.845 703.107,684.481C705.235,684.117 708.598,681.034 709.659,678.045C710.719,675.056 718.73,674.541 720.748,676.529C722.767,678.517 725.15,684.997 725.15,684.997C725.15,684.997 735.256,696.382 737.198,698.795C739.139,701.209 743.211,706.223 743.211,706.223C743.211,706.223 748.622,713.052 761.106,717.49C761.106,717.49 759.519,720.805 756.411,721.665C753.303,722.525 753.136,723.219 753.136,723.219L752.656,726.274L752.573,728.377L752.108,730.603L747.158,732.989L748.003,735.983L746.922,739.607L745.256,742.653L745.642,743.634C745.009,743.868 744.351,744.484 744.382,746.036C744.44,748.998 743.1,753.887 743.1,753.887L738.616,755.712C738.616,755.712 735.422,758.302 734.115,759.168C732.808,760.035 729.911,759.912 729.911,759.912C726.972,762.745 726.192,764.091 725.669,771.777C725.145,779.463 719.971,779.601 720.088,783.056C720.205,786.511 718.118,788.556 714.735,793.246C711.352,797.937 710.167,802.761 710.167,802.761L705.152,808.345C705.152,808.345 704.182,809.688 705.7,813.509C707.218,817.33 702.928,819.272 702.928,819.272C700.627,828.113 685.715,831.962 685.715,831.962L681.553,835.012L679.804,835.481C679.794,835.377 679.78,835.282 679.761,835.197C679.209,832.763 671.178,828.125 670.48,825.81C669.783,823.494 670.795,813.891 670.795,813.891C672.093,812.63 671.692,808.085 671.269,806.612C670.845,805.14 666.261,805.584 666.261,805.584C664.976,802.991 659.404,801.475 659.404,801.475C648.92,804.61 648.371,790.604 648.371,790.604C643.609,790.784 640.503,784.84 640.503,784.84C633.891,779.752 639.702,772.665 639.702,772.665C639.702,772.665 639.676,772.621 639.633,772.516Z" style="fill:rgb(184,142,134);stroke:white;stroke-width:0.75px;"/>
    </g>
</svg>
