<?xml version="1.0" encoding="UTF-8" standalone="no"?>
<!DOCTYPE svg PUBLIC "-//W3C//DTD SVG 1.1//EN" "http://www.w3.org/Graphics/SVG/1.1/DTD/svg11.dtd">
<svg width="100%" height="100%" viewBox="0 0 95 128" version="1.1" xmlns="http://www.w3.org/2000/svg" xmlns:xlink="http://www.w3.org/1999/xlink" xml:space="preserve" style="fill-rule:evenodd;clip-rule:evenodd;stroke-linecap:round;stroke-linejoin:round;stroke-miterlimit:1.5;">
    <g id="saluputti" transform="matrix(1,0,0,1,-441.618,-300.799)">
        <path d="M527.65,358.486L522.283,361.731C522.283,361.731 521.789,362.28 521.212,363.144L521.202,363.159C521.202,363.159 521.116,363.289 521.116,363.289C521.116,363.289 521.081,363.343 521.081,363.343L521.067,363.365C520.793,363.791 520.509,364.28 520.256,364.81L520.255,364.811L520.255,364.811C520.142,365.048 520.035,365.293 519.938,365.544L519.936,365.549L519.934,365.553C519.84,365.797 519.755,366.046 519.684,366.299L519.682,366.305L519.68,366.311L519.659,366.387L519.638,366.466C519.638,366.466 519.627,366.508 519.627,366.508C519.627,366.508 519.618,366.544 519.618,366.544L519.604,366.601C519.604,366.601 519.593,366.648 519.593,366.648C519.593,366.648 519.581,366.701 519.581,366.701L519.572,366.743C519.572,366.743 519.563,366.786 519.563,366.786C519.563,366.786 519.547,366.858 519.547,366.858C519.41,367.544 519.38,368.245 519.523,368.926C520.004,371.229 520.126,371.572 520.156,371.561C520.095,372.25 519.797,376.924 523.133,374.128C526.315,371.461 525.966,370.961 525.843,370.882L525.815,370.868C525.815,370.868 525.827,370.872 525.843,370.882L527.494,371.695L529.168,371.936L530.831,375.314L530.027,380.068L530.657,384.434L530.572,389.504L530.849,391.401L534.034,391.401L535.713,391.096L536.24,393.984L535.862,396.616L535.554,397.73C535.489,397.63 535.424,397.532 535.359,397.438L535.315,397.374L535.31,397.367L535.302,397.356L535.268,397.308L535.227,397.251L535.217,397.237L535.205,397.22L535.175,397.18L535.14,397.131L535.124,397.111L535.108,397.09L535.083,397.057L535.052,397.016L535.031,396.989L535.012,396.964L534.991,396.938L534.965,396.905L534.938,396.872L534.915,396.844L534.898,396.823L534.878,396.799L534.845,396.76L534.819,396.729L534.806,396.715L534.792,396.697L534.751,396.652L534.658,396.55L534.654,396.545L534.715,396.611L534.705,396.6L534.657,396.548C534.616,396.504 534.575,396.462 534.533,396.421C532.515,394.433 524.504,394.948 523.443,397.937C522.383,400.926 519.02,404.009 516.891,404.373C514.825,404.726 511.604,408.587 511.418,408.811L503.852,413.573L499.898,412.314L494.961,412.884L490.823,412.617L488.71,410.317L483.047,416.703L481.122,421.989L473.336,422.473L468.6,427.985L467.714,427.131L465.345,425.969L461.015,420.565L459.913,417.525L458.492,415.492L456.787,412.201C456.787,412.201 454.517,410.951 452.478,404.783C452.217,403.992 451.862,403.294 451.442,402.679L452.061,399.402L449.141,395.756L449.438,388.342L445.875,384.102C445.875,384.102 446.185,376.749 444.552,372.425C442.919,368.101 444.256,363.847 444.256,363.847L441.993,360.049L445.229,349.598L445.593,345.214C445.593,345.214 445.953,339.267 447.084,332.521C448.06,326.695 451.541,311.202 452.833,301.174C453.925,303.814 456.725,307.568 460.109,315.114C463.542,322.769 476.83,335.759 483.491,339.011C483.491,339.011 485.605,343.465 488.757,338.298L492.541,339.771L495.966,342.099L498.815,342.099L500.401,345.203L505.589,344.676C505.589,344.676 505.991,351.68 516.911,350.572C516.911,350.572 524.718,351.245 526.116,354.476C527.513,357.707 530.062,356.123 530.062,356.123L533.601,357.739L529.407,358.266L527.65,358.486ZM534.624,396.513L534.533,396.421L534.619,396.508L534.624,396.513ZM520.156,371.561C520.16,371.507 520.163,371.478 520.163,371.478C520.163,371.478 520.169,371.556 520.156,371.561ZM519.682,366.304L519.682,366.305L519.682,366.305L519.682,366.304ZM519.936,365.548L519.936,365.549L519.936,365.549L519.936,365.548Z" style="fill:rgb(215,196,88);stroke:white;stroke-width:0.75px;"/>
    </g>
</svg>
