<?xml version="1.0" encoding="UTF-8" standalone="no"?>
<!DOCTYPE svg PUBLIC "-//W3C//DTD SVG 1.1//EN" "http://www.w3.org/Graphics/SVG/1.1/DTD/svg11.dtd">
<svg width="100%" height="100%" viewBox="0 0 79 76" version="1.1" xmlns="http://www.w3.org/2000/svg" xmlns:xlink="http://www.w3.org/1999/xlink" xml:space="preserve" style="fill-rule:evenodd;clip-rule:evenodd;stroke-linecap:round;stroke-linejoin:round;stroke-miterlimit:1.5;">
    <g id="sanggalla" transform="matrix(1,0,0,1,-641.835,-421.736)">
        <path d="M669.288,422.111L670.694,423.566L674.252,423.738L677.903,424.662C677.903,424.662 678.91,430.508 683.157,430.501C683.157,430.501 684.892,434.77 689.404,432.223C693.916,429.676 693.534,430.581 693.534,430.581L698.034,429.854L699.892,427.945L703.655,427.727L704.593,429.451C704.593,429.451 703.131,435.613 704.263,438.451C705.395,441.29 705.659,442.853 705.659,442.853L712.747,443.142L715.068,443.712L719.633,447.855C719.425,448.268 719.23,448.702 719.048,449.148L719.014,449.231L718.98,449.315L718.962,449.36L718.937,449.423C718.9,449.515 718.864,449.608 718.829,449.7L718.798,449.782L718.759,449.886L718.745,449.924L718.724,449.98L718.703,450.039L718.689,450.078L718.651,450.183L718.623,450.261L718.552,450.464L718.599,450.328L718.551,450.464L718.541,450.494L718.524,450.542L718.503,450.606L718.485,450.657L718.454,450.75C718.288,451.245 718.135,451.739 717.997,452.22L717.963,452.338L717.952,452.378L717.942,452.412L717.919,452.493C717.863,452.695 717.809,452.894 717.758,453.089L717.751,453.114L717.74,453.158L717.705,453.291L717.67,453.427L717.66,453.469L717.653,453.494L717.639,453.548C717.404,454.482 717.228,455.309 717.108,455.918L717.099,455.966L717.076,456.084L717.066,456.141C717.021,456.371 716.987,456.561 716.962,456.702L716.957,456.732L716.954,456.748L716.948,456.787L716.936,456.858C716.921,456.943 716.914,456.988 716.914,456.988C716.914,456.988 713.745,459.731 712.997,460.584C712.248,461.437 707.766,465.098 707.766,465.098C701.553,467.158 697.379,474.016 695.566,477.602C697.731,478.566 699.886,480.327 701.858,482.548L669.345,496.414L642.917,484.17C642.877,483.574 642.665,482.937 642.21,482.271L643.304,479.533C643.304,479.533 641.438,476.167 645.07,473.6L644.404,471.966L645.156,465.843L648.131,460.847L648.454,457.223L645.104,453.716C643.759,445.893 652.928,441.519 652.928,441.519L659.837,441.235L660.132,439.965C668.877,439.284 668.606,433.561 668.606,433.561L668.606,429.767L669.53,424.378L669.288,422.111ZM716.929,456.895L716.914,456.988L716.924,456.926L716.929,456.895ZM717.012,456.425L717.003,456.476L717.005,456.464L717.012,456.425ZM717.249,455.233L717.19,455.515L717.223,455.357L717.249,455.233ZM717.425,454.437L717.413,454.489L717.417,454.474L717.425,454.437ZM717.5,454.118L717.483,454.192L717.492,454.151L717.5,454.118ZM717.574,453.814L717.571,453.823L717.573,453.816L717.574,453.814ZM718.065,451.988L718.05,452.038L718.06,452.002L718.065,451.988ZM718.315,451.172L718.269,451.318L718.295,451.236L718.315,451.172ZM718.916,449.476L718.858,449.625L718.905,449.504L718.916,449.476Z" style="fill:rgb(134,141,184);stroke:white;stroke-width:0.75px;"/>
    </g>
</svg>
