<?xml version="1.0" encoding="UTF-8" standalone="no"?>
<!DOCTYPE svg PUBLIC "-//W3C//DTD SVG 1.1//EN" "http://www.w3.org/Graphics/SVG/1.1/DTD/svg11.dtd">
<svg width="100%" height="100%" viewBox="0 0 102 59" version="1.1" xmlns="http://www.w3.org/2000/svg" xmlns:xlink="http://www.w3.org/1999/xlink" xml:space="preserve" style="fill-rule:evenodd;clip-rule:evenodd;stroke-linecap:round;stroke-linejoin:round;stroke-miterlimit:1.5;">
    <g id="sanggallautara" transform="matrix(1,0,0,1,-853.305,-669.616)">
        <path d="M855.201,699.391L857.119,694.637L857.212,684.636L856.176,683.453L855.013,679.821L853.68,676.788L854.531,674.49L855.021,669.991C858.615,670.188 863.079,670.413 864.927,670.421C864.927,670.421 869.8,673.905 878.634,672.642L881.512,672.356C881.512,672.356 882.638,675.595 890.583,671.709L894.454,672.038C894.454,672.038 900.872,679.47 901.607,684.023C902.341,688.576 907.865,696.812 907.865,696.812L908.649,698.308L918.166,698.899C918.166,698.899 927.143,708.628 933.834,701.101C933.834,701.101 945.794,693.834 949.223,693.834L951.13,696.475C951.13,696.475 951.104,704.017 951.586,709.029C951.987,713.201 954.029,720.978 954.702,723.465L954.24,723.245C954.24,723.245 951.696,723.848 948.374,724.964C945.052,726.08 943.664,723.912 943.664,723.912L932.883,724.192C932.883,724.192 924.29,726.745 922.339,727.157C920.388,727.568 917.361,724.169 917.361,724.169C917.361,724.169 913.213,723.634 909.076,724.604C907.776,724.909 906.705,726.258 905.848,727.963L901.283,723.82L898.962,723.25L891.874,722.961C891.874,722.961 891.61,721.398 890.478,718.559C889.346,715.721 890.808,709.559 890.808,709.559L889.87,707.835L886.108,708.053L884.249,709.962L879.749,710.689C879.749,710.689 880.131,709.784 875.619,712.331C871.107,714.878 869.372,710.609 869.372,710.609C865.125,710.616 864.118,704.77 864.118,704.77L860.468,703.846L856.909,703.674L855.503,702.219L855.201,699.391Z" style="fill:rgb(134,184,175);stroke:white;stroke-width:0.75px;"/>
    </g>
</svg>
