<?xml version="1.0" encoding="UTF-8" standalone="no"?>
<!DOCTYPE svg PUBLIC "-//W3C//DTD SVG 1.1//EN" "http://www.w3.org/Graphics/SVG/1.1/DTD/svg11.dtd">
<svg width="100%" height="100%" viewBox="0 0 125 122" version="1.1" xmlns="http://www.w3.org/2000/svg" xmlns:xlink="http://www.w3.org/1999/xlink" xml:space="preserve" style="fill-rule:evenodd;clip-rule:evenodd;stroke-linecap:round;stroke-linejoin:round;stroke-miterlimit:1.5;">
    <g id="batualu" transform="matrix(1,0,0,1,-881.406,-722.87)">
        <path d="M881.781,757.71C883.594,754.124 887.768,747.266 893.981,745.206C893.981,745.206 898.463,741.545 899.212,740.692C899.96,739.839 903.129,737.096 903.129,737.096C903.129,737.096 904.939,725.574 909.076,724.604C913.213,723.634 917.361,724.169 917.361,724.169C917.361,724.169 920.388,727.568 922.339,727.157C924.29,726.745 932.883,724.192 932.883,724.192L943.664,723.912C943.664,723.912 945.052,726.08 948.374,724.964C951.696,723.848 954.24,723.245 954.24,723.245L955.339,723.768C955.339,723.768 953.94,730.341 953.723,733.992C953.507,737.643 953.507,739.294 953.507,739.294L953.507,747.597L953.703,756.052C953.703,756.052 958.838,762.171 958.228,764.081C957.618,765.991 957.372,769.117 959.069,770.189C960.767,771.261 967.167,771.898 968.596,777.809C970.024,783.72 969.264,787.318 969.264,787.318C969.264,787.318 967.053,795.018 988.64,798.73C988.64,798.73 1000.47,799.781 1005.01,803.61L1005.73,808.308C1005.73,808.308 1002.27,813.012 1002.14,818.162C1002.01,823.313 1000.98,829.994 994.9,830.539C988.824,831.083 987.258,830.493 987.258,830.493C987.258,830.493 980.696,832.448 979.804,836.055C979.013,839.254 976.663,842.338 970.767,843.908L970.155,843.605C957.883,841.324 926.829,834.487 926.829,834.487C926.829,834.487 924.695,834.663 923.696,833.202C922.696,831.742 918.09,832.347 918.09,832.347C913.091,835.165 913.263,833.645 913.263,833.645C913.263,833.645 908.829,830.655 906.174,830.144C903.52,829.632 900.32,827.504 900.32,827.504L896.561,827.225L895.382,826.016L892.943,825.218L892.661,822.289L891.652,820.376C891.466,816.816 890.26,811.424 889.098,806.984C887.935,802.544 890.854,798.914 890.854,798.914C890.752,798.407 889.785,794.837 895.278,787.614C900.329,780.971 891.147,761.879 881.781,757.71Z" style="fill:rgb(215,109,88);stroke:white;stroke-width:0.75px;"/>
    </g>
</svg>
