<?xml version="1.0" encoding="UTF-8" standalone="no"?>
<!DOCTYPE svg PUBLIC "-//W3C//DTD SVG 1.1//EN" "http://www.w3.org/Graphics/SVG/1.1/DTD/svg11.dtd">
<svg width="100%" height="100%" viewBox="0 0 229 217" version="1.1" xmlns="http://www.w3.org/2000/svg" xmlns:xlink="http://www.w3.org/1999/xlink" xml:space="preserve" style="fill-rule:evenodd;clip-rule:evenodd;stroke-linecap:round;stroke-linejoin:round;stroke-miterlimit:1.5;">
    <g id="simbuang" transform="matrix(1,0,0,1,-333.478,-761.607)">
        <path d="M335.442,847.212L341.037,841.064C341.037,841.064 348.205,840.932 357.709,835.296C367.212,829.66 371.361,827.79 371.361,827.79C371.361,827.79 369.458,823.751 374.935,818.401C380.412,813.051 383.164,803.756 383.164,803.756C383.164,803.756 386.272,798.301 389.017,797.823C389.017,797.823 391.486,791.561 394.483,790.56L396.102,787.64C396.102,787.64 406.506,787.122 408.259,787.21C410.012,787.297 416.689,784.758 424.595,781.196C432.5,777.634 428.844,774.253 439.101,775.675C449.358,777.097 447.562,780.558 456.869,774.545C462.524,770.891 462.37,768.776 462.37,768.776L466.933,769.791C466.933,769.791 474.814,779.297 485.329,764.238C488.184,760.15 490.174,762.635 492.1,763.82C494.025,765.005 497.767,768.176 499.711,767.858C499.711,767.858 503.761,773.337 513.517,770.809C513.517,770.809 514.258,774.386 523.718,773.789L526.009,775.145L523.976,778.29C523.976,778.29 527.883,781.016 527.72,782.094C527.72,782.094 524.228,785.246 526.639,787.9L527.722,790.644L529.352,791.641L528.721,796.063C528.721,796.063 534.708,799.137 534.295,800.896L534.614,803.328L533.462,804.456L535.108,806.277L534.582,810.562L533.277,812.575L536.296,817.134L536.565,823.309L538.013,824.619L537.615,831.036L538.507,832.262L538.294,835.19L535.871,836.88L538.443,839.132L539.264,844.802L542.993,846.356L544.634,849.756L545.347,854.131L545.949,856.63L548.793,859.416C548.793,859.416 552.467,863.561 549.848,868.064C549.848,868.064 552.781,870.903 552.861,871.714C552.94,872.525 549.677,874.508 549.677,874.508L549.982,879.738L553.556,879.791L554.253,881.536L554.744,887.634L555.855,890.045L561.597,890.217C561.597,890.217 562.439,890.762 561.455,893.16C560.471,895.558 558.919,895.395 558.919,895.395L556.172,895.083C556.172,895.083 554.764,898.438 548.752,898.809C548.752,898.809 542.838,901.239 541.589,918.393C540.855,928.464 544.292,928.953 544.292,928.953L544.404,931.067L539.661,932.582L533.859,933.271C533.859,933.271 531.11,933.585 531.797,938.89C531.797,938.89 533.117,960.171 532.172,963.954C531.227,967.737 528.828,971.658 528.828,971.658L525.567,971.292L523.111,970.505L521.411,972.452L518.585,973.091L517.493,972.236L514.221,973.845L512.471,975.494L508.731,977.091L499.722,977.234L497.866,975.702L492.508,975.702L491.257,974.056L486.282,974.341C486.282,974.341 483.884,967.794 478.661,971.246L477.126,972.74L472.429,971.988C472.429,971.988 472.428,976.376 460.6,975.724L458.779,975.055C458.779,975.055 453.391,979.855 449.478,976.672C445.565,973.489 442.845,974.194 442.845,974.194C442.845,974.194 438.171,971.391 438.821,966.098L435.03,960.396L431.883,960.396L430.831,958.002C431.599,957.869 432.387,957.474 432.716,956.48C433.451,954.262 432.623,940.861 432.623,940.861L434.729,940.035L434.079,938.711C428.783,937.662 420.937,929.734 420.937,929.734L420.937,926.72L418.472,925.753L412.808,925.425L410.993,923.061L406.839,921.284L403.572,923.989L401.357,920.562L398.328,918.935L396.739,917.518L395.774,911.031C381.346,905.755 384.281,890.195 384.281,890.195C384.281,890.195 377.833,883.899 375.645,883.948C373.456,883.996 369.242,883.134 369.242,883.134L368.238,881.964L364.452,881.299L364.307,879.81L360.031,876.505C356.062,875.924 356.384,871.165 356.384,871.165C344.755,872.634 347.447,856.449 347.122,854.906C346.797,853.363 341.284,850.764 341.284,850.764C341.284,850.764 333.96,852.082 333.854,850.182C333.82,849.566 334.503,848.445 335.442,847.212Z" style="fill:rgb(230,75,75);stroke:white;stroke-width:0.75px;"/>
    </g>
</svg>
