<?xml version="1.0" encoding="UTF-8" standalone="no"?>
<!DOCTYPE svg PUBLIC "-//W3C//DTD SVG 1.1//EN" "http://www.w3.org/Graphics/SVG/1.1/DTD/svg11.dtd">
<svg width="100%" height="100%" viewBox="0 0 211 269" version="1.1" xmlns="http://www.w3.org/2000/svg" xmlns:xlink="http://www.w3.org/1999/xlink" xml:space="preserve" style="fill-rule:evenodd;clip-rule:evenodd;stroke-linecap:round;stroke-linejoin:round;stroke-miterlimit:1.5;">
    <g id="angoraja" transform="matrix(1,0,0,1,-179.792,-296.227)">
        <path d="M180.736,337.928L180.709,337.752L184.069,339.567L193.299,342.529L200.088,339.858L207.408,339.858C207.408,339.858 227.288,331.909 242.028,329.279L245.541,327.916C245.541,327.916 263.568,302.296 297.198,306.359C297.198,306.359 303.67,303.958 306.838,299.303C310.006,294.649 314.379,298.206 315.929,298.47C317.479,298.734 318.841,311.344 332.467,310.393L338.292,311.978L342.381,309.033L345.214,309.674L349.841,308.127L352.845,313.627C352.845,313.627 358.354,321.748 375.285,320.183L383.494,328.349L383.12,336.534L381.26,339.428L384.28,341.284L382.954,345.066L385.581,345.176L385.465,350.212L384.14,355.29L387.085,357.83L386.982,360.906C386.982,360.906 380.228,376.821 377.553,378.818L377.658,382.518C377.658,382.518 370.521,387.861 370.92,394.389L375.294,394.682L382.197,400.185L379.108,412.278L376.436,414.201L373.9,410.253L370.158,419.414L369.906,423.902C369.906,423.902 363.356,433.558 367.674,443.34L367.956,444.857L374.137,451.849L373.747,455.683L374.156,459.151L375.731,462.086L377.206,467.23L381.112,471.387L389.828,485.868L388.233,499.287C385.121,497.584 382.076,497.599 382.076,497.599C372.91,502.375 366.956,499.766 366.956,499.766C358.218,492.679 353.309,494.922 353.309,494.922C351.581,496.844 346.432,496.479 346.432,496.479C338.968,505.926 323.804,516.26 323.804,516.26L325.361,519.409L325.924,525.572L327.622,527.685C332.08,531.327 324.573,533.311 324.573,533.311C327.181,540.36 317.648,542.366 318.933,544.734C320.218,547.102 318.458,553.346 318.458,553.346C321.533,555.818 317.115,558.282 317.115,558.282L318.194,558.938L318.45,563.852C318.45,563.852 318.45,564.097 314.809,564.103C311.168,564.109 298.558,564.743 291.423,561.217C284.287,557.692 268.73,557.189 268.73,557.189L260.558,555.469L257.898,551.941C258.171,545.401 259.963,545.339 258.717,511.183C257.472,477.027 246.352,472.719 243.746,473.161C241.141,473.603 231.713,461.526 230.435,463.203C229.157,464.881 222.506,463.356 226.874,460.101C233.757,454.973 227.382,451.316 227.382,451.316L227.706,447.578L226.899,443.604L227.19,441.686L229.015,439.524L226.834,436.597L223.655,430.892C219.513,431.282 213.708,428.775 213.708,428.775C213.708,428.775 202.452,414.439 200.302,414.946C198.153,415.453 192.335,413.462 192.335,413.462L188.879,410.358C188.879,410.358 190.025,409.727 188.406,404.014C186.788,398.301 182.3,392.477 182.3,392.477C182.3,392.477 187.011,382.466 187.273,380.243C187.535,378.02 184.202,373.155 184.202,373.155L184.076,369.14C184.076,369.14 185.443,367.783 188.456,363.795C191.47,359.808 186.84,354.28 186.84,354.28L186.926,347.346L182.544,344.475L183.332,339.506L180.486,338.07L180.736,337.928Z" style="fill:rgb(109,236,242);stroke:white;stroke-width:1.39px;"/>
    </g>
</svg>
