<?xml version="1.0" encoding="UTF-8" standalone="no"?>
<!DOCTYPE svg PUBLIC "-//W3C//DTD SVG 1.1//EN" "http://www.w3.org/Graphics/SVG/1.1/DTD/svg11.dtd">
<svg width="100%" height="100%" viewBox="0 0 371 294" version="1.1" xmlns="http://www.w3.org/2000/svg" xmlns:xlink="http://www.w3.org/1999/xlink" xml:space="preserve" style="fill-rule:evenodd;clip-rule:evenodd;stroke-linecap:round;stroke-linejoin:round;stroke-miterlimit:1.5;">
    <g id="baraka" transform="matrix(1,0,0,1,-251.798,-198.375)">
        <path d="M262.082,370.937C263.456,361.546 267.437,360.696 269.219,359.599C271.19,358.386 274.597,356.946 274.597,354.116C274.597,351.287 276.999,348.096 276.999,348.096C281.159,345.51 284.626,339.445 284.626,339.445C284.626,339.445 284.279,337.38 285.101,333.222C285.923,329.065 285.663,331.241 284.168,324.263C282.673,317.285 261.206,312.331 261.206,312.331L260.83,311.879L263.769,300.376L256.866,294.873L252.492,294.58L255.33,294.77C256.888,293.619 258.769,292.669 260.465,293.008C264.243,293.763 265.729,292.939 265.729,292.939C265.729,292.939 268.383,285.685 273.154,287.455C273.154,287.455 271.117,269.007 278.56,270.696C278.56,270.696 296.505,290.361 312.777,264.055C323.251,247.124 329.245,252.216 329.245,252.216C329.245,252.216 330.993,245.453 330.68,242.778C330.368,240.103 334.104,240.523 334.104,240.523C334.104,240.523 349.885,244.24 353.139,236.674L355.435,234.336C355.435,234.336 366.702,235.78 371.379,227.106C376.056,218.432 380.41,225.151 384.156,214.544L386.013,211.245C386.013,211.245 389.356,202.092 395.665,199.337C395.858,199.253 396.05,199.165 396.24,199.072L396.174,199.069L396.249,199.072C396.98,199.111 402.887,199.536 404.975,203.346C407.202,207.41 411.24,209.976 413.543,210.654C415.846,211.331 415.673,217.397 415.673,217.397L418.315,220.038C418.315,220.038 421.874,221.955 423.027,222.134C424.181,222.314 433.127,222.46 435.088,223.967C437.05,225.474 439.605,225.197 439.605,225.197C439.605,225.197 445.465,231.283 448.806,231.126C448.806,231.126 452.544,236.655 459.232,230.276C459.232,230.276 464.407,230.412 466.62,231.993C468.833,233.574 477.676,232.81 483.698,237.116C489.72,241.422 494.727,239.351 499.13,237.465C503.533,235.579 512.921,235.505 512.921,235.505C512.921,235.505 515.749,231.866 518.916,234.955C522.082,238.043 525.948,237.751 532.347,233.913C532.347,233.913 538.28,235.526 539.396,237.63C539.396,237.63 542.639,238.89 544.38,239.269C546.122,239.649 550.693,241.151 554.609,245.262C554.609,245.262 558.774,247.768 569.19,246.233C569.19,246.233 576.692,246.994 578.508,249.657C579.672,251.364 590.139,253.075 597.501,254.082C597.421,255.151 597.559,255.873 597.945,256.103C600.747,257.775 608.058,267.373 608.579,274.302C609.101,281.231 621.271,294.341 621.271,294.341L621.756,294.51L620.649,296.757C620.649,296.757 608.916,305.561 605.822,314.111L605.794,314.192L584.483,308.157L561.518,301.573L550.666,302.401C550.666,302.401 548.384,300.429 542.261,299.408C536.137,298.386 457.003,300.747 446.138,302.328C435.273,303.909 406.305,319.939 406.305,319.939L399.845,321.624C397.983,329.511 385.249,332.922 385.249,332.922C385.249,332.922 369.826,332.51 358.703,334.285C347.579,336.059 352.747,357.514 352.747,357.514C352.747,357.514 360.206,362.155 361.436,366.794C362.667,371.433 360.388,381.489 358.999,385.803C357.611,390.117 352.402,395.781 356.1,400.892C363.477,411.089 367.502,411.435 369.092,417.834C370.683,424.233 374.237,431.3 378.376,433.667C385.744,437.882 398.583,442.602 399.811,452.205C401.257,463.507 403.693,472.001 405.813,477.741L393.331,477.682L386.526,478.754C380.433,472.737 374.72,480.998 374.72,480.998L369.651,480.856L364.322,486.762L355.448,490.414L355.176,490.932L354.881,490.995L353.435,488.003L347.704,483.82L345.442,477.467L339.698,477.278L334.906,473.701C335.46,468.049 333.678,463.902 331.475,461.032C329.272,458.163 325.458,451.385 326.818,447.282C328.179,443.179 344.194,432.878 339.573,427.424C329.905,416.015 317.281,412.946 308.285,418.907C299.288,424.867 294.049,418.03 294.049,418.03C283.565,420.958 276.697,406.077 272.925,401.919C271.958,400.854 270.878,400.063 269.805,399.477C269.805,399.477 271.4,386.058 271.4,386.058L262.684,371.578L262.082,370.937Z" style="fill:rgb(234,129,199);stroke:white;stroke-width:1.39px;"/>
    </g>
</svg>
