<?xml version="1.0" encoding="UTF-8" standalone="no"?>
<!DOCTYPE svg PUBLIC "-//W3C//DTD SVG 1.1//EN" "http://www.w3.org/Graphics/SVG/1.1/DTD/svg11.dtd">
<svg width="100%" height="100%" viewBox="0 0 342 228" version="1.1" xmlns="http://www.w3.org/2000/svg" xmlns:xlink="http://www.w3.org/1999/xlink" xml:space="preserve" style="fill-rule:evenodd;clip-rule:evenodd;stroke-linecap:round;stroke-linejoin:round;stroke-miterlimit:1.5;">
    <g id="curio" transform="matrix(1,0,0,1,-400.625,-128.831)">
        <path d="M716.328,355.883L716.339,355.891L716.337,355.89L716.328,355.883ZM716.294,355.856L716.306,355.866L716.303,355.864L716.294,355.856ZM716.262,355.827L716.275,355.839L716.271,355.835L716.262,355.827ZM716.233,355.795L716.245,355.809L716.24,355.804L716.233,355.795ZM716.204,355.762L716.216,355.777L716.21,355.769L716.204,355.762ZM716.177,355.726L716.189,355.741L716.182,355.732L716.177,355.726ZM716.152,355.687L716.162,355.703L716.155,355.693L716.152,355.687ZM716.128,355.647L716.137,355.662L716.13,355.65L716.128,355.647ZM716.105,355.603L716.111,355.616L716.106,355.605L716.105,355.603ZM716.057,355.496L716.062,355.509L716.062,355.507L716.057,355.496ZM716.037,355.441L716.043,355.458L716.042,355.454L716.037,355.441ZM716.02,355.385L716.025,355.404L716.023,355.399L716.02,355.385ZM716.003,355.329L716.009,355.348L716.006,355.34L716.003,355.329ZM715.988,355.27L715.993,355.29L715.991,355.28L715.988,355.27ZM715.975,355.209L715.979,355.228L715.976,355.217L715.975,355.209ZM715.951,355.078L715.969,355.18C715.963,355.147 715.957,355.113 715.951,355.078ZM715.934,354.952L715.948,355.056L715.942,355.013L715.934,354.952ZM715.922,354.824L715.931,354.927L715.925,354.865L715.922,354.824ZM715.918,354.774L715.919,354.791L715.919,354.788L715.918,354.774ZM715.91,354.603L715.911,354.633L715.91,354.626L715.91,354.603ZM715.907,354.433L715.907,354.466L715.907,354.456L715.907,354.433ZM715.91,354.259L715.909,354.288L715.909,354.276L715.91,354.259ZM715.917,354.079L715.916,354.098L715.916,354.088L715.917,354.079ZM470.009,132.89L473.376,132.89L476.577,133.958L478.41,132.211L480.801,134.493L484.689,134.94C489.794,139.748 498.72,133.213 498.72,133.213L502.294,136.234L506.749,133.233L509.614,137.254L511.616,137.254C511.661,137.266 513.825,137.846 515.024,138.739C516.236,139.641 533.258,136.518 532.013,143.657C530.768,150.797 539.019,154.157 539.019,154.157C540.419,179.299 558.524,173.588 561.392,178.927C564.259,184.267 569.976,186.083 569.976,186.083L571.248,191.214C581.438,206.404 591.224,189.314 591.224,189.314L595.352,191.917C596.377,187.767 608.124,191.671 608.124,191.671L610.655,188.589L618.563,198.848L632.777,199.734L634.529,206.225C642.732,204.12 648.922,215.558 648.922,215.558C648.922,215.558 652.863,217.474 653.92,215.308C657.036,208.923 667.296,204.035 665.668,208.466C664.041,212.898 672.243,215.409 672.243,215.409L673.336,226.932L676.574,228.801C676.574,228.801 673.867,229.255 677.605,234.245C681.343,239.234 674.53,246.208 674.53,246.208L676.469,251.617L674.285,254.604L673.068,262.072L678.986,262.843L679.432,266.54C679.432,266.54 689.896,266.919 690.623,272.879C691.351,278.84 700.07,282.618 702.6,285.104C705.323,287.779 710.944,289.806 711.892,290.886C714.989,294.417 714.13,296.968 721.948,301.16C729.766,305.352 742.391,318.115 741.085,321.741C739.779,325.368 740.857,330.316 735.736,329.177C725.51,326.903 716.49,347.048 715.934,353.819L715.929,353.892C708.567,352.884 698.1,351.173 696.936,349.466C695.12,346.804 687.618,346.043 687.618,346.043C677.202,347.578 673.037,345.071 673.037,345.071C669.121,340.96 664.55,339.458 662.808,339.079C661.067,338.7 657.824,337.44 657.824,337.44C656.707,335.336 650.774,333.722 650.774,333.722C644.376,337.561 640.51,337.853 637.343,334.764C634.177,331.676 631.349,335.315 631.349,335.315C631.349,335.315 621.961,335.389 617.558,337.275C613.155,339.161 608.148,341.232 602.126,336.926C596.104,332.62 587.261,333.384 585.048,331.803C582.835,330.222 577.659,330.086 577.659,330.086C570.972,336.465 567.233,330.936 567.233,330.936C563.893,331.093 558.032,325.007 558.032,325.007C558.032,325.007 555.477,325.284 553.516,323.777C551.555,322.269 542.608,322.123 541.455,321.944C540.301,321.764 536.743,319.848 536.743,319.848L534.101,317.207C534.101,317.207 534.273,311.141 531.971,310.463C529.668,309.786 525.63,307.219 523.403,303.155C521.176,299.091 514.602,298.879 514.602,298.879C514.602,298.879 512.121,294.289 507.309,290.192C502.496,286.095 493.249,288.634 493.249,288.634L490.437,286.346L486.75,285.609L483.54,284.248C478.781,285.632 475.613,282.134 475.613,282.134C465.885,276.18 457.081,285.711 457.081,285.711L451.827,283.819C444.857,281.982 438.714,292.004 438.714,292.004L429.959,299.446L427.92,299.919L420.361,292.573C420.268,279.109 417.505,266.946 411.388,264.406C404.848,261.691 400.907,261.849 401.354,257.566C401.801,253.282 406.009,242.846 406.552,237.31C407.095,231.774 406.682,226.371 406.682,226.371C411.181,218.225 409.449,217.252 411.37,204.171C413.292,191.09 408.481,178.708 408.481,178.708L412.23,169.574L412.23,168.956L418.443,161.726L418.443,158.465L421.394,157.003L423.361,161.043L423.421,157.445L424.503,155.58L427.871,156.754L425.926,154.022C425.926,154.022 422.577,152.75 424.934,151.624C431.306,148.579 434.473,157.286 434.473,157.286L435.229,155.322C435.986,153.359 438.581,155.351 438.581,155.351C438.581,155.351 439.585,160.507 440.897,160.061C447.479,157.82 442.636,151.844 442.636,151.844C442.636,151.844 444.862,148.343 446.987,149.488C449.112,150.634 455.851,150.476 455.851,150.476C449.989,142.078 458.326,137.911 458.326,137.911L459.576,132.759L462.473,129.793L463.957,131.899L465.295,129.999L468.638,129.525L470.009,132.89Z" style="fill:rgb(32,197,250);stroke:white;stroke-width:1.39px;"/>
    </g>
</svg>
