<?xml version="1.0" encoding="UTF-8" standalone="no"?>
<!DOCTYPE svg PUBLIC "-//W3C//DTD SVG 1.1//EN" "http://www.w3.org/Graphics/SVG/1.1/DTD/svg11.dtd">
<svg width="100%" height="100%" viewBox="0 0 356 401" version="1.1" xmlns="http://www.w3.org/2000/svg" xmlns:xlink="http://www.w3.org/1999/xlink" xml:space="preserve" style="fill-rule:evenodd;clip-rule:evenodd;stroke-linecap:round;stroke-linejoin:round;stroke-miterlimit:1.5;">
    <g id="enrekang" transform="matrix(1,0,0,1,-118.428,-337.376)">
        <path d="M179.372,671.91C176.829,652.422 172.142,632.944 169.79,631.699C165.916,629.647 156.286,618.781 156.286,618.781L155.466,605.941L150.423,596.109L144.732,581.611L142.453,575.437L143.898,567.673L146.963,560.653L146.413,553.724L144.636,549.166L143.847,544.121L144.087,539.879L145.141,538.356L143.62,533.161L144.508,527.816L145.41,524.991L144.404,519.698L147.689,515.841L147.327,512.677L149.697,510.418C156.538,507.984 151.371,503.986 151.371,503.986L145.121,504.246L136.713,494.374L132.88,494.538L131.847,490.946L130.191,488.584L127.631,487.5L124.364,483.459L124.217,470.538C120.437,464.891 119.122,459.07 119.122,459.07C119.122,459.07 123.02,457.568 128.186,461.847C133.352,466.126 138.944,463.193 134.753,448.414C130.563,433.634 135.225,426.614 135.225,426.614C145.867,429.085 145.899,420.701 145.899,420.701C145.336,424.094 140.493,420.928 140.493,420.928L140.287,407.223C133.126,394.749 137.417,383.382 137.417,383.382C130.366,361.173 139.348,354.684 139.348,354.684C145.801,358.048 168.796,340.957 168.796,340.957L174.329,341.583L180.486,338.07L183.332,339.506L182.544,344.475L186.926,347.346L186.84,354.28C186.84,354.28 191.47,359.808 188.456,363.795C185.443,367.783 184.076,369.14 184.076,369.14L184.202,373.155C184.202,373.155 187.535,378.02 187.273,380.243C187.011,382.466 182.3,392.477 182.3,392.477C182.3,392.477 186.788,398.301 188.406,404.014C190.025,409.727 188.879,410.358 188.879,410.358L192.335,413.462C192.335,413.462 198.153,415.453 200.302,414.946C202.452,414.439 213.708,428.775 213.708,428.775C213.708,428.775 219.513,431.282 223.655,430.892L226.834,436.597L229.015,439.524L227.19,441.686L226.899,443.604L227.706,447.578L227.382,451.316C227.382,451.316 233.757,454.973 226.874,460.101C222.506,463.356 229.157,464.881 230.435,463.203C231.713,461.526 241.141,473.603 243.746,473.161C246.352,472.719 257.472,477.027 258.717,511.183C259.963,545.339 258.171,545.401 257.898,551.941L260.558,555.469L268.73,557.189C268.73,557.189 284.287,557.692 291.423,561.217C298.558,564.743 311.168,564.109 314.809,564.103C318.45,564.097 318.45,563.852 318.45,563.852L318.194,558.938L317.115,558.282C317.115,558.282 321.533,555.818 318.458,553.346C318.458,553.346 320.218,547.102 318.933,544.734C317.648,542.366 327.181,540.36 324.573,533.311C324.573,533.311 332.08,531.327 327.622,527.685L325.924,525.572L325.361,519.409L323.804,516.26C323.804,516.26 338.968,505.926 346.432,496.479C346.432,496.479 351.581,496.844 353.309,494.922C353.309,494.922 358.218,492.679 366.956,499.766C366.956,499.766 372.91,502.375 382.076,497.599C382.076,497.599 387.58,497.572 391.352,501.729C395.125,505.886 401.993,520.767 412.477,517.839C412.477,517.839 417.716,524.677 426.712,518.716C435.709,512.756 448.333,515.825 458.001,527.234C462.622,532.687 446.607,542.988 445.246,547.091C443.886,551.194 447.7,557.972 449.903,560.842C452.105,563.711 453.888,567.859 453.334,573.51L458.126,577.088L463.87,577.277L466.132,583.629L471.863,587.812L473.434,591.064L472.16,593.489C471.643,600.903 456.129,612.373 456.129,612.373L454.692,619.043L450.79,625.194L453.259,627.231L452.405,630.278L454.085,636.533L455.674,640.546L454.339,644.939L457.849,646.187L459.263,646.027L461.625,649.676L460.657,651.903L460.322,654.72L462.879,654.641L465.348,655.008L465.479,663.418L442.171,676.982C442.171,676.982 427.453,677.134 421.455,684.766C415.456,692.398 408.708,699.041 400.045,699.72C391.382,700.399 399.23,719.401 399.23,719.401L396.44,727.336L381.379,735.463L370.277,733.257L356.115,732.483L353.62,722.926L346.917,718.077L334.552,712.962L327.718,721.717L334.462,737.528L330.918,729.22L322.957,729.33L316.745,732.03L310.109,729.532L300.62,728.117L298.353,726.24L292.314,724.082L282.358,717.251C275.119,717.601 276.818,708.002 276.818,708.002L273.521,706.503C264.06,708.935 261.023,701.239 261.023,701.239L259.436,697.072L244.957,688.988L240.056,687.705L228.325,682.667L220.074,685.733L214.701,685.857L209.408,688.479L203.184,684.694C192.668,683.282 188.671,674.294 188.671,674.294L183.224,671.863L179.372,671.91Z" style="fill:rgb(55,178,98);stroke:white;stroke-width:1.39px;"/>
    </g>
</svg>
