<?xml version="1.0" encoding="UTF-8" standalone="no"?>
<!DOCTYPE svg PUBLIC "-//W3C//DTD SVG 1.1//EN" "http://www.w3.org/Graphics/SVG/1.1/DTD/svg11.dtd">
<svg width="100%" height="100%" viewBox="0 0 387 456" version="1.1" xmlns="http://www.w3.org/2000/svg" xmlns:xlink="http://www.w3.org/1999/xlink" xml:space="preserve" style="fill-rule:evenodd;clip-rule:evenodd;stroke-linecap:round;stroke-linejoin:round;stroke-miterlimit:1.5;">
    <g id="maiwa" transform="matrix(1,0,0,1,-278.306,-662.724)">
        <path d="M465.479,663.418L465.494,664.437L468.283,669.471L476.004,677.008C481.807,674.226 479.364,680.877 479.364,680.877L485.234,687.249L485.798,688.978L484.045,690.839L490.805,692.483L494.34,690.752C499.673,697.308 504.062,693.987 504.062,693.987L508.274,692.123C516.704,695.513 520.334,691.972 520.334,691.972C534.641,715.611 589.584,745.064 589.584,745.064C593.586,755.452 620.844,793.575 630.946,798.333C640.795,802.971 657.321,819.077 658.144,819.882L658.061,820.216C658.061,820.216 666.586,829.196 662.52,830.722C658.454,832.249 660.987,831.288 657.017,834.218C653.047,837.147 634.122,831.361 634.122,831.361L620.756,833.732L623.263,838.362C623.263,838.362 627.095,841.735 621.96,842.978C616.825,844.22 617.377,837.599 613.89,838.913C610.404,840.227 602.742,834.204 602.742,834.204L594.493,832.898L585.34,831.852C587.59,844.709 567.79,851.463 567.79,851.463C560.748,864.961 543.944,864.184 543.944,864.184C544.635,868.901 535.318,876.107 535.318,876.107L536.519,884.368C532.502,887.648 536.359,894.697 536.359,894.697L539.541,902.275L546.591,904.614L551.705,908.434C549.655,918.123 560.153,916.315 560.153,916.315C558.23,919.427 556.783,929.495 556.783,929.495L553.025,931.356L551.75,935.404L559.286,934.546L562.86,934.02L563.86,940.587L561.422,944.799L564.155,947.427L562.236,950.755L564.749,956.279L563.182,962.308C570.912,967.559 567.801,980.196 567.801,980.196L567.722,995.228C578.505,1000.14 566.889,1003.69 566.889,1003.69L566.889,1008.44L573.762,1015.59L579.413,1017.45C576.228,1019.51 575.6,1026.02 575.6,1026.02L580.387,1030.93L581.377,1035.79L590.232,1041.7C597.793,1033.03 609.493,1044.52 609.493,1044.52L610.762,1048.82C621.602,1053.95 614.857,1058.71 614.857,1058.71L614.434,1067C614.434,1067 609.505,1066.32 607.873,1066.44C606.241,1066.57 600.802,1073.45 600.802,1073.45L600.528,1078.07C578.731,1076.15 575.167,1091.68 575.167,1091.68C572.358,1090.4 562.317,1080.15 562.317,1080.15C561.731,1082.91 549.462,1095.16 549.462,1095.16L544.642,1102.75C540.892,1106.06 528.834,1093.04 528.834,1093.04C524.272,1098.35 511.121,1103.55 511.121,1103.55C502.487,1115.84 496.979,1117.52 496.979,1117.52C496.979,1117.52 495.063,1116.69 491.665,1110.45C488.267,1104.2 483.661,1105.66 483.661,1105.66L472.702,1104.71C456.007,1117.51 433.666,1096.81 433.666,1096.81L430.349,1096.23L428.345,1093.72L427.93,1089.68L426.293,1088.93C426.293,1088.93 429.449,1085.74 427.301,1084.04C425.153,1082.34 420.623,1082.3 420.623,1082.3L423.111,1075.31L414.765,1067.27L414.236,1060.28L400.98,1051.96L401.074,1038.98L395.406,1037.79L383.83,1026.8L361.699,1019.61C359.653,979.483 342.584,978.183 342.584,978.183L339.92,974.376C327.033,975.052 325.709,964.396 325.709,964.396L324.958,955.758L314.851,945.652L312.187,940.478L301.047,938.723C297.646,932.438 287.095,935.094 283.076,934.622C281.657,934.455 280.413,932.011 279,929.093L286.963,928.047L295.675,924.975L303.979,925.106C303.979,925.106 305.875,921.062 304.569,919.091C303.264,917.121 303.819,913.979 303.819,913.979L312.891,914.928L316.564,917.989L322.08,915.421L323.95,913.517L330.609,909.637L328.922,903.018L328.922,899.199L326.858,893.661L326.454,885.618L322.362,874.961L324.953,870.332L326.392,859.304L333.414,845.249L339.123,844.641L334.846,833.254C334.846,833.254 330.191,795.669 337.133,790.763L340.345,793.883L350.941,792.13C350.941,792.13 358.952,785.089 350.242,772.133L341.347,747.823L335.914,740.932L327.718,721.717L334.552,712.962L346.917,718.077L353.62,722.926L356.115,732.483L370.277,733.257L381.379,735.463L396.44,727.336L399.23,719.401C399.23,719.401 391.382,700.399 400.045,699.72C408.708,699.041 415.456,692.398 421.455,684.766C427.453,677.134 442.171,676.982 442.171,676.982L465.479,663.418Z" style="fill:rgb(236,167,78);stroke:white;stroke-width:1.39px;"/>
    </g>
</svg>
