<?xml version="1.0" encoding="UTF-8" standalone="no"?>
<!DOCTYPE svg PUBLIC "-//W3C//DTD SVG 1.1//EN" "http://www.w3.org/Graphics/SVG/1.1/DTD/svg11.dtd">
<svg width="100%" height="100%" viewBox="0 0 145 185" version="1.1" xmlns="http://www.w3.org/2000/svg" xmlns:xlink="http://www.w3.org/1999/xlink" xml:space="preserve" style="fill-rule:evenodd;clip-rule:evenodd;stroke-linecap:round;stroke-linejoin:round;stroke-miterlimit:1.5;">
    <g id="malle" transform="matrix(1,0,0,1,-165.605,-158.558)">
        <path d="M261.624,159.252L263.19,169.689C263.19,169.689 273.524,179.45 275.624,182.792C275.624,182.792 290.217,189.34 295.353,191.198C300.49,193.056 312.268,196.455 309.102,211.672L308.335,220.965L305.582,224.074L305.172,235.159L300.393,250.024C300.393,250.024 297.887,268.035 299.133,274.129C299.133,274.129 297.983,278.853 296.065,282.721C294.147,286.589 293.579,288.704 295.403,293.952L296.613,299.1L297.698,301.308L297.277,306.329C297.225,306.349 297.198,306.359 297.198,306.359C263.568,302.296 245.541,327.916 245.541,327.916L242.028,329.279C227.336,331.9 207.539,339.806 207.408,339.858L200.088,339.858L193.299,342.529L184.069,339.567L180.709,337.752L179.636,330.819L177.653,324.375L175.126,318.221L176.99,310.145L178.038,306.34L176.643,301.244L176.846,293.668L175.364,283.319L173.311,278.322L173.243,274.891L175.902,271.705C175.902,271.705 184.943,265.82 184.393,255.856C183.843,245.891 173.748,240.642 173.748,240.642C175.759,234.832 166.3,225.37 166.3,225.37L170.373,216.952L172.548,211.9L175.932,201.4C185.98,199.704 184.413,188.558 184.413,188.558L189.96,184.142L193.738,181.925L199.452,178.936L203.312,178.685C205.998,179.437 216.315,172.06 216.315,172.06L219.686,171.539C234.519,173.967 246.608,161.748 246.608,161.748C253.65,166.809 259.159,159.323 259.159,159.323C259.159,159.323 260.265,159.288 261.624,159.252Z" style="fill:rgb(160,114,219);stroke:white;stroke-width:1.39px;"/>
    </g>
</svg>
