<?xml version="1.0" encoding="UTF-8" standalone="no"?>
<!DOCTYPE svg PUBLIC "-//W3C//DTD SVG 1.1//EN" "http://www.w3.org/Graphics/SVG/1.1/DTD/svg11.dtd">
<svg width="100%" height="100%" viewBox="0 0 150 192" version="1.1" xmlns="http://www.w3.org/2000/svg" xmlns:xlink="http://www.w3.org/1999/xlink" xml:space="preserve" style="fill-rule:evenodd;clip-rule:evenodd;stroke-linecap:round;stroke-linejoin:round;stroke-miterlimit:1.5;">
    <g id="malua" transform="matrix(1,0,0,1,-365.506,-279.482)">
        <path d="M380.51,470.747L377.206,467.23L375.731,462.086L374.156,459.151L373.747,455.683L374.137,451.849L367.956,444.857L367.674,443.34C363.356,433.558 369.906,423.902 369.906,423.902L370.158,419.414L373.9,410.253L376.436,414.201L379.108,412.278L379.258,411.689L379.634,412.141C379.634,412.141 401.1,417.095 402.596,424.072C404.091,431.05 404.351,428.875 403.529,433.032C402.707,437.189 403.053,439.255 403.053,439.255C403.053,439.255 399.587,445.32 395.427,447.905C395.427,447.905 393.025,451.096 393.025,453.926C393.025,456.756 389.618,458.196 387.647,459.409C385.864,460.506 381.884,461.355 380.51,470.747ZM373.758,394.579L370.92,394.389C370.521,387.861 377.658,382.518 377.658,382.518L377.553,378.818C380.228,376.821 386.982,360.906 386.982,360.906L387.085,357.83L384.14,355.29L385.465,350.212L385.581,345.176L382.954,345.066L384.28,341.284L381.26,339.428L383.12,336.534L383.494,328.349L375.942,320.837L378.418,318.285C378.418,318.285 388.666,306.538 398.159,304.926L400.803,304.572L409.418,298.096L412.621,298.096L418.977,291.227L427.92,299.919L429.959,299.446L438.714,292.004C438.714,292.004 444.857,281.982 451.827,283.819L457.081,285.711C457.081,285.711 465.885,276.18 475.613,282.134C475.613,282.134 478.781,285.632 483.54,284.248L486.75,285.609L490.437,286.346L493.249,288.634C493.249,288.634 502.496,286.095 507.309,290.192C512.121,294.289 514.602,298.879 514.602,298.879L514.668,298.882C514.477,298.974 514.286,299.063 514.093,299.147C507.783,301.902 504.44,311.055 504.44,311.055L502.584,314.354C498.838,324.961 494.484,318.242 489.807,326.916C485.13,335.589 473.863,334.146 473.863,334.146L471.567,336.483C468.313,344.049 452.532,340.333 452.532,340.333C452.532,340.333 448.795,339.912 449.108,342.587C449.42,345.262 447.673,352.025 447.673,352.025C447.673,352.025 441.679,346.933 431.205,363.865C414.933,390.17 396.988,370.506 396.988,370.506C389.545,368.817 391.582,387.264 391.582,387.264C386.811,385.495 384.157,392.748 384.157,392.748C384.157,392.748 382.671,393.573 378.893,392.817C377.197,392.478 375.316,393.429 373.758,394.579Z" style="fill:rgb(164,211,137);stroke:white;stroke-width:1.39px;"/>
    </g>
</svg>
