<?xml version="1.0" encoding="UTF-8" standalone="no"?>
<!DOCTYPE svg PUBLIC "-//W3C//DTD SVG 1.1//EN" "http://www.w3.org/Graphics/SVG/1.1/DTD/svg11.dtd">
<svg width="100%" height="100%" viewBox="0 0 401 264" version="1.1" xmlns="http://www.w3.org/2000/svg" xmlns:xlink="http://www.w3.org/1999/xlink" xml:space="preserve" style="fill-rule:evenodd;clip-rule:evenodd;stroke-linecap:round;stroke-linejoin:round;stroke-miterlimit:1.5;">
    <g id="bantimurung" transform="matrix(1,0,0,1,-544.064,-611.336)">
        <path d="M558.818,841.085C559.656,840.567 560.255,840.223 560.255,840.223C560.255,840.223 557.162,839.263 554.773,838.655C552.384,838.048 554.451,837.099 553.814,833.864C553.176,830.63 558.24,828.052 560.405,825.32C562.57,822.587 558.632,820.876 559.217,818.152C559.802,815.428 560.735,815.629 562.412,812.177C564.088,808.724 565.324,806.701 567.091,801.052C568.859,795.402 573.354,791.759 574.626,789.197C575.898,786.634 580.622,779.057 582.482,777.202C584.342,775.347 582.497,771.932 581.927,771.412C581.715,771.219 581.171,770.809 580.511,770.324C580.29,767.016 579.426,761.756 576.613,755.147C571.667,743.526 573.949,746.317 572.819,739.208C571.69,732.098 570.403,733.985 570.347,727.672C570.291,721.36 570.855,722.456 569.238,718.956C567.621,715.456 567.828,713.382 567.696,710.333C567.565,707.284 568.038,707.111 565.376,705.405C562.715,703.698 561.317,700.285 559.129,696.515C556.942,692.746 555.775,692.019 555.217,691.516C554.659,691.014 553.922,686.499 553.922,686.499C553.922,686.499 554.085,688.201 551.633,688.564C549.181,688.927 549.07,686.284 549.07,686.284L545.112,686.218C545.112,686.218 548.372,683.992 548.316,681.83C548.26,679.669 547.932,676.483 545.985,673.749C544.039,671.015 544.716,669.268 547.024,668.172C549.333,667.075 550.906,666.276 552.071,667.991C553.237,669.707 555.007,671.024 557.177,670.552C559.348,670.079 560.984,670.644 561.474,668.287C561.611,667.625 561.723,666.995 561.788,666.41C564.726,665.932 568.831,665.429 570.129,666.079C572.225,667.128 572.168,665.585 574.609,669.91C577.05,674.235 572.812,674.085 581.531,671.004C590.249,667.924 583.865,669.784 592.087,666.094C600.309,662.405 603.044,659.177 608.252,656.251C613.461,653.324 620.643,647.827 624.826,645.581C629.008,643.335 633.45,640.122 636.224,638.342C638.999,636.562 645.241,632.861 650.68,630.662C656.118,628.463 660.982,624.717 662.45,622.129C663.238,620.738 666.176,616.291 668.728,612.471L668.95,612.715C671.832,615.883 676.908,621.602 682.55,622.603C688.568,623.671 699.847,620.981 702.501,621.173C705.155,621.365 712.13,625.571 714.03,628.369C715.929,631.168 721.747,635.91 724.587,637.136C727.427,638.363 730.1,645.367 729.727,648.649C729.354,651.93 731.817,660.643 732.594,664.74C733.372,668.837 731.694,671.169 731.18,674.401C730.667,677.633 727.479,680.386 727.15,682.191C726.821,683.997 725.278,686.728 730.643,688.468C736.008,690.209 738.694,688.159 744.802,688.248C750.909,688.338 759.636,689.159 762.943,687.723C766.25,686.288 769.973,684.008 776.167,682.828C782.362,681.649 780.559,681.054 786.238,680.108C791.917,679.163 796.46,677.971 798.409,676.228C800.358,674.484 802.023,674.513 804.851,674.554C807.678,674.595 811.226,675.939 820.123,672.371C829.02,668.803 827.098,667.557 834.423,666.873C841.749,666.189 845.339,667.958 851.882,666.134C858.426,664.309 854.971,665.92 859.142,662.614C863.313,659.307 867.732,654.5 871.06,653.241C874.387,651.983 879.477,645.698 884.931,645.725C890.385,645.753 900.404,646.445 904.89,645.173C909.376,643.9 916.317,645.268 918.11,648.556C919.903,651.844 921.008,654.407 926.98,657.295C931.641,659.548 936.276,661.61 940.341,662.406C938.887,666.36 937.816,670.908 938.69,674.44C940.648,682.359 942.571,686.811 942.571,686.811C942.571,686.811 943.663,693.846 944.153,696.617C944.644,699.387 943.315,706.741 944.001,708.948C944.687,711.155 943.561,717.428 941.063,721.935C938.564,726.441 931.635,737.182 932.42,745.668C933.204,754.153 935.676,774.464 925.655,778.886C915.634,783.308 906.384,784.257 900.923,787.282C895.463,790.306 893.097,793.439 887.053,794.627C881.009,795.816 878.281,796.725 877.698,800.369C877.115,804.014 875.651,805.828 874.841,809.351C874.031,812.874 872.001,817.676 873.538,826.31C875.074,834.943 875.698,836.721 877.27,839.586C878.842,842.45 884.324,853.432 884.324,856.027C884.324,858.622 884.223,859.128 883.275,860.884C882.347,862.602 883.127,868.173 884.69,871.927C882.712,871.441 880.538,871.014 878.77,870.936C874.327,870.741 861.055,873.306 859.029,873.931C857.003,874.556 855.244,874.353 854.385,871.919C853.527,869.485 851.97,868.428 845.435,863.969C838.9,859.51 838.166,857.673 837.554,856.268C836.942,854.862 834.498,849.5 831.737,842.113C828.975,834.726 815.765,832.052 812.829,831.975C809.893,831.899 811.399,827.978 806.781,827.141C802.163,826.305 802.465,821.026 802.465,821.026C802.465,821.026 797.944,820.873 794,822.221C790.055,823.569 793.268,825.223 784.437,828.623C775.605,832.022 770.016,840.843 766.758,845.127C763.5,849.411 760.962,846.468 757.303,846.602C753.643,846.736 752.753,856.695 750.573,857.58C748.393,858.465 743.666,856.15 740.006,854.652C736.345,853.153 735.885,854.422 732.129,855.772C728.372,857.121 726.47,856.559 726.47,856.559C726.47,856.559 721.894,851.794 720.039,850.666C718.184,849.538 717.172,848.546 716.622,850.559C716.073,852.572 715.016,851.87 711.497,852.102C707.978,852.334 708.002,851.247 706.051,850.147C704.1,849.048 703.283,852.567 704.083,854.32C704.884,856.074 703.381,856.228 700.751,856.369C698.122,856.509 693.322,852.539 692.653,851.654C691.983,850.77 691.414,849.407 689.216,850.433C687.017,851.458 688.412,853.595 686.73,853.595C685.047,853.595 685.995,850.243 686.613,848.531C687.23,846.82 683.827,846.528 683.827,846.528C683.827,846.528 681.915,844.31 683.817,842.469C685.718,840.628 680.781,838.827 678.161,838.751C675.541,838.674 676.685,835.118 676.336,831.745C675.988,828.372 671.549,831.205 667.755,832.73C663.96,834.254 668.119,836.742 668.659,841.1C669.199,845.457 664.407,849.864 662.405,852.755C660.403,855.645 663.176,860.018 664.968,863.895C666.76,867.772 665.699,868.624 663.457,870.056C661.215,871.489 657.449,872.055 653.006,873.137C648.563,874.22 647.843,871.541 647.356,869.686C646.868,867.831 648.164,866.512 648.165,863.728C648.166,860.945 643.033,862.126 640.014,862.442C636.995,862.758 635.378,863.46 632.839,865.46C630.301,867.46 626.808,866.81 623.958,866.733C621.108,866.657 620.138,863.702 619.574,861.923C619.011,860.145 616.265,856.811 616.265,856.811C616.265,856.811 611.41,857.338 605.637,857.139C599.863,856.941 595.235,860.233 593.704,860.719C592.174,861.206 588.721,854.99 585.863,853.061C583.005,851.131 578.002,848.365 575.493,846.46C572.985,844.554 572.615,843.189 570.769,840.856C568.924,838.523 566.6,839.345 564.582,840.125C563.734,840.453 561.325,840.797 558.818,841.085ZM561.803,666.271L561.791,666.383L561.806,666.238L561.803,666.271ZM561.816,666.133L561.811,666.181L561.822,666.055L561.816,666.133ZM561.843,665.73L561.839,665.804L561.845,665.681L561.843,665.73ZM561.848,665.599L561.847,665.631L561.851,665.484L561.848,665.599ZM561.85,665.22L561.851,665.271L561.848,665.155L561.85,665.22ZM561.831,664.86L561.837,664.936L561.827,664.82L561.831,664.86ZM561.819,664.744L561.823,664.777L561.808,664.654L561.819,664.744ZM561.769,664.411L561.77,664.413L561.769,664.411L561.769,664.411ZM668.728,612.471L668.403,612.117L668.669,612.407L668.728,612.471Z" style="fill:rgb(150,218,249);stroke:white;stroke-width:1.56px;"/>
    </g>
</svg>
