<?xml version="1.0" encoding="UTF-8" standalone="no"?>
<!DOCTYPE svg PUBLIC "-//W3C//DTD SVG 1.1//EN" "http://www.w3.org/Graphics/SVG/1.1/DTD/svg11.dtd">
<svg width="100%" height="100%" viewBox="0 0 318 164" version="1.1" xmlns="http://www.w3.org/2000/svg" xmlns:xlink="http://www.w3.org/1999/xlink" xml:space="preserve" style="fill-rule:evenodd;clip-rule:evenodd;stroke-linecap:round;stroke-linejoin:round;stroke-miterlimit:1.5;">
    <g id="bontoa" transform="matrix(1,0,0,1,-352.16,-526.575)">
        <path d="M369.276,663.334C369.848,661.888 369.224,656.558 370.605,654.39C372.17,651.933 376.222,642.974 377.099,637.718C377.976,632.463 378.883,630.976 380.482,629.085C382.081,627.193 384.072,625.015 384.072,625.015C384.072,625.015 380.184,620.809 380.865,614.946C381.545,609.084 379.024,606.436 378.992,602.15C378.959,597.864 377.71,594.978 377.019,592.587C376.329,590.196 369.055,571.787 365.779,567.164C362.503,562.54 355.784,556.67 354.906,553.708C354.027,550.746 352.115,548.159 353.339,544.323C354.562,540.487 355.265,540.643 355.955,538.148C356.645,535.652 359.799,533.647 360.742,532.909C361.686,532.171 363.598,530.477 365.518,529.691C367.438,528.905 367.793,526.188 373.618,527.927C379.443,529.667 384.714,534.803 386.676,536.491C388.637,538.179 390.486,541.029 390.486,544.368C390.486,547.707 390.343,553.555 395.991,553.199C401.64,552.842 406.699,547.656 410.826,547.545C414.953,547.434 414.948,547.711 420.245,550.241C425.541,552.771 428.32,551.888 430.351,550.817C432.382,549.746 436.326,549.269 439.333,549.24C442.34,549.211 446.483,547.519 447.703,546.519C448.924,545.518 452.643,543.81 455.57,546.936C458.498,550.061 460.367,551.412 464.526,549.477C468.686,547.543 474.267,547.37 476.901,551.796C479.534,556.221 480.252,560.571 482.002,562.406C483.753,564.242 487.377,563.015 489.175,562.421C490.973,561.827 497.439,560.261 498.342,562.274C499.244,564.286 501.706,566.451 499.086,566.656C496.467,566.86 495.471,564.704 493.356,565.191C491.241,565.677 489.195,567.545 489.676,570.312C490.156,573.079 490.435,573.642 492.602,574.646C494.77,575.65 497.327,577.159 497.744,577.68C498.161,578.201 499.353,579.641 501.638,579.052C503.922,578.464 506.179,575.394 508.882,576.08C511.586,576.767 512.474,576.576 513.285,577.908C514.096,579.24 517.124,579.252 519.31,578.583C521.496,577.914 526.306,576.308 526.572,574.4C526.838,572.493 527.822,568.858 527.244,568.28C526.666,567.702 525.982,565.952 526.77,564.629C527.558,563.305 527.026,560.41 527.814,559.502C528.602,558.594 530.43,557.474 533.641,557.952C536.852,558.429 538.499,558.338 539.043,558.429C539.588,558.519 540.399,558.557 540.371,560.293C540.342,562.028 537.573,563.686 538.369,565.754C539.165,567.822 541.848,570.892 543.788,571.808C545.729,572.724 548.71,577.336 549.968,578.535C551.226,579.734 551.632,579.844 553.576,579.685C555.52,579.525 557.238,580.026 556.211,577.893C555.184,575.759 550.529,574.322 551.133,573.092C551.737,571.861 552.982,569.1 554.17,569.649C555.358,570.198 557.777,572.52 558.954,572.174C560.131,571.829 562.398,572.457 561.968,570.693C561.539,568.93 555.697,566.966 554.969,565.233C554.242,563.5 552.93,562.608 554.538,562.571C556.146,562.533 560.743,560.206 562.973,559.137C565.203,558.068 568.821,557.096 568.821,557.096C568.821,557.096 562.911,554.967 561.424,552.336C559.937,549.705 560.696,548.586 562.456,549.74C564.216,550.893 565.939,552.106 566.432,551.812C566.925,551.519 568.099,551.527 568.441,550.005C568.784,548.483 566.922,547.06 567.013,545.556C567.103,544.052 568.208,540.204 568.972,539.746C569.735,539.289 572.503,536.923 572.503,538.195C572.503,539.468 571.476,540.659 571.649,541.38C571.822,542.101 571.527,542.684 572.973,543.001C574.418,543.318 577.651,542.339 579.68,542.23C581.709,542.12 581.003,542.704 582.505,542.952C584.008,543.201 584.152,544.223 586.676,542.314C589.201,540.405 590.764,540.787 592.525,542.353C594.287,543.92 598.621,545.417 601.627,548.238C604.634,551.059 608.617,550.357 614.001,555.432C619.384,560.506 626.701,571.086 631.094,572.484C635.487,573.882 633.859,574.494 643.336,575.988C652.813,577.482 656.145,577.992 657.838,578.623C659.531,579.255 664.397,580.454 665.677,580.487C666.956,580.521 667.822,584.733 665.907,589.161C663.992,593.589 663.547,600.086 664.41,604.175C665.272,608.264 665.648,609.134 668.403,612.117C668.507,612.23 668.616,612.349 668.728,612.471C666.176,616.291 663.238,620.738 662.45,622.129C660.982,624.717 656.118,628.463 650.68,630.662C645.241,632.861 638.999,636.562 636.224,638.342C633.45,640.122 629.008,643.335 624.826,645.581C620.643,647.827 613.461,653.324 608.252,656.251C603.044,659.177 600.309,662.405 592.087,666.094C583.865,669.784 590.249,667.924 581.531,671.004C572.812,674.085 577.05,674.235 574.609,669.91C572.168,665.585 572.225,667.128 570.129,666.079C568.831,665.429 564.725,665.932 561.788,666.41C561.956,664.91 561.82,663.706 561.038,663.031C559.952,662.091 558.056,660.44 558.53,656.867C559.003,653.294 559.161,652.209 556.623,652.709C554.086,653.208 555.431,654.358 552.325,655.496C549.219,656.635 550.549,656.812 546.883,656.756C543.218,656.7 542.163,655.196 540.406,655.8C538.649,656.405 537.766,657.311 537.487,658.674C537.208,660.036 536.726,662.742 534.462,662.554C532.199,662.366 530.3,660.696 528.813,660.386C527.325,660.076 527.891,658.914 528.686,658.178C529.482,657.442 531.135,654.928 531.023,651.145C530.912,647.361 528.832,642.328 528.081,641.258C527.329,640.187 523.891,640.941 523.17,643.679C522.449,646.418 520.902,649.146 519.683,647.908C518.464,646.669 517.514,645.142 518.216,643.644C518.917,642.147 522.386,638.187 522.02,636.873C521.654,635.558 520.301,632.906 516.974,632.906C513.646,632.906 512.825,633.316 511.454,634.315C510.084,635.314 508.749,637.886 506.765,636.647C504.781,635.407 504.172,633.716 503.096,634.366C502.02,635.016 500.563,636.42 500.629,638.301C500.695,640.181 501.388,646.399 497.36,644.844C493.331,643.289 491.579,642.308 491.579,642.308L490.306,641.719C490.306,641.719 481.601,659.331 479.384,661.745C477.166,664.159 472.288,671.16 468.012,675.472C463.736,679.784 464.491,680.273 461.303,683.594C458.115,686.915 454.79,689.511 454.79,689.511C454.79,689.511 451.789,690.391 442.995,687.656C434.201,684.921 432.968,684.464 431.039,684.124C429.111,683.783 426.195,682.593 426.897,678.346C427.599,674.099 417.609,676.86 417.609,676.86C417.609,676.86 417.288,677.84 412.407,677.5C407.527,677.159 405.197,675.889 405.197,675.889C405.197,675.889 401.822,677.659 398.556,675.626C395.29,673.594 388.395,672.289 388.395,672.289C388.395,672.289 384.398,668.684 380.904,667.311C378.948,666.543 373.602,664.757 369.276,663.334ZM368.999,663.681L368.976,663.689L369,663.681L368.999,663.681ZM369.022,663.671L369.008,663.677L369.024,663.67L369.022,663.671ZM369.044,663.659L369.033,663.665L369.046,663.658L369.044,663.659ZM369.066,663.645L369.056,663.651L369.068,663.643L369.066,663.645ZM369.086,663.629L369.078,663.635L369.089,663.627L369.086,663.629ZM369.107,663.611L369.1,663.617L369.11,663.608L369.107,663.611ZM369.126,663.592L369.121,663.597L369.129,663.588L369.126,663.592ZM369.145,663.57L369.141,663.575L369.148,663.566L369.145,663.57ZM369.163,663.547L369.161,663.55L369.166,663.543L369.163,663.547ZM369.181,663.522L369.18,663.523L369.182,663.52L369.181,663.522ZM369.247,663.403L369.242,663.412L369.249,663.398L369.247,663.403Z" style="fill:rgb(150,249,244);stroke:white;stroke-width:1.56px;"/>
    </g>
</svg>
