<?xml version="1.0" encoding="UTF-8" standalone="no"?>
<!DOCTYPE svg PUBLIC "-//W3C//DTD SVG 1.1//EN" "http://www.w3.org/Graphics/SVG/1.1/DTD/svg11.dtd">
<svg width="100%" height="100%" viewBox="0 0 304 489" version="1.1" xmlns="http://www.w3.org/2000/svg" xmlns:xlink="http://www.w3.org/1999/xlink" xml:space="preserve" style="fill-rule:evenodd;clip-rule:evenodd;stroke-linecap:round;stroke-linejoin:round;stroke-miterlimit:1.5;">
    <g id="camba" transform="matrix(1,0,0,1,-978.061,-429.734)">
        <path d="M1054.09,430.515C1058.53,430.686 1063.31,430.91 1064.32,431.114C1066.31,431.515 1068.54,436.157 1069.95,436.88C1071.36,437.604 1075.21,441.89 1079.9,444.314C1084.58,446.738 1087.7,447.813 1087.7,447.813C1087.7,447.813 1090.06,451.599 1093.78,453.312C1097.5,455.024 1100.72,455.287 1100.72,455.287C1100.72,455.287 1099.65,463.044 1111.15,462.947C1122.65,462.851 1140.33,467.198 1140.33,467.198C1140.33,467.198 1155.66,472.111 1163.1,480.968C1170.53,489.826 1174.09,492.645 1174.56,500.727C1175.03,508.808 1172.74,521.612 1177.78,527.915C1182.82,534.217 1195.42,539.203 1200.24,541.885C1205.06,544.566 1214.45,552.654 1217.81,556.324C1221.18,559.993 1232.09,569.901 1237.64,574.66C1243.19,579.419 1252.62,585.421 1252.62,585.421C1252.62,585.421 1249.81,587.913 1254.19,590.41C1258.57,592.906 1261.04,596.509 1261.04,596.509C1261.04,596.509 1266.11,601.912 1272.59,606.304C1272.11,606.818 1272.09,607.413 1272.97,608.229C1274.44,609.587 1279.89,613.061 1276.92,614.521C1273.94,615.981 1272.33,615.164 1271.15,616.935C1269.97,618.705 1271.19,620.621 1270.67,622.102C1270.15,623.582 1267.76,628.501 1267.29,630.719C1266.82,632.937 1265.84,641.587 1267.73,640.725C1269.62,639.864 1271.52,638.507 1271.75,639.802C1271.99,641.097 1271.94,642.986 1273.15,643.682C1274.36,644.378 1276.94,649.342 1272.57,650.654C1268.2,651.966 1263.71,656.183 1268.51,660.026C1273.32,663.869 1280.25,661.045 1280.43,662.494C1280.61,663.942 1280.83,666.66 1280.38,667.948C1279.94,669.236 1281.63,670.667 1279.21,670.403C1276.79,670.139 1276.65,667.738 1274.47,669.022C1272.28,670.306 1272.55,672.618 1271.38,673.409C1270.2,674.2 1269.66,676.6 1268.94,674.708C1268.22,672.816 1268.12,671.94 1267.33,672.778C1266.54,673.616 1266.76,675.067 1265.87,674.998C1264.99,674.928 1264.36,672.345 1262.02,674.219C1259.68,676.093 1259.17,676.454 1259.2,676.705C1259.24,676.957 1261.3,679.107 1260.52,680.664C1259.75,682.222 1255.07,687.407 1253.85,688.613C1252.64,689.818 1252.67,691.906 1253.36,692.695C1254.04,693.484 1254.21,696.256 1251.74,698.118C1249.27,699.979 1245.66,706.157 1245.28,707.574C1244.89,708.991 1246.63,708.8 1246.59,711.648C1246.55,714.497 1243.37,717.914 1242.28,718.989C1241.2,720.065 1242.7,723.735 1245.97,728.103C1249.25,732.47 1250.98,742.202 1251.15,746.596C1251.31,750.99 1253.59,756.934 1248.36,767.223C1243.12,777.512 1240.29,785.138 1240.84,789.293C1241.38,793.449 1246.39,809.018 1241.44,814.907C1236.49,820.796 1234.22,823.06 1233.85,824.152C1233.48,825.245 1232.13,832.848 1228.94,834.961C1225.75,837.075 1218.82,843.272 1214.91,845.272C1211.01,847.271 1209.77,847.02 1209.41,850.287C1209.06,853.555 1208.5,863.421 1206.02,868.059C1203.54,872.696 1198.85,878.242 1196.19,880.107C1193.54,881.972 1194.19,884.769 1185.68,884.482C1177.16,884.195 1176.56,886.169 1174.89,889.733C1173.23,893.296 1172.96,901.985 1166.79,905.406C1162.47,907.797 1156.5,911.825 1153.23,917.6C1151,915.67 1148.19,913.225 1147.3,912.413C1145.76,911.001 1142.5,910.055 1138.9,909.367C1135.3,908.679 1134.31,906.858 1134.31,906.858C1134.31,906.858 1128.15,906.406 1122.98,904.321C1117.81,902.237 1118.64,901.112 1118.67,894.966C1118.71,888.819 1109.88,887.847 1107.83,886.275C1105.79,884.702 1105.2,884.17 1099.7,880.198C1094.2,876.227 1091.1,870.806 1090.26,865.138C1089.42,859.469 1088.69,858.68 1086.31,857.678C1083.93,856.676 1081.5,855.749 1078.87,852.511C1076.23,849.273 1074.38,843.969 1074.1,842.043C1073.81,840.116 1072.66,837.785 1073.57,833.648C1074.47,829.511 1075.04,827.742 1075.17,823.904C1075.3,820.067 1077.91,817.435 1079.24,810.31C1080.57,803.184 1072.51,794.933 1072.28,789.837C1072.06,784.742 1073.6,779.991 1073.6,779.991C1073.6,779.991 1073.98,774.91 1073.64,771.143C1073.3,767.376 1077.23,763.035 1078.79,760.578C1080.34,758.121 1080.19,752.829 1080.81,746.084C1081.43,739.339 1085.07,735.845 1085.07,735.845C1085.07,735.845 1085.07,735.463 1084.54,732.496C1084,729.53 1076.21,725.682 1071.06,719.404C1065.9,713.125 1068.42,710.363 1064.42,709.615C1060.42,708.867 1057.12,704.614 1057.12,704.614C1057.12,704.614 1053.28,704.753 1050.44,704.753C1047.61,704.753 1042.96,710.242 1042.96,710.242L1037.79,705.55C1037.79,705.54 1037.77,705.536 1037.77,705.536L1037.79,705.55C1037.78,705.615 1036.91,705.916 1023.5,706.548C1008.17,707.271 1006.63,694.454 1004.33,691.493C1002.04,688.533 991.742,684.429 987.208,684.046C982.673,683.663 981.68,680.068 981.68,677.245C981.68,675.642 980.159,672.615 978.843,670.297C982.512,669.525 982.093,669.328 983.652,667.318C985.321,665.165 985.815,664.333 987.017,663.428C988.22,662.524 985.638,658.882 990.225,656.398C994.812,653.914 996.744,649.828 997.244,648.492C997.744,647.155 1002.55,640.834 1007.26,637.7C1011.97,634.566 1011.19,631.867 1015.97,632.245C1020.76,632.623 1025.91,633.706 1028.16,631.99C1030.41,630.275 1036.7,629.302 1039.79,630.797C1042.88,632.292 1051.19,634.147 1051.4,630.388C1051.61,626.63 1046.75,619.851 1045.1,613.55C1043.45,607.248 1042.57,589.867 1043.62,585.684C1044.68,581.502 1052.7,568.932 1052.53,562.381C1052.36,555.83 1052.74,531.508 1051.08,528.751C1049.43,525.993 1037.46,515.907 1036.22,508.379C1034.97,500.852 1033.07,494.808 1031.87,491.967C1030.66,489.126 1030.18,483.371 1035.94,479.005C1041.7,474.639 1039.6,472.518 1040.03,468.882C1040.46,465.246 1044.64,462.721 1047.56,456.774C1050.47,450.827 1046.44,443.895 1050.05,439.635C1052.3,436.984 1053.54,435.485 1054.09,430.515Z" style="fill:rgb(237,185,37);stroke:white;stroke-width:1.56px;"/>
    </g>
</svg>
