<?xml version="1.0" encoding="UTF-8" standalone="no"?>
<!DOCTYPE svg PUBLIC "-//W3C//DTD SVG 1.1//EN" "http://www.w3.org/Graphics/SVG/1.1/DTD/svg11.dtd">
<svg width="100%" height="100%" viewBox="0 0 322 411" version="1.1" xmlns="http://www.w3.org/2000/svg" xmlns:xlink="http://www.w3.org/1999/xlink" xml:space="preserve" style="fill-rule:evenodd;clip-rule:evenodd;stroke-linecap:round;stroke-linejoin:round;stroke-miterlimit:1.5;">
    <g id="cenrana" transform="matrix(1,0,0,1,-872.197,-661.161)">
        <path d="M1022.42,1017.98L1022.62,1017.98L1022.42,1017.98ZM883.94,871.748L883.947,871.75L883.94,871.748L883.94,871.748ZM883.561,871.662L883.691,871.691L883.501,871.648L883.561,871.662ZM883.179,871.578L883.278,871.6L883.051,871.551L883.179,871.578ZM882.797,871.497L882.849,871.508L882.797,871.497ZM939.913,662.318L940.042,662.345L939.959,662.328L939.913,662.318ZM939.684,662.268L939.813,662.296L939.766,662.286L939.684,662.268ZM939.392,662.2L939.59,662.246L939.573,662.242L939.392,662.2ZM939.165,662.145L939.305,662.179L939.184,662.15L939.165,662.145ZM938.754,662.041L938.813,662.056L938.791,662.05L938.754,662.041ZM938.387,661.942L938.42,661.951L938.396,661.944L938.387,661.942ZM1180.27,1070.22C1180.21,1070.14 1180.15,1070.08 1180.1,1070.01L1180.27,1070.22C1180.34,1070.3 1180.41,1070.38 1180.48,1070.47L1180.27,1070.22ZM1180.05,1068.97C1175.29,1068.79 1167.46,1068.54 1162.28,1068.62C1154.39,1068.73 1150.83,1065.8 1146.19,1065.8C1141.56,1065.8 1131.45,1066.84 1125.46,1067.73C1119.47,1068.62 1114.57,1062.84 1110.09,1059.23C1105.6,1055.63 1102.07,1050.96 1094.37,1047.63C1086.66,1044.31 1079.48,1044.53 1073.32,1041C1067.16,1037.47 1061.15,1031.36 1057.11,1029.4C1053.08,1027.44 1049.49,1025.13 1042.56,1024.43C1035.63,1023.74 1029.73,1018.14 1029.73,1018.14C1029.73,1018.14 1027.41,1018.07 1024.3,1018.01C1025.21,1015.58 1026.74,1011.47 1026.84,1010.79C1027,1009.82 1030.85,1007.35 1030.85,1005.4C1030.85,1003.45 1032.15,998.751 1032.59,996.036C1033.04,993.321 1030.73,988.513 1028.4,985.176C1026.06,981.838 1024.3,982.519 1021.7,978.858C1019.11,975.197 1016.81,978.156 1016.81,978.156C1016.81,978.156 1015.84,981.613 1000.3,986.947C984.756,992.281 975.18,982.386 971.959,981.088C968.738,979.789 966.493,974.962 961.48,971.274C956.467,967.586 953.039,962.515 948.968,960.34C944.898,958.164 941.869,950.012 939.8,947.25C937.731,944.487 932.982,935.687 928.853,930.199C924.723,924.711 912.877,912.55 906.207,907.908C899.538,903.267 902.054,900.995 901.3,898.758C900.545,896.522 901.693,893.653 902.242,883.859C902.79,874.066 890.228,873.533 890.228,873.533C890.228,873.533 887.684,872.662 884.69,871.927C883.127,868.172 882.347,862.602 883.275,860.884C884.223,859.128 884.324,858.622 884.324,856.027C884.324,853.432 878.842,842.45 877.27,839.586C875.698,836.721 875.074,834.943 873.538,826.31C872.001,817.676 874.031,812.874 874.841,809.351C875.651,805.828 877.115,804.014 877.698,800.369C878.281,796.725 881.009,795.816 887.053,794.627C893.097,793.439 895.463,790.306 900.923,787.282C906.384,784.257 915.634,783.308 925.655,778.886C935.676,774.464 933.204,754.153 932.42,745.668C931.635,737.182 938.564,726.441 941.063,721.935C943.561,717.428 944.687,711.155 944.001,708.948C943.315,706.741 944.644,699.387 944.153,696.617C943.663,693.846 942.571,686.811 942.571,686.811C942.571,686.811 940.648,682.359 938.69,674.44C937.816,670.908 938.887,666.36 940.341,662.406C940.273,662.393 940.205,662.379 940.136,662.365C941.354,662.616 942.522,662.755 943.626,662.755C948.368,662.755 955.957,667.521 963.27,668.971C970.583,670.42 973.416,671.399 977.998,670.471C978.302,670.41 978.582,670.352 978.843,670.297C980.159,672.615 981.68,675.642 981.68,677.245C981.68,680.068 982.673,683.663 987.208,684.046C991.742,684.429 1002.04,688.533 1004.33,691.493C1006.63,694.454 1008.17,707.271 1023.5,706.548C1036.91,705.916 1037.78,705.615 1037.79,705.55L1037.77,705.536C1037.77,705.536 1037.79,705.54 1037.79,705.55L1042.96,710.242C1042.96,710.242 1047.61,704.753 1050.44,704.753C1053.28,704.753 1057.12,704.614 1057.12,704.614C1057.12,704.614 1060.42,708.867 1064.42,709.615C1068.42,710.363 1065.9,713.125 1071.06,719.404C1076.21,725.682 1084,729.53 1084.54,732.496C1085.07,735.463 1085.07,735.845 1085.07,735.845C1085.07,735.845 1081.43,739.339 1080.81,746.084C1080.19,752.829 1080.34,758.121 1078.79,760.578C1077.23,763.035 1073.3,767.376 1073.64,771.143C1073.98,774.91 1073.6,779.991 1073.6,779.991C1073.6,779.991 1072.06,784.742 1072.28,789.837C1072.51,794.933 1080.57,803.184 1079.24,810.31C1077.91,817.435 1075.3,820.067 1075.17,823.904C1075.04,827.742 1074.47,829.511 1073.57,833.648C1072.66,837.785 1073.81,840.116 1074.1,842.043C1074.38,843.969 1076.23,849.273 1078.87,852.511C1081.5,855.749 1083.93,856.676 1086.31,857.678C1088.69,858.68 1089.42,859.469 1090.26,865.138C1091.1,870.806 1094.2,876.227 1099.7,880.198C1105.2,884.17 1105.79,884.702 1107.83,886.275C1109.88,887.847 1118.71,888.819 1118.67,894.966C1118.64,901.112 1117.81,902.237 1122.98,904.321C1128.15,906.406 1134.31,906.858 1134.31,906.858C1134.31,906.858 1135.3,908.679 1138.9,909.367C1142.5,910.055 1145.76,911.001 1147.3,912.413C1148.19,913.225 1151,915.67 1153.23,917.6C1151.82,920.084 1150.92,922.892 1150.86,926.032C1150.67,936.47 1150.63,944.083 1151.8,946.554C1152.97,949.026 1162.55,957.392 1165.53,963.24C1168.5,969.087 1171.64,979.429 1171.94,984.49C1172.24,989.551 1173.68,996.16 1173.91,997.353C1174.14,998.547 1179.44,1001.13 1179.85,1004.04C1180.25,1006.95 1181.83,1008.86 1182.82,1010.32C1183.8,1011.78 1184.17,1012.64 1184.17,1015.13C1184.17,1017.62 1189.23,1022.94 1190.98,1024.2C1192.73,1025.46 1193.53,1035.35 1191.55,1041.57C1189.57,1047.79 1186.13,1052 1185.01,1055.66C1183.89,1059.32 1179.79,1069.62 1179.79,1069.62L1180.05,1068.97Z" style="fill:rgb(237,146,150);stroke:white;stroke-width:1.56px;"/>
    </g>
</svg>
