<?xml version="1.0" encoding="UTF-8" standalone="no"?>
<!DOCTYPE svg PUBLIC "-//W3C//DTD SVG 1.1//EN" "http://www.w3.org/Graphics/SVG/1.1/DTD/svg11.dtd">
<svg width="100%" height="100%" viewBox="0 0 258 166" version="1.1" xmlns="http://www.w3.org/2000/svg" xmlns:xlink="http://www.w3.org/1999/xlink" xml:space="preserve" style="fill-rule:evenodd;clip-rule:evenodd;stroke-linecap:round;stroke-linejoin:round;stroke-miterlimit:1.5;">
    <g id="lau" transform="matrix(1,0,0,1,-324.28,-632.125)">
        <path d="M326.405,711.04C326.523,711 326.637,710.985 326.744,711C328.425,711.222 327.572,702.387 332.051,697.555C336.529,692.723 344.932,682.958 346.085,681.201C347.239,679.443 350.627,677.92 352.943,678.251C355.259,678.582 358.155,680.007 358.566,678.809C358.978,677.611 363.005,672.982 365.224,669.623C367.442,666.263 367.902,664.009 368.976,663.689C369.103,663.652 369.2,663.528 369.276,663.334C373.601,664.757 378.947,666.543 380.904,667.311C384.398,668.684 388.395,672.289 388.395,672.289C388.395,672.289 395.29,673.594 398.556,675.626C401.822,677.659 405.197,675.889 405.197,675.889C405.197,675.889 407.527,677.159 412.407,677.5C417.288,677.84 417.609,676.86 417.609,676.86C417.609,676.86 427.599,674.099 426.897,678.346C426.195,682.593 429.111,683.783 431.039,684.124C432.968,684.464 434.201,684.921 442.995,687.656C451.789,690.391 454.79,689.511 454.79,689.511C454.79,689.511 458.115,686.915 461.303,683.594C464.491,680.273 463.736,679.784 468.012,675.472C472.288,671.16 477.166,664.159 479.384,661.745C481.601,659.331 490.306,641.719 490.306,641.719L491.579,642.308C491.579,642.308 493.331,643.289 497.36,644.844C501.388,646.399 500.695,640.181 500.629,638.301C500.563,636.42 502.02,635.016 503.096,634.366C504.172,633.716 504.781,635.407 506.765,636.647C508.749,637.886 510.084,635.314 511.454,634.315C512.825,633.316 513.646,632.906 516.974,632.906C520.301,632.906 521.654,635.558 522.02,636.873C522.386,638.187 518.917,642.147 518.216,643.644C517.514,645.142 518.464,646.669 519.683,647.908C520.902,649.146 522.449,646.418 523.17,643.679C523.891,640.941 527.329,640.187 528.081,641.258C528.832,642.328 530.912,647.361 531.023,651.145C531.135,654.928 529.482,657.442 528.686,658.178C527.891,658.914 527.325,660.076 528.813,660.386C530.3,660.696 532.199,662.366 534.462,662.554C536.726,662.742 537.208,660.036 537.487,658.674C537.766,657.311 538.649,656.405 540.406,655.8C542.163,655.196 543.218,656.7 546.883,656.756C550.549,656.812 549.219,656.635 552.325,655.496C555.431,654.358 554.086,653.208 556.623,652.709C559.161,652.209 559.003,653.294 558.53,656.867C558.056,660.44 559.952,662.091 561.038,663.031C562.125,663.97 561.963,665.929 561.474,668.287C560.984,670.644 559.348,670.079 557.177,670.552C555.007,671.024 553.237,669.707 552.071,667.991C550.906,666.276 549.333,667.075 547.024,668.172C544.716,669.268 544.039,671.015 545.985,673.749C547.932,676.483 548.26,679.669 548.316,681.83C548.372,683.992 545.112,686.218 545.112,686.218L549.07,686.284C549.07,686.284 549.181,688.927 551.633,688.564C554.085,688.201 553.922,686.499 553.922,686.499C553.922,686.499 554.659,691.014 555.217,691.516C555.775,692.019 556.942,692.746 559.129,696.515C561.317,700.285 562.715,703.698 565.376,705.405C568.038,707.111 567.565,707.284 567.696,710.333C567.828,713.382 567.621,715.456 569.238,718.956C570.855,722.456 570.291,721.36 570.347,727.672C570.403,733.985 571.69,732.098 572.819,739.208C573.949,746.317 571.667,743.526 576.613,755.147C579.426,761.756 580.29,767.016 580.511,770.324C579.393,769.503 577.944,768.467 577.228,767.912C576.089,767.029 576.095,764.11 574.83,763.277C573.564,762.444 573.239,762.514 571.865,762.379C570.49,762.244 568.765,762.217 565.441,762.027C562.118,761.838 560.141,757.612 559.495,756.583C558.85,755.554 557.739,752.391 559.289,751.028C560.839,749.665 562.429,748.111 560.678,746.272C558.927,744.433 554.877,744.521 554.877,744.521C554.877,744.521 551.278,739.169 550.577,738.732C549.877,738.294 547.217,736.258 543.971,732.192C540.726,728.125 536.095,730.583 535.553,734.533C535.011,738.484 532.911,743.247 531.648,745.456C530.385,747.664 529.94,747.768 529.558,750.097C529.175,752.426 531.326,755.708 532.091,758.816C532.856,761.925 533.095,766.81 532.832,770.272C532.569,773.735 534.013,774.271 529.509,775.049C525.006,775.827 521.051,780.822 520.094,782.751C519.137,784.681 517.084,788.837 516.521,789.896C515.957,790.955 514.528,790.24 513.658,789.27C512.787,788.299 509.892,789.409 509.892,789.409C509.892,789.409 509.301,797 508.533,797.24C507.766,797.479 499.413,794.958 496.208,794.215C494.145,793.737 488.492,793.877 484.723,794.039L484.75,792.75C484.75,792.75 483.542,792.423 481.9,792.048C480.259,791.673 481.609,790.404 478.905,791.09C476.202,791.776 474.71,794.318 473.427,793.638C472.144,792.958 472.11,789.969 470.185,789.969C468.26,789.969 469.368,791.764 466.773,791.459C464.178,791.154 462.445,789.304 462.236,788.058C462.027,786.812 462.724,786.016 463.573,784.256C464.422,782.497 463.967,779.996 463.967,778.772C463.967,777.547 464.152,775.288 461.798,775.02C459.444,774.753 457.563,774.833 456.957,772.865C456.352,770.897 454.907,771.052 455.555,768.966C456.202,766.881 458.618,766.993 458.018,763.505C457.418,760.017 458.335,757.391 458.801,757.017C459.268,756.642 459.524,753.351 456.251,754.322C452.978,755.293 452.63,755.658 452.63,753.48C452.63,751.302 449.406,750.45 449.406,750.45C449.406,750.45 449.912,747.633 447.799,747.434C445.687,747.236 444.617,747.768 444.617,747.768C444.617,747.768 443.183,744.457 441.226,744.457C439.269,744.457 436.296,745.488 436.109,742.83C435.921,740.172 435.852,736.283 435.852,736.283C435.852,736.283 423.514,738.66 417.051,741.326C410.587,743.993 402.366,748.116 398.837,749.148C395.308,750.181 391.119,752.601 388.124,752.91C385.128,753.219 385.331,755.141 380.967,755.005C376.602,754.87 376.26,755.04 374.26,753.713C372.259,752.386 372.934,750.237 372.934,750.237C372.934,750.237 372.902,746.285 371.784,745.375C370.666,744.465 370.296,742.132 370.296,742.132C370.296,742.132 364.331,738.802 362.624,735.743C360.916,732.684 359.149,730.368 356.651,729.068C354.154,727.768 349.802,727.685 348.753,729.339C347.704,730.993 345.848,731.17 345.708,728.42C345.569,725.67 343.834,723.556 343.939,719.845C344.045,716.135 345.12,713.427 343.457,713.357C341.794,713.287 341.784,712.839 340.477,714.806C339.171,716.774 337.607,718.944 338.212,719.862C338.817,720.781 340.073,724.277 337.987,724.009C335.901,723.741 332.358,723.377 332.576,721.016C332.795,718.654 333.342,719.36 333.688,717.627C334.033,715.894 336.462,713.692 334.157,713.274C332.226,712.924 328.152,712.491 326.405,711.04ZM325.124,712.173L325.061,712.256L325.072,712.241L325.124,712.173ZM325.22,712.05L325.159,712.127L325.174,712.108L325.22,712.05ZM325.316,711.932L325.257,712.003L325.275,711.981L325.316,711.932ZM325.412,711.819L325.355,711.886L325.376,711.861L325.412,711.819ZM325.508,711.713L325.451,711.775L325.476,711.747L325.508,711.713ZM325.603,711.612L325.547,711.671L325.575,711.641L325.603,711.612ZM325.697,711.519L325.642,711.573L325.673,711.542L325.697,711.519ZM325.79,711.432L325.736,711.483L325.77,711.45L325.79,711.432ZM325.883,711.353L325.828,711.399L325.866,711.366L325.883,711.353ZM325.974,711.28L325.92,711.323L325.961,711.29L325.974,711.28ZM326.405,711.04L326.401,711.041L326.369,711.053L326.353,711.059L326.324,711.071L326.304,711.08L326.279,711.091L326.255,711.103L326.236,711.113L326.206,711.129L326.194,711.135L326.156,711.157L326.155,711.158C326.107,711.187 326.059,711.219 326.01,711.255C326.059,711.219 326.107,711.186 326.155,711.158L326.156,711.157L326.156,711.157L326.161,711.154L326.194,711.135L326.204,711.13L326.206,711.129L326.211,711.126L326.236,711.113L326.252,711.105L326.255,711.103L326.26,711.101L326.279,711.091L326.299,711.082L326.304,711.08L326.309,711.078L326.324,711.071L326.346,711.062L326.353,711.059L326.357,711.057L326.369,711.053L326.392,711.044L326.401,711.041L326.404,711.04L326.405,711.04Z" style="fill:rgb(115,245,184);stroke:white;stroke-width:1.56px;"/>
    </g>
</svg>
