<?xml version="1.0" encoding="UTF-8" standalone="no"?>
<!DOCTYPE svg PUBLIC "-//W3C//DTD SVG 1.1//EN" "http://www.w3.org/Graphics/SVG/1.1/DTD/svg11.dtd">
<svg width="100%" height="100%" viewBox="0 0 401 473" version="1.1" xmlns="http://www.w3.org/2000/svg" xmlns:xlink="http://www.w3.org/1999/xlink" xml:space="preserve" style="fill-rule:evenodd;clip-rule:evenodd;stroke-linecap:round;stroke-linejoin:round;stroke-miterlimit:1.5;">
    <g id="mallawa" transform="matrix(1,0,0,1,-1053.17,-135.018)">
        <path d="M1054.06,430.757C1054.42,427.731 1054.51,423.387 1054.41,416.606C1054.23,403.565 1060.98,406.422 1061.17,395.356C1061.35,384.29 1063.09,389.212 1064.56,386.06C1066.03,382.909 1062.21,372.552 1059.58,366.826C1056.96,361.1 1056.97,352.09 1057.91,344.608C1058.85,337.125 1065.41,329.301 1067.79,320.767C1070.16,312.232 1070.91,309.173 1069.73,306.172C1068.55,303.171 1066.52,297.844 1068.43,289.06C1070.34,280.277 1075.22,278.923 1071.31,270.328C1067.4,261.733 1068.85,262.6 1068.89,258.534C1068.94,254.468 1070.33,248.605 1074.92,244.971C1079.52,241.337 1091.55,233.968 1095.25,230.84C1098.94,227.711 1103.64,224.617 1110.83,224.195C1118.01,223.773 1121.1,221.911 1122.89,219.254C1124.67,216.598 1132.36,210.658 1132.99,207.002C1133.62,203.346 1134.93,195.893 1148.39,194.877C1161.86,193.861 1165.39,196.933 1169.12,194.259C1172.84,191.584 1173.23,187.883 1178.53,189.477C1183.83,191.072 1186.2,193.206 1189.74,193.836C1193.28,194.465 1191.9,197.508 1196.62,196.221C1201.33,194.934 1201.45,191.816 1202.47,188.95C1203.48,186.083 1208.31,184.385 1209.72,181.048C1211.13,177.71 1210.21,172.783 1213.65,171.899C1217.1,171.015 1217.27,167.56 1219.88,166.715C1222.5,165.87 1230.78,162.759 1231.13,158.305C1231.47,153.851 1231.02,151.123 1234.5,146.186C1237.98,141.249 1238.15,141.416 1238.58,139.635C1239.02,137.854 1241.14,132.629 1246.99,138.538C1252.84,144.446 1251.1,146.32 1257.59,150.353C1264.08,154.385 1267.27,154.555 1270.32,154.385C1273.37,154.215 1272.98,156.34 1275.54,160.484C1278.09,164.627 1279.03,168.466 1285.35,165.871C1291.68,163.275 1301.92,162.078 1306.39,167.74C1310.86,173.401 1319.57,181.719 1324.61,185.013C1329.64,188.306 1333.94,194.844 1335.55,200.133C1337.16,205.421 1343.3,214.189 1346.28,215.127C1349.26,216.064 1350.43,219.352 1350.43,219.352C1350.43,219.352 1351.91,217.541 1353.5,219.506C1355.1,221.471 1357.91,222.393 1358.84,222.711C1359.77,223.028 1362.11,226.202 1363.63,227.783C1365.15,229.363 1367.21,230.501 1368.97,229.945C1370.73,229.388 1373.48,228.386 1376.58,231.624C1379.67,234.863 1385.58,234.215 1385.58,234.215C1385.58,234.215 1392.37,239.039 1397.32,242.067C1402.27,245.096 1410.05,247.368 1417.01,254.698C1423.97,262.029 1428.89,263.303 1435.06,266.662C1441.23,270.021 1448.11,274.464 1450.77,278.857C1453.44,283.25 1453.74,289.7 1450.35,293.421C1446.96,297.142 1447.72,301.713 1440.46,302.637C1433.2,303.561 1429.94,304.678 1423.84,305.996C1417.74,307.314 1413.03,310.678 1407.49,311.011C1401.95,311.344 1394.39,326.947 1391.12,333.023C1387.85,339.098 1383.71,355.412 1385.87,360.803C1388.03,366.193 1391.67,374.868 1388.13,378.217C1384.59,381.565 1383.36,382.316 1382.71,389.123C1382.07,395.929 1383.69,397.965 1381.35,399.237C1379,400.508 1377.85,408 1377.46,411.608C1377.08,415.217 1372.91,424.75 1369.67,427.37C1366.43,429.99 1364.1,434.731 1360.72,435.395C1357.33,436.06 1358.19,435.532 1355.3,437.187C1352.4,438.842 1350.78,436.394 1351.29,440.669C1351.8,444.944 1351.92,445.413 1345.71,452.632C1339.51,459.85 1335.07,464.272 1332.52,465.29C1329.97,466.307 1329.39,466.99 1329.39,466.99C1329.39,466.99 1325.19,479.37 1324.3,481.908C1323.42,484.447 1320.92,489.428 1320.92,489.428C1320.92,489.428 1324.6,491.108 1328.27,494.823C1331.94,498.538 1336.38,496.283 1340.46,497.864C1344.54,499.445 1347.12,503.219 1350.37,503.903C1353.61,504.588 1356.41,507.263 1357.82,511.422C1359.23,515.582 1361.33,521.66 1361.18,526.332C1361.02,531.004 1358.04,531.815 1358.97,532.783C1359.9,533.751 1361.02,535.101 1361.02,535.101C1361.02,535.101 1357.46,535.69 1356.45,538.421C1355.43,541.153 1358.38,545.149 1354.64,545.548C1350.9,545.946 1350,545.625 1349.71,548.285C1349.42,550.945 1350.06,552.592 1347.15,552.864C1344.24,553.135 1339.14,552.86 1338.56,557.963C1337.97,563.065 1336.56,568.254 1334.79,568.628C1333.01,569.003 1329.38,569.181 1328.23,572.374C1327.09,575.566 1327.17,576.769 1324.15,577.773C1321.14,578.778 1320.29,580.374 1320.53,582.111C1320.77,583.848 1317.91,584.386 1314.18,584.052C1310.46,583.717 1307.01,582.766 1307.24,586.157C1307.47,589.548 1307.45,590.67 1304.18,589.737C1300.91,588.804 1299.33,586.984 1298.94,591.4C1298.55,595.816 1296.74,599.152 1294.92,599.596C1293.09,600.041 1292.04,597.588 1290.45,596.523C1288.87,595.458 1285.3,594.523 1286.02,597.999C1286.75,601.476 1285.94,607.026 1282.44,607.025C1278.93,607.025 1275.49,604.556 1274.02,605.341C1273.43,605.654 1272.91,605.961 1272.59,606.304C1266.11,601.912 1261.04,596.509 1261.04,596.509C1261.04,596.509 1258.57,592.906 1254.19,590.41C1249.81,587.913 1252.62,585.421 1252.62,585.421C1252.62,585.421 1243.19,579.419 1237.64,574.66C1232.09,569.901 1221.18,559.993 1217.81,556.324C1214.45,552.654 1205.06,544.566 1200.24,541.885C1195.42,539.203 1182.82,534.217 1177.78,527.915C1172.74,521.612 1175.03,508.808 1174.56,500.727C1174.09,492.645 1170.53,489.826 1163.1,480.968C1155.66,472.111 1140.33,467.198 1140.33,467.198C1140.33,467.198 1122.65,462.851 1111.15,462.947C1099.65,463.044 1100.72,455.287 1100.72,455.287C1100.72,455.287 1097.5,455.024 1093.78,453.312C1090.06,451.599 1087.7,447.813 1087.7,447.813C1087.7,447.813 1084.58,446.738 1079.9,444.314C1075.21,441.89 1071.36,437.604 1069.95,436.88C1068.54,436.157 1066.31,431.515 1064.32,431.114C1063.31,430.91 1058.53,430.686 1054.09,430.515C1054.08,430.597 1054.07,430.677 1054.06,430.757ZM1272.32,606.706L1272.32,606.71L1272.32,606.707L1272.32,606.706ZM1272.37,606.599L1272.37,606.604L1272.37,606.602L1272.37,606.599ZM1272.4,606.547L1272.4,606.555L1272.4,606.551L1272.4,606.547ZM1272.43,606.499L1272.43,606.504L1272.43,606.501L1272.43,606.499ZM1053.95,431.619L1053.95,431.586L1053.95,431.619ZM1053.98,431.408L1053.97,431.452L1054,431.278L1053.98,431.408ZM1054.04,430.971L1054.02,431.071L1054.04,430.917L1054.04,430.971Z" style="fill:rgb(230,255,107);stroke:white;stroke-width:1.56px;"/>
    </g>
</svg>
