<?xml version="1.0" encoding="UTF-8" standalone="no"?>
<!DOCTYPE svg PUBLIC "-//W3C//DTD SVG 1.1//EN" "http://www.w3.org/Graphics/SVG/1.1/DTD/svg11.dtd">
<svg width="100%" height="100%" viewBox="0 0 173 230" version="1.1" xmlns="http://www.w3.org/2000/svg" xmlns:xlink="http://www.w3.org/1999/xlink" xml:space="preserve" style="fill-rule:evenodd;clip-rule:evenodd;stroke-linecap:round;stroke-linejoin:round;stroke-miterlimit:1.5;">
    <g id="mandai" transform="matrix(1,0,0,1,-387.71,-895.691)">
        <path d="M541.115,1117.92C540.345,1118.28 539.151,1118.88 537.964,1119.59C535.977,1120.77 531.841,1125.61 529.592,1124.61C527.344,1123.61 523.465,1122.61 520.407,1122.76C517.349,1122.92 513.145,1122.64 510.42,1120.56C507.695,1118.47 508.325,1116.45 506.192,1115.72C504.058,1115 505.462,1114.42 502.963,1115.48C500.465,1116.54 499.886,1116.17 498.681,1115.05C497.476,1113.92 492.607,1113.98 488.865,1113.95C485.122,1113.93 483.603,1113.35 481.017,1112.08C478.431,1110.82 477.684,1110.28 474.872,1105.12C472.061,1099.96 472.281,1102.04 472.54,1098.75C472.8,1095.47 474.643,1090.51 472.26,1088.95C469.876,1087.4 468.943,1088.3 468.738,1086.12C468.533,1083.93 467.06,1082.47 464.087,1081.66C461.114,1080.85 457.297,1078.42 452.668,1078.06C448.039,1077.7 443.919,1076.9 442.328,1076.29C440.738,1075.68 436.67,1073.5 433.266,1073.44C431.503,1073.41 428.125,1072.47 425.276,1071.56C425.519,1071.24 425.756,1070.94 425.982,1070.67C428.443,1067.78 430.108,1065.2 428.783,1061.93C427.458,1058.66 431.724,1047.87 431.724,1047.87C431.724,1047.87 432.942,1043.12 436.639,1038.76C440.335,1034.39 441.137,1031.86 441.496,1029.52C441.855,1027.18 442.956,1025.83 443.75,1024.63C444.543,1023.44 448.177,1018.53 443.977,1015.02C439.777,1011.5 439.369,1009.96 436.842,1009.78C434.316,1009.61 429.848,1008.97 426.773,1009.85C423.697,1010.73 419.292,1010.42 416.608,1006.69C413.923,1002.96 410.614,1001.97 410.153,996.346C409.693,990.723 411.698,991.998 409.693,989.011C407.688,986.025 406.93,987.551 406.6,986.22C406.27,984.888 403.717,983.629 402.756,982.918C401.796,982.208 401.868,980.733 401.403,978.711C400.938,976.69 398.986,977.004 399.188,974.633C399.391,972.263 397.288,970.865 394.862,968.799C392.436,966.734 391.236,968.251 390.844,965.547C390.61,963.939 390.922,962.662 390.139,961.77L390.085,961.711L390.087,961.713L390.139,961.77C394.718,959.093 401.186,955.278 402.739,954.189C405.206,952.46 411.4,949.686 411.4,949.686C411.4,949.686 410.495,947.359 414.671,946.035C418.847,944.712 420.265,944.699 419.587,942.911C418.909,941.123 419.188,940.876 421.68,938.912C424.172,936.948 430.188,936.821 426.949,931.486C423.71,926.15 422.316,925.795 420.914,924.747C419.511,923.699 419.511,920.543 419.511,918.842C419.511,917.141 418.83,911.916 417.839,909.357C416.848,906.799 416.288,903.819 417.406,902.157C418.166,901.027 420.491,900.142 421.496,896.913C423.201,898.116 425.207,899.761 425.326,900.909C425.535,902.926 425.895,902.613 427.034,903.213C428.172,903.813 428.161,906.463 427.495,909.55C426.83,912.636 428.222,912.303 430.775,911.94C433.328,911.577 434.832,912.367 435.601,914.524C436.37,916.681 431.572,919.904 429.905,921.595C428.238,923.287 431.143,923.164 434.068,922.736C436.993,922.308 435.864,924.779 438.684,924.754C441.505,924.729 441.49,923.412 443.472,922.777C445.455,922.142 446.747,922.973 450.818,922.992C454.889,923.01 453.759,922.01 453.983,920.026C454.207,918.043 449.713,915.965 447.74,913.532C445.766,911.099 444.79,910.328 447.508,909.684C450.226,909.04 450.477,910.254 452.691,910.32C454.905,910.385 458.314,912.731 459.668,914.886C461.022,917.041 464.055,919.511 468.763,923.885C473.471,928.26 477.03,921.901 480.088,920.396C483.146,918.891 486.66,916.913 488.92,915.44C491.179,913.967 492.635,909.107 495.869,903.488C499.102,897.87 504.957,898.594 507.788,898.594C510.619,898.594 513.802,898.594 515.797,898.378C517.793,898.162 526.936,899.015 530.582,899.79C533.621,900.436 538.124,903.286 539.54,904.218C540.141,906.143 541.307,907.991 543.479,909.087C549.575,912.165 549.223,916.599 548.046,918.115C546.868,919.63 548.407,922.751 548.407,922.751C548.407,922.751 546.715,924.166 546.362,925.566C546.194,926.234 546.371,928.424 546.602,930.532C545.762,930.259 545.249,930.083 545.249,930.083C545.249,930.083 544.945,933.071 545.445,935.466C545.946,937.861 542.974,940.983 546.01,945.051C549.046,949.12 559.129,955.179 559.129,955.179C559.129,955.179 557.82,956.311 556.086,961.006C554.353,965.701 551.327,970.599 548.38,975.958C545.432,981.316 543.319,989.768 542.291,992.95C541.263,996.131 533.728,1001.97 531.608,1003.45C529.488,1004.92 515.87,1005.42 508.595,1005.56C501.32,1005.69 502.824,1015.88 503.009,1019.41C503.194,1022.93 508.466,1025.81 508.466,1025.81C508.466,1025.81 507.749,1028.13 506.434,1033.1C505.119,1038.06 500.62,1045.11 497.823,1049.99C495.025,1054.87 494.147,1060.91 494.147,1060.91C494.147,1060.91 499.035,1064.7 501.332,1066.17C503.628,1067.64 507.903,1072.47 511.998,1075.56C516.092,1078.64 519.672,1081.98 522.39,1083.76C525.109,1085.55 527.591,1090.54 528.75,1092.38C529.908,1094.22 534.189,1097.12 535.89,1100.08C537.591,1103.05 541.729,1106.98 541.729,1106.98L541.115,1117.92ZM424.293,1072.96L424.237,1073.04L424.293,1072.96ZM424.541,1072.59L424.422,1072.77L424.496,1072.65L424.541,1072.59ZM424.807,1072.21L424.67,1072.4L424.754,1072.28L424.807,1072.21ZM390.033,961.658L390.058,961.684L390.023,961.648L390.033,961.658ZM389.975,961.603L389.993,961.621L389.956,961.586L389.975,961.603ZM389.914,961.55L389.925,961.56L389.881,961.523L389.914,961.55ZM389.71,961.396L389.756,961.428L389.698,961.388L389.71,961.396ZM389.635,961.347L389.665,961.367L389.611,961.332L389.635,961.347ZM389.557,961.299L389.576,961.311L389.516,961.276L389.557,961.299ZM389.297,961.162L389.374,961.2L389.284,961.156L389.297,961.162ZM389.203,961.118L389.248,961.139L389.175,961.106L389.203,961.118ZM389.104,961.075L389.133,961.088L389.057,961.056L389.104,961.075ZM389.001,961.034L389.017,961.04L388.914,961.001L389.001,961.034ZM388.665,960.915L388.729,960.937L388.635,960.906L388.665,960.915ZM388.543,960.878L388.586,960.891L388.492,960.863L388.543,960.878ZM421.538,896.775L421.534,896.786L421.546,896.745L421.538,896.775ZM421.578,896.633L421.572,896.656L421.585,896.607L421.578,896.633ZM421.617,896.489L421.608,896.52L421.621,896.472L421.617,896.489Z" style="fill:rgb(255,141,148);stroke:white;stroke-width:1.56px;"/>
    </g>
</svg>
