<?xml version="1.0" encoding="UTF-8" standalone="no"?>
<!DOCTYPE svg PUBLIC "-//W3C//DTD SVG 1.1//EN" "http://www.w3.org/Graphics/SVG/1.1/DTD/svg11.dtd">
<svg width="100%" height="100%" viewBox="0 0 209 182" version="1.1" xmlns="http://www.w3.org/2000/svg" xmlns:xlink="http://www.w3.org/1999/xlink" xml:space="preserve" style="fill-rule:evenodd;clip-rule:evenodd;stroke-linecap:round;stroke-linejoin:round;stroke-miterlimit:1.5;">
    <g id="marosbaru" transform="matrix(1,0,0,1,-281.38,-710.259)">
        <path d="M282.306,777.146C282.957,776.483 285.62,773.734 286.597,772.15C287.712,770.339 292.878,765.032 295.406,765.915C297.934,766.798 299.385,767.728 299.48,767.199C299.575,766.669 302.217,764.964 302.217,764.964C302.217,764.964 301.825,761.062 304.329,756.375C306.832,751.688 312.331,740.869 315.225,736.796C318.119,732.722 318.065,729.592 318.065,729.592C318.065,729.592 320.697,725.363 321.319,721.424C321.902,717.737 324.673,711.626 326.404,711.04C328.151,712.491 332.226,712.924 334.157,713.274C336.462,713.692 334.033,715.894 333.688,717.627C333.342,719.36 332.795,718.654 332.576,721.016C332.358,723.377 335.901,723.741 337.987,724.009C340.073,724.277 338.817,720.781 338.212,719.862C337.607,718.944 339.171,716.774 340.477,714.806C341.784,712.839 341.794,713.287 343.457,713.357C345.12,713.427 344.045,716.135 343.939,719.845C343.834,723.556 345.569,725.67 345.708,728.42C345.848,731.17 347.704,730.993 348.753,729.339C349.802,727.685 354.154,727.768 356.651,729.068C359.149,730.368 360.916,732.684 362.624,735.743C364.331,738.802 370.296,742.132 370.296,742.132C370.296,742.132 370.666,744.465 371.784,745.375C372.902,746.285 372.934,750.237 372.934,750.237C372.934,750.237 372.259,752.386 374.26,753.713C376.26,755.04 376.602,754.87 380.967,755.005C385.331,755.141 385.128,753.219 388.124,752.91C391.119,752.601 395.308,750.181 398.837,749.148C402.366,748.116 410.587,743.993 417.051,741.326C423.514,738.66 435.852,736.283 435.852,736.283C435.852,736.283 435.921,740.172 436.109,742.83C436.296,745.488 439.269,744.457 441.226,744.457C443.183,744.457 444.617,747.768 444.617,747.768C444.617,747.768 445.687,747.236 447.799,747.434C449.912,747.633 449.406,750.45 449.406,750.45C449.406,750.45 452.63,751.302 452.63,753.48C452.63,755.658 452.978,755.293 456.251,754.322C459.524,753.351 459.268,756.642 458.801,757.017C458.335,757.391 457.418,760.017 458.018,763.505C458.618,766.993 456.202,766.881 455.555,768.966C454.907,771.052 456.352,770.897 456.957,772.865C457.563,774.833 459.444,774.753 461.798,775.02C464.152,775.288 463.967,777.547 463.967,778.772C463.967,779.996 464.422,782.497 463.573,784.256C462.724,786.016 462.027,786.812 462.236,788.058C462.445,789.304 464.178,791.154 466.773,791.459C469.368,791.764 468.26,789.969 470.185,789.969C472.11,789.969 472.144,792.958 473.427,793.638C474.71,794.318 476.202,791.776 478.905,791.09C481.609,790.404 480.259,791.673 481.9,792.048C483.542,792.423 484.75,792.75 484.75,792.75C484.75,792.75 484.437,807.011 484.517,810.757C484.597,814.503 484.052,818.018 484.749,821.918C485.446,825.817 485.43,829.676 487.088,832.425C488.747,835.174 489.308,840.524 487.78,843.805C486.253,847.085 484.94,849.119 483.641,853.771C482.342,858.423 482.403,858.116 479.65,858.646C476.897,859.176 471.272,859.557 471.272,859.557C471.272,859.557 469.645,862.892 468.253,864.049C466.862,865.206 463.703,867.794 464.036,872.033C464.369,876.273 463.398,876.817 463.398,876.817C463.398,876.817 457.889,877.634 455.821,880.374C453.752,883.113 456.538,883.626 458.227,884.685C459.917,885.743 458.484,889.452 458.484,889.452C458.484,889.452 452.291,889.325 447.687,889.556C443.083,889.787 437.056,890.559 431.375,890.509C428.551,890.484 424.825,890.703 421.792,890.93C421.775,890.794 421.756,890.655 421.735,890.515C420.44,881.667 416.141,868.552 413.702,862.672C411.263,856.791 408.899,853.641 408.287,850.819C407.676,847.997 406.575,842.273 404.481,838.961C402.386,835.649 402.464,837.305 401.929,834.059L401.394,830.813C401.394,830.813 396.17,835.31 393.956,834.685C391.741,834.059 390.627,831.695 388.589,831.194C386.552,830.694 385.662,831.764 382.252,832.458C378.843,833.153 376.209,832.623 375.411,830.43C374.613,828.237 372.699,822.785 369.637,824.258C366.575,825.731 363.583,827.56 362.333,828.873C361.084,830.186 360.375,831.494 357.456,829.992C354.536,828.491 353.306,828.303 353.306,828.303C353.306,828.303 349.306,831.935 345.834,833.059C342.361,834.182 339.859,834.642 338.85,835.976C337.841,837.311 334.951,840.188 334.47,841.35C333.99,842.512 333.241,845.771 330.558,845.914C327.875,846.057 325.886,848.371 325.016,849.579C324.146,850.788 321.739,851.835 320.92,849.839C320.102,847.844 318.763,846.913 317.753,847.669C316.744,848.425 314.722,848.46 314.918,846.057C315.114,843.654 316.395,842.031 313.476,842.361C310.557,842.69 310.436,843.292 310.013,844.399C309.591,845.505 306.23,845.946 305.676,844.505C305.122,843.064 302.815,840.436 300.79,838.578C298.765,836.72 299.013,838.122 299.261,834.548C299.51,830.973 299.58,831.512 301.074,829.464C302.569,827.416 303.912,826.367 304.318,824.358C304.724,822.348 306.582,822.615 307.793,821.669C309.004,820.723 309.479,817.851 307.913,816.889C306.347,815.927 307.398,811.66 306.999,809.657C306.6,807.654 304.679,805.511 303.512,804.334C302.344,803.157 295.145,799.809 295.02,796.11C294.895,792.411 294.268,790.783 291.67,788.26C289.194,785.857 283.132,780.053 282.196,777.258L282.161,777.292L282.306,777.146Z" style="fill:rgb(102,255,97);stroke:white;stroke-width:1.56px;"/>
    </g>
</svg>
