<?xml version="1.0" encoding="UTF-8" standalone="no"?>
<!DOCTYPE svg PUBLIC "-//W3C//DTD SVG 1.1//EN" "http://www.w3.org/Graphics/SVG/1.1/DTD/svg11.dtd">
<svg width="100%" height="100%" viewBox="0 0 187 198" version="1.1" xmlns="http://www.w3.org/2000/svg" xmlns:xlink="http://www.w3.org/1999/xlink" xml:space="preserve" style="fill-rule:evenodd;clip-rule:evenodd;stroke-linecap:round;stroke-linejoin:round;stroke-miterlimit:1.5;">
    <g id="marusu" transform="matrix(1,0,0,1,-242.473,-776.477)">
        <path d="M282.196,777.258C283.132,780.053 289.194,785.857 291.67,788.26C294.268,790.783 294.895,792.411 295.02,796.11C295.145,799.809 302.344,803.157 303.512,804.334C304.679,805.511 306.6,807.654 306.999,809.657C307.398,811.66 306.347,815.927 307.913,816.889C309.479,817.851 309.004,820.723 307.793,821.669C306.582,822.615 304.724,822.348 304.318,824.358C303.912,826.367 302.569,827.416 301.074,829.464C299.58,831.512 299.51,830.973 299.261,834.548C299.013,838.122 298.765,836.72 300.79,838.578C302.815,840.436 305.122,843.064 305.676,844.505C306.23,845.946 309.591,845.505 310.013,844.399C310.436,843.292 310.557,842.69 313.476,842.361C316.395,842.031 315.114,843.654 314.918,846.057C314.722,848.46 316.744,848.425 317.753,847.669C318.763,846.913 320.102,847.844 320.92,849.839C321.739,851.835 324.146,850.788 325.016,849.579C325.886,848.371 327.875,846.057 330.558,845.914C333.241,845.771 333.99,842.512 334.47,841.35C334.951,840.188 337.841,837.311 338.85,835.976C339.859,834.642 342.361,834.182 345.834,833.059C349.306,831.935 353.306,828.303 353.306,828.303C353.306,828.303 354.536,828.491 357.456,829.992C360.375,831.494 361.084,830.186 362.333,828.873C363.583,827.56 366.575,825.731 369.637,824.258C372.699,822.785 374.613,828.237 375.411,830.43C376.209,832.623 378.843,833.153 382.252,832.458C385.662,831.764 386.552,830.694 388.589,831.194C390.627,831.695 391.741,834.059 393.956,834.685C396.17,835.31 401.394,830.813 401.394,830.813L401.929,834.059C402.464,837.305 402.386,835.649 404.481,838.961C406.575,842.273 407.676,847.997 408.287,850.819C408.899,853.641 411.263,856.791 413.702,862.672C416.141,868.552 420.44,881.667 421.735,890.515C423.03,899.363 418.524,900.495 417.406,902.157C416.288,903.819 416.848,906.799 417.839,909.357C418.83,911.916 419.511,917.141 419.511,918.842C419.511,920.543 419.511,923.699 420.914,924.747C422.316,925.795 423.71,926.15 426.949,931.486C430.188,936.821 424.172,936.948 421.68,938.912C419.188,940.876 418.909,941.123 419.587,942.911C420.265,944.699 418.847,944.712 414.671,946.035C410.495,947.359 411.4,949.686 411.4,949.686C411.4,949.686 405.206,952.46 402.739,954.189C401.186,955.278 394.716,959.093 390.139,961.77C389.606,961.162 388.565,960.732 386.498,960.496C381.397,959.915 380.138,959.52 377.768,960.127C375.397,960.734 374.348,961.005 372.212,959.996C370.077,958.988 363.005,956.376 360.687,958.287C358.369,960.197 356.98,963.155 358.158,966.47C359.337,969.784 359.834,970.371 357.614,970.449C355.394,970.527 353.245,969.66 350.596,971.188C347.948,972.717 346.459,973.254 344.512,972.261C342.564,971.269 341.068,969.623 339.043,969.293C337.017,968.962 335.992,967.182 334.421,968.544C332.849,969.906 328.594,973.555 325.676,971.212C322.758,968.869 322.273,968.001 320.336,968.137C318.399,968.272 320.001,965.882 317.714,965.928C315.427,965.973 315.442,967.65 314.158,967.019C312.874,966.387 311.499,965.537 312.806,963.495C314.114,961.453 314.493,958.212 312.755,958.212C311.016,958.212 308.49,957.232 309.314,959.835C310.138,962.438 311.167,962.246 309.429,962.495C307.69,962.743 307.244,962.161 306.583,963.129C305.922,964.097 308.532,965.413 306.554,965.525C304.576,965.636 302.821,965.543 302.316,964.385C301.81,963.227 300.98,960.217 299.321,959.558C297.661,958.899 295.928,957.684 295.721,958.364C295.514,959.044 295.28,959.556 295.956,960.302C296.631,961.048 297.784,962.473 296.324,962.914C294.864,963.355 291.776,962.291 291.616,961.467C291.457,960.643 292.054,958.116 293.528,956.825C295.003,955.534 295.001,953.72 293.994,953.194C292.987,952.669 291.621,952.782 290.481,953.6C289.341,954.418 288.077,954.177 287.867,952.656C287.657,951.135 288.58,949.243 286.897,949.084C285.214,948.924 282.97,951.06 280.523,950.856C278.075,950.652 272.606,948.234 272.001,945.253C271.397,942.273 272.228,926.507 272.444,922.195C272.661,917.883 271.7,912.042 270.6,906.904C269.5,901.767 267.934,893.857 268.84,890.706C269.746,887.555 269.877,887.057 269.877,887.057C269.877,887.057 265.176,886.8 264.343,885.717C263.51,884.634 263.099,884.292 260.684,884.879C258.269,885.466 256.745,886.474 255.398,887.8C254.05,889.126 248.438,892.998 246.789,889.446C245.14,885.894 243.753,887.244 243.373,883.204C242.993,879.164 243.587,879.166 244.232,877.777C244.877,876.387 244.416,878.139 244.005,875.877C243.595,873.615 243.909,873.88 244.482,871.846C245.056,869.811 243.881,866.711 247.233,867.81C250.584,868.909 251.293,865.166 253.192,865.873C255.09,866.58 256.991,862.378 257.321,858.076C257.651,853.774 257.018,849.754 259.243,846.957C261.468,844.16 265.083,840.47 267.491,840.385C269.898,840.301 271.826,840.05 271.084,838.521C270.342,836.991 267.291,833.311 267.478,830.54C267.665,827.769 269.926,823.506 269.779,818.887C269.631,814.268 268.184,810.33 268.141,808.007C268.097,805.684 268.65,805.545 268.65,805.545C268.65,805.545 266.058,804.054 266.359,801.108C266.66,798.163 268.077,799.295 267.77,795.797C267.463,792.299 267.222,791.899 269.326,791.357C271.431,790.815 275.59,790.789 275.59,790.111C275.59,789.433 272.342,787.455 272.77,784.114C273.198,780.772 274.775,779.926 276.825,779.056C278.875,778.186 282.161,777.292 282.161,777.292L282.196,777.258Z" style="fill:rgb(208,255,128);stroke:white;stroke-width:1.56px;"/>
    </g>
</svg>
