<?xml version="1.0" encoding="UTF-8" standalone="no"?>
<!DOCTYPE svg PUBLIC "-//W3C//DTD SVG 1.1//EN" "http://www.w3.org/Graphics/SVG/1.1/DTD/svg11.dtd">
<svg width="100%" height="100%" viewBox="0 0 291 159" version="1.1" xmlns="http://www.w3.org/2000/svg" xmlns:xlink="http://www.w3.org/1999/xlink" xml:space="preserve" style="fill-rule:evenodd;clip-rule:evenodd;stroke-linecap:round;stroke-linejoin:round;stroke-miterlimit:1.5;">
    <g id="moncongloe" transform="matrix(1,0,0,1,-301.262,-1070.78)">
        <path d="M425.276,1071.56C428.125,1072.47 431.503,1073.41 433.266,1073.44C436.67,1073.5 440.738,1075.68 442.328,1076.29C443.919,1076.9 448.039,1077.7 452.668,1078.06C457.297,1078.42 461.114,1080.85 464.087,1081.66C467.06,1082.47 468.533,1083.93 468.738,1086.12C468.943,1088.3 469.876,1087.4 472.26,1088.95C474.643,1090.51 472.8,1095.47 472.54,1098.75C472.281,1102.04 472.061,1099.96 474.872,1105.12C477.684,1110.28 478.431,1110.82 481.017,1112.08C483.603,1113.35 485.122,1113.93 488.865,1113.95C492.607,1113.98 497.476,1113.92 498.681,1115.05C499.886,1116.17 500.465,1116.54 502.963,1115.48C505.462,1114.42 504.058,1115 506.192,1115.72C508.325,1116.45 507.695,1118.47 510.42,1120.56C513.145,1122.64 517.349,1122.92 520.407,1122.76C523.465,1122.61 527.344,1123.61 529.592,1124.61C531.841,1125.61 535.977,1120.77 537.964,1119.59C539.951,1118.4 541.96,1117.54 541.96,1117.54C541.96,1117.54 543.38,1122.25 545.608,1127.28C547.836,1132.3 553.022,1138.73 556.268,1139.85C559.513,1140.96 563.853,1146.8 565.998,1148.97C568.144,1151.13 573.323,1154.06 576.637,1154.24C579.95,1154.43 579.495,1153.1 581.41,1153.1C583.324,1153.1 583.344,1155.79 584.565,1158C585.786,1160.21 587.121,1160.3 589.909,1161.27C592.697,1162.24 590.419,1164.04 588.895,1165.85C587.371,1167.66 586.654,1169.61 586.258,1175.35C586.014,1178.88 586.256,1185.1 586.478,1189.36C583.091,1188.27 580.349,1185.65 578.096,1180.85C575.213,1174.71 572.193,1172.37 570.46,1172.37C568.726,1172.37 563.773,1170.56 560.668,1171.44C557.562,1172.32 555.395,1176.23 552.772,1177.47C550.149,1178.71 543.737,1180.06 543.189,1185.13C542.641,1190.21 543.503,1198.97 541.447,1202.72C539.39,1206.47 539.493,1206.95 535.684,1208.44C531.875,1209.93 527.37,1215.08 527.37,1215.08C527.37,1215.08 524.525,1214.56 522.075,1216.22C519.625,1217.88 518.087,1220.26 518.087,1220.26C518.087,1220.26 515.451,1217.82 512.902,1217.55C510.353,1217.29 508.862,1218.67 508.862,1218.67C508.862,1218.67 506.528,1218.26 503.671,1219.27C500.813,1220.29 500.074,1222.46 497.016,1223.76C493.958,1225.05 492.081,1223.88 492.081,1223.88C492.081,1223.88 488.981,1219.81 486.19,1220.24C483.399,1220.68 483.33,1218.37 483.33,1218.37C483.33,1218.37 478.622,1220.44 477.192,1218.59C475.762,1216.74 476.018,1212.43 471.162,1210.54C466.306,1208.66 464.134,1205.13 460.86,1204C457.586,1202.88 457.702,1200.6 455.428,1199.22C453.155,1197.85 453.782,1198.78 450.285,1199.51C446.788,1200.24 445.604,1200.15 441.748,1199.58C437.892,1199.02 437.357,1199.39 436.239,1200.95C435.12,1202.5 432.563,1208.54 429.232,1210.18C425.901,1211.82 422.326,1210.87 422.059,1213.72C421.791,1216.58 423.685,1221.59 421.921,1222.36C420.157,1223.13 413.941,1227.1 411.641,1228.07C409.34,1229.05 406.992,1226.46 403.859,1225.95C400.726,1225.44 397.033,1223.96 393.667,1224.66C390.3,1225.36 387.781,1219.21 385.413,1216.92C383.044,1214.62 381.18,1211.72 376.944,1211.72C372.708,1211.72 371.763,1212.54 371.352,1208.88C370.941,1205.23 372.304,1204.78 369.125,1202.6C365.946,1200.43 365.239,1197.41 361.598,1199.11C357.956,1200.8 356.439,1203.34 356.439,1203.34C356.439,1203.34 358.453,1196.69 355.47,1195.5C352.487,1194.31 343.936,1193.94 340.152,1191.97C336.368,1189.99 332.118,1187.01 329.734,1186.76C327.351,1186.52 326.823,1186.83 324.864,1183.75C322.904,1180.67 320.024,1177.03 317.465,1174.61C314.907,1172.18 312.35,1169.44 309.683,1169.92C307.016,1170.4 305.221,1172.01 302.804,1170.81C300.387,1169.6 304.5,1168.8 304.5,1168.8C304.5,1168.8 309.104,1167.7 312.464,1167.78C315.823,1167.86 321.477,1168.18 321.477,1168.18C321.477,1168.18 327.451,1156.19 329.843,1157.66C332.235,1159.13 335.872,1163.38 337.226,1164.62C338.58,1165.85 342.913,1168.79 342.913,1168.79C342.913,1168.79 344.923,1166.78 345.262,1163.12C345.601,1159.46 348.85,1159.1 350.865,1158.82C352.879,1158.54 358.653,1162.91 359.436,1163.62C360.219,1164.34 364.604,1167.16 364.604,1167.16C364.604,1167.16 367.325,1169.55 367.646,1166.52C367.968,1163.49 369.677,1163.45 371.268,1163.21C372.859,1162.97 372.137,1159.02 373.581,1158.3C375.025,1157.58 374.252,1151.41 375.817,1150.98C377.383,1150.55 378.69,1144.41 378.69,1144.41C378.69,1144.41 386.828,1140.76 387.237,1135.18C387.646,1129.61 390.778,1127.03 392.957,1125.13C395.136,1123.24 397.836,1123.34 397.836,1123.34C397.836,1123.34 404.373,1113.24 408.484,1109.39C412.595,1105.53 416.927,1095.52 414.416,1092.6C411.904,1089.68 412.142,1085.53 416.037,1086.68C419.931,1087.84 420.845,1087.43 420.845,1085.77C420.845,1084.11 419.92,1081.33 419.851,1080.92C419.789,1080.55 422.867,1074.78 425.276,1071.56Z" style="fill:rgb(184,184,184);stroke:white;stroke-width:1.56px;"/>
    </g>
</svg>
