<?xml version="1.0" encoding="UTF-8" standalone="no"?>
<!DOCTYPE svg PUBLIC "-//W3C//DTD SVG 1.1//EN" "http://www.w3.org/Graphics/SVG/1.1/DTD/svg11.dtd">
<svg width="100%" height="100%" viewBox="0 0 513 201" version="1.1" xmlns="http://www.w3.org/2000/svg" xmlns:xlink="http://www.w3.org/1999/xlink" xml:space="preserve" style="fill-rule:evenodd;clip-rule:evenodd;stroke-linecap:round;stroke-linejoin:round;stroke-miterlimit:1.5;">
    <g id="simbang" transform="matrix(1,0,0,1,-520.635,-820.24)">
        <path d="M665.36,969.903C664.659,968.968 663.876,968.071 663.002,967.257C657.308,961.949 649.843,955.996 643.606,950.32C637.369,944.645 630.784,942.162 626.194,942.274C621.604,942.387 609.142,939.44 602.939,938.801C596.737,938.161 586.527,936.777 583.829,936.876C581.131,936.975 576.568,935.453 571.763,935.341C566.957,935.23 563.449,933.416 559.791,933.615C556.927,933.77 549.633,931.517 546.602,930.532C546.371,928.424 546.194,926.234 546.362,925.566C546.715,924.166 548.407,922.751 548.407,922.751C548.407,922.751 546.868,919.63 548.046,918.115C549.223,916.599 549.575,912.165 543.479,909.087C541.307,907.991 540.141,906.144 539.54,904.218L539.54,904.218L539.54,904.218C539.823,904.404 539.983,904.514 539.983,904.514C539.983,904.514 544.039,899.466 545.621,897.677C547.202,895.887 544.554,892.575 539.422,890.948C534.289,889.32 528.173,880.982 525.345,878.402C522.516,875.823 523.904,867.932 524.282,865.375C524.661,862.818 525.401,862.702 523.116,861.815C520.831,860.929 522.304,861.004 521.535,859.642C520.766,858.28 523.966,856.582 524.597,854.976C525.229,853.371 525.706,851.602 527.272,850.795C528.838,849.989 532.267,848.968 534.522,849.163C536.778,849.359 538.131,849.441 540.39,848.651C542.648,847.861 545.824,848.358 548.53,848.028C551.236,847.697 552.905,845.528 554.81,843.89C555.932,842.925 557.619,841.826 558.818,841.085C561.325,840.797 563.734,840.453 564.582,840.125C566.6,839.345 568.924,838.523 570.769,840.856C572.615,843.189 572.985,844.554 575.493,846.46C578.002,848.365 583.005,851.131 585.863,853.061C588.721,854.99 592.174,861.206 593.704,860.719C595.235,860.233 599.863,856.941 605.637,857.139C611.41,857.338 616.265,856.811 616.265,856.811C616.265,856.811 619.011,860.145 619.574,861.923C620.138,863.702 621.108,866.657 623.958,866.733C626.808,866.81 630.301,867.46 632.839,865.46C635.378,863.46 636.995,862.758 640.014,862.442C643.033,862.126 648.166,860.945 648.165,863.728C648.164,866.512 646.868,867.831 647.356,869.686C647.843,871.541 648.563,874.22 653.006,873.137C657.449,872.055 661.215,871.489 663.457,870.056C665.699,868.624 666.76,867.772 664.968,863.895C663.176,860.018 660.403,855.645 662.405,852.755C664.407,849.864 669.199,845.457 668.659,841.1C668.119,836.742 663.96,834.254 667.755,832.73C671.549,831.205 675.988,828.372 676.336,831.745C676.685,835.118 675.541,838.674 678.161,838.751C680.781,838.827 685.718,840.628 683.817,842.469C681.915,844.31 683.827,846.528 683.827,846.528C683.827,846.528 687.23,846.82 686.613,848.531C685.995,850.243 685.047,853.595 686.73,853.595C688.412,853.595 687.017,851.458 689.216,850.433C691.414,849.407 691.983,850.77 692.653,851.654C693.322,852.539 698.122,856.509 700.751,856.369C703.381,856.228 704.884,856.074 704.083,854.32C703.283,852.567 704.1,849.048 706.051,850.147C708.002,851.247 707.978,852.334 711.497,852.102C715.016,851.87 716.073,852.572 716.622,850.559C717.172,848.546 718.184,849.538 720.039,850.666C721.894,851.794 726.47,856.559 726.47,856.559C726.47,856.559 728.372,857.121 732.129,855.772C735.885,854.422 736.345,853.153 740.006,854.652C743.666,856.15 748.393,858.465 750.573,857.58C752.753,856.695 753.643,846.736 757.303,846.602C760.962,846.468 763.5,849.411 766.758,845.127C770.016,840.843 775.605,832.022 784.437,828.623C793.268,825.223 790.055,823.569 794,822.221C797.944,820.873 802.465,821.026 802.465,821.026C802.465,821.026 802.163,826.305 806.781,827.141C811.399,827.978 809.893,831.899 812.829,831.975C815.765,832.052 828.975,834.726 831.737,842.113C834.498,849.5 836.942,854.862 837.554,856.268C838.166,857.673 838.9,859.51 845.435,863.969C851.97,868.428 853.527,869.485 854.385,871.919C855.244,874.353 857.003,874.556 859.029,873.931C861.055,873.306 874.327,870.741 878.77,870.936C883.213,871.132 890.228,873.533 890.228,873.533C890.228,873.533 902.79,874.066 902.242,883.859C901.693,893.653 900.545,896.522 901.3,898.758C902.054,900.995 899.538,903.267 906.207,907.908C912.877,912.55 924.723,924.711 928.853,930.199C932.982,935.687 937.731,944.487 939.8,947.25C941.869,950.012 944.898,958.164 948.968,960.34C953.039,962.515 956.467,967.586 961.48,971.274C966.493,974.962 968.738,979.789 971.959,981.088C975.18,982.386 984.756,992.281 1000.3,986.947C1015.84,981.613 1016.81,978.156 1016.81,978.156C1016.81,978.156 1019.11,975.197 1021.7,978.858C1024.3,982.519 1026.06,981.838 1028.4,985.176C1030.73,988.513 1033.04,993.321 1032.59,996.036C1032.15,998.751 1030.85,1003.45 1030.85,1005.4C1030.85,1007.35 1027,1009.82 1026.84,1010.79C1026.74,1011.47 1025.21,1015.58 1024.3,1018.01C1019.5,1017.92 1012.83,1017.83 1009.94,1017.99C1005.17,1018.26 995.194,1018.26 990.123,1018.03C985.052,1017.81 979.085,1018.63 975.5,1016.06C971.915,1013.49 972.7,1013.37 968.716,1012.02C964.732,1010.67 960.612,1009.74 960.612,1009.74L955.258,1010.16C955.258,1010.16 951.917,1013.26 950.317,1014.69C948.716,1016.13 947.358,1015.35 942.541,1017.25C937.724,1019.16 937.29,1013.84 936.517,1012.2C935.743,1010.56 933.744,1011.2 932.204,1009.24C930.663,1007.27 927.565,1007.33 924.209,1008.81C920.852,1010.28 919.389,1007.46 917.469,1006.85C915.549,1006.23 910.032,1007.37 910.032,1007.37C910.032,1007.37 908.353,1010.6 907.253,1011.01C906.154,1011.42 904.68,1009.55 903.352,1007.12C902.023,1004.69 899.206,1005.18 893.05,1005.59C886.893,1006 872.142,1013.49 860.215,1015.49C848.288,1017.49 830.1,1014.56 821.504,1013.07C812.909,1011.59 806.864,1012.31 786.033,1017.15C765.201,1022 761.542,1018.88 754.358,1017.1C747.174,1015.33 737.392,1009.71 732.804,1008.29C728.216,1006.88 726.151,1005.86 719.234,1001.56C712.318,997.252 703.241,992.785 696.493,988.83C691.85,986.108 675.259,975.966 665.36,969.903ZM666.696,971.876L666.715,971.909L666.666,971.828L666.696,971.876ZM666.541,971.627L666.549,971.64L666.511,971.58L666.541,971.627ZM666.057,970.881L666.072,970.905L666.054,970.878L666.057,970.881ZM665.888,970.635L665.919,970.68L665.873,970.613L665.888,970.635ZM665.716,970.389L665.74,970.425L665.69,970.354L665.716,970.389ZM665.54,970.145L665.553,970.164L665.51,970.105L665.54,970.145Z" style="fill:rgb(150,167,249);stroke:white;stroke-width:1.56px;"/>
    </g>
</svg>
