<?xml version="1.0" encoding="UTF-8" standalone="no"?>
<!DOCTYPE svg PUBLIC "-//W3C//DTD SVG 1.1//EN" "http://www.w3.org/Graphics/SVG/1.1/DTD/svg11.dtd">
<svg width="100%" height="100%" viewBox="0 0 233 262" version="1.1" xmlns="http://www.w3.org/2000/svg" xmlns:xlink="http://www.w3.org/1999/xlink" xml:space="preserve" style="fill-rule:evenodd;clip-rule:evenodd;stroke-linecap:round;stroke-linejoin:round;stroke-miterlimit:1.5;">
    <g id="tanralili" transform="matrix(1,0,0,1,-493.366,-929.302)">
        <path d="M541.115,1117.92L541.729,1106.98C541.729,1106.98 537.591,1103.05 535.89,1100.08C534.189,1097.12 529.908,1094.22 528.75,1092.38C527.591,1090.54 525.109,1085.55 522.39,1083.76C519.672,1081.98 516.092,1078.64 511.998,1075.56C507.903,1072.47 503.628,1067.64 501.332,1066.17C499.035,1064.7 494.147,1060.91 494.147,1060.91C494.147,1060.91 495.025,1054.87 497.823,1049.99C500.62,1045.11 505.119,1038.06 506.434,1033.1C507.749,1028.13 508.466,1025.81 508.466,1025.81C508.466,1025.81 503.194,1022.93 503.009,1019.41C502.824,1015.88 501.32,1005.69 508.595,1005.56C515.87,1005.42 529.488,1004.92 531.608,1003.45C533.728,1001.97 541.263,996.131 542.291,992.95C543.319,989.768 545.432,981.316 548.38,975.958C551.327,970.599 554.353,965.701 556.086,961.006C557.82,956.311 559.129,955.179 559.129,955.179C559.129,955.179 549.046,949.12 546.01,945.051C542.974,940.983 545.946,937.861 545.445,935.466C544.945,933.071 545.249,930.083 545.249,930.083C545.249,930.083 556.133,933.813 559.791,933.615C563.449,933.416 566.957,935.23 571.763,935.341C576.568,935.453 581.131,936.975 583.829,936.876C586.527,936.777 596.737,938.161 602.939,938.801C609.142,939.44 621.604,942.387 626.194,942.274C630.784,942.162 637.369,944.645 643.606,950.32C649.843,955.996 657.308,961.949 663.002,967.257C668.697,972.566 670.58,981.375 670.58,981.375C670.58,981.375 680.126,1003.05 682.086,1011.42C684.045,1019.78 687.108,1028.88 690.955,1028.99C694.801,1029.1 712.074,1033.52 712.074,1033.52C712.074,1033.52 718.639,1037.17 720.132,1043.36C721.626,1049.56 724.965,1060.13 725.398,1069.09C725.831,1078.04 721.469,1086.11 721.014,1092.52C720.559,1098.93 716.344,1114.55 716.344,1114.55C716.344,1114.55 703.509,1107.85 698.847,1106.27C694.185,1104.69 692.37,1102.32 689.025,1102.22C685.681,1102.12 680.355,1101.26 677.695,1098.98C675.035,1096.69 672.448,1092.23 669.234,1090.09C666.02,1087.95 660.835,1083.81 660.835,1083.81C660.835,1083.81 659.899,1081.29 657.923,1078.97C655.948,1076.64 655.875,1076.64 655.875,1076.64C655.875,1076.64 654.441,1078.31 652.118,1079.01C649.795,1079.7 648.203,1080.43 646.873,1081.89C645.543,1083.36 642.436,1086.5 642.941,1089.06C643.446,1091.61 644.209,1094.91 643.446,1096.73C642.682,1098.55 639.807,1097.7 639.807,1097.7C639.807,1097.7 636.331,1100.6 635.824,1100.96C635.318,1101.32 633.929,1102.92 630.862,1103.89C627.795,1104.85 625.743,1106.66 625.743,1106.66C625.743,1106.66 627.421,1109.84 627.177,1111.55C626.933,1113.27 626.861,1114.83 626.861,1114.83C626.861,1114.83 624.906,1110.92 622.366,1111.7C619.825,1112.49 619.968,1113.77 620.812,1114.44C621.655,1115.12 625.166,1118.4 625.166,1118.4L625.166,1124.12C625.166,1124.12 622.179,1126.36 623.668,1128.44C625.157,1130.52 626.915,1130.54 629.303,1133.07C631.691,1135.61 632.574,1137.47 631.388,1140.05C630.202,1142.64 629.336,1143.03 628.249,1145.92C627.161,1148.82 627.753,1149.25 625.654,1150.15C623.556,1151.04 623.296,1150.48 622.552,1152.61C621.816,1154.71 621.808,1156.44 621.808,1156.48L619.393,1156.48L618.563,1158.64C618.563,1158.64 617.372,1158.18 615.964,1158.85C614.556,1159.53 613.528,1159.79 613.442,1162.91C613.356,1166.03 612.678,1169 612.678,1173.26C612.678,1177.52 611.821,1183.7 611.821,1183.7L611.684,1190.39C609.676,1190.43 607.828,1190.44 606.081,1190.31C602,1190.01 594.286,1190.31 589.473,1189.94C588.41,1189.86 587.401,1189.67 586.445,1189.35L586.478,1189.36C586.256,1185.1 586.014,1178.88 586.258,1175.35C586.654,1169.61 587.371,1167.66 588.895,1165.85C590.419,1164.04 592.697,1162.24 589.909,1161.27C587.121,1160.3 585.786,1160.21 584.565,1158C583.344,1155.79 583.324,1153.1 581.41,1153.1C579.495,1153.1 579.95,1154.43 576.637,1154.24C573.323,1154.06 568.144,1151.13 565.998,1148.97C563.853,1146.8 559.513,1140.96 556.268,1139.85C553.022,1138.73 547.836,1132.3 545.608,1127.28C543.38,1122.25 541.96,1117.54 541.96,1117.54C541.96,1117.54 541.634,1117.68 541.115,1117.92ZM586.229,1189.28L586.295,1189.3L586.271,1189.3L586.229,1189.28ZM586.042,1189.21L586.109,1189.24L586.071,1189.22L586.042,1189.21ZM585.861,1189.14L585.911,1189.16L585.871,1189.15L585.861,1189.14Z" style="fill:rgb(255,199,146);stroke:white;stroke-width:1.56px;"/>
    </g>
</svg>
