<?xml version="1.0" encoding="UTF-8" standalone="no"?>
<!DOCTYPE svg PUBLIC "-//W3C//DTD SVG 1.1//EN" "http://www.w3.org/Graphics/SVG/1.1/DTD/svg11.dtd">
<svg width="100%" height="100%" viewBox="0 0 602 345" version="1.1" xmlns="http://www.w3.org/2000/svg" xmlns:xlink="http://www.w3.org/1999/xlink" xml:space="preserve" style="fill-rule:evenodd;clip-rule:evenodd;stroke-linecap:round;stroke-linejoin:round;stroke-miterlimit:1.5;">
    <g id="tompobulu" transform="matrix(1,0,0,1,-608.79,-969.121)">
        <path d="M610.233,1190.41C610.708,1190.41 611.191,1190.4 611.684,1190.39L611.821,1183.7C611.821,1183.7 612.678,1177.52 612.678,1173.26C612.678,1169 613.356,1166.03 613.442,1162.91C613.528,1159.79 614.556,1159.53 615.964,1158.85C617.372,1158.18 618.563,1158.64 618.563,1158.64L619.393,1156.48L621.808,1156.48C621.808,1156.44 621.816,1154.71 622.552,1152.61C623.296,1150.48 623.556,1151.04 625.654,1150.15C627.753,1149.25 627.161,1148.82 628.249,1145.92C629.336,1143.03 630.202,1142.64 631.388,1140.05C632.574,1137.47 631.691,1135.61 629.303,1133.07C626.915,1130.54 625.157,1130.52 623.668,1128.44C622.179,1126.36 625.166,1124.12 625.166,1124.12L625.166,1118.4C625.166,1118.4 621.655,1115.12 620.812,1114.44C619.968,1113.77 619.825,1112.49 622.366,1111.7C624.906,1110.92 626.861,1114.83 626.861,1114.83C626.861,1114.83 626.933,1113.27 627.177,1111.55C627.421,1109.84 625.743,1106.66 625.743,1106.66C625.743,1106.66 627.795,1104.85 630.862,1103.89C633.929,1102.92 635.318,1101.32 635.824,1100.96C636.331,1100.6 639.807,1097.7 639.807,1097.7C639.807,1097.7 642.682,1098.55 643.446,1096.73C644.209,1094.91 643.446,1091.61 642.941,1089.06C642.436,1086.5 645.543,1083.36 646.873,1081.89C648.203,1080.43 649.795,1079.7 652.118,1079.01C654.441,1078.31 655.875,1076.64 655.875,1076.64C655.875,1076.64 655.948,1076.64 657.923,1078.97C659.899,1081.29 660.835,1083.81 660.835,1083.81C660.835,1083.81 666.02,1087.95 669.234,1090.09C672.448,1092.23 675.035,1096.69 677.695,1098.98C680.355,1101.26 685.681,1102.12 689.025,1102.22C692.37,1102.32 694.185,1104.69 698.847,1106.27C703.509,1107.85 716.344,1114.55 716.344,1114.55C716.344,1114.55 720.559,1098.93 721.014,1092.52C721.469,1086.11 725.831,1078.04 725.398,1069.09C724.965,1060.13 721.626,1049.56 720.132,1043.36C718.639,1037.17 712.074,1033.52 712.074,1033.52C712.074,1033.52 694.801,1029.1 690.955,1028.99C687.108,1028.88 684.045,1019.78 682.086,1011.42C680.126,1003.05 670.58,981.375 670.58,981.375C670.58,981.375 669.23,975.061 665.36,969.903C675.259,975.965 691.85,986.108 696.493,988.83C703.241,992.785 712.318,997.252 719.234,1001.56C726.151,1005.86 728.216,1006.88 732.804,1008.29C737.392,1009.71 747.174,1015.33 754.358,1017.1C761.542,1018.88 765.201,1022 786.033,1017.15C806.864,1012.31 812.909,1011.59 821.504,1013.07C830.1,1014.56 848.288,1017.49 860.215,1015.49C872.142,1013.49 886.893,1006 893.05,1005.59C899.206,1005.18 902.023,1004.69 903.352,1007.12C904.68,1009.55 906.154,1011.42 907.253,1011.01C908.353,1010.6 910.032,1007.37 910.032,1007.37C910.032,1007.37 915.549,1006.23 917.469,1006.85C919.389,1007.46 920.852,1010.28 924.209,1008.81C927.565,1007.33 930.663,1007.27 932.204,1009.24C933.744,1011.2 935.743,1010.56 936.517,1012.2C937.29,1013.84 937.724,1019.16 942.541,1017.25C947.358,1015.35 948.716,1016.13 950.317,1014.69C951.917,1013.26 955.258,1010.16 955.258,1010.16L960.612,1009.74C960.612,1009.74 964.732,1010.67 968.716,1012.02C972.7,1013.37 971.915,1013.49 975.5,1016.06C979.085,1018.63 985.052,1017.81 990.123,1018.03C995.194,1018.26 1005.17,1018.26 1009.94,1017.99C1014.71,1017.73 1029.73,1018.14 1029.73,1018.14C1029.73,1018.14 1035.63,1023.74 1042.56,1024.43C1049.49,1025.13 1053.08,1027.44 1057.11,1029.4C1061.15,1031.36 1067.16,1037.47 1073.32,1041C1079.48,1044.53 1086.66,1044.31 1094.37,1047.63C1102.07,1050.96 1105.6,1055.63 1110.09,1059.23C1114.57,1062.84 1119.47,1068.62 1125.46,1067.73C1131.45,1066.84 1141.56,1065.8 1146.19,1065.8C1150.83,1065.8 1154.39,1068.73 1162.28,1068.62C1167.46,1068.54 1175.29,1068.79 1180.05,1068.97C1179.88,1069.38 1179.79,1069.62 1179.79,1069.62C1179.79,1069.62 1186.8,1078.59 1193.78,1081.34C1200.76,1084.09 1209.59,1090.77 1209.07,1096.35C1208.55,1101.94 1205.41,1110.53 1202.79,1114.14C1200.16,1117.75 1196.46,1126.04 1196.31,1128.58C1196.16,1131.12 1193.81,1132.7 1192.49,1134C1191.17,1135.3 1186.29,1137.36 1186.15,1140.81C1186.01,1144.25 1186.68,1145.83 1183.5,1146.18C1180.32,1146.53 1178.74,1148.71 1178.59,1150.02C1178.44,1151.33 1176.39,1159.89 1176.47,1162.06C1176.55,1164.24 1175.41,1165.44 1178.26,1167.71C1181.11,1169.97 1195.9,1176.9 1193.68,1187.05C1191.46,1197.19 1186.73,1197.07 1186.18,1198.4C1185.64,1199.73 1182.11,1207.2 1179.57,1209.69C1177.03,1212.19 1170.7,1212.02 1166.53,1215.97C1162.35,1219.91 1159.26,1226.57 1152.16,1228.04C1145.06,1229.5 1148.11,1235.71 1147.55,1238.11C1146.99,1240.52 1147.31,1244.57 1141.75,1248.09C1136.2,1251.62 1134.82,1252.58 1133.53,1252.58C1132.25,1252.58 1129.62,1257.88 1128.28,1261.77C1126.93,1265.65 1124.38,1265.31 1121.91,1267.24C1119.45,1269.17 1117.19,1272.59 1113.55,1273.61C1109.91,1274.64 1104.85,1274.09 1104.85,1274.09C1104.85,1274.09 1100.69,1280.22 1097.54,1280.77C1094.39,1281.32 1089.75,1283.83 1088.58,1285.55C1087.4,1287.27 1083.27,1293.53 1071.06,1294.91C1058.85,1296.29 1057.05,1293.36 1057.05,1293.36C1057.05,1293.36 1053.09,1296.75 1051.79,1298.47C1050.49,1300.19 1046.95,1308.44 1042.3,1310.11C1037.66,1311.78 1036.1,1313.31 1032,1311.74C1027.9,1310.16 1026.55,1307.79 1022.65,1309.46C1018.75,1311.13 1017.36,1310.37 1012.98,1308.16C1008.61,1305.95 1006.32,1303.51 1000.32,1306.28C994.311,1309.05 993.307,1306.12 988,1304.83C982.692,1303.54 980.423,1303.7 980.198,1299.34C979.974,1294.98 980.442,1283.87 974.683,1282.78C968.924,1281.69 962.961,1277.16 961.648,1271.7C960.335,1266.23 957.703,1258.18 944.325,1256.15C930.946,1254.12 926.386,1247.99 923.153,1246.84C919.92,1245.69 912.544,1244.14 908.642,1244.7C904.74,1245.25 877.159,1245.72 872.057,1243.53C866.955,1241.34 854.987,1242.66 851.814,1243.22C848.641,1243.78 844.096,1241.16 841.417,1239.59C838.738,1238.02 828.373,1232.92 823.285,1232.45C818.198,1231.99 815.673,1226.92 811.183,1223.35C806.693,1219.78 808.309,1218.57 797.587,1217.24C786.866,1215.92 782.531,1210.99 777.017,1208.88C771.503,1206.78 766.306,1202.65 760.963,1205.13C755.62,1207.61 751.473,1213.84 730.631,1205.12C717.531,1199.65 706.84,1207.49 699.289,1210.42C691.738,1213.35 689.651,1223.12 687.418,1227.77C685.185,1232.42 683.406,1237.13 677.232,1234.7C671.059,1232.28 665.814,1233.45 665.639,1230.13C665.465,1226.8 665.766,1220.07 662.834,1219.12C659.901,1218.16 658.056,1216.77 655.136,1218.06C652.215,1219.35 649.123,1219.85 647.973,1218.84C646.823,1217.83 640.79,1214.83 640.993,1216.25C641.196,1217.67 647.873,1223.69 644.305,1223.92C640.736,1224.15 634.02,1222.71 631.656,1220.55C629.293,1218.38 626.21,1218.38 626.21,1213.86C626.21,1209.34 628.876,1202.31 630.182,1199.36C631.489,1196.4 634.36,1190.55 631.201,1190.55C628.042,1190.55 626.664,1190.47 620.731,1190.31C616.713,1190.2 613.291,1190.38 610.233,1190.41ZM609.672,1190.42L609.571,1190.42L609.782,1190.42L609.672,1190.42ZM610.092,1190.42L609.942,1190.42L610.184,1190.41L610.092,1190.42Z" style="fill:rgb(185,138,225);stroke:white;stroke-width:1.56px;"/>
    </g>
</svg>
