<?xml version="1.0" encoding="UTF-8" standalone="no"?>
<!DOCTYPE svg PUBLIC "-//W3C//DTD SVG 1.1//EN" "http://www.w3.org/Graphics/SVG/1.1/DTD/svg11.dtd">
<svg width="100%" height="100%" viewBox="0 0 164 197" version="1.1" xmlns="http://www.w3.org/2000/svg" xmlns:xlink="http://www.w3.org/1999/xlink" xml:space="preserve" style="fill-rule:evenodd;clip-rule:evenodd;stroke-linecap:round;stroke-linejoin:round;stroke-miterlimit:1.5;">
    <g id="turukale" transform="matrix(1,0,0,1,-420.715,-729.32)">
        <path d="M484.723,794.039C488.492,793.877 494.145,793.737 496.208,794.215C499.413,794.958 507.766,797.479 508.533,797.24C509.301,797 509.892,789.409 509.892,789.409C509.892,789.409 512.787,788.299 513.658,789.27C514.528,790.24 515.957,790.955 516.521,789.896C517.084,788.837 519.137,784.681 520.094,782.751C521.051,780.822 525.006,775.827 529.509,775.049C534.013,774.271 532.569,773.735 532.832,770.272C533.095,766.81 532.856,761.925 532.091,758.816C531.326,755.708 529.175,752.426 529.558,750.097C529.94,747.768 530.385,747.664 531.648,745.456C532.911,743.247 535.011,738.484 535.553,734.533C536.095,730.583 540.726,728.125 543.971,732.192C547.217,736.258 549.877,738.294 550.577,738.732C551.278,739.169 554.877,744.521 554.877,744.521C554.877,744.521 558.927,744.433 560.678,746.272C562.429,748.111 560.839,749.665 559.289,751.028C557.739,752.391 558.85,755.554 559.495,756.583C560.141,757.612 562.118,761.838 565.441,762.027C568.765,762.217 570.49,762.244 571.865,762.379C573.239,762.514 573.564,762.444 574.83,763.277C576.095,764.11 576.089,767.029 577.228,767.912C578.367,768.795 581.357,770.892 581.927,771.412C582.497,771.932 584.342,775.347 582.482,777.202C580.622,779.057 575.898,786.634 574.626,789.197C573.354,791.759 568.859,795.402 567.091,801.052C565.324,806.701 564.088,808.724 562.412,812.177C560.735,815.629 559.802,815.428 559.217,818.152C558.632,820.876 562.57,822.587 560.405,825.32C558.24,828.052 553.176,830.63 553.814,833.864C554.451,837.099 552.384,838.048 554.773,838.655C557.162,839.263 560.255,840.223 560.255,840.223C560.255,840.223 556.716,842.251 554.81,843.89C552.905,845.528 551.236,847.697 548.53,848.028C545.824,848.358 542.648,847.861 540.39,848.651C538.131,849.441 536.778,849.359 534.522,849.163C532.267,848.968 528.838,849.989 527.272,850.795C525.706,851.602 525.229,853.371 524.597,854.976C523.966,856.582 520.766,858.28 521.535,859.642C522.304,861.004 520.831,860.929 523.116,861.815C525.401,862.702 524.661,862.818 524.282,865.375C523.904,867.932 522.516,875.823 525.345,878.402C528.173,880.982 534.289,889.32 539.422,890.948C544.554,892.575 547.202,895.887 545.621,897.677C544.039,899.466 539.983,904.514 539.983,904.514C539.983,904.514 534.228,900.565 530.582,899.79C526.936,899.015 517.793,898.162 515.797,898.378C513.802,898.594 510.619,898.594 507.788,898.594C504.957,898.594 499.102,897.87 495.869,903.488C492.635,909.107 491.179,913.967 488.92,915.44C486.66,916.913 483.146,918.891 480.088,920.396C477.03,921.901 473.471,928.26 468.763,923.885C464.055,919.511 461.022,917.041 459.668,914.886C458.314,912.731 454.905,910.385 452.691,910.32C450.477,910.254 450.226,909.04 447.508,909.684C444.79,910.328 445.766,911.099 447.74,913.532C449.713,915.965 454.207,918.043 453.983,920.026C453.759,922.01 454.889,923.01 450.818,922.992C446.747,922.973 445.455,922.142 443.472,922.777C441.49,923.412 441.505,924.729 438.684,924.754C435.864,924.779 436.993,922.308 434.068,922.736C431.143,923.164 428.238,923.287 429.905,921.595C431.572,919.904 436.37,916.681 435.601,914.524C434.832,912.367 433.328,911.577 430.775,911.94C428.222,912.303 426.83,912.636 427.495,909.55C428.161,906.463 428.172,903.813 427.034,903.213C425.895,902.613 425.535,902.926 425.326,900.909C425.207,899.761 423.201,898.116 421.496,896.913C421.952,895.449 422.136,893.503 421.779,890.833L421.792,890.93C424.825,890.703 428.551,890.484 431.375,890.509C437.056,890.559 443.083,889.787 447.687,889.556C452.291,889.325 458.484,889.452 458.484,889.452C458.484,889.452 459.917,885.743 458.227,884.685C456.538,883.626 453.752,883.113 455.821,880.374C457.889,877.634 463.398,876.817 463.398,876.817C463.398,876.817 464.369,876.273 464.036,872.033C463.703,867.794 466.862,865.206 468.253,864.049C469.645,862.892 471.272,859.557 471.272,859.557C471.272,859.557 476.897,859.176 479.65,858.646C482.403,858.116 482.342,858.423 483.641,853.771C484.94,849.119 486.253,847.085 487.78,843.805C489.308,840.524 488.747,835.174 487.088,832.425C485.43,829.676 485.446,825.817 484.749,821.918C484.052,818.018 484.597,814.503 484.517,810.757C484.451,807.699 484.648,797.633 484.723,794.039ZM421.769,890.754L421.735,890.515L421.765,890.724L421.769,890.754Z" style="fill:rgb(245,150,249);stroke:white;stroke-width:1.56px;"/>
    </g>
</svg>
