<?xml version="1.0" encoding="UTF-8" standalone="no"?>
<!DOCTYPE svg PUBLIC "-//W3C//DTD SVG 1.1//EN" "http://www.w3.org/Graphics/SVG/1.1/DTD/svg11.dtd">
<svg width="100%" height="100%" viewBox="0 0 128 167" version="1.1" xmlns="http://www.w3.org/2000/svg" xmlns:xlink="http://www.w3.org/1999/xlink" xml:space="preserve" style="fill-rule:evenodd;clip-rule:evenodd;stroke-linecap:round;stroke-linejoin:round;stroke-miterlimit:1.5;">
    <g id="alla" transform="matrix(1,0,0,1,-293.599,-155.039)">
        <path d="M305.319,231.196C311.173,233.08 321.104,235.874 324.713,234.456C329.96,232.394 336.107,233.819 336.107,233.819L339.551,228.951L340.055,218.45L343.21,213.272L343.352,209.157L346.345,208.324L347.117,196.851C347.117,196.851 354.428,190.174 357.471,189.642C360.513,189.109 369.408,183.188 370.361,179.418C371.314,175.648 379.409,169.536 381.222,169.027C383.035,168.518 387.197,162.213 387.197,162.213L392.736,157.509L393.418,155.733L393.422,155.735C393.522,155.775 393.626,155.811 393.735,155.844C398.384,157.233 400.933,166.511 400.933,166.511L408.649,167.409L411.898,169.343L412.23,168.956L412.23,169.574L408.481,178.708C408.481,178.708 413.292,191.09 411.37,204.171C409.449,217.252 411.181,218.225 406.682,226.371C406.682,226.371 407.095,231.774 406.552,237.31C406.009,242.846 401.801,253.282 401.354,257.566C400.907,261.849 404.848,261.691 411.388,264.406C417.505,266.946 420.268,279.109 420.361,292.573L418.977,291.227L412.621,298.096L409.418,298.096L400.803,304.572L398.159,304.926C388.666,306.538 378.418,318.285 378.418,318.285L375.942,320.837L375.285,320.183C358.354,321.748 352.845,313.627 352.845,313.627L349.841,308.127L345.214,309.674L342.381,309.033L338.292,311.978L332.467,310.393C318.841,311.344 317.479,298.734 315.929,298.47C314.379,298.206 310.006,294.649 306.838,299.303C303.868,303.667 297.995,306.05 297.272,306.331L297.198,306.359C297.198,306.359 297.225,306.349 297.277,306.329L297.698,301.308L296.613,299.1L295.403,293.952C293.579,288.704 294.147,286.589 296.065,282.721C297.983,278.853 299.133,274.129 299.133,274.129C297.887,268.035 300.393,250.024 300.393,250.024L305.172,235.159L305.319,231.196Z" style="fill:rgb(230,57,70);stroke:white;stroke-width:1.39px;"/>
    </g>
</svg>
