<?xml version="1.0" encoding="UTF-8" standalone="no"?>
<!DOCTYPE svg PUBLIC "-//W3C//DTD SVG 1.1//EN" "http://www.w3.org/Graphics/SVG/1.1/DTD/svg11.dtd">
<svg width="100%" height="100%" viewBox="0 0 134 136" version="1.1" xmlns="http://www.w3.org/2000/svg" xmlns:xlink="http://www.w3.org/1999/xlink" xml:space="preserve" style="fill-rule:evenodd;clip-rule:evenodd;stroke-linecap:round;stroke-linejoin:round;stroke-miterlimit:1.5;">
    <g id="baroko" transform="matrix(1,0,0,1,-260.929,-99.8097)">
        <path d="M273.859,180.529C270.217,176.326 263.19,169.689 263.19,169.689L261.624,159.252L261.725,159.25C263.129,159.213 264.775,159.176 265.742,159.176C267.676,159.176 272.851,152.689 272.851,152.689L272.534,150.139L273.225,144.07L274.879,143.25L274.016,135.269C274.135,131.945 268.942,127.972 268.942,127.972L270.071,124.336L271.245,118.338L272.579,113.972C270.361,110.253 272.961,106.571 272.961,106.571C279.51,94.743 288.15,103.855 288.15,103.855L292.071,106.197L293.416,110.396L298.849,110.396L301.041,114.121L302.964,113.461L305.671,112.593L309.963,113.626L312.82,113.872L315.97,111.871L319.814,110.187L323.335,112.146L325.918,111.088L329.698,108.857L332.88,109.38L335.749,110.384L337.514,110.384L341.203,108.352L352.879,110.402L354.698,112.217L359.649,113.199C359.99,119.227 350.729,126.923 350.729,126.923C350.729,126.923 349.21,133.303 352.468,134.169C355.726,135.035 358.263,142.21 358.263,142.21C358.263,142.21 358.694,143.565 360.09,140.956C361.487,138.348 367.9,136.292 367.9,136.292C369.132,134.095 376.785,130.064 376.785,130.064L377.41,126.946L381.23,124.644L386.931,125.238L389.955,130.154L389.15,133.428L392.942,137.009C392.942,137.009 390.699,143.958 391.979,145.19C393.229,146.393 389.28,154.076 393.418,155.733L392.736,157.509L387.197,162.213C387.197,162.213 383.035,168.518 381.222,169.027C379.409,169.536 371.314,175.648 370.361,179.418C369.408,183.188 360.513,189.109 357.471,189.642C354.428,190.174 347.117,196.851 347.117,196.851L346.345,208.324L343.352,209.157L343.21,213.272L340.055,218.45L339.551,228.951L336.107,233.819C336.107,233.819 329.96,232.394 324.713,234.456C321.104,235.874 311.173,233.08 305.319,231.196L305.582,224.074L308.335,220.965L309.102,211.672C309.201,211.196 309.286,210.732 309.356,210.279L309.406,209.942C309.597,208.6 309.663,207.359 309.624,206.21L309.612,205.925C309.583,205.351 309.527,204.801 309.447,204.273C309.235,202.877 308.852,201.636 308.34,200.531C308.248,200.332 308.152,200.138 308.052,199.948C307.817,199.501 307.561,199.078 307.286,198.678C307.23,198.595 307.173,198.514 307.115,198.434C306.788,197.98 306.438,197.554 306.069,197.156L305.927,197.005L305.792,196.866L305.783,196.856L305.729,196.802C305.354,196.425 304.963,196.072 304.559,195.742C304.304,195.534 304.044,195.335 303.78,195.144L303.618,195.028C303.551,194.981 303.483,194.934 303.416,194.888C301.902,193.85 300.29,193.08 298.801,192.473L298.481,192.345L298.365,192.299C297.665,192.024 296.998,191.783 296.389,191.567C296.021,191.436 295.674,191.314 295.353,191.198L295.344,191.195C290.2,189.332 275.624,182.792 275.624,182.792L275.519,182.631C275.299,182.299 275.008,181.913 274.663,181.486L274.487,181.27L274.43,181.202L274.301,181.046L274.192,180.918C274.085,180.791 273.974,180.661 273.859,180.529Z" style="fill:rgb(255,153,102);stroke:white;stroke-width:1.39px;"/>
    </g>
</svg>
