<?xml version="1.0" encoding="UTF-8" standalone="no"?>
<!DOCTYPE svg PUBLIC "-//W3C//DTD SVG 1.1//EN" "http://www.w3.org/Graphics/SVG/1.1/DTD/svg11.dtd">
<svg width="100%" height="100%" viewBox="0 0 1417 1417" version="1.1" xmlns="http://www.w3.org/2000/svg" xmlns:xlink="http://www.w3.org/1999/xlink" xml:space="preserve" style="fill-rule:evenodd;clip-rule:evenodd;stroke-linejoin:round;stroke-miterlimit:1.41421;">
    <g id="batubatu" transform="matrix(4.16667,0,0,4.16667,-30.6129,-272.168)">
        <path d="M198.502,203.086C198.503,203.086 198.504,203.086 198.505,203.085C198.74,204.944 198.957,206.777 199.063,208.497C198.956,206.778 198.737,204.944 198.502,203.086M198.121,163.244C198.122,163.243 198.124,163.243 198.125,163.242C197.969,165.761 197.918,168.198 198.19,170.302C197.918,168.198 197.964,165.765 198.121,163.244M103.546,211.776C103.954,215.568 103.931,219.44 104.041,223.304C103.928,219.441 103.954,215.568 103.546,211.776M327.537,135.69C326.318,127.89 315.998,134.85 315.327,127.03C307.868,130.54 306.787,120.64 301.208,118.18C295.338,120.94 287.388,116.28 284.188,110.79C262.188,126.65 239.378,100.59 216.558,98.89C211.988,103.46 206.218,106.19 200.498,108.96C199.988,109.22 198.968,109.74 198.458,110L197.628,109.58C197.378,109.84 196.868,110.36 196.618,110.62C185.668,104.94 176.808,116.2 165.538,113.88C157.218,114.32 154.808,124.69 158.358,130.94C160.418,135.68 163.398,142.06 158.438,145.85C156.348,143.34 153.368,143.99 150.558,144.5C145.718,142.86 144.188,133.48 138.018,135.15C132.148,140.14 125.858,131.23 121.198,135.45C119.088,137.63 119.108,140.87 118.418,143.65C115.618,150.07 108.878,141.51 104.638,147.5C99.798,133.78 84.738,144.88 74.658,141.15C75.848,143.82 74.178,146.11 72.618,148.17C72.168,148.98 71.728,149.8 71.288,150.62C69.818,151.77 68.298,152.87 66.748,153.92C59.458,158.21 52.508,162.53 48.428,170.03C39.508,175.87 58.248,180.96 50.488,189.97C49.728,197.33 49.618,204.88 47.348,211.99C46.578,215.99 48.618,217.54 52.478,216.8C58.068,214.68 59.058,218.58 59.768,222.82C64.068,227.01 68.838,230.82 74.468,233.05C80.808,241.01 69.548,255.97 83.288,260.03C81.058,273.21 68.148,254.21 60.808,260.9C60.538,261.15 59.988,261.64 59.718,261.88C58.678,262.84 57.578,263.74 56.458,264.6C49.918,264.22 42.768,262.24 37.028,266.47C28.488,268.23 30.198,279.59 24.418,284.66C22.658,291.19 14.888,287.53 11.448,291.64C15.758,297.47 23.718,301.77 24.488,309.35C23.658,310.57 22.848,311.81 22.058,313.08C24.458,318.92 33.068,315.11 35.908,320.36C37.958,323.55 40.538,326.33 43.138,329.08C43.24,329.214 43.345,329.332 43.452,329.44C48.493,335.185 53.233,341.927 60.688,344.66C65.818,346.64 64.558,353.26 65.748,357.72C64.498,366.84 74.778,367.799 80.358,371.751C81.718,367.65 82.658,364.03 80.548,360.081C87.828,358.14 88.228,349.82 90.028,343.72C90.818,343.06 91.628,342.42 92.358,341.7C91.428,336.29 95.058,331.27 93.148,325.8C92.868,322.78 92.498,319.74 92.328,316.74C94.068,302.86 114.628,309.12 120.938,316.39C132.208,328.28 150.778,314.19 155.598,301.68C157.018,298.64 158.558,295.66 160.228,292.76C165.158,286.84 163.318,277.37 169.608,272.6C170.658,271.72 171.628,270.75 172.608,269.79C177.498,268.89 178.608,265.54 176.838,260.72C178.848,252.86 186.458,261.01 190.048,263.33C196.598,262.97 207.758,272.27 207.428,259.63C213.628,253.12 224.558,255.49 231.278,259.96C240.228,276.96 263.798,272.29 279.608,273.78C280.078,280.49 277.578,286.78 275.478,293C281.258,288 279.518,279.13 282.298,273.14C285.078,270.58 287.238,267.43 288.778,263.99C289.268,263.62 290.248,262.86 290.738,262.49C298.298,264.59 306.068,266.38 312.527,270.88C317.808,267.22 323.518,262.89 326.088,256.39C329.748,242.12 338.357,229.52 340.718,214.84C335.218,211.27 320.388,208.9 330.037,201.3C327.568,193.9 321.258,177.97 335.388,177.58C332.439,169.31 340.888,163.33 342.958,156.13C345.577,145.04 329.537,145.29 327.537,135.69" style="fill:rgb(226,228,61);fill-rule:nonzero;"/>
    </g>
</svg>
