<?xml version="1.0" encoding="UTF-8" standalone="no"?>
<!DOCTYPE svg PUBLIC "-//W3C//DTD SVG 1.1//EN" "http://www.w3.org/Graphics/SVG/1.1/DTD/svg11.dtd">
<svg width="100%" height="100%" viewBox="0 0 395 436" version="1.1" xmlns="http://www.w3.org/2000/svg" xmlns:xlink="http://www.w3.org/1999/xlink" xml:space="preserve" style="fill-rule:evenodd;clip-rule:evenodd;stroke-linecap:round;stroke-linejoin:round;stroke-miterlimit:1.5;">
    <g id="bungin" transform="matrix(1,0,0,1,-450.096,-385.271)">
        <path d="M740.746,393.535C744.284,391.469 755.643,384.976 756.751,386.093C758.067,387.419 759.35,389.046 764.83,388.188C770.31,387.33 777.009,390.538 777.93,397.367C778.85,404.196 787.351,412.526 787.351,412.526C787.351,412.526 784.089,423.611 789.325,429.494C799.951,441.431 795.092,456.471 801.068,459.257C807.043,462.043 811.564,473.988 811.564,473.988L815.676,476.199C815.676,476.199 818.248,482.571 820.118,484.878C821.987,487.185 830.091,498.781 830.091,498.781C830.091,498.781 844.466,507.701 843.521,510.542C839.244,523.404 838.776,515.392 839.868,528.798C842.308,558.743 835.488,557.79 828.212,563.935C821.272,569.796 804.186,554.799 797.952,577.774C785.255,624.564 761.199,615.443 761.199,615.443L750.959,618.728C750.959,618.728 742.403,616.973 743.144,623.661C746.033,649.747 725.79,670.533 724.082,676.584C722.373,682.635 705.56,700.284 706.094,718.005C706.628,735.727 688.504,749.713 686.407,756.595C684.31,763.476 668.79,774.739 668.79,774.739L664.705,774.131L658.556,777.878L660.836,782.309L659.053,786.382L661.213,789.356L658.597,792.062L663.299,796.676L663.169,810.402L659.568,814.173L658.144,819.882C657.329,819.085 640.797,802.972 630.946,798.333C620.844,793.575 593.586,755.452 589.584,745.064C589.584,745.064 534.641,715.611 520.334,691.972C520.334,691.972 516.704,695.513 508.274,692.123L504.062,693.987C504.062,693.987 499.673,697.308 494.34,690.752L490.805,692.483L484.045,690.839L485.798,688.978L485.234,687.249L479.364,680.877C479.364,680.877 481.807,674.226 476.004,677.008L468.283,669.471L465.494,664.437L465.348,655.008L462.879,654.641L460.322,654.72L460.657,651.903L461.625,649.676L459.263,646.027L457.849,646.187L454.339,644.939L455.674,640.546L454.085,636.533L452.405,630.278L453.259,627.231L450.79,625.194L454.692,619.043L456.129,612.373C456.129,612.373 471.643,600.903 472.16,593.489L473.875,590.224L482.75,586.571L488.079,580.665L493.147,580.807C493.147,580.807 498.861,572.547 504.954,578.564L511.759,577.492L527.563,577.567L532.006,574.365L534.755,575.621L541.033,576.991L549.577,576.75C549.577,576.75 557.064,588.751 558.605,595.826C558.605,595.826 567.541,598.861 567.354,600.702L598.973,603.05C598.973,603.05 626.68,588.394 627.522,583.971L632.216,582.263C632.216,582.263 664.585,547.437 665.861,542.428C667.136,537.418 680.568,530.122 680.568,530.122C680.568,530.122 676.466,498.445 686.499,492.846C686.499,492.846 690.012,483.983 697.092,482.977C697.092,482.977 702.303,471.957 708.856,468.569C708.856,468.569 709.414,462.481 712.78,458.313L713.609,449.412C713.609,449.412 723.58,438.074 723.509,417.8C723.476,408.273 739.076,396.566 739.076,396.566L740.183,394.319L740.746,393.535Z" style="fill:rgb(43,114,158);stroke:white;stroke-width:1.39px;"/>
    </g>
</svg>
