<?xml version="1.0" encoding="UTF-8" standalone="no"?>
<!DOCTYPE svg PUBLIC "-//W3C//DTD SVG 1.1//EN" "http://www.w3.org/Graphics/SVG/1.1/DTD/svg11.dtd">
<svg width="100%" height="100%" viewBox="0 0 256 206" version="1.1" xmlns="http://www.w3.org/2000/svg" xmlns:xlink="http://www.w3.org/1999/xlink" xml:space="preserve" style="fill-rule:evenodd;clip-rule:evenodd;stroke-linecap:round;stroke-linejoin:round;stroke-miterlimit:1.5;">
    <g id="buntubatu" transform="matrix(1,0,0,1,-469.281,-398.275)">
        <path d="M524.24,577.551C522.121,571.811 519.685,563.318 518.239,552.015C517.01,542.412 504.172,537.691 496.804,533.477C492.665,531.11 489.111,524.042 487.52,517.644C485.93,511.245 481.905,510.899 474.528,500.702C470.83,495.59 476.039,489.927 477.427,485.613C478.815,481.298 481.094,471.243 479.864,466.604C478.634,461.965 471.175,457.323 471.175,457.323C471.175,457.323 466.007,435.869 477.131,434.094C488.254,432.32 503.676,432.732 503.676,432.732C503.676,432.732 516.411,429.321 518.273,421.433L524.733,419.748C524.733,419.748 553.7,403.718 564.566,402.137C575.431,400.557 654.565,398.196 660.689,399.217C666.812,400.239 669.094,402.211 669.094,402.211L679.946,401.383L702.911,407.966L724.221,414.001C723.765,415.284 723.505,416.56 723.509,417.8C723.58,438.074 713.609,449.412 713.609,449.412L712.78,458.313C709.414,462.481 708.856,468.569 708.856,468.569C702.303,471.957 697.092,482.977 697.092,482.977C690.012,483.983 686.499,492.846 686.499,492.846C676.466,498.445 680.568,530.122 680.568,530.122C680.568,530.122 667.136,537.418 665.861,542.428C664.585,547.437 632.216,582.263 632.216,582.263L627.522,583.971C626.68,588.394 598.973,603.05 598.973,603.05L567.354,600.702C567.541,598.861 558.605,595.826 558.605,595.826C557.064,588.751 549.577,576.75 549.577,576.75L541.033,576.991L534.755,575.621L532.006,574.365L527.563,577.567L524.24,577.551Z" style="fill:rgb(168,220,195);stroke:white;stroke-width:1.39px;"/>
    </g>
</svg>
