<?xml version="1.0" encoding="UTF-8" standalone="no"?>
<!DOCTYPE svg PUBLIC "-//W3C//DTD SVG 1.1//EN" "http://www.w3.org/Graphics/SVG/1.1/DTD/svg11.dtd">
<svg width="100%" height="100%" viewBox="0 0 1417 1417" version="1.1" xmlns="http://www.w3.org/2000/svg" xmlns:xlink="http://www.w3.org/1999/xlink" xml:space="preserve" style="fill-rule:evenodd;clip-rule:evenodd;stroke-linejoin:round;stroke-miterlimit:1.41421;">
    <g id="cabbenge" transform="matrix(1.37106,0,0,1.37106,-2015.09,-1796.98)">
        <path d="M1668.63,1498.02L1668.63,1498.01C1668.58,1498.01 1668.53,1498.01 1668.49,1498C1658.4,1485.62 1652.03,1471.25 1652.99,1455.04C1682.58,1426.88 1623.78,1454.45 1613.65,1437.16C1693.86,1427.75 1775.82,1392.29 1861.16,1406.42C1873.61,1408.61 1878.08,1421.65 1882.48,1431.8L1882.53,1431.92C1882.47,1432.43 1882.43,1432.94 1882.39,1433.45C1882.34,1434.1 1882.3,1434.76 1882.26,1435.4L1882.26,1435.41C1882.3,1434.76 1882.34,1434.1 1882.39,1433.45C1882.43,1432.94 1882.47,1432.43 1882.53,1431.92L1882.72,1431.93C1946.62,1436.22 2011.84,1419.73 2072.7,1399.33C2080.82,1396.04 2141.78,1406.62 2090.86,1408.42C2093.62,1432.46 2085.66,1460.25 2079.83,1479.59C2120.99,1482 2064.53,1479 2085.66,1503.09C2072.67,1521.18 2082.27,1543.85 2099.95,1551.34C2101.42,1551.59 2102.91,1551.85 2104.39,1552.12C2111.56,1551.5 2120.56,1552.63 2126.02,1550.96L2126.23,1550.9L2126.26,1550.89C2126.43,1550.84 2126.59,1550.78 2126.75,1550.72C2127.18,1550.53 2127.6,1550.33 2128.03,1550.12C2127.64,1550.35 2127.21,1550.54 2126.75,1550.72L2126.74,1550.72C2127.2,1550.55 2127.63,1550.35 2128.03,1550.12C2148.44,1548.31 2168.86,1546.42 2189.28,1544.67C2194.62,1543.92 2200.02,1543.38 2205.09,1543.36C2229.19,1541.41 2253.32,1539.76 2277.49,1538.79C2300.37,1553.09 2322.95,1568.21 2347.58,1579.17C2359.42,1615.92 2298.76,1633.22 2311.57,1668.14L2311.78,1668.38L2311.93,1668.55C2341.25,1687.38 2362.91,1721.22 2337.36,1752C2379.28,1775.46 2325.87,1801.46 2312.45,1826.33C2290.28,1855.17 2326.66,1885.58 2306.53,1915.75C2311.23,1927.62 2325.61,1929.37 2340.9,1931.01C2345.04,1931.12 2349.16,1931.49 2353.26,1932.26C2354.7,1932.54 2356.1,1932.85 2357.45,1933.2C2369.87,1935.6 2380.69,1940.45 2384.74,1953.67C2384.85,1954.85 2385.01,1956.01 2385.22,1957.15C2385.93,1958.96 2386.55,1960.86 2387.08,1962.87C2387.38,1963.99 2387.68,1965.09 2387.98,1966.18C2397.18,1987.92 2421.66,2003.58 2416.57,2029.14C2415.62,2030.78 2414.88,2032.52 2414.28,2034.32C2414.17,2034.65 2414.07,2034.99 2413.97,2035.32C2413.88,2035.48 2413.8,2035.64 2413.71,2035.81C2413.55,2036.12 2413.39,2036.44 2413.21,2036.75C2412.54,2037.89 2412.09,2039.13 2411.74,2040.38C2411.62,2040.38 2411.49,2040.37 2411.36,2040.37L2411.36,2040.37C2408.87,2070.54 2388.03,2127.92 2425.99,2131.37C2395.91,2131.79 2428.91,2146.75 2416.62,2162.92C2395.08,2166.79 2432.33,2191.67 2408.03,2194.29L2408.03,2194.29C2376.66,2216.88 2355.36,2262.42 2307.24,2252.5L2306.82,2252.54C2298.94,2258.42 2279.52,2254.59 2271.91,2255.29C2271.67,2255.3 2271.47,2255.26 2271.24,2255.26C2271.11,2255.26 2271,2255.29 2270.87,2255.29C2245.51,2255.07 2223.43,2250.05 2200.5,2244.12C2193.03,2242.62 2185.55,2240.95 2178.06,2238.92C2174.36,2237.92 2170.7,2236.78 2167.06,2235.57C2142.62,2229.81 2114.77,2224.65 2094.58,2209.74C2015.13,2171.67 1914.93,2179.66 1847.69,2113.25C1880.99,2114.29 1863.86,2081.83 1843.28,2105.17L1843.28,2105.17C1840.74,2119.29 1835.49,2132.91 1826.7,2144.34L1822.78,2144.67C1824.74,2135.09 1841.74,2108.62 1822.49,2114.25C1827.9,2104.88 1840.47,2090.27 1828.13,2081.61C1827.94,2081.67 1827.76,2081.72 1827.57,2081.77C1827.33,2081.93 1827.12,2082.12 1826.84,2082.22C1826.58,2082.32 1826.34,2082.42 1826.09,2082.51C1816.69,2088.38 1806.38,2087.01 1797.04,2082.57C1789.7,2079.58 1782.81,2074.67 1778.11,2069.09C1776.33,2067.64 1774.22,2065.92 1772.99,2064.92C1772.77,2063.85 1772.52,2062.78 1772.26,2061.73L1772.25,2061.73C1772.52,2062.78 1772.77,2063.85 1772.99,2064.92C1759.28,2064.41 1737.2,2082.5 1728.7,2068.42C1723.83,1995.21 1622.28,2014.83 1602.74,1947.62L1601.28,1944.25L1601.28,1944.25L1598.12,1945L1597.19,1941.34L1597.19,1941.34C1584.53,1930.29 1568.58,1919.59 1566.24,1901.5C1563.37,1887.53 1579.26,1863.24 1561.12,1862.17C1581.07,1856.93 1601.22,1842.26 1588.11,1820.58C1587.78,1809.87 1595.87,1803.96 1604.16,1799.17C1606.19,1797.89 1608.18,1796.57 1610.14,1795.2L1610.14,1795.19C1608.18,1796.57 1606.19,1797.89 1604.16,1799.17C1600.03,1774.96 1566.7,1796.5 1559.32,1780.09C1591.2,1786.29 1617.57,1768.29 1632.49,1740.46C1621.68,1728.1 1649.62,1716.71 1655.69,1700.84C1655.95,1700.01 1656.21,1699.17 1656.45,1698.34C1656.26,1699.18 1656.01,1700.01 1655.69,1700.84C1652.71,1710.19 1648.35,1719.05 1644.45,1728.09C1665.91,1733 1690.78,1737.25 1690.37,1709.83C1726.53,1713.79 1769.16,1695.08 1777.32,1657.41C1751.95,1653.25 1739.32,1681.34 1719.28,1691.04C1692.07,1641.63 1722.16,1617.33 1751.95,1583.34C1738.91,1583.06 1727.25,1579.32 1716.62,1573.46C1709.77,1571.09 1704.36,1567.3 1700.35,1562.41C1684.92,1550 1671.67,1534.02 1659.12,1520C1684.11,1539.89 1672.39,1523.99 1669.19,1506.38C1667.99,1503.93 1667.6,1501.15 1668.48,1498.45C1668.48,1498.3 1668.49,1498.15 1668.49,1498L1668.63,1498.02ZM2406.01,2194.23L2406.08,2194.23L2405.93,2194.23L2406.01,2194.23ZM2391.5,2190.97C2395.57,2192.79 2400.3,2193.94 2405.91,2194.22C2400.3,2193.93 2395.59,2192.75 2391.53,2190.92L2391.5,2190.97ZM2410.19,2039.21C2410.15,2039.23 2410.11,2039.25 2410.08,2039.28C2410.48,2039.62 2410.93,2039.91 2411.3,2040.3C2410.95,2039.91 2410.57,2039.55 2410.19,2039.21ZM1546.74,1864.29C1551.17,1864.2 1556.14,1863.48 1561.12,1862.17C1557.67,1861.96 1553.01,1862.59 1546.74,1864.29ZM1611.86,1779.01C1611.65,1779.34 1611.54,1779.63 1611.52,1779.89L1611.52,1779.88C1611.54,1779.63 1611.65,1779.34 1611.86,1779.01L1611.86,1779.01ZM1777.18,1681.14C1775.99,1682.29 1774.81,1683.46 1773.63,1684.62L1773.65,1684.63C1774.79,1683.51 1775.95,1682.41 1777.1,1681.3C1777.13,1681.25 1777.15,1681.19 1777.18,1681.14ZM1741.1,1631.89C1735.94,1635.07 1731.09,1638.69 1727.03,1642.79L1727.06,1642.81C1731.12,1638.71 1735.95,1635.07 1741.1,1631.9L1741.1,1631.89ZM1764.38,1579.3C1762.89,1581.15 1761.44,1583 1760.06,1584.83L1760.18,1584.7C1761.54,1582.91 1762.93,1581.11 1764.38,1579.3L1764.38,1579.3Z" style="fill:rgb(185,189,107);"/>
    </g>
</svg>
