<?xml version="1.0" encoding="UTF-8" standalone="no"?>
<!DOCTYPE svg PUBLIC "-//W3C//DTD SVG 1.1//EN" "http://www.w3.org/Graphics/SVG/1.1/DTD/svg11.dtd">
<svg width="100%" height="100%" viewBox="0 0 1417 1417" version="1.1" xmlns="http://www.w3.org/2000/svg" xmlns:xlink="http://www.w3.org/1999/xlink" xml:space="preserve" style="fill-rule:evenodd;clip-rule:evenodd;stroke-linejoin:round;stroke-miterlimit:1.41421;">
    <g id="cangadi" transform="matrix(1.47584,0,0,1.47584,-1494.01,-2539.9)">
        <path d="M1484.57,1833.49C1491.94,1831.28 1496.67,1827.51 1490.49,1815.46C1519.2,1848.29 1575.61,1766 1588.11,1820.58C1601.2,1842.23 1581.13,1856.9 1561.2,1862.15L1561.2,1862.16C1579.23,1863.3 1563.37,1887.55 1566.24,1901.5C1568.58,1919.59 1584.53,1930.29 1597.2,1941.33L1598.12,1945L1601.28,1944.25L1602.74,1947.62C1622.28,2014.83 1723.83,1995.21 1728.7,2068.42C1737.2,2082.5 1759.28,2064.41 1772.99,2064.92C1774.78,2066.37 1778.41,2069.33 1780.2,2070.79C1792.66,2082.37 1811.74,2093.05 1827.78,2081.37C1840.7,2090 1827.95,2104.79 1822.49,2114.25C1841.74,2108.62 1824.74,2135.09 1822.78,2144.66C1822.01,2145.2 1821.22,2145.74 1820.43,2146.31L1820.42,2146.31C1821.22,2145.75 1822.01,2145.2 1822.78,2144.67L1826.7,2144.33C1819.92,2153.5 1808.27,2163.97 1800.07,2174.59C1799.76,2175.6 1799.44,2176.61 1799.12,2177.61C1797.5,2182.6 1793.95,2190.93 1791.25,2199.57C1792.21,2203.47 1794.62,2207.27 1799.01,2210.9C1804.88,2212.8 1810.67,2211.59 1816.09,2203.66C1819.67,2198.41 1824.05,2193.4 1829.44,2190.05C1836.37,2177.86 1843.85,2169.74 1861.51,2188.55C1863.16,2189.56 1864.08,2191.08 1864.35,2192.73C1876.7,2212.95 1878.52,2237.88 1894.94,2256.46C1910.87,2297.96 1863.99,2325.12 1834.2,2299.41C1842.78,2317.58 1856.12,2333.13 1862.2,2352.63C1879.74,2360.25 1901.87,2333.25 1915.28,2347.58C1888.99,2357 1862.2,2364.46 1834.62,2356.59L1834.61,2356.59C1781.95,2363.12 1730.99,2372.75 1685.65,2403.41C1646.87,2397.71 1604.12,2408.83 1568.86,2387.04C1551.24,2379.08 1534.37,2368.71 1515.2,2364.92C1512.99,2364.96 1508.62,2365.04 1506.4,2365.04L1506.4,2365.04L1502.24,2365.21C1463.32,2354.04 1421.03,2382.17 1398.28,2390.87C1474.45,2427.09 1465.33,2577.87 1360.16,2561.42C1278.49,2569.54 1197.62,2580.67 1118.03,2600.54C1095.66,2576.25 1070.9,2547.21 1069.24,2512.96C1089.16,2492 1122.99,2494.71 1148.24,2482.83C1184.16,2464.25 1250.11,2472.62 1250.61,2418.12C1245.99,2332.71 1205.32,2226.29 1276.49,2157.04C1289.7,2112.92 1324.03,2081.42 1349.07,2044.29C1350.15,2042.58 1352.37,2039.21 1353.45,2037.5C1374.83,2013.08 1370.03,1975.75 1393.32,1952.87C1425.91,1932.83 1464.45,1905.29 1460.86,1861.46L1460.88,1861.46C1460.62,1858.73 1460.42,1855.99 1460.45,1853.21C1460.46,1851.95 1460.57,1850.76 1460.76,1849.64L1460.49,1849.46C1460.48,1844.6 1462.52,1841.55 1465.59,1839.48C1470.11,1833.11 1477.72,1831.5 1484.57,1833.49Z" style="fill:rgb(187,137,189);"/>
    </g>
</svg>
