<?xml version="1.0" encoding="UTF-8" standalone="no"?>
<!DOCTYPE svg PUBLIC "-//W3C//DTD SVG 1.1//EN" "http://www.w3.org/Graphics/SVG/1.1/DTD/svg11.dtd">
<svg width="100%" height="100%" viewBox="0 0 177 259" version="1.1" xmlns="http://www.w3.org/2000/svg" xmlns:xlink="http://www.w3.org/1999/xlink" xml:space="preserve" style="fill-rule:evenodd;clip-rule:evenodd;stroke-linecap:round;stroke-linejoin:round;stroke-miterlimit:1.5;">
    <g id="cendana" transform="matrix(1,0,0,1,-178.677,-671.169)">
        <path d="M279,929.093C279.174,929.453 273.648,916.635 267.412,919.373C258.381,923.339 248.397,915.553 248.397,915.553L247.377,911.748L251.502,905.92C251.502,905.92 250.833,885.875 251.279,880.126C251.726,874.378 257.852,874.685 257.852,874.685L252.317,863.3L252.949,859.232L247.026,855.634L246.506,848.878L241.881,845.49L229.97,845.278C222.432,841.544 200.885,824.368 200.885,824.368L190.901,823.322L188.242,821.699L189.305,819.098L188.785,815.395L182.492,812.17L182.053,805.646L185.991,801.963L184.699,799.867L184.969,797.267L185.485,794.898L184.68,793.623L185.561,790.117L182.674,790.638C178.889,780.947 186.23,780.267 186.23,780.267L185.497,778.779L184.779,777.171L186.424,766.875L185.964,745.64L185.738,734.097L184.203,714.626L181.755,711.13L180.404,704.816C181.766,697.133 181.017,684.519 179.372,671.91L183.224,671.863L188.671,674.294C188.671,674.294 192.668,683.282 203.184,684.694L209.408,688.479L214.701,685.857L220.074,685.733L228.325,682.667L240.056,687.705L244.957,688.988L259.436,697.072L261.023,701.239C261.023,701.239 264.06,708.935 273.521,706.503L276.818,708.002C276.818,708.002 275.119,717.601 282.358,717.251L292.314,724.082L298.353,726.24L300.62,728.117L310.109,729.532L316.745,732.03L322.957,729.33L330.918,729.22L335.914,740.932L341.347,747.823L350.242,772.133C358.952,785.089 350.941,792.13 350.941,792.13L340.345,793.883L337.133,790.763C330.191,795.669 334.846,833.254 334.846,833.254L339.123,844.641L333.414,845.249L326.392,859.304L324.953,870.332L322.362,874.961L326.454,885.618L326.858,893.661L328.922,899.199L328.922,903.018L330.609,909.637L323.95,913.517L322.08,915.421L316.564,917.989L312.891,914.928L303.819,913.979C303.819,913.979 303.264,917.121 304.569,919.091C305.875,921.062 303.979,925.106 303.979,925.106L295.675,924.975L286.963,928.047L279,929.093Z" style="fill:rgb(0,128,128);stroke:white;stroke-width:1.39px;"/>
    </g>
</svg>
