<?xml version="1.0" encoding="UTF-8" standalone="no"?>
<!DOCTYPE svg PUBLIC "-//W3C//DTD SVG 1.1//EN" "http://www.w3.org/Graphics/SVG/1.1/DTD/svg11.dtd">
<svg width="100%" height="100%" viewBox="0 0 1417 1417" version="1.1" xmlns="http://www.w3.org/2000/svg" xmlns:xlink="http://www.w3.org/1999/xlink" xml:space="preserve" style="fill-rule:evenodd;clip-rule:evenodd;stroke-linejoin:round;stroke-miterlimit:1.41421;">
    <g id="donridonri" transform="matrix(4.16667,0,0,4.16667,-226.559,-709.4)">
        <path d="M362.918,237.86C362.618,230.75 374.147,222.28 364.138,217.49C361.388,215.97 361.228,213.62 363.368,211.38C365.628,203.97 354.128,211.46 357.518,215.69C362.197,220.02 352.037,228.01 351.857,220.38C351.258,213.97 343.618,219.47 340.718,214.84C338.357,229.52 329.748,242.12 326.088,256.39C323.518,262.89 317.808,267.22 312.527,270.88C306.068,266.38 298.298,264.59 290.738,262.49C290.248,262.86 289.268,263.62 288.778,263.99C287.245,267.414 285.097,270.549 282.337,273.102C282.038,273.308 281.728,273.508 281.389,273.619C281.177,273.658 280.962,273.688 280.75,273.726C280.743,273.727 280.739,273.731 280.733,273.733C280.284,273.756 279.824,273.714 279.383,273.708C279.346,273.707 279.318,273.72 279.285,273.726C279.15,273.711 279.02,273.707 278.893,273.724C263.096,272.429 240.096,276.709 231.278,259.96C224.558,255.49 213.628,253.12 207.428,259.63C207.758,272.27 196.598,262.97 190.048,263.33C186.458,261.01 178.848,252.86 176.838,260.72C178.608,265.54 177.498,268.89 172.608,269.79C171.628,270.75 170.658,271.72 169.608,272.6C163.318,277.37 165.158,286.84 160.228,292.76C158.558,295.66 157.018,298.64 155.598,301.68C150.778,314.19 132.208,328.28 120.938,316.39C114.628,309.12 94.068,302.86 92.328,316.74C92.498,319.74 92.868,322.78 93.148,325.8C95.058,331.27 91.428,336.29 92.358,341.7C91.628,342.42 90.818,343.06 90.028,343.72C88.228,349.82 87.828,358.14 80.548,360.081C82.658,364.03 81.718,367.65 80.358,371.751C81.298,375.911 81.558,380.19 81.378,384.46C74.408,413.31 85.398,442.53 84.578,471.36L84.878,472.27C87.268,468.451 85.918,462.78 91.628,462.131C96.698,460.52 101.808,459.07 106.958,457.751L107.798,457.881C110.078,458.11 112.218,458.951 114.318,459.8C115.878,460.451 117.438,461.089 118.988,461.76C123.788,463.94 128.848,465.61 134.238,465.1C142.308,463.56 150.288,461.52 158.288,459.65C161.658,458.79 165.098,458.15 168.308,456.78C168.598,456.61 169.188,456.27 169.488,456.1C182.378,449.03 186.888,431.331 201.438,425.81C209.178,427.72 217.748,428.18 224.788,428.73C225.268,427.71 225.758,426.701 226.248,425.701C227.902,415.937 239.016,412.638 246.861,416.933C246.899,416.973 246.932,417.015 246.972,417.055C247.444,417.528 248.05,417.896 248.714,418.147C248.846,418.249 248.98,418.344 249.108,418.451C249.265,418.447 249.408,418.422 249.551,418.396C250.654,418.631 251.83,418.539 252.806,418.047C253.376,417.857 253.905,417.552 254.373,417.168C254.385,417.182 254.395,417.195 254.408,417.21C264.158,411.94 266.008,398.57 277.148,395.22C286.178,389.751 298.638,391.01 304.098,380.39C312.178,381.76 314.808,369.01 323.958,372.501C330.758,373.32 331.008,361.19 339.548,364.69C343.178,356.48 342.077,347.24 343.327,338.62C344.768,333.71 351.618,331.61 349.027,325.64C344.718,319.28 341.768,307.9 349.088,302.95C347.527,292.63 353.138,283.04 350.527,272.78C347.068,267.66 353.138,271.18 353.718,266.98C346.357,270.33 348.588,260.83 347.947,256.17C349.928,250.11 358.577,252.27 359.939,246.16C361.018,241.96 366.588,245.1 369.697,243.63C367.468,240.64 360.607,243.63 362.918,237.86" style="fill:rgb(213,135,185);fill-rule:nonzero;"/>
    </g>
</svg>
