<?xml version="1.0" encoding="UTF-8" standalone="no"?>
<!DOCTYPE svg PUBLIC "-//W3C//DTD SVG 1.1//EN" "http://www.w3.org/Graphics/SVG/1.1/DTD/svg11.dtd">
<svg width="100%" height="100%" viewBox="0 0 1417 1417" version="1.1" xmlns="http://www.w3.org/2000/svg" xmlns:xlink="http://www.w3.org/1999/xlink" xml:space="preserve" style="fill-rule:evenodd;clip-rule:evenodd;stroke-linejoin:round;stroke-miterlimit:1.41421;">
    <g id="ganra" transform="matrix(2.49482,0,0,2.49482,-3187.33,-3301.47)">
        <path d="M1719.28,1691.04C1692.08,1641.63 1722.16,1617.33 1751.95,1583.33C1710.99,1582.45 1683.7,1547.46 1659.12,1520C1688.08,1543.04 1667.74,1518.04 1668.49,1498C1658.41,1485.62 1652.03,1471.25 1652.99,1455.04C1635.45,1458.29 1585.53,1477.92 1600.44,1445.67C1579.08,1442.5 1582.53,1414.79 1573.07,1399.62C1611.41,1401.25 1596.53,1396.25 1580.12,1391.04C1574.58,1320.78 1475.67,1407.95 1455.92,1361.66C1461.28,1382.93 1436.12,1391.84 1430.53,1410.92C1425.32,1446.83 1429.91,1485.33 1414.78,1519.54C1407.91,1545.75 1404.53,1590.75 1366.33,1584.62C1306.33,1631.88 1399.78,1706.38 1364.62,1759.83C1412.65,1769.67 1359.33,1774.62 1375.79,1816.58C1389.9,1835.92 1423.2,1826.17 1435.62,1848.42C1441.03,1856.38 1459.33,1864 1460.49,1849.46C1460.45,1826.83 1504.83,1843.42 1490.49,1815.45C1519.19,1848.29 1575.62,1766 1588.12,1820.58C1587.78,1809.88 1595.87,1803.96 1604.16,1799.17C1600.03,1774.96 1566.7,1796.5 1559.33,1780.08C1591.2,1786.29 1617.58,1768.29 1632.49,1740.45C1621.87,1728.32 1648.62,1717.12 1655.34,1701.68C1652.37,1710.72 1648.23,1719.33 1644.45,1728.09C1665.91,1733 1690.78,1737.25 1690.37,1709.83C1726.53,1713.79 1769.16,1695.08 1777.33,1657.42C1751.95,1653.25 1739.33,1681.33 1719.28,1691.04ZM1455.92,1361.66C1455.53,1360.12 1455.01,1358.52 1454.28,1356.83C1454.75,1358.59 1455.3,1360.19 1455.92,1361.66Z" style="fill:rgb(88,180,88);"/>
    </g>
</svg>
