<?xml version="1.0" encoding="UTF-8" standalone="no"?>
<!DOCTYPE svg PUBLIC "-//W3C//DTD SVG 1.1//EN" "http://www.w3.org/Graphics/SVG/1.1/DTD/svg11.dtd">
<svg width="100%" height="100%" viewBox="0 0 2481 3508" version="1.1" xmlns="http://www.w3.org/2000/svg" xmlns:xlink="http://www.w3.org/1999/xlink" xml:space="preserve" style="fill-rule:evenodd;clip-rule:evenodd;stroke-linejoin:round;stroke-miterlimit:1.41421;">
    <g id="Layer-1" transform="matrix(4.16667,0,0,4.16667,0,0)">
        <g id="ganra" transform="matrix(0.24,0,0,0.24,0,0)">
            <path d="M1719.28,1691.04C1692.08,1641.63 1722.16,1617.33 1751.95,1583.33C1710.99,1582.45 1683.7,1547.46 1659.12,1520C1688.08,1543.04 1667.74,1518.04 1668.49,1498C1658.41,1485.62 1652.03,1471.25 1652.99,1455.04C1635.45,1458.29 1585.53,1477.92 1600.44,1445.67C1579.08,1442.5 1582.53,1414.79 1573.07,1399.62C1611.41,1401.25 1596.53,1396.25 1580.12,1391.04C1574.58,1320.78 1475.67,1407.95 1455.92,1361.66C1461.28,1382.93 1436.12,1391.84 1430.53,1410.92C1425.32,1446.83 1429.91,1485.33 1414.78,1519.54C1407.91,1545.75 1404.53,1590.75 1366.33,1584.62C1306.33,1631.88 1399.78,1706.38 1364.62,1759.83C1412.65,1769.67 1359.33,1774.62 1375.79,1816.58C1389.9,1835.92 1423.2,1826.17 1435.62,1848.42C1441.03,1856.38 1459.33,1864 1460.49,1849.46C1460.45,1826.83 1504.83,1843.42 1490.49,1815.45C1519.19,1848.29 1575.62,1766 1588.12,1820.58C1587.78,1809.88 1595.87,1803.96 1604.16,1799.17C1600.03,1774.96 1566.7,1796.5 1559.33,1780.08C1591.2,1786.29 1617.58,1768.29 1632.49,1740.45C1621.87,1728.32 1648.62,1717.12 1655.34,1701.68C1652.37,1710.72 1648.23,1719.33 1644.45,1728.09C1665.91,1733 1690.78,1737.25 1690.37,1709.83C1726.53,1713.79 1769.16,1695.08 1777.33,1657.42C1751.95,1653.25 1739.33,1681.33 1719.28,1691.04ZM1455.92,1361.66C1455.53,1360.12 1455.01,1358.52 1454.28,1356.83C1454.75,1358.59 1455.3,1360.19 1455.92,1361.66Z" style="fill:rgb(88,180,88);"/>
        </g>
        <path id="batubatu" d="M198.502,203.086C198.503,203.086 198.504,203.086 198.505,203.085C198.74,204.944 198.957,206.777 199.063,208.497C198.956,206.778 198.737,204.944 198.502,203.086M198.121,163.244C198.122,163.243 198.124,163.243 198.125,163.242C197.969,165.761 197.918,168.198 198.19,170.302C197.918,168.198 197.964,165.765 198.121,163.244M103.546,211.776C103.954,215.568 103.931,219.44 104.041,223.304C103.928,219.441 103.954,215.568 103.546,211.776M327.537,135.69C326.318,127.89 315.998,134.85 315.327,127.03C307.868,130.54 306.787,120.64 301.208,118.18C295.338,120.94 287.388,116.28 284.188,110.79C262.188,126.65 239.378,100.59 216.558,98.89C211.988,103.46 206.218,106.19 200.498,108.96C199.988,109.22 198.968,109.74 198.458,110L197.628,109.58C197.378,109.84 196.868,110.36 196.618,110.62C185.668,104.94 176.808,116.2 165.538,113.88C157.218,114.32 154.808,124.69 158.358,130.94C160.418,135.68 163.398,142.06 158.438,145.85C156.348,143.34 153.368,143.99 150.558,144.5C145.718,142.86 144.188,133.48 138.018,135.15C132.148,140.14 125.858,131.23 121.198,135.45C119.088,137.63 119.108,140.87 118.418,143.65C115.618,150.07 108.878,141.51 104.638,147.5C99.798,133.78 84.738,144.88 74.658,141.15C75.848,143.82 74.178,146.11 72.618,148.17C72.168,148.98 71.728,149.8 71.288,150.62C69.818,151.77 68.298,152.87 66.748,153.92C59.458,158.21 52.508,162.53 48.428,170.03C39.508,175.87 58.248,180.96 50.488,189.97C49.728,197.33 49.618,204.88 47.348,211.99C46.578,215.99 48.618,217.54 52.478,216.8C58.068,214.68 59.058,218.58 59.768,222.82C64.068,227.01 68.838,230.82 74.468,233.05C80.808,241.01 69.548,255.97 83.288,260.03C81.058,273.21 68.148,254.21 60.808,260.9C60.538,261.15 59.988,261.64 59.718,261.88C58.678,262.84 57.578,263.74 56.458,264.6C49.918,264.22 42.768,262.24 37.028,266.47C28.488,268.23 30.198,279.59 24.418,284.66C22.658,291.19 14.888,287.53 11.448,291.64C15.758,297.47 23.718,301.77 24.488,309.35C23.658,310.57 22.848,311.81 22.058,313.08C24.458,318.92 33.068,315.11 35.908,320.36C37.958,323.55 40.538,326.33 43.138,329.08C43.24,329.214 43.345,329.332 43.452,329.44C48.493,335.185 53.233,341.927 60.688,344.66C65.818,346.64 64.558,353.26 65.748,357.72C64.498,366.84 74.778,367.799 80.358,371.751C81.718,367.65 82.658,364.03 80.548,360.081C87.828,358.14 88.228,349.82 90.028,343.72C90.818,343.06 91.628,342.42 92.358,341.7C91.428,336.29 95.058,331.27 93.148,325.8C92.868,322.78 92.498,319.74 92.328,316.74C94.068,302.86 114.628,309.12 120.938,316.39C132.208,328.28 150.778,314.19 155.598,301.68C157.018,298.64 158.558,295.66 160.228,292.76C165.158,286.84 163.318,277.37 169.608,272.6C170.658,271.72 171.628,270.75 172.608,269.79C177.498,268.89 178.608,265.54 176.838,260.72C178.848,252.86 186.458,261.01 190.048,263.33C196.598,262.97 207.758,272.27 207.428,259.63C213.628,253.12 224.558,255.49 231.278,259.96C240.228,276.96 263.798,272.29 279.608,273.78C280.078,280.49 277.578,286.78 275.478,293C281.258,288 279.518,279.13 282.298,273.14C285.078,270.58 287.238,267.43 288.778,263.99C289.268,263.62 290.248,262.86 290.738,262.49C298.298,264.59 306.068,266.38 312.527,270.88C317.808,267.22 323.518,262.89 326.088,256.39C329.748,242.12 338.357,229.52 340.718,214.84C335.218,211.27 320.388,208.9 330.037,201.3C327.568,193.9 321.258,177.97 335.388,177.58C332.439,169.31 340.888,163.33 342.958,156.13C345.577,145.04 329.537,145.29 327.537,135.69" style="fill:rgb(226,228,61);fill-rule:nonzero;"/>
        <path id="talebba" d="M503.557,530.76C484.357,521.14 459.827,523.36 443.447,507.18C451.437,507.43 447.327,499.64 442.387,505.24C441.777,508.63 440.517,511.9 438.408,514.64C434.568,519.83 424.208,526.75 433.588,531.83C439.477,530.789 438.878,516.78 446.827,525.32C450.368,530.32 450.588,536.8 454.787,541.55C458.607,551.51 447.357,558.03 440.208,551.86C442.267,556.22 445.467,559.951 446.927,564.63C451.137,566.459 456.447,559.98 459.668,563.42C459.767,569.92 450.838,576.94 455.048,585.13C452.338,597.539 474.458,592.32 470.077,604.459C465.357,613.42 466.498,624.24 471.498,632.73C484.187,628.871 477.037,644.24 484.668,648.18C485.068,648.201 485.857,648.24 486.248,648.26C490.647,648.8 495.017,647.76 499.418,647.6C506.088,655.73 517.618,667.22 527.647,660.77C523.597,653 531.258,644.08 525.568,637.15C521.798,622.539 537.068,610.87 531.517,595.76C530.128,587.22 553.887,590.789 539.508,587.8C532.758,589.51 536.298,580.3 534.568,576.73C531.588,570.451 521.418,570.42 520.897,562.451C519.307,557.82 517.927,553.02 515.097,548.959C511.128,544.88 513.878,539.14 511.807,534.451" style="fill:rgb(194,149,128);fill-rule:nonzero;"/>
        <path id="donridonri" d="M362.918,237.86C362.618,230.75 374.147,222.28 364.138,217.49C361.388,215.97 361.228,213.62 363.368,211.38C365.628,203.97 354.128,211.46 357.518,215.69C362.197,220.02 352.037,228.01 351.857,220.38C351.258,213.97 343.618,219.47 340.718,214.84C338.357,229.52 329.748,242.12 326.088,256.39C323.518,262.89 317.808,267.22 312.527,270.88C306.068,266.38 298.298,264.59 290.738,262.49C290.248,262.86 289.268,263.62 288.778,263.99C287.245,267.414 285.097,270.549 282.337,273.102C282.038,273.308 281.728,273.508 281.389,273.619C281.177,273.658 280.962,273.688 280.75,273.726C280.743,273.727 280.739,273.731 280.733,273.733C280.284,273.756 279.824,273.714 279.383,273.708C279.346,273.707 279.318,273.72 279.285,273.726C279.15,273.711 279.02,273.707 278.893,273.724C263.096,272.429 240.096,276.709 231.278,259.96C224.558,255.49 213.628,253.12 207.428,259.63C207.758,272.27 196.598,262.97 190.048,263.33C186.458,261.01 178.848,252.86 176.838,260.72C178.608,265.54 177.498,268.89 172.608,269.79C171.628,270.75 170.658,271.72 169.608,272.6C163.318,277.37 165.158,286.84 160.228,292.76C158.558,295.66 157.018,298.64 155.598,301.68C150.778,314.19 132.208,328.28 120.938,316.39C114.628,309.12 94.068,302.86 92.328,316.74C92.498,319.74 92.868,322.78 93.148,325.8C95.058,331.27 91.428,336.29 92.358,341.7C91.628,342.42 90.818,343.06 90.028,343.72C88.228,349.82 87.828,358.14 80.548,360.081C82.658,364.03 81.718,367.65 80.358,371.751C81.298,375.911 81.558,380.19 81.378,384.46C74.408,413.31 85.398,442.53 84.578,471.36L84.878,472.27C87.268,468.451 85.918,462.78 91.628,462.131C96.698,460.52 101.808,459.07 106.958,457.751L107.798,457.881C110.078,458.11 112.218,458.951 114.318,459.8C115.878,460.451 117.438,461.089 118.988,461.76C123.788,463.94 128.848,465.61 134.238,465.1C142.308,463.56 150.288,461.52 158.288,459.65C161.658,458.79 165.098,458.15 168.308,456.78C168.598,456.61 169.188,456.27 169.488,456.1C182.378,449.03 186.888,431.331 201.438,425.81C209.178,427.72 217.748,428.18 224.788,428.73C225.268,427.71 225.758,426.701 226.248,425.701C227.902,415.937 239.016,412.638 246.861,416.933C246.899,416.973 246.932,417.015 246.972,417.055C247.444,417.528 248.05,417.896 248.714,418.147C248.846,418.249 248.98,418.344 249.108,418.451C249.265,418.447 249.408,418.422 249.551,418.396C250.654,418.631 251.83,418.539 252.806,418.047C253.376,417.857 253.905,417.552 254.373,417.168C254.385,417.182 254.395,417.195 254.408,417.21C264.158,411.94 266.008,398.57 277.148,395.22C286.178,389.751 298.638,391.01 304.098,380.39C312.178,381.76 314.808,369.01 323.958,372.501C330.758,373.32 331.008,361.19 339.548,364.69C343.178,356.48 342.077,347.24 343.327,338.62C344.768,333.71 351.618,331.61 349.027,325.64C344.718,319.28 341.768,307.9 349.088,302.95C347.527,292.63 353.138,283.04 350.527,272.78C347.068,267.66 353.138,271.18 353.718,266.98C346.357,270.33 348.588,260.83 347.947,256.17C349.928,250.11 358.577,252.27 359.939,246.16C361.018,241.96 366.588,245.1 369.697,243.63C367.468,240.64 360.607,243.63 362.918,237.86" style="fill:rgb(213,135,185);fill-rule:nonzero;"/>
        <g id="watansoppeng" transform="matrix(0.24,0,0,0.24,0,0)">
            <path d="M351.615,2332.75L351.615,2332.75C351.759,2332.61 351.903,2332.46 352.045,2332.31L351.615,2332.75C363.407,2278.38 301.949,2223.62 330.324,2168.29C330.492,2170.01 330.675,2171.8 330.876,2173.66L330.877,2173.66C330.676,2171.8 330.493,2170 330.325,2168.29C331.992,2164.46 333.533,2160.63 334.992,2156.75L334.991,2156.75L334.991,2156.75C333.841,2150.13 333.985,2145.36 335.094,2141.93C331.413,2107.24 304.107,2069.48 325.366,2039.66C323.714,2047.05 323.272,2053.98 323.793,2060.55L323.794,2060.55C323.272,2053.98 323.715,2047.05 325.367,2039.66L325.7,2036.54C336.992,2014.33 356.825,1994.96 353.658,1967.79C363.617,1951.88 357.992,1928.25 381.783,1925.54C402.908,1918.83 424.2,1912.79 445.658,1907.29L449.156,1907.84L449.157,1907.83C458.657,1908.79 467.574,1912.29 476.324,1915.83C482.824,1918.54 489.324,1921.2 495.782,1924L495.761,1924.04L495.783,1924C515.783,1933.08 536.867,1940.04 559.325,1937.91L559.325,1937.92C592.95,1931.5 626.199,1923 659.532,1915.21C673.574,1911.62 687.907,1908.96 701.282,1903.25C701.373,1903.55 701.466,1903.84 701.562,1904.13C701.467,1903.84 701.374,1903.55 701.283,1903.25C702.492,1902.54 704.95,1901.12 706.2,1900.41C759.908,1870.96 778.7,1797.21 839.325,1774.21C871.575,1782.16 907.283,1784.08 936.617,1786.37C937.904,1786.67 939.046,1786.99 940.06,1787.33L940.06,1787.32C939.046,1786.99 937.903,1786.67 936.616,1786.37C938.616,1782.12 940.658,1777.92 942.7,1773.75C943.359,1774.22 944.016,1774.73 944.672,1775.28L944.672,1775.27C944.017,1774.73 943.359,1774.22 942.7,1773.75C950.283,1729 1005.58,1716.83 1037.95,1743.54C1066.28,1742.87 1038.41,1656.79 1060.62,1711.5C1077.32,1722.04 1044.41,1720.79 1060.03,1738.37L1060.03,1738.37C1100.66,1716.41 1108.37,1660.71 1154.78,1646.75C1192.41,1623.96 1244.33,1629.21 1267.08,1584.96C1300.74,1590.67 1311.7,1537.54 1349.83,1552.09C1378.16,1555.5 1379.2,1504.96 1414.78,1519.54C1407.9,1545.75 1404.53,1590.75 1366.33,1584.63C1306.33,1631.87 1399.78,1706.37 1364.62,1759.83C1363.38,1759.98 1362.14,1760.13 1360.9,1760.27L1360.9,1760.27C1362.14,1760.13 1363.38,1759.98 1364.62,1759.83C1395.84,1766.23 1384.24,1770.56 1376.81,1784.33C1379.13,1791.32 1379.08,1801.67 1375.79,1816.58L1375.79,1816.58L1375.79,1816.58C1389.91,1835.91 1423.2,1826.16 1435.62,1848.41C1434.99,1849.17 1434.36,1849.92 1433.72,1850.65L1433.72,1850.65C1434.36,1849.92 1434.99,1849.17 1435.62,1848.41C1441.03,1856.37 1459.33,1864 1460.49,1849.46C1484.24,1865.08 1517.62,1852.5 1540.83,1865.87C1514.03,1866.17 1487.58,1861.46 1460.87,1861.46L1460.86,1861.46C1464.45,1905.29 1425.91,1932.83 1393.32,1952.88C1370.03,1975.75 1374.83,2013.08 1353.45,2037.5C1352.12,2037.36 1350.79,2037.23 1349.46,2037.13L1349.46,2037.13C1350.79,2037.24 1352.12,2037.36 1353.44,2037.5C1352.37,2039.21 1350.15,2042.59 1349.07,2044.29C1348.38,2044.02 1347.68,2043.76 1346.99,2043.53L1346.99,2043.53C1347.68,2043.76 1348.38,2044.02 1349.07,2044.29C1324.03,2081.41 1289.7,2112.91 1276.49,2157.04C1205.32,2226.29 1245.99,2332.71 1250.61,2418.12C1250.11,2472.62 1184.16,2464.25 1148.24,2482.84C1122.99,2494.71 1089.16,2492 1069.24,2512.96C1070.91,2547.21 1095.66,2576.25 1118.03,2600.54C1119.28,2609.08 1120.62,2617.62 1122.28,2626.16C1114.79,2625.75 1109.42,2623.53 1105.39,2620.14L1105.39,2620.14C1109.42,2623.53 1114.8,2625.76 1122.28,2626.17C1125.66,2639.5 1127.03,2653.08 1124.62,2666.92L1124.62,2666.92C1122.87,2672.5 1120.2,2677.71 1117.62,2682.96L1115.2,2684.5L1115.2,2684.5C1107.53,2690.54 1099.95,2696.67 1092.41,2702.92L1090.45,2704.04L1090.45,2704.04C1083.78,2708.08 1077.12,2712.25 1069.91,2715.21C1069.89,2714.61 1069.87,2714.02 1069.83,2713.45L1069.83,2713.45C1069.87,2714.02 1069.89,2714.61 1069.91,2715.21C1069.4,2715.42 1068.69,2715.71 1067.93,2716.02C1056.14,2731.24 1036.98,2743.58 1017.17,2747.07C1011.79,2748.98 1006.24,2750.59 1000.53,2751.88C987.365,2755.79 975.032,2761.92 961.99,2766.13L961.99,2766.13C944.657,2771.7 927.032,2776.33 909.449,2780.92C900.199,2783 891.157,2785.83 881.907,2787.96C868.383,2786.35 857.14,2781.06 847.24,2773.75L847.238,2773.75C857.138,2781.06 868.382,2786.35 881.907,2787.96C856.823,2793.79 830.615,2793.54 806.282,2802.63L806.281,2802.62C795.407,2805 784.365,2806.33 773.282,2807.25L773.113,2807.07L773.282,2807.25C768.949,2807.66 764.657,2808.16 760.365,2808.75C749.032,2810.08 737.865,2812.62 726.657,2814.79C688.324,2808.46 722.449,2846.08 722.865,2865.79C721.284,2865.51 719.686,2865.28 718.073,2865.09C719.686,2865.28 721.284,2865.51 722.866,2865.79C735.949,2898.79 700.366,2921.41 670.241,2914.12C627.824,2911.83 602.241,2950.58 563.032,2958.04C542.199,2930.37 550.907,2896.88 546.699,2867.08C497.449,2839.87 454.657,2745.87 386.407,2777.09C363.157,2751.29 342.157,2717.96 355.532,2681.62C379.199,2644.12 315.199,2628.71 330.491,2594.66C367.532,2575.62 325.158,2531.17 348.741,2502.25L348.74,2502.25C350.324,2490.29 350.99,2478.29 350.407,2466.25L350.407,2466.25C339.449,2447.08 330.45,2424 351.408,2406.83C382.199,2378.58 322.201,2359.96 351.615,2332.75ZM717.674,2865.04L717.934,2865.07L717.756,2865.05L717.674,2865.04ZM708.183,2864.42L708.612,2864.43L708.327,2864.42L708.183,2864.42ZM706.198,2864.38C706.799,2864.39 707.398,2864.4 707.996,2864.41C707.398,2864.39 706.799,2864.38 706.199,2864.38L706.198,2864.38ZM773.011,2806.97L773.088,2807.05L772.955,2806.91L773.011,2806.97ZM800.828,2789.37L800.879,2789.49L800.844,2789.4L800.828,2789.37ZM799.886,2787.15L800.411,2788.39L800.142,2787.76L799.886,2787.15L799.886,2787.15ZM954.182,2747.66C956.116,2747.66 958.504,2747.83 961.407,2748.17L961.407,2748.17C958.504,2747.83 956.116,2747.66 954.182,2747.66ZM958.168,2746.33L958.172,2746.34L958.171,2746.34L958.168,2746.33ZM957.607,2746.03L957.635,2746.04L957.627,2746.04L957.607,2746.03ZM957.051,2745.73L957.097,2745.75L957.083,2745.74L957.051,2745.73ZM956.498,2745.43L956.557,2745.46L956.537,2745.45L956.498,2745.43ZM955.947,2745.14L956.016,2745.17L955.99,2745.16L955.947,2745.14ZM955.397,2744.85L955.473,2744.89L955.442,2744.87L955.397,2744.85ZM954.848,2744.56L954.929,2744.6L954.893,2744.59L954.848,2744.56ZM954.299,2744.28L954.384,2744.32L954.343,2744.3L954.299,2744.28ZM953.75,2744L953.836,2744.04L953.791,2744.02L953.75,2744ZM953.201,2743.72L953.287,2743.76L953.239,2743.74L953.201,2743.72ZM952.651,2743.44L952.735,2743.49L952.686,2743.46L952.651,2743.44ZM952.101,2743.17L952.182,2743.21L952.131,2743.18L952.101,2743.17ZM951.551,2742.9L951.625,2742.93L951.576,2742.91L951.551,2742.9ZM950.999,2742.63L951.066,2742.66L951.019,2742.64L950.999,2742.63ZM950.447,2742.36L950.502,2742.39L950.462,2742.37L950.447,2742.36ZM949.894,2742.1L949.933,2742.11L949.903,2742.1L949.894,2742.1ZM949.341,2741.83L949.355,2741.84L949.344,2741.83L949.341,2741.83ZM944.752,2739.73L944.846,2739.77L944.834,2739.76L944.752,2739.73ZM367.553,2691.21L367.553,2691.21L367.554,2691.2L367.553,2691.21ZM367.642,2690.98L367.641,2690.99L367.644,2690.98L367.642,2690.98ZM367.92,2690.31L367.915,2690.32L367.929,2690.29L367.92,2690.31ZM368.016,2690.09L368.006,2690.11L368.024,2690.07L368.016,2690.09ZM368.113,2689.86L368.104,2689.88L368.117,2689.86L368.113,2689.86ZM368.314,2689.41L368.307,2689.43L368.329,2689.38L368.314,2689.41ZM368.416,2689.19L368.402,2689.22L368.431,2689.16L368.416,2689.19ZM368.52,2688.97L368.502,2689.01L368.529,2688.95L368.52,2688.97ZM376.298,2688.87L376.346,2688.89L376.303,2688.87L376.298,2688.87ZM376.062,2688.76L376.15,2688.8L376.089,2688.77L376.062,2688.76ZM368.626,2688.75L368.619,2688.76L368.628,2688.74L368.626,2688.75ZM375.826,2688.66L375.923,2688.7L375.874,2688.68L375.826,2688.66ZM375.588,2688.55L375.691,2688.6L375.659,2688.59L375.588,2688.55ZM368.734,2688.52L368.728,2688.54L368.754,2688.48L368.734,2688.52ZM375.346,2688.45L375.456,2688.5L375.443,2688.49L375.346,2688.45ZM375,2688.31L375.133,2688.37L375.01,2688.32L375,2688.31ZM368.844,2688.3L368.829,2688.33L368.864,2688.26L368.844,2688.3ZM374.76,2688.22L374.883,2688.27L374.792,2688.23L374.76,2688.22ZM374.518,2688.12L374.643,2688.17L374.575,2688.15L374.518,2688.12ZM368.955,2688.08L368.933,2688.12L368.969,2688.05L368.955,2688.08ZM374.271,2688.03L374.403,2688.08L374.356,2688.06L374.271,2688.03ZM374.009,2687.94L374.162,2687.99L374.137,2687.98L374.009,2687.94ZM369.067,2687.86L369.046,2687.9L369.073,2687.85L369.067,2687.86ZM373.444,2687.74L373.599,2687.79L373.478,2687.75L373.444,2687.74ZM373.197,2687.66L373.343,2687.71L373.257,2687.68L373.197,2687.66ZM369.182,2687.63L369.178,2687.64L369.2,2687.6L369.182,2687.63ZM372.946,2687.58L373.095,2687.63L373.036,2687.61L372.946,2687.58ZM372.679,2687.49L372.849,2687.55L372.814,2687.54L372.679,2687.49ZM369.298,2687.41L369.286,2687.44L369.322,2687.37L369.298,2687.41ZM372.113,2687.33L372.297,2687.38L372.146,2687.34L372.113,2687.33ZM371.864,2687.26L372.022,2687.3L371.922,2687.27L371.864,2687.26ZM371.61,2687.19L371.767,2687.23L371.698,2687.21L371.61,2687.19ZM369.416,2687.19L369.395,2687.23L369.435,2687.16L369.416,2687.19ZM371.342,2687.12L371.516,2687.17L371.473,2687.15L371.342,2687.12ZM370.767,2686.98L370.98,2687.03L370.796,2686.99L370.767,2686.98ZM369.536,2686.97L369.511,2687.02L369.546,2686.95L369.536,2686.97ZM370.515,2686.92L370.682,2686.96L370.569,2686.94L370.515,2686.92ZM370.258,2686.87L370.42,2686.9L370.342,2686.89L370.258,2686.87ZM369.992,2686.81L370.164,2686.85L370.114,2686.84L369.992,2686.81ZM369.657,2686.75C369.658,2686.75 369.911,2686.8 369.911,2686.8C369.826,2686.78 369.742,2686.76 369.657,2686.75L369.657,2686.75ZM1104.91,2675.11L1104.95,2675.14L1104.92,2675.12L1104.91,2675.11ZM1104.55,2674.82L1104.63,2674.88L1104.58,2674.84L1104.55,2674.82ZM1104.2,2674.53L1104.3,2674.61L1104.24,2674.57L1104.2,2674.53ZM1103.84,2674.24L1103.96,2674.34L1103.9,2674.29L1103.84,2674.24ZM1103.48,2673.95L1103.62,2674.06L1103.57,2674.02L1103.48,2673.95ZM1103.12,2673.66L1103.28,2673.79L1103.23,2673.75L1103.12,2673.66ZM1102.76,2673.38L1102.93,2673.51L1102.88,2673.48L1102.76,2673.38ZM1102.38,2673.08L1102.58,2673.24L1102.54,2673.21L1102.38,2673.08ZM1101.96,2672.76L1102.23,2672.96L1102.2,2672.94L1101.96,2672.76ZM1101.51,2672.41L1101.87,2672.69C1101.63,2672.5 1101.39,2672.31 1101.15,2672.13L1101.51,2672.41ZM1100.79,2671.85L1101.1,2672.09L1100.83,2671.89L1100.79,2671.85ZM1100.43,2671.58L1100.71,2671.8L1100.49,2671.63L1100.43,2671.58ZM1100.06,2671.31L1100.34,2671.52L1100.15,2671.37L1100.06,2671.31ZM1099.7,2671.03L1099.98,2671.24L1099.8,2671.11L1099.7,2671.03ZM1099.33,2670.76L1099.61,2670.97L1099.46,2670.86L1099.33,2670.76ZM1098.96,2670.49L1099.25,2670.7L1099.12,2670.6L1098.96,2670.49ZM1098.58,2670.21L1098.89,2670.44L1098.77,2670.35L1098.58,2670.21ZM1098.2,2669.93L1098.53,2670.17L1098.43,2670.1L1098.2,2669.93ZM1095.93,2668.33C1096.67,2668.84 1097.42,2669.37 1098.16,2669.91C1097.42,2669.37 1096.67,2668.84 1095.93,2668.33ZM1095.56,2668.07L1095.93,2668.32L1095.65,2668.13L1095.56,2668.07ZM1095.2,2667.82L1095.53,2668.05L1095.31,2667.89L1095.2,2667.82ZM1094.83,2667.57L1095.14,2667.78L1094.96,2667.66L1094.83,2667.57ZM1094.46,2667.32L1094.76,2667.52L1094.61,2667.42L1094.46,2667.32ZM1094.1,2667.07L1094.39,2667.27L1094.26,2667.18L1094.1,2667.07ZM1093.73,2666.83L1094.01,2667.02L1093.91,2666.95L1093.73,2666.83ZM1093.56,2666.72L1093.64,2666.77L1093.56,2666.72L1093.56,2666.72ZM1111.56,2651.8L1111.58,2651.81L1111.57,2651.8L1111.56,2651.8ZM1111.33,2651.62L1111.33,2651.63L1111.33,2651.63L1111.33,2651.62ZM1110.82,2651.26L1110.86,2651.28L1110.85,2651.28L1110.82,2651.26ZM1110.58,2651.08L1110.63,2651.12L1110.61,2651.1L1110.58,2651.08ZM1110.35,2650.92L1110.39,2650.95L1110.36,2650.93L1110.35,2650.92ZM1110.07,2650.72L1110.13,2650.76L1110.12,2650.76L1110.07,2650.72ZM1109.82,2650.55L1109.91,2650.61L1109.87,2650.59L1109.82,2650.55ZM1109.59,2650.39L1109.69,2650.46L1109.63,2650.42L1109.59,2650.39ZM1109.37,2650.24L1109.47,2650.31L1109.38,2650.25L1109.22,2650.14L1109.37,2650.24ZM1109.02,2650.01L1109.17,2650.11L1109.13,2650.08L1109.02,2650.01ZM1108.8,2649.86L1108.95,2649.96L1108.88,2649.92L1108.8,2649.86ZM1102.52,2646.09L1102.52,2646.09C1104.64,2647.26 1106.73,2648.49 1108.75,2649.83C1106.73,2648.49 1104.64,2647.26 1102.52,2646.09ZM343.086,2597.03C343.502,2608.68 349.189,2619.14 357.129,2627.9L357.103,2627.76C349.202,2619.03 343.506,2608.64 343.086,2597.03ZM343.078,2596.77L343.079,2596.82L343.078,2596.77L343.078,2596.77ZM343.071,2596.51L343.071,2596.51L343.071,2596.51L343.071,2596.51ZM343.074,2594.67L343.726,2595.33L343.074,2594.66L343.074,2594.67ZM349.299,2507.19C352.525,2525.2 367.631,2526.72 384.033,2526.49L384.032,2526.49C367.631,2526.72 352.526,2525.2 349.299,2507.19ZM349.29,2507.14L349.298,2507.19L349.264,2506.99L349.29,2507.14ZM349.246,2506.89L349.256,2506.95L349.227,2506.77L349.246,2506.89ZM349.203,2506.63L349.214,2506.7L349.189,2506.54L349.203,2506.63ZM349.162,2506.38L349.175,2506.45L349.151,2506.3L349.162,2506.38ZM349.123,2506.12L349.136,2506.2L349.115,2506.06L349.123,2506.12ZM349.085,2505.85L349.098,2505.94L349.08,2505.81L349.085,2505.85ZM349.049,2505.59L349.061,2505.68L349.046,2505.57L349.049,2505.59ZM349.015,2505.32L349.023,2505.39L349.013,2505.31L349.015,2505.32ZM348.95,2504.78L348.95,2504.79L348.949,2504.77L348.95,2504.78ZM348.92,2504.51L348.921,2504.52L348.918,2504.49L348.92,2504.51ZM348.892,2504.24L348.894,2504.25L348.89,2504.21L348.892,2504.24ZM348.866,2503.96L348.867,2503.97L348.864,2503.94L348.866,2503.96ZM348.841,2503.68L348.842,2503.69L348.84,2503.67L348.841,2503.68ZM348.818,2503.4L348.818,2503.4L348.817,2503.4L348.818,2503.4ZM348.758,2502.54L348.766,2502.67L348.747,2502.35L348.758,2502.54ZM350.769,2464.9L350.754,2464.95L350.797,2464.81L350.769,2464.9ZM350.898,2464.47L350.849,2464.63L350.931,2464.36L350.898,2464.47ZM355.084,2456.57C353.383,2458.46 351.981,2460.99 350.949,2464.3C351.982,2461 353.388,2458.48 355.086,2456.58L355.084,2456.57ZM356.153,2412.08C355.047,2412.83 354.312,2414.1 354.062,2416.04C354.093,2415.96 354.124,2415.89 354.157,2415.82C354.424,2414.07 355.103,2412.9 356.099,2412.18L356.153,2412.08ZM364.158,2387.39C363.814,2388.77 363.667,2390.05 363.689,2391.25L363.695,2391.23C363.675,2390.04 363.818,2388.76 364.158,2387.39ZM364.176,2387.32L364.158,2387.39L364.19,2387.26L364.176,2387.32ZM364.233,2387.1L364.226,2387.12L364.234,2387.09L364.233,2387.1ZM364.491,2386.21C365.041,2386.25 365.57,2386.36 366.107,2386.43L366.138,2386.39C365.593,2386.32 365.045,2386.26 364.491,2386.21L364.491,2386.21ZM351.59,2332.95C351.528,2333.43 351.473,2333.9 351.424,2334.37L351.478,2334.31C351.529,2333.84 351.539,2333.42 351.59,2332.95ZM341.166,2135.04C338.368,2136.32 336.227,2138.43 335.094,2141.93L335.094,2141.93C336.227,2138.43 338.368,2136.32 341.166,2135.04L341.166,2135.04ZM330.223,2040.24L330.246,2040.24L330.249,2040.24C330.181,2040.23 330.114,2040.23 330.047,2040.22L330.223,2040.24ZM331.557,2037.72C331.004,2038.39 330.486,2039.14 330.004,2039.97C330.467,2039.18 330.973,2038.48 331.499,2037.83L331.557,2037.72ZM559.553,1938.84C559.781,1939.74 560.026,1940.61 560.285,1941.45L560.303,1941.45C560.041,1940.61 559.786,1939.74 559.553,1938.84ZM494.345,1926.15C492.805,1928.02 490.913,1929.18 488.824,1929.88L488.842,1929.88C490.924,1929.18 492.808,1928.02 494.345,1926.15ZM494.44,1926.03L494.372,1926.12L494.408,1926.07L494.44,1926.03ZM494.544,1925.9L494.494,1925.96L494.532,1925.92L494.544,1925.9ZM494.661,1925.75L494.652,1925.76L494.654,1925.76L494.661,1925.75ZM494.785,1925.58L494.766,1925.61L494.774,1925.6L494.785,1925.58ZM494.896,1925.43L494.887,1925.44L494.893,1925.43L494.896,1925.43ZM495.241,1924.92L495.238,1924.92L495.239,1924.92L495.241,1924.92ZM495.583,1924.36L495.562,1924.39L495.571,1924.38L495.583,1924.36ZM495.688,1924.17L495.66,1924.22L495.678,1924.19L495.688,1924.17ZM1365.61,1772.84C1370.82,1774.58 1374.75,1778.13 1376.81,1784.33L1376.81,1784.33C1374.75,1778.13 1370.82,1774.58 1365.61,1772.84ZM1055.26,1740.78C1054.83,1741.43 1054.84,1742.14 1055.15,1742.89L1055.15,1742.89C1054.85,1742.14 1054.83,1741.43 1055.26,1740.78ZM1055.27,1740.76L1055.26,1740.78L1055.28,1740.75L1055.27,1740.76ZM1055.35,1740.64C1055.33,1740.68 1055.3,1740.71 1055.28,1740.74C1055.3,1740.71 1055.33,1740.68 1055.35,1740.64ZM1055.38,1740.61L1055.36,1740.63L1055.38,1740.6L1055.38,1740.61ZM1055.41,1740.56L1055.39,1740.59L1055.41,1740.56L1055.43,1740.54L1055.41,1740.56ZM1055.46,1740.51L1055.45,1740.52L1055.47,1740.5L1055.46,1740.51ZM1055.5,1740.46L1055.49,1740.48L1055.51,1740.46L1055.5,1740.46ZM1055.55,1740.41L1055.54,1740.42L1055.56,1740.4L1055.55,1740.41ZM1055.59,1740.37L1055.58,1740.37L1055.6,1740.36L1055.59,1740.37ZM1055.64,1740.32L1055.63,1740.32L1055.64,1740.31L1055.64,1740.32ZM1055.69,1740.27L1055.69,1740.27L1055.7,1740.26L1055.69,1740.27ZM1055.75,1740.22L1055.74,1740.23L1055.75,1740.22L1055.75,1740.22ZM1055.86,1740.12L1055.85,1740.13L1055.86,1740.12L1055.86,1740.12ZM1055.92,1740.08L1055.92,1740.08L1055.92,1740.08L1055.92,1740.08ZM1056.04,1739.98L1056.04,1739.98L1056.04,1739.98L1056.04,1739.98ZM1056.31,1739.79L1056.28,1739.81L1056.33,1739.78L1056.31,1739.79ZM1056.38,1739.75L1056.38,1739.75L1056.44,1739.71L1056.38,1739.75ZM1056.54,1739.66L1056.5,1739.67L1056.55,1739.65L1056.54,1739.66ZM1056.62,1739.61L1056.61,1739.62L1056.65,1739.59L1056.62,1739.61ZM1056.78,1739.52L1056.75,1739.54L1056.79,1739.52L1056.78,1739.52ZM1056.87,1739.48L1056.85,1739.48L1056.89,1739.46L1056.87,1739.48ZM1057.04,1739.39L1057.02,1739.4L1057.05,1739.39L1057.04,1739.39ZM1057.13,1739.34L1057.12,1739.35L1057.15,1739.34L1057.13,1739.34ZM1057.42,1739.21L1057.41,1739.22L1057.44,1739.21L1057.42,1739.21ZM1057.73,1739.09L1057.72,1739.09L1057.74,1739.08L1057.73,1739.09ZM1058.06,1738.96L1058.06,1738.96L1058.06,1738.96L1058.06,1738.96Z" style="fill:rgb(228,171,60);"/>
        </g>
        <g id="takalala" transform="matrix(0.24,0,0,0.24,0,0)">
            <path d="M1092.41,2702.92C1099.95,2696.67 1107.53,2690.54 1115.2,2684.5L1117.62,2682.96C1120.2,2677.71 1122.87,2672.5 1124.62,2666.92C1127.03,2653.08 1125.66,2639.5 1122.28,2626.17C1120.62,2617.62 1119.28,2609.08 1118.03,2600.54C1197.62,2580.67 1278.49,2569.54 1360.16,2561.42C1465.32,2577.88 1474.45,2427.08 1398.28,2390.88C1421.03,2382.17 1463.32,2354.04 1502.24,2365.21L1506.41,2365.04C1508.62,2365.04 1512.99,2364.95 1515.2,2364.92C1534.37,2368.71 1551.24,2379.08 1568.87,2387.04C1604.12,2408.83 1646.87,2397.71 1685.66,2403.42C1730.99,2372.74 1781.95,2363.12 1834.62,2356.59C1862.2,2364.46 1888.99,2357 1915.28,2347.58C1915.7,2374.67 1878.49,2403.92 1896.03,2438.04C1884.74,2489.74 1976.91,2468 1958.66,2518.58C1938.99,2555.92 1943.74,2601 1964.58,2636.38C2017.45,2620.3 1987.66,2684.33 2019.45,2700.75C2021.12,2700.84 2024.41,2701 2026.04,2701.08C2044.37,2703.33 2062.57,2699 2080.91,2698.33C2108.7,2732.21 2156.74,2780.08 2198.53,2753.21L2202.32,2752.59C2197.82,2788 2213.78,2847.21 2169.32,2858.25C2104.2,2867.12 2112.91,2951.83 2063.32,2980.96C2022.07,3005.04 1969.62,2982.99 1928.66,3009C1883.49,3014.46 1830.78,2966.88 1790.49,2987.96C1786.12,3006.38 1758.66,2992.46 1754.66,3010C1750.49,3025.62 1760.32,3053.54 1736.99,3054.67C1715.74,3055.79 1708.87,3078.92 1690.99,3086.42C1691.37,3076.04 1685.66,3070.25 1676.24,3067.58C1664.95,3060.83 1671.37,3028.29 1654.53,3042.83C1632.12,3065.09 1603.79,3030.25 1596.74,3065.33C1563.16,3040.96 1524.66,3054.84 1486.66,3043.46C1470.16,3061.5 1445.91,3049.12 1432.07,3035.24C1394.32,3040.75 1373.66,2990.99 1337.91,3000.96C1302.74,2978.54 1268.99,2945.66 1223.49,2949.5C1214.49,2959.42 1205.99,2969.79 1196.28,2979.04C1176.45,3000.92 1142.41,2997.62 1120.37,3017.29C1097.78,3023.33 1078.45,3069.38 1055.82,3041.13C1032.99,3008.13 968.656,3024.88 968.198,3065.25C956.115,3094.29 939.198,3066.08 936.698,3047.62C884.119,3051.33 833.656,3024.8 780.035,3024.88C749.615,3009.33 696.115,3019.71 690.656,3058.75C686.948,3073.45 668.365,3072.71 656.365,3074.33C648.365,3072.71 639.41,3071.67 636.115,3062.96C623.952,3041.33 621.49,3015.58 606.077,2995.63C605.281,2971.46 580.24,2967 563.031,2958.04C602.24,2950.58 627.823,2911.83 670.24,2914.12C700.365,2921.42 735.948,2898.79 722.865,2865.79C722.448,2846.08 688.323,2808.46 726.656,2814.79C737.865,2812.62 749.031,2810.08 760.365,2808.75C763.175,2809.34 765.013,2810.09 766.135,2810.94C765.015,2810.09 763.177,2809.34 760.365,2808.75C764.657,2808.16 768.949,2807.66 773.282,2807.25C784.365,2806.33 795.407,2805 806.282,2802.63C830.615,2793.55 856.824,2793.79 881.907,2787.96C891.157,2785.83 900.199,2783 909.449,2780.92C911.377,2780.84 913.247,2780.86 915.064,2780.96C913.247,2780.86 911.377,2780.84 909.448,2780.92C927.031,2776.33 944.656,2771.7 961.99,2766.13C975.031,2761.92 987.365,2755.79 1000.53,2751.88C1000.91,2752.75 1001.3,2753.63 1001.69,2754.52C1001.3,2753.63 1000.91,2752.75 1000.53,2751.88C1025.49,2746.25 1047.53,2734.5 1064.66,2717.33C1065.99,2716.79 1068.62,2715.75 1069.91,2715.21C1077.12,2712.25 1083.78,2708.08 1090.45,2704.04L1092.41,2702.92L1092.41,2702.92ZM728.477,2836.71C731.065,2844.03 734.794,2851.82 737.902,2859.55C734.79,2851.82 731.06,2844.03 728.477,2836.71ZM766.69,2811.44L766.709,2811.45L766.702,2811.45L766.69,2811.44ZM766.545,2811.29L766.592,2811.34L766.55,2811.3L766.545,2811.29ZM766.431,2811.19L766.497,2811.25L766.469,2811.22L766.431,2811.19ZM766.283,2811.06L766.394,2811.15C766.358,2811.12 766.321,2811.09 766.283,2811.06ZM766.147,2810.95L766.262,2811.04L766.206,2811L766.147,2810.95ZM915.717,2781L915.89,2781.02L915.774,2781.01L915.717,2781ZM915.107,2780.97L915.513,2780.99L915.336,2780.98L915.107,2780.97Z" style="fill:rgb(93,179,138);"/>
        </g>
        <g id="cabbenge" transform="matrix(0.24,0,0,0.24,0,0)">
            <path d="M1668.63,1498.02L1668.63,1498.01C1668.58,1498.01 1668.53,1498.01 1668.49,1498C1658.4,1485.62 1652.03,1471.25 1652.99,1455.04C1682.58,1426.88 1623.78,1454.45 1613.65,1437.16C1693.86,1427.75 1775.82,1392.29 1861.16,1406.42C1873.61,1408.61 1878.08,1421.65 1882.48,1431.8L1882.53,1431.92C1882.47,1432.43 1882.43,1432.94 1882.39,1433.45C1882.34,1434.1 1882.3,1434.76 1882.26,1435.4L1882.26,1435.41C1882.3,1434.76 1882.34,1434.1 1882.39,1433.45C1882.43,1432.94 1882.47,1432.43 1882.53,1431.92L1882.72,1431.93C1946.62,1436.22 2011.84,1419.73 2072.7,1399.33C2080.82,1396.04 2141.78,1406.62 2090.86,1408.42C2093.62,1432.46 2085.66,1460.25 2079.83,1479.59C2120.99,1482 2064.53,1479 2085.66,1503.09C2072.67,1521.18 2082.27,1543.85 2099.95,1551.34C2101.42,1551.59 2102.91,1551.85 2104.39,1552.12C2111.56,1551.5 2120.56,1552.63 2126.02,1550.96L2126.23,1550.9L2126.26,1550.89C2126.43,1550.84 2126.59,1550.78 2126.75,1550.72C2127.18,1550.53 2127.6,1550.33 2128.03,1550.12C2127.64,1550.35 2127.21,1550.54 2126.75,1550.72L2126.74,1550.72C2127.2,1550.55 2127.63,1550.35 2128.03,1550.12C2148.44,1548.31 2168.86,1546.42 2189.28,1544.67C2194.62,1543.92 2200.02,1543.38 2205.09,1543.36C2229.19,1541.41 2253.32,1539.76 2277.49,1538.79C2300.37,1553.09 2322.95,1568.21 2347.58,1579.17C2359.42,1615.92 2298.76,1633.22 2311.57,1668.14L2311.78,1668.38L2311.93,1668.55C2341.25,1687.38 2362.91,1721.22 2337.36,1752C2379.28,1775.46 2325.87,1801.46 2312.45,1826.33C2290.28,1855.17 2326.66,1885.58 2306.53,1915.75C2311.23,1927.62 2325.61,1929.37 2340.9,1931.01C2345.04,1931.12 2349.16,1931.49 2353.26,1932.26C2354.7,1932.54 2356.1,1932.85 2357.45,1933.2C2369.87,1935.6 2380.69,1940.45 2384.74,1953.67C2384.85,1954.85 2385.01,1956.01 2385.22,1957.15C2385.93,1958.96 2386.55,1960.86 2387.08,1962.87C2387.38,1963.99 2387.68,1965.09 2387.98,1966.18C2397.18,1987.92 2421.66,2003.58 2416.57,2029.14C2415.62,2030.78 2414.88,2032.52 2414.28,2034.32C2414.17,2034.65 2414.07,2034.99 2413.97,2035.32C2413.88,2035.48 2413.8,2035.64 2413.71,2035.81C2413.55,2036.12 2413.39,2036.44 2413.21,2036.75C2412.54,2037.89 2412.09,2039.13 2411.74,2040.38C2411.62,2040.38 2411.49,2040.37 2411.36,2040.37L2411.36,2040.37C2408.87,2070.54 2388.03,2127.92 2425.99,2131.37C2395.91,2131.79 2428.91,2146.75 2416.62,2162.92C2395.08,2166.79 2432.33,2191.67 2408.03,2194.29L2408.03,2194.29C2376.66,2216.88 2355.36,2262.42 2307.24,2252.5L2306.82,2252.54C2298.94,2258.42 2279.52,2254.59 2271.91,2255.29C2271.67,2255.3 2271.47,2255.26 2271.24,2255.26C2271.11,2255.26 2271,2255.29 2270.87,2255.29C2245.51,2255.07 2223.43,2250.05 2200.5,2244.12C2193.03,2242.62 2185.55,2240.95 2178.06,2238.92C2174.36,2237.92 2170.7,2236.78 2167.06,2235.57C2142.62,2229.81 2114.77,2224.65 2094.58,2209.74C2015.13,2171.67 1914.93,2179.66 1847.69,2113.25C1880.99,2114.29 1863.86,2081.83 1843.28,2105.17L1843.28,2105.17C1840.74,2119.29 1835.49,2132.91 1826.7,2144.34L1822.78,2144.67C1824.74,2135.09 1841.74,2108.62 1822.49,2114.25C1827.9,2104.88 1840.47,2090.27 1828.13,2081.61C1827.94,2081.67 1827.76,2081.72 1827.57,2081.77C1827.33,2081.93 1827.12,2082.12 1826.84,2082.22C1826.58,2082.32 1826.34,2082.42 1826.09,2082.51C1816.69,2088.38 1806.38,2087.01 1797.04,2082.57C1789.7,2079.58 1782.81,2074.67 1778.11,2069.09C1776.33,2067.64 1774.22,2065.92 1772.99,2064.92C1772.77,2063.85 1772.52,2062.78 1772.26,2061.73L1772.25,2061.73C1772.52,2062.78 1772.77,2063.85 1772.99,2064.92C1759.28,2064.41 1737.2,2082.5 1728.7,2068.42C1723.83,1995.21 1622.28,2014.83 1602.74,1947.62L1601.28,1944.25L1601.28,1944.25L1598.12,1945L1597.19,1941.34L1597.19,1941.34C1584.53,1930.29 1568.58,1919.59 1566.24,1901.5C1563.37,1887.53 1579.26,1863.24 1561.12,1862.17C1581.07,1856.93 1601.22,1842.26 1588.11,1820.58C1587.78,1809.87 1595.87,1803.96 1604.16,1799.17C1606.19,1797.89 1608.18,1796.57 1610.14,1795.2L1610.14,1795.19C1608.18,1796.57 1606.19,1797.89 1604.16,1799.17C1600.03,1774.96 1566.7,1796.5 1559.32,1780.09C1591.2,1786.29 1617.57,1768.29 1632.49,1740.46C1621.68,1728.1 1649.62,1716.71 1655.69,1700.84C1655.95,1700.01 1656.21,1699.17 1656.45,1698.34C1656.26,1699.18 1656.01,1700.01 1655.69,1700.84C1652.71,1710.19 1648.35,1719.05 1644.45,1728.09C1665.91,1733 1690.78,1737.25 1690.37,1709.83C1726.53,1713.79 1769.16,1695.08 1777.32,1657.41C1751.95,1653.25 1739.32,1681.34 1719.28,1691.04C1692.07,1641.63 1722.16,1617.33 1751.95,1583.34C1738.91,1583.06 1727.25,1579.32 1716.62,1573.46C1709.77,1571.09 1704.36,1567.3 1700.35,1562.41C1684.92,1550 1671.67,1534.02 1659.12,1520C1684.11,1539.89 1672.39,1523.99 1669.19,1506.38C1667.99,1503.93 1667.6,1501.15 1668.48,1498.45C1668.48,1498.3 1668.49,1498.15 1668.49,1498L1668.63,1498.02ZM2406.01,2194.23L2406.08,2194.23L2405.93,2194.23L2406.01,2194.23ZM2391.5,2190.97C2395.57,2192.79 2400.3,2193.94 2405.91,2194.22C2400.3,2193.93 2395.59,2192.75 2391.53,2190.92L2391.5,2190.97ZM2410.19,2039.21C2410.15,2039.23 2410.11,2039.25 2410.08,2039.28C2410.48,2039.62 2410.93,2039.91 2411.3,2040.3C2410.95,2039.91 2410.57,2039.55 2410.19,2039.21ZM1546.74,1864.29C1551.17,1864.2 1556.14,1863.48 1561.12,1862.17C1557.67,1861.96 1553.01,1862.59 1546.74,1864.29ZM1611.86,1779.01C1611.65,1779.34 1611.54,1779.63 1611.52,1779.89L1611.52,1779.88C1611.54,1779.63 1611.65,1779.34 1611.86,1779.01L1611.86,1779.01ZM1777.18,1681.14C1775.99,1682.29 1774.81,1683.46 1773.63,1684.62L1773.65,1684.63C1774.79,1683.51 1775.95,1682.41 1777.1,1681.3C1777.13,1681.25 1777.15,1681.19 1777.18,1681.14ZM1741.1,1631.89C1735.94,1635.07 1731.09,1638.69 1727.03,1642.79L1727.06,1642.81C1731.12,1638.71 1735.95,1635.07 1741.1,1631.9L1741.1,1631.89ZM1764.38,1579.3C1762.89,1581.15 1761.44,1583 1760.06,1584.83L1760.18,1584.7C1761.54,1582.91 1762.93,1581.11 1764.38,1579.3L1764.38,1579.3Z" style="fill:rgb(185,189,107);"/>
        </g>
        <g id="cangadi" transform="matrix(0.24,0,0,0.24,0,0)">
            <path d="M1484.57,1833.49C1491.94,1831.28 1496.67,1827.51 1490.49,1815.46C1519.2,1848.29 1575.61,1766 1588.11,1820.58C1601.2,1842.23 1581.13,1856.9 1561.2,1862.15L1561.2,1862.16C1579.23,1863.3 1563.37,1887.55 1566.24,1901.5C1568.58,1919.59 1584.53,1930.29 1597.2,1941.33L1598.12,1945L1601.28,1944.25L1602.74,1947.62C1622.28,2014.83 1723.83,1995.21 1728.7,2068.42C1737.2,2082.5 1759.28,2064.41 1772.99,2064.92C1774.78,2066.37 1778.41,2069.33 1780.2,2070.79C1792.66,2082.37 1811.74,2093.05 1827.78,2081.37C1840.7,2090 1827.95,2104.79 1822.49,2114.25C1841.74,2108.62 1824.74,2135.09 1822.78,2144.66C1822.01,2145.2 1821.22,2145.74 1820.43,2146.31L1820.42,2146.31C1821.22,2145.75 1822.01,2145.2 1822.78,2144.67L1826.7,2144.33C1819.92,2153.5 1808.27,2163.97 1800.07,2174.59C1799.76,2175.6 1799.44,2176.61 1799.12,2177.61C1797.5,2182.6 1793.95,2190.93 1791.25,2199.57C1792.21,2203.47 1794.62,2207.27 1799.01,2210.9C1804.88,2212.8 1810.67,2211.59 1816.09,2203.66C1819.67,2198.41 1824.05,2193.4 1829.44,2190.05C1836.37,2177.86 1843.85,2169.74 1861.51,2188.55C1863.16,2189.56 1864.08,2191.08 1864.35,2192.73C1876.7,2212.95 1878.52,2237.88 1894.94,2256.46C1910.87,2297.96 1863.99,2325.12 1834.2,2299.41C1842.78,2317.58 1856.12,2333.13 1862.2,2352.63C1879.74,2360.25 1901.87,2333.25 1915.28,2347.58C1888.99,2357 1862.2,2364.46 1834.62,2356.59L1834.61,2356.59C1781.95,2363.12 1730.99,2372.75 1685.65,2403.41C1646.87,2397.71 1604.12,2408.83 1568.86,2387.04C1551.24,2379.08 1534.37,2368.71 1515.2,2364.92C1512.99,2364.96 1508.62,2365.04 1506.4,2365.04L1506.4,2365.04L1502.24,2365.21C1463.32,2354.04 1421.03,2382.17 1398.28,2390.87C1474.45,2427.09 1465.33,2577.87 1360.16,2561.42C1278.49,2569.54 1197.62,2580.67 1118.03,2600.54C1095.66,2576.25 1070.9,2547.21 1069.24,2512.96C1089.16,2492 1122.99,2494.71 1148.24,2482.83C1184.16,2464.25 1250.11,2472.62 1250.61,2418.12C1245.99,2332.71 1205.32,2226.29 1276.49,2157.04C1289.7,2112.92 1324.03,2081.42 1349.07,2044.29C1350.15,2042.58 1352.37,2039.21 1353.45,2037.5C1374.83,2013.08 1370.03,1975.75 1393.32,1952.87C1425.91,1932.83 1464.45,1905.29 1460.86,1861.46L1460.88,1861.46C1460.62,1858.73 1460.42,1855.99 1460.45,1853.21C1460.46,1851.95 1460.57,1850.76 1460.76,1849.64L1460.49,1849.46C1460.48,1844.6 1462.52,1841.55 1465.59,1839.48C1470.11,1833.11 1477.72,1831.5 1484.57,1833.49Z" style="fill:rgb(187,137,189);"/>
        </g>
    </g>
</svg>
