<?xml version="1.0" encoding="UTF-8" standalone="no"?>
<!DOCTYPE svg PUBLIC "-//W3C//DTD SVG 1.1//EN" "http://www.w3.org/Graphics/SVG/1.1/DTD/svg11.dtd">
<svg width="100%" height="100%" viewBox="0 0 1417 1417" version="1.1" xmlns="http://www.w3.org/2000/svg" xmlns:xlink="http://www.w3.org/1999/xlink" xml:space="preserve" style="fill-rule:evenodd;clip-rule:evenodd;stroke-linejoin:round;stroke-miterlimit:1.41421;">
    <g id="takalala" transform="matrix(0.803313,0,0,0.803313,-402.389,-1474.27)">
        <path d="M1092.41,2702.92C1099.95,2696.67 1107.53,2690.54 1115.2,2684.5L1117.62,2682.96C1120.2,2677.71 1122.87,2672.5 1124.62,2666.92C1127.03,2653.08 1125.66,2639.5 1122.28,2626.17C1120.62,2617.62 1119.28,2609.08 1118.03,2600.54C1197.62,2580.67 1278.49,2569.54 1360.16,2561.42C1465.32,2577.88 1474.45,2427.08 1398.28,2390.88C1421.03,2382.17 1463.32,2354.04 1502.24,2365.21L1506.41,2365.04C1508.62,2365.04 1512.99,2364.95 1515.2,2364.92C1534.37,2368.71 1551.24,2379.08 1568.87,2387.04C1604.12,2408.83 1646.87,2397.71 1685.66,2403.42C1730.99,2372.74 1781.95,2363.12 1834.62,2356.59C1862.2,2364.46 1888.99,2357 1915.28,2347.58C1915.7,2374.67 1878.49,2403.92 1896.03,2438.04C1884.74,2489.74 1976.91,2468 1958.66,2518.58C1938.99,2555.92 1943.74,2601 1964.58,2636.38C2017.45,2620.3 1987.66,2684.33 2019.45,2700.75C2021.12,2700.84 2024.41,2701 2026.04,2701.08C2044.37,2703.33 2062.57,2699 2080.91,2698.33C2108.7,2732.21 2156.74,2780.08 2198.53,2753.21L2202.32,2752.59C2197.82,2788 2213.78,2847.21 2169.32,2858.25C2104.2,2867.12 2112.91,2951.83 2063.32,2980.96C2022.07,3005.04 1969.62,2982.99 1928.66,3009C1883.49,3014.46 1830.78,2966.88 1790.49,2987.96C1786.12,3006.38 1758.66,2992.46 1754.66,3010C1750.49,3025.62 1760.32,3053.54 1736.99,3054.67C1715.74,3055.79 1708.87,3078.92 1690.99,3086.42C1691.37,3076.04 1685.66,3070.25 1676.24,3067.58C1664.95,3060.83 1671.37,3028.29 1654.53,3042.83C1632.12,3065.09 1603.79,3030.25 1596.74,3065.33C1563.16,3040.96 1524.66,3054.84 1486.66,3043.46C1470.16,3061.5 1445.91,3049.12 1432.07,3035.24C1394.32,3040.75 1373.66,2990.99 1337.91,3000.96C1302.74,2978.54 1268.99,2945.66 1223.49,2949.5C1214.49,2959.42 1205.99,2969.79 1196.28,2979.04C1176.45,3000.92 1142.41,2997.62 1120.37,3017.29C1097.78,3023.33 1078.45,3069.38 1055.82,3041.13C1032.99,3008.13 968.656,3024.88 968.198,3065.25C956.115,3094.29 939.198,3066.08 936.698,3047.62C884.119,3051.33 833.656,3024.8 780.035,3024.88C749.615,3009.33 696.115,3019.71 690.656,3058.75C686.948,3073.45 668.365,3072.71 656.365,3074.33C648.365,3072.71 639.41,3071.67 636.115,3062.96C623.952,3041.33 621.49,3015.58 606.077,2995.63C605.281,2971.46 580.24,2967 563.031,2958.04C602.24,2950.58 627.823,2911.83 670.24,2914.12C700.365,2921.42 735.948,2898.79 722.865,2865.79C722.448,2846.08 688.323,2808.46 726.656,2814.79C737.865,2812.62 749.031,2810.08 760.365,2808.75C763.175,2809.34 765.013,2810.09 766.135,2810.94C765.015,2810.09 763.177,2809.34 760.365,2808.75C764.657,2808.16 768.949,2807.66 773.282,2807.25C784.365,2806.33 795.407,2805 806.282,2802.63C830.615,2793.55 856.824,2793.79 881.907,2787.96C891.157,2785.83 900.199,2783 909.449,2780.92C911.377,2780.84 913.247,2780.86 915.064,2780.96C913.247,2780.86 911.377,2780.84 909.448,2780.92C927.031,2776.33 944.656,2771.7 961.99,2766.13C975.031,2761.92 987.365,2755.79 1000.53,2751.88C1000.91,2752.75 1001.3,2753.63 1001.69,2754.52C1001.3,2753.63 1000.91,2752.75 1000.53,2751.88C1025.49,2746.25 1047.53,2734.5 1064.66,2717.33C1065.99,2716.79 1068.62,2715.75 1069.91,2715.21C1077.12,2712.25 1083.78,2708.08 1090.45,2704.04L1092.41,2702.92L1092.41,2702.92ZM728.477,2836.71C731.065,2844.03 734.794,2851.82 737.902,2859.55C734.79,2851.82 731.06,2844.03 728.477,2836.71ZM766.69,2811.44L766.709,2811.45L766.702,2811.45L766.69,2811.44ZM766.545,2811.29L766.592,2811.34L766.55,2811.3L766.545,2811.29ZM766.431,2811.19L766.497,2811.25L766.469,2811.22L766.431,2811.19ZM766.283,2811.06L766.394,2811.15C766.358,2811.12 766.321,2811.09 766.283,2811.06ZM766.147,2810.95L766.262,2811.04L766.206,2811L766.147,2810.95ZM915.717,2781L915.89,2781.02L915.774,2781.01L915.717,2781ZM915.107,2780.97L915.513,2780.99L915.336,2780.98L915.107,2780.97Z" style="fill:rgb(93,179,138);"/>
    </g>
</svg>
