<?xml version="1.0" encoding="UTF-8" standalone="no"?>
<!DOCTYPE svg PUBLIC "-//W3C//DTD SVG 1.1//EN" "http://www.w3.org/Graphics/SVG/1.1/DTD/svg11.dtd">
<svg width="100%" height="100%" viewBox="0 0 1417 1417" version="1.1" xmlns="http://www.w3.org/2000/svg" xmlns:xlink="http://www.w3.org/1999/xlink" xml:space="preserve" style="fill-rule:evenodd;clip-rule:evenodd;stroke-linejoin:round;stroke-miterlimit:1.41421;">
    <g id="talebba" transform="matrix(7.74407,0,0,7.74407,-3062.7,-3805.95)">
        <path d="M503.557,530.76C484.357,521.14 459.827,523.36 443.447,507.18C451.437,507.43 447.327,499.64 442.387,505.24C441.777,508.63 440.517,511.9 438.408,514.64C434.568,519.83 424.208,526.75 433.588,531.83C439.477,530.789 438.878,516.78 446.827,525.32C450.368,530.32 450.588,536.8 454.787,541.55C458.607,551.51 447.357,558.03 440.208,551.86C442.267,556.22 445.467,559.951 446.927,564.63C451.137,566.459 456.447,559.98 459.668,563.42C459.767,569.92 450.838,576.94 455.048,585.13C452.338,597.539 474.458,592.32 470.077,604.459C465.357,613.42 466.498,624.24 471.498,632.73C484.187,628.871 477.037,644.24 484.668,648.18C485.068,648.201 485.857,648.24 486.248,648.26C490.647,648.8 495.017,647.76 499.418,647.6C506.088,655.73 517.618,667.22 527.647,660.77C523.597,653 531.258,644.08 525.568,637.15C521.798,622.539 537.068,610.87 531.517,595.76C530.128,587.22 553.887,590.789 539.508,587.8C532.758,589.51 536.298,580.3 534.568,576.73C531.588,570.451 521.418,570.42 520.897,562.451C519.307,557.82 517.927,553.02 515.097,548.959C511.128,544.88 513.878,539.14 511.807,534.451" style="fill:rgb(194,149,128);fill-rule:nonzero;"/>
    </g>
</svg>
