<?xml version="1.0" encoding="UTF-8" standalone="no"?>
<!DOCTYPE svg PUBLIC "-//W3C//DTD SVG 1.1//EN" "http://www.w3.org/Graphics/SVG/1.1/DTD/svg11.dtd">
<svg width="100%" height="100%" viewBox="0 0 1417 1417" version="1.1" xmlns="http://www.w3.org/2000/svg" xmlns:xlink="http://www.w3.org/1999/xlink" xml:space="preserve" style="fill-rule:evenodd;clip-rule:evenodd;stroke-linejoin:round;stroke-miterlimit:1.41421;">
    <g id="watansoppeng" transform="matrix(0.850872,0,0,0.850872,-82.1983,-1195.46)">
        <path d="M351.615,2332.75L351.615,2332.75C351.759,2332.61 351.903,2332.46 352.045,2332.31L351.615,2332.75C363.407,2278.38 301.949,2223.62 330.324,2168.29C330.492,2170.01 330.675,2171.8 330.876,2173.66L330.877,2173.66C330.676,2171.8 330.493,2170 330.325,2168.29C331.992,2164.46 333.533,2160.63 334.992,2156.75L334.991,2156.75L334.991,2156.75C333.841,2150.13 333.985,2145.36 335.094,2141.93C331.413,2107.24 304.107,2069.48 325.366,2039.66C323.714,2047.05 323.272,2053.98 323.793,2060.55L323.794,2060.55C323.272,2053.98 323.715,2047.05 325.367,2039.66L325.7,2036.54C336.992,2014.33 356.825,1994.96 353.658,1967.79C363.617,1951.88 357.992,1928.25 381.783,1925.54C402.908,1918.83 424.2,1912.79 445.658,1907.29L449.156,1907.84L449.157,1907.83C458.657,1908.79 467.574,1912.29 476.324,1915.83C482.824,1918.54 489.324,1921.2 495.782,1924L495.761,1924.04L495.783,1924C515.783,1933.08 536.867,1940.04 559.325,1937.91L559.325,1937.92C592.95,1931.5 626.199,1923 659.532,1915.21C673.574,1911.62 687.907,1908.96 701.282,1903.25C701.373,1903.55 701.466,1903.84 701.562,1904.13C701.467,1903.84 701.374,1903.55 701.283,1903.25C702.492,1902.54 704.95,1901.12 706.2,1900.41C759.908,1870.96 778.7,1797.21 839.325,1774.21C871.575,1782.16 907.283,1784.08 936.617,1786.37C937.904,1786.67 939.046,1786.99 940.06,1787.33L940.06,1787.32C939.046,1786.99 937.903,1786.67 936.616,1786.37C938.616,1782.12 940.658,1777.92 942.7,1773.75C943.359,1774.22 944.016,1774.73 944.672,1775.28L944.672,1775.27C944.017,1774.73 943.359,1774.22 942.7,1773.75C950.283,1729 1005.58,1716.83 1037.95,1743.54C1066.28,1742.87 1038.41,1656.79 1060.62,1711.5C1077.32,1722.04 1044.41,1720.79 1060.03,1738.37L1060.03,1738.37C1100.66,1716.41 1108.37,1660.71 1154.78,1646.75C1192.41,1623.96 1244.33,1629.21 1267.08,1584.96C1300.74,1590.67 1311.7,1537.54 1349.83,1552.09C1378.16,1555.5 1379.2,1504.96 1414.78,1519.54C1407.9,1545.75 1404.53,1590.75 1366.33,1584.63C1306.33,1631.87 1399.78,1706.37 1364.62,1759.83C1363.38,1759.98 1362.14,1760.13 1360.9,1760.27L1360.9,1760.27C1362.14,1760.13 1363.38,1759.98 1364.62,1759.83C1395.84,1766.23 1384.24,1770.56 1376.81,1784.33C1379.13,1791.32 1379.08,1801.67 1375.79,1816.58L1375.79,1816.58L1375.79,1816.58C1389.91,1835.91 1423.2,1826.16 1435.62,1848.41C1434.99,1849.17 1434.36,1849.92 1433.72,1850.65L1433.72,1850.65C1434.36,1849.92 1434.99,1849.17 1435.62,1848.41C1441.03,1856.37 1459.33,1864 1460.49,1849.46C1484.24,1865.08 1517.62,1852.5 1540.83,1865.87C1514.03,1866.17 1487.58,1861.46 1460.87,1861.46L1460.86,1861.46C1464.45,1905.29 1425.91,1932.83 1393.32,1952.88C1370.03,1975.75 1374.83,2013.08 1353.45,2037.5C1352.12,2037.36 1350.79,2037.23 1349.46,2037.13L1349.46,2037.13C1350.79,2037.24 1352.12,2037.36 1353.44,2037.5C1352.37,2039.21 1350.15,2042.59 1349.07,2044.29C1348.38,2044.02 1347.68,2043.76 1346.99,2043.53L1346.99,2043.53C1347.68,2043.76 1348.38,2044.02 1349.07,2044.29C1324.03,2081.41 1289.7,2112.91 1276.49,2157.04C1205.32,2226.29 1245.99,2332.71 1250.61,2418.12C1250.11,2472.62 1184.16,2464.25 1148.24,2482.84C1122.99,2494.71 1089.16,2492 1069.24,2512.96C1070.91,2547.21 1095.66,2576.25 1118.03,2600.54C1119.28,2609.08 1120.62,2617.62 1122.28,2626.16C1114.79,2625.75 1109.42,2623.53 1105.39,2620.14L1105.39,2620.14C1109.42,2623.53 1114.8,2625.76 1122.28,2626.17C1125.66,2639.5 1127.03,2653.08 1124.62,2666.92L1124.62,2666.92C1122.87,2672.5 1120.2,2677.71 1117.62,2682.96L1115.2,2684.5L1115.2,2684.5C1107.53,2690.54 1099.95,2696.67 1092.41,2702.92L1090.45,2704.04L1090.45,2704.04C1083.78,2708.08 1077.12,2712.25 1069.91,2715.21C1069.89,2714.61 1069.87,2714.02 1069.83,2713.45L1069.83,2713.45C1069.87,2714.02 1069.89,2714.61 1069.91,2715.21C1069.4,2715.42 1068.69,2715.71 1067.93,2716.02C1056.14,2731.24 1036.98,2743.58 1017.17,2747.07C1011.79,2748.98 1006.24,2750.59 1000.53,2751.88C987.365,2755.79 975.032,2761.92 961.99,2766.13L961.99,2766.13C944.657,2771.7 927.032,2776.33 909.449,2780.92C900.199,2783 891.157,2785.83 881.907,2787.96C868.383,2786.35 857.14,2781.06 847.24,2773.75L847.238,2773.75C857.138,2781.06 868.382,2786.35 881.907,2787.96C856.823,2793.79 830.615,2793.54 806.282,2802.63L806.281,2802.62C795.407,2805 784.365,2806.33 773.282,2807.25L773.113,2807.07L773.282,2807.25C768.949,2807.66 764.657,2808.16 760.365,2808.75C749.032,2810.08 737.865,2812.62 726.657,2814.79C688.324,2808.46 722.449,2846.08 722.865,2865.79C721.284,2865.51 719.686,2865.28 718.073,2865.09C719.686,2865.28 721.284,2865.51 722.866,2865.79C735.949,2898.79 700.366,2921.41 670.241,2914.12C627.824,2911.83 602.241,2950.58 563.032,2958.04C542.199,2930.37 550.907,2896.88 546.699,2867.08C497.449,2839.87 454.657,2745.87 386.407,2777.09C363.157,2751.29 342.157,2717.96 355.532,2681.62C379.199,2644.12 315.199,2628.71 330.491,2594.66C367.532,2575.62 325.158,2531.17 348.741,2502.25L348.74,2502.25C350.324,2490.29 350.99,2478.29 350.407,2466.25L350.407,2466.25C339.449,2447.08 330.45,2424 351.408,2406.83C382.199,2378.58 322.201,2359.96 351.615,2332.75ZM717.674,2865.04L717.934,2865.07L717.756,2865.05L717.674,2865.04ZM708.183,2864.42L708.612,2864.43L708.327,2864.42L708.183,2864.42ZM706.198,2864.38C706.799,2864.39 707.398,2864.4 707.996,2864.41C707.398,2864.39 706.799,2864.38 706.199,2864.38L706.198,2864.38ZM773.011,2806.97L773.088,2807.05L772.955,2806.91L773.011,2806.97ZM800.828,2789.37L800.879,2789.49L800.844,2789.4L800.828,2789.37ZM799.886,2787.15L800.411,2788.39L800.142,2787.76L799.886,2787.15L799.886,2787.15ZM954.182,2747.66C956.116,2747.66 958.504,2747.83 961.407,2748.17L961.407,2748.17C958.504,2747.83 956.116,2747.66 954.182,2747.66ZM958.168,2746.33L958.172,2746.34L958.171,2746.34L958.168,2746.33ZM957.607,2746.03L957.635,2746.04L957.627,2746.04L957.607,2746.03ZM957.051,2745.73L957.097,2745.75L957.083,2745.74L957.051,2745.73ZM956.498,2745.43L956.557,2745.46L956.537,2745.45L956.498,2745.43ZM955.947,2745.14L956.016,2745.17L955.99,2745.16L955.947,2745.14ZM955.397,2744.85L955.473,2744.89L955.442,2744.87L955.397,2744.85ZM954.848,2744.56L954.929,2744.6L954.893,2744.59L954.848,2744.56ZM954.299,2744.28L954.384,2744.32L954.343,2744.3L954.299,2744.28ZM953.75,2744L953.836,2744.04L953.791,2744.02L953.75,2744ZM953.201,2743.72L953.287,2743.76L953.239,2743.74L953.201,2743.72ZM952.651,2743.44L952.735,2743.49L952.686,2743.46L952.651,2743.44ZM952.101,2743.17L952.182,2743.21L952.131,2743.18L952.101,2743.17ZM951.551,2742.9L951.625,2742.93L951.576,2742.91L951.551,2742.9ZM950.999,2742.63L951.066,2742.66L951.019,2742.64L950.999,2742.63ZM950.447,2742.36L950.502,2742.39L950.462,2742.37L950.447,2742.36ZM949.894,2742.1L949.933,2742.11L949.903,2742.1L949.894,2742.1ZM949.341,2741.83L949.355,2741.84L949.344,2741.83L949.341,2741.83ZM944.752,2739.73L944.846,2739.77L944.834,2739.76L944.752,2739.73ZM367.553,2691.21L367.553,2691.21L367.554,2691.2L367.553,2691.21ZM367.642,2690.98L367.641,2690.99L367.644,2690.98L367.642,2690.98ZM367.92,2690.31L367.915,2690.32L367.929,2690.29L367.92,2690.31ZM368.016,2690.09L368.006,2690.11L368.024,2690.07L368.016,2690.09ZM368.113,2689.86L368.104,2689.88L368.117,2689.86L368.113,2689.86ZM368.314,2689.41L368.307,2689.43L368.329,2689.38L368.314,2689.41ZM368.416,2689.19L368.402,2689.22L368.431,2689.16L368.416,2689.19ZM368.52,2688.97L368.502,2689.01L368.529,2688.95L368.52,2688.97ZM376.298,2688.87L376.346,2688.89L376.303,2688.87L376.298,2688.87ZM376.062,2688.76L376.15,2688.8L376.089,2688.77L376.062,2688.76ZM368.626,2688.75L368.619,2688.76L368.628,2688.74L368.626,2688.75ZM375.826,2688.66L375.923,2688.7L375.874,2688.68L375.826,2688.66ZM375.588,2688.55L375.691,2688.6L375.659,2688.59L375.588,2688.55ZM368.734,2688.52L368.728,2688.54L368.754,2688.48L368.734,2688.52ZM375.346,2688.45L375.456,2688.5L375.443,2688.49L375.346,2688.45ZM375,2688.31L375.133,2688.37L375.01,2688.32L375,2688.31ZM368.844,2688.3L368.829,2688.33L368.864,2688.26L368.844,2688.3ZM374.76,2688.22L374.883,2688.27L374.792,2688.23L374.76,2688.22ZM374.518,2688.12L374.643,2688.17L374.575,2688.15L374.518,2688.12ZM368.955,2688.08L368.933,2688.12L368.969,2688.05L368.955,2688.08ZM374.271,2688.03L374.403,2688.08L374.356,2688.06L374.271,2688.03ZM374.009,2687.94L374.162,2687.99L374.137,2687.98L374.009,2687.94ZM369.067,2687.86L369.046,2687.9L369.073,2687.85L369.067,2687.86ZM373.444,2687.74L373.599,2687.79L373.478,2687.75L373.444,2687.74ZM373.197,2687.66L373.343,2687.71L373.257,2687.68L373.197,2687.66ZM369.182,2687.63L369.178,2687.64L369.2,2687.6L369.182,2687.63ZM372.946,2687.58L373.095,2687.63L373.036,2687.61L372.946,2687.58ZM372.679,2687.49L372.849,2687.55L372.814,2687.54L372.679,2687.49ZM369.298,2687.41L369.286,2687.44L369.322,2687.37L369.298,2687.41ZM372.113,2687.33L372.297,2687.38L372.146,2687.34L372.113,2687.33ZM371.864,2687.26L372.022,2687.3L371.922,2687.27L371.864,2687.26ZM371.61,2687.19L371.767,2687.23L371.698,2687.21L371.61,2687.19ZM369.416,2687.19L369.395,2687.23L369.435,2687.16L369.416,2687.19ZM371.342,2687.12L371.516,2687.17L371.473,2687.15L371.342,2687.12ZM370.767,2686.98L370.98,2687.03L370.796,2686.99L370.767,2686.98ZM369.536,2686.97L369.511,2687.02L369.546,2686.95L369.536,2686.97ZM370.515,2686.92L370.682,2686.96L370.569,2686.94L370.515,2686.92ZM370.258,2686.87L370.42,2686.9L370.342,2686.89L370.258,2686.87ZM369.992,2686.81L370.164,2686.85L370.114,2686.84L369.992,2686.81ZM369.657,2686.75C369.658,2686.75 369.911,2686.8 369.911,2686.8C369.826,2686.78 369.742,2686.76 369.657,2686.75L369.657,2686.75ZM1104.91,2675.11L1104.95,2675.14L1104.92,2675.12L1104.91,2675.11ZM1104.55,2674.82L1104.63,2674.88L1104.58,2674.84L1104.55,2674.82ZM1104.2,2674.53L1104.3,2674.61L1104.24,2674.57L1104.2,2674.53ZM1103.84,2674.24L1103.96,2674.34L1103.9,2674.29L1103.84,2674.24ZM1103.48,2673.95L1103.62,2674.06L1103.57,2674.02L1103.48,2673.95ZM1103.12,2673.66L1103.28,2673.79L1103.23,2673.75L1103.12,2673.66ZM1102.76,2673.38L1102.93,2673.51L1102.88,2673.48L1102.76,2673.38ZM1102.38,2673.08L1102.58,2673.24L1102.54,2673.21L1102.38,2673.08ZM1101.96,2672.76L1102.23,2672.96L1102.2,2672.94L1101.96,2672.76ZM1101.51,2672.41L1101.87,2672.69C1101.63,2672.5 1101.39,2672.31 1101.15,2672.13L1101.51,2672.41ZM1100.79,2671.85L1101.1,2672.09L1100.83,2671.89L1100.79,2671.85ZM1100.43,2671.58L1100.71,2671.8L1100.49,2671.63L1100.43,2671.58ZM1100.06,2671.31L1100.34,2671.52L1100.15,2671.37L1100.06,2671.31ZM1099.7,2671.03L1099.98,2671.24L1099.8,2671.11L1099.7,2671.03ZM1099.33,2670.76L1099.61,2670.97L1099.46,2670.86L1099.33,2670.76ZM1098.96,2670.49L1099.25,2670.7L1099.12,2670.6L1098.96,2670.49ZM1098.58,2670.21L1098.89,2670.44L1098.77,2670.35L1098.58,2670.21ZM1098.2,2669.93L1098.53,2670.17L1098.43,2670.1L1098.2,2669.93ZM1095.93,2668.33C1096.67,2668.84 1097.42,2669.37 1098.16,2669.91C1097.42,2669.37 1096.67,2668.84 1095.93,2668.33ZM1095.56,2668.07L1095.93,2668.32L1095.65,2668.13L1095.56,2668.07ZM1095.2,2667.82L1095.53,2668.05L1095.31,2667.89L1095.2,2667.82ZM1094.83,2667.57L1095.14,2667.78L1094.96,2667.66L1094.83,2667.57ZM1094.46,2667.32L1094.76,2667.52L1094.61,2667.42L1094.46,2667.32ZM1094.1,2667.07L1094.39,2667.27L1094.26,2667.18L1094.1,2667.07ZM1093.73,2666.83L1094.01,2667.02L1093.91,2666.95L1093.73,2666.83ZM1093.56,2666.72L1093.64,2666.77L1093.56,2666.72L1093.56,2666.72ZM1111.56,2651.8L1111.58,2651.81L1111.57,2651.8L1111.56,2651.8ZM1111.33,2651.62L1111.33,2651.63L1111.33,2651.63L1111.33,2651.62ZM1110.82,2651.26L1110.86,2651.28L1110.85,2651.28L1110.82,2651.26ZM1110.58,2651.08L1110.63,2651.12L1110.61,2651.1L1110.58,2651.08ZM1110.35,2650.92L1110.39,2650.95L1110.36,2650.93L1110.35,2650.92ZM1110.07,2650.72L1110.13,2650.76L1110.12,2650.76L1110.07,2650.72ZM1109.82,2650.55L1109.91,2650.61L1109.87,2650.59L1109.82,2650.55ZM1109.59,2650.39L1109.69,2650.46L1109.63,2650.42L1109.59,2650.39ZM1109.37,2650.24L1109.47,2650.31L1109.38,2650.25L1109.22,2650.14L1109.37,2650.24ZM1109.02,2650.01L1109.17,2650.11L1109.13,2650.08L1109.02,2650.01ZM1108.8,2649.86L1108.95,2649.96L1108.88,2649.92L1108.8,2649.86ZM1102.52,2646.09L1102.52,2646.09C1104.64,2647.26 1106.73,2648.49 1108.75,2649.83C1106.73,2648.49 1104.64,2647.26 1102.52,2646.09ZM343.086,2597.03C343.502,2608.68 349.189,2619.14 357.129,2627.9L357.103,2627.76C349.202,2619.03 343.506,2608.64 343.086,2597.03ZM343.078,2596.77L343.079,2596.82L343.078,2596.77L343.078,2596.77ZM343.071,2596.51L343.071,2596.51L343.071,2596.51L343.071,2596.51ZM343.074,2594.67L343.726,2595.33L343.074,2594.66L343.074,2594.67ZM349.299,2507.19C352.525,2525.2 367.631,2526.72 384.033,2526.49L384.032,2526.49C367.631,2526.72 352.526,2525.2 349.299,2507.19ZM349.29,2507.14L349.298,2507.19L349.264,2506.99L349.29,2507.14ZM349.246,2506.89L349.256,2506.95L349.227,2506.77L349.246,2506.89ZM349.203,2506.63L349.214,2506.7L349.189,2506.54L349.203,2506.63ZM349.162,2506.38L349.175,2506.45L349.151,2506.3L349.162,2506.38ZM349.123,2506.12L349.136,2506.2L349.115,2506.06L349.123,2506.12ZM349.085,2505.85L349.098,2505.94L349.08,2505.81L349.085,2505.85ZM349.049,2505.59L349.061,2505.68L349.046,2505.57L349.049,2505.59ZM349.015,2505.32L349.023,2505.39L349.013,2505.31L349.015,2505.32ZM348.95,2504.78L348.95,2504.79L348.949,2504.77L348.95,2504.78ZM348.92,2504.51L348.921,2504.52L348.918,2504.49L348.92,2504.51ZM348.892,2504.24L348.894,2504.25L348.89,2504.21L348.892,2504.24ZM348.866,2503.96L348.867,2503.97L348.864,2503.94L348.866,2503.96ZM348.841,2503.68L348.842,2503.69L348.84,2503.67L348.841,2503.68ZM348.818,2503.4L348.818,2503.4L348.817,2503.4L348.818,2503.4ZM348.758,2502.54L348.766,2502.67L348.747,2502.35L348.758,2502.54ZM350.769,2464.9L350.754,2464.95L350.797,2464.81L350.769,2464.9ZM350.898,2464.47L350.849,2464.63L350.931,2464.36L350.898,2464.47ZM355.084,2456.57C353.383,2458.46 351.981,2460.99 350.949,2464.3C351.982,2461 353.388,2458.48 355.086,2456.58L355.084,2456.57ZM356.153,2412.08C355.047,2412.83 354.312,2414.1 354.062,2416.04C354.093,2415.96 354.124,2415.89 354.157,2415.82C354.424,2414.07 355.103,2412.9 356.099,2412.18L356.153,2412.08ZM364.158,2387.39C363.814,2388.77 363.667,2390.05 363.689,2391.25L363.695,2391.23C363.675,2390.04 363.818,2388.76 364.158,2387.39ZM364.176,2387.32L364.158,2387.39L364.19,2387.26L364.176,2387.32ZM364.233,2387.1L364.226,2387.12L364.234,2387.09L364.233,2387.1ZM364.491,2386.21C365.041,2386.25 365.57,2386.36 366.107,2386.43L366.138,2386.39C365.593,2386.32 365.045,2386.26 364.491,2386.21L364.491,2386.21ZM351.59,2332.95C351.528,2333.43 351.473,2333.9 351.424,2334.37L351.478,2334.31C351.529,2333.84 351.539,2333.42 351.59,2332.95ZM341.166,2135.04C338.368,2136.32 336.227,2138.43 335.094,2141.93L335.094,2141.93C336.227,2138.43 338.368,2136.32 341.166,2135.04L341.166,2135.04ZM330.223,2040.24L330.246,2040.24L330.249,2040.24C330.181,2040.23 330.114,2040.23 330.047,2040.22L330.223,2040.24ZM331.557,2037.72C331.004,2038.39 330.486,2039.14 330.004,2039.97C330.467,2039.18 330.973,2038.48 331.499,2037.83L331.557,2037.72ZM559.553,1938.84C559.781,1939.74 560.026,1940.61 560.285,1941.45L560.303,1941.45C560.041,1940.61 559.786,1939.74 559.553,1938.84ZM494.345,1926.15C492.805,1928.02 490.913,1929.18 488.824,1929.88L488.842,1929.88C490.924,1929.18 492.808,1928.02 494.345,1926.15ZM494.44,1926.03L494.372,1926.12L494.408,1926.07L494.44,1926.03ZM494.544,1925.9L494.494,1925.96L494.532,1925.92L494.544,1925.9ZM494.661,1925.75L494.652,1925.76L494.654,1925.76L494.661,1925.75ZM494.785,1925.58L494.766,1925.61L494.774,1925.6L494.785,1925.58ZM494.896,1925.43L494.887,1925.44L494.893,1925.43L494.896,1925.43ZM495.241,1924.92L495.238,1924.92L495.239,1924.92L495.241,1924.92ZM495.583,1924.36L495.562,1924.39L495.571,1924.38L495.583,1924.36ZM495.688,1924.17L495.66,1924.22L495.678,1924.19L495.688,1924.17ZM1365.61,1772.84C1370.82,1774.58 1374.75,1778.13 1376.81,1784.33L1376.81,1784.33C1374.75,1778.13 1370.82,1774.58 1365.61,1772.84ZM1055.26,1740.78C1054.83,1741.43 1054.84,1742.14 1055.15,1742.89L1055.15,1742.89C1054.85,1742.14 1054.83,1741.43 1055.26,1740.78ZM1055.27,1740.76L1055.26,1740.78L1055.28,1740.75L1055.27,1740.76ZM1055.35,1740.64C1055.33,1740.68 1055.3,1740.71 1055.28,1740.74C1055.3,1740.71 1055.33,1740.68 1055.35,1740.64ZM1055.38,1740.61L1055.36,1740.63L1055.38,1740.6L1055.38,1740.61ZM1055.41,1740.56L1055.39,1740.59L1055.41,1740.56L1055.43,1740.54L1055.41,1740.56ZM1055.46,1740.51L1055.45,1740.52L1055.47,1740.5L1055.46,1740.51ZM1055.5,1740.46L1055.49,1740.48L1055.51,1740.46L1055.5,1740.46ZM1055.55,1740.41L1055.54,1740.42L1055.56,1740.4L1055.55,1740.41ZM1055.59,1740.37L1055.58,1740.37L1055.6,1740.36L1055.59,1740.37ZM1055.64,1740.32L1055.63,1740.32L1055.64,1740.31L1055.64,1740.32ZM1055.69,1740.27L1055.69,1740.27L1055.7,1740.26L1055.69,1740.27ZM1055.75,1740.22L1055.74,1740.23L1055.75,1740.22L1055.75,1740.22ZM1055.86,1740.12L1055.85,1740.13L1055.86,1740.12L1055.86,1740.12ZM1055.92,1740.08L1055.92,1740.08L1055.92,1740.08L1055.92,1740.08ZM1056.04,1739.98L1056.04,1739.98L1056.04,1739.98L1056.04,1739.98ZM1056.31,1739.79L1056.28,1739.81L1056.33,1739.78L1056.31,1739.79ZM1056.38,1739.75L1056.38,1739.75L1056.44,1739.71L1056.38,1739.75ZM1056.54,1739.66L1056.5,1739.67L1056.55,1739.65L1056.54,1739.66ZM1056.62,1739.61L1056.61,1739.62L1056.65,1739.59L1056.62,1739.61ZM1056.78,1739.52L1056.75,1739.54L1056.79,1739.52L1056.78,1739.52ZM1056.87,1739.48L1056.85,1739.48L1056.89,1739.46L1056.87,1739.48ZM1057.04,1739.39L1057.02,1739.4L1057.05,1739.39L1057.04,1739.39ZM1057.13,1739.34L1057.12,1739.35L1057.15,1739.34L1057.13,1739.34ZM1057.42,1739.21L1057.41,1739.22L1057.44,1739.21L1057.42,1739.21ZM1057.73,1739.09L1057.72,1739.09L1057.74,1739.08L1057.73,1739.09ZM1058.06,1738.96L1058.06,1738.96L1058.06,1738.96L1058.06,1738.96Z" style="fill:rgb(210,173,86);"/>
    </g>
</svg>
