<?xml version="1.0" encoding="UTF-8" standalone="no"?>
<!DOCTYPE svg PUBLIC "-//W3C//DTD SVG 1.1//EN" "http://www.w3.org/Graphics/SVG/1.1/DTD/svg11.dtd">
<svg width="100%" height="100%" viewBox="0 0 341 310" version="1.1" xmlns="http://www.w3.org/2000/svg" xmlns:xlink="http://www.w3.org/1999/xlink" xml:space="preserve" style="fill-rule:evenodd;clip-rule:evenodd;stroke-linecap:round;stroke-linejoin:round;stroke-miterlimit:1.5;">
    <g id="bara" transform="matrix(1,0,0,1,-855.647,-446.033)">
        <path d="M858.226,450.221C858.914,450.436 861.205,450.991 865.303,450.46C870.293,449.814 884.908,450.39 893.859,455.955C902.809,461.521 908.4,466.615 919.522,468.801C930.644,470.987 947.647,468.631 953.333,466.145C959.018,463.658 972.312,462.949 972.312,462.949C972.312,462.949 974.881,461.528 979.86,460.564C984.839,459.6 987.461,460.024 990.309,456.572C993.157,453.12 1002.1,454.252 1002.1,454.252C1002.1,454.252 1016.44,456.727 1021.8,457.552C1027.16,458.377 1030.05,455.547 1037.32,459.548C1044.59,463.55 1050.35,458.294 1058.22,457.525C1066.1,456.757 1077.88,457.237 1087.66,456.683C1097.43,456.129 1102.45,451.65 1106.13,448.508C1109.81,445.365 1116.01,447.422 1116.73,448.144C1117.45,448.866 1118.72,449.541 1121.89,450.001C1125.07,450.461 1126.65,451.926 1127.23,455.593C1127.81,459.26 1129.65,458.623 1133.23,460.687C1136.81,462.752 1135.84,463.151 1134.67,466.386C1133.51,469.62 1126.9,474.098 1124.87,476.439C1122.83,478.779 1125.36,480.588 1129.07,480.466C1132.77,480.343 1131.07,481.379 1130.96,485.473C1130.86,489.567 1131.83,489.221 1131.83,493.728C1131.83,498.236 1133.86,500.853 1136.89,507.702C1139.92,514.552 1142.03,513.022 1146.02,513.556C1150.01,514.091 1156.71,523.335 1158.02,524.853C1159.32,526.372 1160.54,530.62 1160.99,540.937C1161.44,551.254 1160.57,552.63 1163.85,556.409C1167.14,560.189 1178.02,580.303 1181.49,590.153C1183.81,596.728 1190.13,608.486 1194.08,615.579L1194.02,615.61C1193.06,616.132 1192.13,616.868 1190.9,618.227C1188.28,621.127 1189.69,620.996 1190.56,624.375C1191.42,627.754 1184.75,628.36 1180.03,628.599C1175.31,628.837 1175.22,631.528 1172.08,634.796C1168.94,638.065 1169.64,633.34 1167.34,633.92C1165.04,634.499 1166.43,629.393 1165.01,626.561C1163.6,623.729 1161.66,629.135 1161.66,631.841C1161.66,634.546 1156.61,635.425 1154.65,635.896C1152.68,636.367 1150.94,638.734 1151.05,640.167C1151.16,641.6 1146.5,644.696 1141.61,650.473C1136.71,656.249 1136.88,657.258 1137.08,659.259C1137.28,661.26 1139.03,660.966 1132.81,666.757C1126.58,672.548 1129.18,674.688 1128.85,680.074C1128.52,685.46 1129.26,692.619 1127.44,694.776C1122.61,700.496 1123.03,703.725 1124.17,705.978C1125.31,708.231 1128.15,712.546 1128.33,717.443C1128.49,721.751 1125.55,723.468 1125.03,724.442C1123.48,723.477 1120.09,721.363 1119.1,720.718C1117.8,719.872 1114.29,724.73 1112.15,724.857C1110,724.984 1107.92,725.261 1105.8,726.854C1103.68,728.447 1104.15,728.798 1098.81,730.262C1093.46,731.725 1089.13,731.25 1081.15,731.374C1073.17,731.498 1067.27,733.597 1061.87,735.35C1056.47,737.103 1050.26,734.692 1046.28,737.015C1042.3,739.337 1040.8,739.762 1031.27,739.621C1021.73,739.481 1008.71,744.973 1003.58,747.046C998.503,749.099 983.695,754.911 983.388,755.032C981.72,752.839 977.126,746.902 974.171,744.094C970.507,740.613 964.645,744.207 964.645,744.207C964.645,744.207 963.236,742.237 961.715,739.276C960.193,736.314 964.827,734.497 966.554,732.547C968.281,730.597 969.881,723.839 970.591,716.54C971.3,709.241 970.541,699.647 970.541,692.211C970.541,684.776 968.519,688.081 964.111,679.378C959.703,670.674 959.89,664.983 959.89,664.983C959.89,664.983 958.816,649.907 956.98,632.141C955.145,614.374 949.614,612.595 945.921,608.808C942.228,605.021 934.166,596.675 931.203,592.657C928.24,588.639 926.386,579.316 925.465,576.149C924.544,572.982 925.251,568.442 924.298,562.401C923.345,556.36 925.609,545.581 925.57,542.638C925.531,539.695 925.816,528.871 924.814,522.21C923.813,515.55 916.429,509.204 912.549,505.997C908.669,502.791 897.387,496.962 893.017,495.332C888.647,493.702 879.96,488.137 877.456,486.363C874.953,484.588 872.407,479.258 869.271,476.017C866.135,472.776 856.428,465.795 856.428,465.795C856.428,465.795 856.821,460.389 857.324,458.788C857.611,457.877 857.97,453.674 858.226,450.221ZM1124.95,724.762L1124.95,724.764L1124.95,724.763L1124.95,724.762ZM1124.94,724.719L1124.95,724.747L1124.94,724.72L1124.94,724.719ZM1124.95,724.674L1124.95,724.7L1124.95,724.677L1124.95,724.674ZM1124.95,724.629L1124.95,724.652L1124.95,724.632L1124.95,724.629ZM1124.96,724.583L1124.96,724.603L1124.96,724.586L1124.96,724.583ZM1124.98,724.536L1124.98,724.552L1124.98,724.539L1124.98,724.536ZM1125,724.489L1125,724.499L1125,724.491L1125,724.489ZM1194.29,615.47L1194.28,615.478L1194.28,615.475L1194.29,615.47ZM1194.5,615.367L1194.47,615.381L1194.48,615.376L1194.5,615.367ZM1194.71,615.271L1194.67,615.288L1194.69,615.281L1194.71,615.271ZM1194.92,615.179L1194.88,615.198L1194.9,615.189L1194.92,615.179Z" style="fill:rgb(74,255,100);stroke:white;stroke-width:1.56px;"/>
    </g>
</svg>
