<?xml version="1.0" encoding="UTF-8" standalone="no"?>
<!DOCTYPE svg PUBLIC "-//W3C//DTD SVG 1.1//EN" "http://www.w3.org/Graphics/SVG/1.1/DTD/svg11.dtd">
<svg width="100%" height="100%" viewBox="0 0 588 355" version="1.1" xmlns="http://www.w3.org/2000/svg" xmlns:xlink="http://www.w3.org/1999/xlink" xml:space="preserve" style="fill-rule:evenodd;clip-rule:evenodd;stroke-linecap:round;stroke-linejoin:round;stroke-miterlimit:1.5;">
    <g id="mungkajang" transform="matrix(1,0,0,1,-514.111,-803.24)">
        <path d="M521.826,899.646C525.711,899.09 530.471,898.393 532.05,898.095C534.873,897.561 541.254,897.349 554.176,899.572C567.098,901.795 570.796,893.766 573.568,891.469C576.339,889.172 581.956,887.066 596.884,892.395C611.811,897.724 619.361,894.298 624.532,892.789C629.702,891.28 641.171,886.609 648.083,887.553C654.995,888.498 658.364,886.192 659.685,884.601C661.006,883.009 666.931,877.253 671.158,874.474C675.386,871.695 681.646,866.498 686.571,863.927C691.497,861.357 699.153,860.853 704.299,862.492C709.445,864.13 715.721,864.667 724.78,861.043C733.84,857.419 747.65,848.459 754.895,843.849C762.141,839.239 788.357,820.697 791.775,818.367C795.194,816.036 807.433,810.67 822.132,806.701C836.832,802.732 860.993,803.134 872.604,808.163C884.214,813.192 897.976,829.791 901.965,833.721C905.954,837.652 906.212,841.405 917.108,853.005C928.004,864.606 936.762,869.631 941.097,872.509C945.431,875.388 948.182,870.997 951.386,870.304C954.59,869.611 955.391,869.095 958.096,867.815C960.8,866.535 961.957,865.141 965.622,865.167C969.287,865.193 971.306,862.059 974.453,859.406C977.6,856.754 983.58,857.46 985.738,859.861C987.896,862.262 990.64,861.133 992.975,859.478C995.31,857.823 997.981,856.187 1000.91,855.12C1003.84,854.053 1005.11,857.387 1006.05,858.031C1006.98,858.676 1008.71,854.486 1009.66,854.264C1010.6,854.042 1015.35,856.77 1016.53,858.288C1017.7,859.806 1022.1,860.586 1025.1,861.161C1028.09,861.735 1027.49,863.286 1029.91,863.919C1032.33,864.551 1038.86,865.699 1041.26,868.519C1043.65,871.338 1047.04,871.006 1051.94,871.729C1056.84,872.452 1053.82,876.511 1050.82,878.375C1047.82,880.238 1052.28,882.776 1054.76,882.802C1057.25,882.828 1058.97,883.544 1060.06,884.662C1061.15,885.78 1063.73,888.364 1064.97,890.673C1066.22,892.983 1067.55,893.395 1067.69,897.94C1067.84,902.485 1066.55,904.103 1066.41,906.396C1066.28,908.689 1073.32,905.494 1075.24,905.801C1077.16,906.108 1078.68,908.776 1080.9,913.036C1083.13,917.295 1085.92,913.083 1086.98,910.482C1088.04,907.882 1093.38,918.34 1098.4,925.796C1103.41,933.251 1098.85,936.415 1095.52,942.922C1092.19,949.428 1096.88,948.8 1099.5,954.649C1102.12,960.499 1101.03,965.607 1099.95,966.978C1098.88,968.349 1096.45,975.07 1096.74,985.053C1097.03,995.036 1092.07,998.006 1087.76,1000.55C1083.45,1003.1 1079.9,1001.48 1075.33,1002.47C1070.76,1003.47 1071.31,1004.57 1064.77,1005.44C1058.22,1006.3 1058.85,1008.82 1051.93,1008.44C1045.02,1008.06 1042.65,1007.7 1038.32,1007.73C1033.99,1007.75 1029.61,1001.16 1020.64,1006.04C1011.67,1010.92 1011.39,1004.63 1009.62,1000.52C1007.85,996.411 1001.98,992.053 995.085,993.756C988.193,995.459 980.883,994.127 974.41,991.41C967.937,988.692 960.6,989.708 949.95,995.346C939.3,1000.98 930.138,1000.78 924.469,997.133C918.8,993.482 910.354,995.52 907.912,996.414C905.47,997.308 900.753,997.934 893.688,999.292C886.624,1000.65 881.425,1007.45 875.335,1014.04C869.245,1020.63 863.982,1019.97 857.431,1019.07C850.881,1018.18 851.823,1018.89 845.967,1019.76C840.111,1020.64 831.473,1016.85 828.979,1015.44C826.485,1014.03 826.88,1013.6 824.917,1013.37C822.953,1013.14 822.491,1013.15 817.808,1009.15C813.126,1005.15 809.7,1005.77 799.777,1004.63C789.853,1003.5 790.035,1014.75 785.175,1020.6C780.315,1026.45 780.491,1022.47 775.423,1026.61C770.355,1030.75 769.357,1033.92 762.789,1034.94C756.22,1035.96 756.94,1035.67 751.76,1042.85C746.579,1050.02 739.443,1055.49 730.303,1057.65C721.164,1059.82 708.598,1062.23 703.425,1066.52C698.252,1070.8 691.48,1073.55 681.445,1074.16C671.41,1074.77 667.793,1076.33 661.685,1076.91C655.577,1077.49 656.872,1084.01 656.872,1084.01C656.872,1084.01 654.844,1086.64 653.49,1091.14C652.136,1095.64 655.495,1101.41 654.84,1105.71C654.184,1110 651.924,1112.29 650.82,1116.74C649.716,1121.2 649.974,1129.55 649.974,1133.28C649.974,1137.01 653.067,1139.81 653.895,1144.79C654.343,1147.48 654.969,1152.5 655.449,1156.55C650.941,1153.72 647.178,1151.48 645.172,1150.33C640.009,1147.36 620.839,1136.28 614.6,1130.57C608.361,1124.85 603.324,1109.39 601.52,1103.75C599.716,1098.12 588.691,1081.66 580.6,1070.8C572.509,1059.93 557.511,1055.36 549.976,1055.97C542.441,1056.58 537.161,1052.62 534.192,1044.23C531.222,1035.83 531.703,1039.85 526.682,1032.62C521.661,1025.38 521.757,1016.23 520.7,1005.91C519.643,995.59 525.647,990.418 529.51,984.945C533.373,979.471 527.383,964.723 522.166,951.96C516.948,939.197 510.872,932.886 518.473,911.743C520.243,906.819 521.328,902.862 521.826,899.646Z" style="fill:rgb(202,255,88);stroke:white;stroke-width:1.56px;"/>
    </g>
</svg>
