<?xml version="1.0" encoding="UTF-8" standalone="no"?>
<!DOCTYPE svg PUBLIC "-//W3C//DTD SVG 1.1//EN" "http://www.w3.org/Graphics/SVG/1.1/DTD/svg11.dtd">
<svg width="100%" height="100%" viewBox="0 0 583 278" version="1.1" xmlns="http://www.w3.org/2000/svg" xmlns:xlink="http://www.w3.org/1999/xlink" xml:space="preserve" style="fill-rule:evenodd;clip-rule:evenodd;stroke-linecap:round;stroke-linejoin:round;stroke-miterlimit:1.5;">
    <g id="sendana" transform="matrix(1,0,0,1,-649.167,-979.813)">
        <path d="M1096.79,980.595C1101.67,983.709 1110.71,989.271 1113.86,991.367C1118.04,994.148 1133.43,1003.72 1134.93,1004.3C1136.43,1004.88 1137.7,1008.09 1136.79,1010.56C1135.88,1013.02 1134.74,1015.24 1134.74,1019.91C1134.74,1024.57 1140.21,1026.46 1144.91,1029.55C1149.62,1032.64 1156.06,1037.79 1157.69,1042.56C1159.31,1047.32 1167.51,1058.54 1170.32,1063.74C1173.12,1068.94 1177.13,1073.23 1184.24,1080.95C1191.36,1088.66 1199.73,1107.83 1203.12,1114.41C1206.5,1121 1214.54,1136.75 1222.23,1143.13C1229.91,1149.5 1229.38,1155.61 1229.38,1159.67C1229.38,1163.74 1230.35,1167.21 1228.87,1175.64C1227.38,1184.08 1228.52,1191.91 1230.21,1208.16C1231.19,1217.49 1227.98,1225 1225.07,1229.7C1218.73,1226.93 1206.93,1224.7 1199.58,1222.93C1190.35,1220.72 1174.92,1211.45 1160.97,1212.73C1141.65,1214.5 1138.04,1210.99 1134.31,1208.47C1130.58,1205.95 1122.8,1205.34 1117.94,1205.48C1113.09,1205.61 1103.22,1197.27 1096.12,1192.06C1089.02,1186.86 1075.2,1175.24 1059.67,1169.51C1044.14,1163.79 1035.13,1176.48 1021.68,1179.12C1008.23,1181.77 980.103,1198.93 952.501,1192.25C924.899,1185.57 864.051,1204.38 864.051,1204.38C864.051,1204.38 825.34,1219.5 817.194,1224.31C809.048,1229.12 800.401,1238.42 792.636,1243.94C784.87,1249.46 778.235,1249 767.179,1252.8C756.124,1256.61 753.226,1256.6 746.546,1255.12C739.867,1253.63 732.814,1245.09 727.15,1242.06C721.485,1239.02 715.762,1234.43 712.486,1224.99C709.21,1215.54 704.105,1208.32 702.211,1203.35C700.317,1198.39 692.61,1187.23 687.477,1183.34C682.344,1179.45 689.484,1181.31 678.318,1172.38C671.489,1166.92 662.547,1161 655.449,1156.55C654.969,1152.5 654.343,1147.48 653.895,1144.79C653.067,1139.81 649.974,1137.01 649.974,1133.28C649.974,1129.55 649.716,1121.2 650.82,1116.74C651.924,1112.29 654.184,1110 654.84,1105.71C655.495,1101.41 652.136,1095.64 653.49,1091.14C654.844,1086.64 656.872,1084.01 656.872,1084.01C656.872,1084.01 655.577,1077.49 661.685,1076.91C667.793,1076.33 671.41,1074.77 681.445,1074.16C691.48,1073.55 698.252,1070.8 703.425,1066.52C708.598,1062.23 721.164,1059.82 730.303,1057.65C739.443,1055.49 746.579,1050.02 751.76,1042.85C756.94,1035.67 756.22,1035.96 762.789,1034.94C769.357,1033.92 770.355,1030.75 775.423,1026.61C780.491,1022.47 780.315,1026.45 785.175,1020.6C790.035,1014.75 789.853,1003.5 799.777,1004.63C809.7,1005.77 813.126,1005.15 817.808,1009.15C822.491,1013.15 822.953,1013.14 824.917,1013.37C826.88,1013.6 826.485,1014.03 828.979,1015.44C831.473,1016.85 840.111,1020.64 845.967,1019.76C851.823,1018.89 850.881,1018.18 857.431,1019.07C863.982,1019.97 869.245,1020.63 875.335,1014.04C881.425,1007.45 886.624,1000.65 893.688,999.292C900.753,997.934 905.47,997.308 907.912,996.414C910.354,995.52 918.8,993.482 924.469,997.133C930.138,1000.78 939.3,1000.98 949.95,995.346C960.6,989.708 967.937,988.692 974.41,991.41C980.883,994.127 988.193,995.459 995.085,993.756C1001.98,992.053 1007.85,996.411 1009.62,1000.52C1011.39,1004.63 1011.67,1010.92 1020.64,1006.04C1029.61,1001.16 1033.99,1007.75 1038.32,1007.73C1042.65,1007.7 1045.02,1008.06 1051.93,1008.44C1058.85,1008.82 1058.22,1006.3 1064.77,1005.44C1071.31,1004.57 1070.76,1003.47 1075.33,1002.47C1079.9,1001.48 1083.45,1003.1 1087.76,1000.55C1092.07,998.006 1097.03,995.036 1096.74,985.053C1096.7,983.484 1096.72,981.995 1096.79,980.595ZM654.613,1156.02L654.625,1156.03L654.58,1156L654.613,1156.02Z" style="fill:rgb(192,192,192);stroke:white;stroke-width:1.56px;"/>
    </g>
</svg>
