<?xml version="1.0" encoding="UTF-8" standalone="no"?>
<!DOCTYPE svg PUBLIC "-//W3C//DTD SVG 1.1//EN" "http://www.w3.org/Graphics/SVG/1.1/DTD/svg11.dtd">
<svg width="100%" height="100%" viewBox="0 0 500 424" version="1.1" xmlns="http://www.w3.org/2000/svg" xmlns:xlink="http://www.w3.org/1999/xlink" xml:space="preserve" style="fill-rule:evenodd;clip-rule:evenodd;stroke-linecap:round;stroke-linejoin:round;stroke-miterlimit:1.5;">
    <g id="tellunwanua" transform="matrix(1,0,0,1,-790.186,-192.906)">
        <path d="M790.967,305.264C792.066,304.718 793.031,304.275 793.609,303.955C795.476,302.925 796.792,301.32 806.889,300.072C816.986,298.824 817.938,295.143 819.1,293.158C820.263,291.174 824.638,288.643 828.662,288.355C832.685,288.067 833.575,288.778 842.168,288.943C850.761,289.109 851.678,279.493 852.356,275.061C853.034,270.629 855.981,263.604 856.856,260.391C857.732,257.178 863.875,249.978 867.407,248.339C870.939,246.7 873.644,249.34 876.651,253.195C879.658,257.05 883.496,255.522 886.122,254.859C888.747,254.196 890.293,249.871 893.358,246.332C896.424,242.792 900.507,245.539 903.072,245.539C905.637,245.539 910.198,242.643 911.802,238.872C913.407,235.101 913.661,233.424 915.093,232.526C916.526,231.629 924.076,230.111 927.498,229.516C930.92,228.921 931.738,225.063 931.93,223.006C932.121,220.948 937.22,219.088 941.834,219.259C946.448,219.43 949.941,212.26 954.07,210.096C958.199,207.933 960.794,208.168 963.552,207.547C966.31,206.926 965.5,207.834 970.084,205.103C974.669,202.373 982.712,202.676 986.86,204.085C991.008,205.494 997.463,205.706 1000.77,204.095C1004.07,202.483 1001.56,199.351 1009.42,199.137C1017.27,198.922 1019.6,197.58 1021.16,195.863C1022.73,194.146 1027.46,193.475 1029.24,193.745C1031.02,194.016 1033.72,196.904 1036.67,200.034C1039.62,203.164 1044.57,205.614 1051,206.807C1057.43,207.999 1055.17,210.827 1053.73,211.962C1052.29,213.096 1051.63,215.966 1051.35,220.124C1051.07,224.282 1046.62,225.043 1045.42,227.78C1044.23,230.518 1046.23,234.386 1047.66,237.519C1049.09,240.651 1052.74,237.761 1054.07,237.761C1055.39,237.761 1058.69,229.554 1058.69,228.175C1058.69,226.797 1057.47,225.368 1057.47,223.666C1057.47,221.964 1063.7,224.359 1066.35,226.289C1069,228.22 1069.63,233.437 1064.91,237.34C1060.19,241.244 1061.68,241.192 1061.68,244.086C1061.68,246.98 1064.48,247.705 1067,251.52C1069.52,255.334 1070.37,264.186 1072.74,265.881C1075.11,267.576 1076.42,260.692 1077.29,257.429C1078.17,254.165 1083.92,255.341 1086.1,256.789C1088.28,258.237 1089.4,259.612 1093.99,258.532C1098.57,257.452 1102.4,259.179 1101.77,261.953C1101.14,264.726 1103.95,264.852 1106.63,265.422C1109.32,265.992 1111.1,267.258 1112.74,269.339C1114.37,271.421 1117.31,273.961 1120.59,271.462C1123.86,268.963 1124.45,267.031 1124.67,270.048C1124.89,273.064 1125.88,275.655 1128.44,275.059C1131,274.463 1134.19,274.486 1134.42,278.481C1134.65,282.476 1135.82,282.81 1136.83,284.162C1137.85,285.514 1144.01,281.543 1149.12,279.925C1154.22,278.308 1154.7,269.732 1156.3,269.398C1157.91,269.064 1159.35,274.383 1160.03,276.891C1160.71,279.399 1162.38,279.047 1164.3,277.998C1166.23,276.95 1164.52,272.251 1165.26,270.6C1166,268.949 1169.44,272.024 1170.61,273.516C1171.78,275.007 1176.81,271.211 1178.35,269.884C1179.88,268.556 1181.19,265.382 1182.17,261.014C1183.14,256.645 1190.73,263.779 1191.39,264.492C1192.04,265.206 1194.3,266.686 1196.8,265.921C1199.3,265.156 1201.18,262.51 1202.08,262.735C1202.97,262.959 1203.48,268.204 1204.13,269.928C1204.78,271.653 1206.97,269.928 1209.36,269.122C1211.75,268.316 1213.35,271.278 1215.13,277.829C1216.92,284.38 1212.69,283.781 1209.78,283.908C1206.88,284.035 1206.43,287.903 1207.84,289.689C1209.25,291.475 1207.26,293.435 1203.92,295.768C1200.59,298.101 1204.52,297.909 1205.62,300.61C1206.73,303.311 1208.6,305.518 1212,306.55C1215.41,307.581 1218.87,310.079 1217.24,314.186C1215.62,318.292 1215.31,321.015 1215.02,324.642C1214.73,328.268 1217.66,326.314 1217.91,327.721C1218.16,329.129 1218.62,332.561 1220.3,333.825C1221.98,335.089 1222.01,336.909 1220.83,339.322C1219.65,341.735 1222.98,344.533 1218.34,348.903C1213.69,353.273 1221.1,354.245 1223.6,354.315C1226.09,354.385 1230.14,351.746 1231.27,357.853C1232.38,363.96 1225.92,368.621 1222.4,369.178C1218.89,369.736 1214.64,371.444 1214.71,375.422C1214.79,379.399 1213.42,383.835 1213.42,385.112C1213.42,386.389 1206.65,390.941 1205.16,397.569C1203.68,404.197 1211.4,407.063 1213.13,409.743C1214.87,412.422 1213.13,415.796 1215.24,419.616C1217.34,423.436 1221.97,421.058 1224.21,428.798C1226.45,436.538 1228.86,439.163 1232.82,438.226C1236.78,437.289 1236.65,442.14 1235.79,446.644C1234.93,451.147 1235.86,447.646 1237.97,453.098C1240.09,458.551 1242.84,470.298 1244.08,474.206C1245.33,478.113 1249.83,477.276 1251.64,473.85C1253.45,470.425 1256.52,467.065 1257.56,469.12C1258.59,471.176 1262.15,471.971 1265.38,472.074C1268.61,472.176 1271.66,474.357 1272.64,478.284C1273.62,482.21 1275.88,484.449 1284.44,492.198C1293,499.946 1287.27,502.434 1285.52,503.586C1283.77,504.738 1282.28,504.713 1281.75,512.572C1281.21,520.431 1273.24,518.926 1269.99,520.412C1266.74,521.898 1264.57,531.649 1265.23,537.769C1265.88,543.89 1271.18,545.349 1278.1,548.123C1285.02,550.898 1279.2,556.154 1277.51,556.914C1275.81,557.674 1273.05,558.271 1271.18,560.401C1269.31,562.531 1267.99,564.268 1268.52,567.261C1269.05,570.255 1269.78,581.539 1268,584.538C1266.22,587.537 1258.72,589.583 1256.6,590.293C1254.48,591.003 1253.06,592.628 1253.01,596.097C1252.96,599.566 1249.57,602.783 1249.11,604.898C1248.65,607.013 1245.8,607.403 1244.25,604.451C1242.71,601.498 1237.95,601.376 1234.46,606.034C1230.97,610.691 1228.38,607.705 1225.35,606.428C1222.32,605.15 1219.12,608.678 1215.97,608.818C1212.82,608.958 1200.94,612.869 1197.87,614.066C1196.27,614.691 1195.15,615.007 1194.08,615.579C1190.13,608.486 1183.81,596.728 1181.49,590.153C1178.02,580.303 1167.14,560.189 1163.85,556.409C1160.57,552.63 1161.44,551.254 1160.99,540.937C1160.54,530.62 1159.32,526.372 1158.02,524.853C1156.71,523.335 1150.01,514.091 1146.02,513.556C1142.03,513.022 1139.92,514.552 1136.89,507.702C1133.86,500.853 1131.83,498.236 1131.83,493.728C1131.83,489.221 1130.86,489.567 1130.96,485.473C1131.07,481.379 1132.77,480.343 1129.07,480.466C1125.36,480.588 1122.83,478.779 1124.87,476.439C1126.9,474.098 1133.51,469.62 1134.67,466.386C1135.84,463.151 1136.81,462.752 1133.23,460.687C1129.65,458.623 1127.81,459.26 1127.23,455.593C1126.65,451.926 1125.07,450.461 1121.89,450.001C1118.72,449.541 1117.45,448.866 1116.73,448.144C1116.01,447.422 1109.81,445.365 1106.13,448.508C1102.45,451.65 1097.43,456.129 1087.66,456.683C1077.88,457.237 1066.1,456.757 1058.22,457.525C1050.35,458.294 1044.59,463.55 1037.32,459.548C1030.05,455.547 1027.16,458.377 1021.8,457.552C1016.44,456.727 1002.1,454.252 1002.1,454.252C1002.1,454.252 993.157,453.12 990.309,456.572C987.461,460.024 984.839,459.6 979.86,460.564C974.881,461.528 972.312,462.949 972.312,462.949C972.312,462.949 959.018,463.658 953.333,466.145C947.647,468.631 930.644,470.987 919.522,468.801C908.4,466.615 902.809,461.521 893.859,455.955C884.908,450.39 870.293,449.814 865.303,450.46C860.312,451.107 858.002,450.143 858.002,450.143C858.002,450.143 855.645,443.363 854.207,442.27C852.769,441.177 852.407,440.711 852.407,440.711C852.407,440.711 852.999,432.122 850.937,428.374C848.875,424.626 849.939,409.993 849.939,409.993C849.939,409.993 847.617,385.095 845.804,378.192C843.991,371.289 834.873,349.188 831.872,345.948C828.872,342.709 821.828,336.144 818.377,328.851C814.926,321.559 806.53,312.792 804.024,311.735C802.427,311.06 795.663,307.649 790.967,305.264Z" style="fill:rgb(255,216,57);stroke:white;stroke-width:1.56px;"/>
    </g>
</svg>
