<?xml version="1.0" encoding="UTF-8" standalone="no"?>
<!DOCTYPE svg PUBLIC "-//W3C//DTD SVG 1.1//EN" "http://www.w3.org/Graphics/SVG/1.1/DTD/svg11.dtd">
<svg width="100%" height="100%" viewBox="0 0 136 144" version="1.1" xmlns="http://www.w3.org/2000/svg" xmlns:xlink="http://www.w3.org/1999/xlink" xml:space="preserve" style="fill-rule:evenodd;clip-rule:evenodd;stroke-linecap:round;stroke-linejoin:round;stroke-miterlimit:1.5;">
    <g id="wara" transform="matrix(1,0,0,1,-1085.96,-821.508)">
        <path d="M1167.81,822.29C1170.62,828.799 1175.46,841.186 1176.77,844.651C1178.16,848.369 1190.55,874.16 1190.55,874.16C1190.55,874.16 1199.61,894.874 1204.03,899.822C1208.46,904.769 1212.98,916.547 1212.98,916.547L1220.59,923.877C1219.31,923.309 1218.54,923.772 1215.55,924.988C1212.17,926.365 1197.78,935.169 1197.78,935.169C1197.78,935.169 1186.9,941.469 1184.68,943.782C1182.47,946.095 1180.34,954.434 1180.34,954.434C1180.34,954.434 1160.66,960.331 1157.21,959.682C1153.75,959.033 1150.96,949.627 1146.6,950.013C1142.24,950.4 1138.51,949.525 1136.53,948.119C1134.55,946.713 1130,949.304 1129.83,950.883C1129.65,952.462 1127.55,957.645 1125.68,958.021C1123.82,958.397 1119.8,958.97 1115.15,962.029C1111.28,964.567 1108.56,964.457 1100.96,964.12C1101.33,961.77 1101.16,958.359 1099.5,954.649C1096.88,948.8 1092.19,949.428 1095.52,942.922C1098.85,936.415 1103.41,933.251 1098.4,925.796C1093.63,918.713 1088.57,908.922 1087.17,910.189C1087.12,908.312 1087.02,906.327 1086.85,905.411C1086.46,903.42 1087.09,904.044 1089.23,902.985C1091.36,901.927 1095.11,903.996 1096.11,904.882C1097.11,905.769 1099.67,901.938 1099.99,895.319C1100.32,888.701 1106.34,890.021 1108.38,889.89C1110.43,889.759 1112.47,887.364 1113.07,883.888C1113.67,880.412 1117.85,880.052 1114.52,875.83C1111.18,871.607 1115.57,865.801 1116.48,864.392C1117.39,862.983 1122.51,855.185 1122.33,853.354C1122.14,851.523 1122.95,848.936 1125.74,847.074C1128.52,845.211 1128.43,842.609 1127.2,841.398C1125.96,840.186 1128.17,837.82 1131.97,835.449C1133.67,834.385 1135.93,832.273 1137.91,830.267C1141.5,830.398 1144.6,830.668 1147.63,830.074C1151.42,829.333 1161.84,824.905 1167.81,822.29ZM1086.82,910.858L1086.84,910.817L1086.82,910.858ZM1086.88,910.731L1086.86,910.765L1086.89,910.704L1086.88,910.731ZM1087,910.429L1086.98,910.482L1087,910.435L1087,910.429ZM1087.03,910.379L1087.01,910.413L1087.02,910.391L1087.03,910.379ZM1087.05,910.333L1087.04,910.362L1087.04,910.35L1087.05,910.333ZM1087.08,910.288L1087.06,910.316L1087.07,910.312L1087.08,910.288ZM1087.12,910.243L1087.11,910.259L1087.12,910.244L1087.12,910.243ZM1087.15,910.213L1087.14,910.22L1087.14,910.215L1087.15,910.213Z" style="fill:rgb(124,165,35);stroke:white;stroke-width:1.56px;"/>
    </g>
</svg>
