<?xml version="1.0" encoding="UTF-8" standalone="no"?>
<!DOCTYPE svg PUBLIC "-//W3C//DTD SVG 1.1//EN" "http://www.w3.org/Graphics/SVG/1.1/DTD/svg11.dtd">
<svg width="100%" height="100%" viewBox="0 0 227 128" version="1.1" xmlns="http://www.w3.org/2000/svg" xmlns:xlink="http://www.w3.org/1999/xlink" xml:space="preserve" style="fill-rule:evenodd;clip-rule:evenodd;stroke-linecap:round;stroke-linejoin:round;stroke-miterlimit:1.5;">
    <g id="warautara" transform="matrix(1,0,0,1,-982.541,-719.838)">
        <path d="M1208.74,803.771L1172.16,820.359C1172.16,820.359 1153.06,829.011 1147.63,830.074C1142.2,831.137 1136.57,829.437 1128.33,830.705C1120.08,831.973 1102.33,838.243 1095.27,841.402C1088.2,844.56 1084.53,846.911 1084.53,846.911C1084.53,846.911 1078.25,832.733 1074.79,840.895C1071.33,849.058 1069.03,844.91 1069.74,842.613C1070.45,840.316 1070.75,838.741 1069.22,838.666C1067.69,838.59 1065.54,837.51 1064.91,835.777C1064.28,834.044 1062.74,831.921 1060.71,831.369C1058.68,830.818 1055.78,826.263 1054.05,823.182C1052.32,820.1 1051.68,819.146 1050.53,819.802C1049.38,820.458 1046.68,821.124 1045.02,820.263C1043.35,819.402 1037.96,816.976 1036.36,816.652C1034.76,816.327 1025.17,812.37 1022.24,811.369C1019.3,810.368 1015.88,801.194 1013.94,794.219C1012,787.244 1004.4,782.921 1002.5,780.286C1000.59,777.652 989.742,764.247 986.202,759.505C982.661,754.763 983.383,755.034 983.383,755.034C983.383,755.034 998.45,749.12 1003.58,747.046C1008.71,744.973 1021.73,739.481 1031.27,739.621C1040.8,739.762 1042.3,739.337 1046.28,737.015C1050.26,734.692 1056.47,737.103 1061.87,735.35C1067.27,733.597 1073.17,731.498 1081.15,731.374C1089.13,731.25 1093.46,731.725 1098.81,730.262C1104.15,728.798 1103.68,728.447 1105.8,726.854C1107.92,725.261 1110,724.984 1112.15,724.857C1114.29,724.73 1117.8,719.872 1119.1,720.718C1120.09,721.364 1123.48,723.477 1125.03,724.442C1124.95,724.575 1124.93,724.695 1124.96,724.805C1125.23,725.721 1131.23,727.799 1133.6,730.36C1135.96,732.922 1135.34,735.709 1134.54,737.645C1133.75,739.581 1136.52,741.768 1138.06,741.677C1139.61,741.585 1143.5,743.116 1146.05,745.748C1148.61,748.38 1154.25,752.022 1158.93,751.345C1163.6,750.668 1164.26,747.238 1166.64,746.483C1169.01,745.728 1170.02,745.605 1170.5,748.902C1170.97,752.199 1172.88,751.044 1174.4,754.38C1175.92,757.716 1174.94,759.21 1177.07,763.798C1179.19,768.386 1179.02,763.019 1186.05,768.931C1193.09,774.843 1193.25,776.986 1195.67,776.11C1198.08,775.233 1200.62,773.882 1202.34,776.399C1204.06,778.915 1200.99,779.495 1200.46,782.726C1199.93,785.958 1200.26,785.802 1199.28,786.436C1198.29,787.069 1197.61,788.934 1197.93,791.666C1198.24,794.397 1202.36,792.636 1202.42,793.048C1202.48,793.461 1202.85,794.524 1204.55,795.199C1206.26,795.874 1206.15,796.23 1207.36,801.221C1207.67,802.507 1208.16,803.304 1208.74,803.771Z" style="fill:rgb(223,252,159);stroke:white;stroke-width:1.56px;"/>
    </g>
</svg>
