<?xml version="1.0" encoding="UTF-8" standalone="no"?>
<!DOCTYPE svg PUBLIC "-//W3C//DTD SVG 1.1//EN" "http://www.w3.org/Graphics/SVG/1.1/DTD/svg11.dtd">
<svg width="100%" height="100%" viewBox="0 0 278 319" version="1.1" xmlns="http://www.w3.org/2000/svg" xmlns:xlink="http://www.w3.org/1999/xlink" xml:space="preserve" style="fill-rule:evenodd;clip-rule:evenodd;stroke-linecap:round;stroke-linejoin:round;stroke-miterlimit:1.5;">
    <g id="waraselatan" transform="matrix(1,0,0,1,-1095.97,-922.854)">
        <path d="M1100.96,964.12C1108.56,964.457 1111.28,964.567 1115.15,962.029C1119.8,958.97 1123.82,958.397 1125.68,958.021C1127.55,957.645 1129.65,952.462 1129.83,950.883C1130,949.304 1134.55,946.713 1136.53,948.119C1138.51,949.525 1142.24,950.4 1146.6,950.013C1150.96,949.627 1153.75,959.033 1157.21,959.682C1160.66,960.331 1180.34,954.434 1180.34,954.434C1180.34,954.434 1182.47,946.095 1184.68,943.782C1186.9,941.469 1197.78,935.169 1197.78,935.169C1197.78,935.169 1212.17,926.365 1215.55,924.988C1218.93,923.612 1219.47,923.2 1221.13,924.155C1222.79,925.11 1229.59,935.77 1231.31,938.503C1233.04,941.236 1233.88,942.509 1238,944.591C1242.12,946.672 1247.71,948.492 1257.21,950.44C1266.72,952.389 1281.69,950.67 1281.69,950.67C1281.69,950.67 1292.29,945.792 1296.23,944.086C1300.17,942.38 1301.23,936.494 1304.28,934.067C1307.32,931.641 1309.92,921.85 1314.76,925.424C1316.66,926.829 1318.11,927.387 1319.17,927.547C1319.26,927.923 1319.69,927.776 1320.19,927.585C1320.68,927.54 1321.03,927.403 1321.25,927.285C1322.28,927.21 1323.06,927.336 1323.68,929.253C1324.32,931.216 1319.1,935.434 1318.81,937.041C1318.51,938.649 1321.7,943.778 1321.81,944.864C1321.92,945.95 1323.86,948.788 1325.64,952.254C1327.41,955.719 1329.14,961.846 1329.55,965.533C1329.97,969.22 1326.11,975.953 1323.8,976.581C1321.49,977.209 1322.56,978.362 1324.23,978.59C1325.89,978.818 1326.15,981.384 1326.15,981.384C1326.15,981.384 1324.46,984.304 1323.46,983.406C1322.46,982.507 1323.68,986.757 1324.99,987.16C1326.3,987.563 1328.66,989.029 1328.66,991.62C1328.66,994.212 1333.03,995.79 1333.03,995.79L1334.06,1000.1C1334.06,1000.1 1337.48,1002.2 1338.14,1005.38C1338.8,1008.56 1340.64,1008.74 1340.64,1008.74C1340.64,1008.74 1339.28,1010.06 1339.74,1012.53C1340.2,1015 1340.81,1018.96 1344.33,1020C1347.86,1021.04 1341.59,1023.18 1341.59,1023.18C1341.59,1023.18 1345.94,1027.11 1348.84,1030.26C1351.73,1033.41 1351.67,1037.62 1349.7,1046.03C1347.74,1054.43 1349.23,1055.78 1351.97,1059.74C1354.71,1063.71 1356.61,1069.31 1353.09,1071.98C1349.56,1074.64 1354.73,1076.9 1354.73,1076.9C1354.73,1076.9 1354.44,1086.42 1361.39,1091.99C1368.34,1097.57 1367.69,1102.17 1366.31,1104.65C1364.93,1107.12 1372.46,1112.99 1372.46,1112.99C1372.46,1112.99 1372.26,1115.2 1371.06,1116.21C1369.86,1117.22 1361.53,1123.74 1353.88,1129.58C1346.23,1135.42 1349.87,1137.36 1331.03,1153.62C1312.2,1169.88 1309.29,1187.89 1305.84,1193.23C1302.38,1198.58 1291.86,1214.8 1283.12,1216.49C1270.13,1219.01 1265.31,1225.3 1256.68,1236.04C1248.05,1246.78 1232.39,1235.75 1228.7,1231.93C1227.95,1231.15 1226.69,1230.41 1225.07,1229.7C1227.98,1225 1231.19,1217.49 1230.21,1208.16C1228.52,1191.91 1227.38,1184.08 1228.87,1175.64C1230.35,1167.21 1229.38,1163.74 1229.38,1159.67C1229.38,1155.61 1229.91,1149.5 1222.23,1143.13C1214.54,1136.75 1206.5,1121 1203.12,1114.41C1199.73,1107.83 1191.36,1088.66 1184.24,1080.95C1177.13,1073.23 1173.12,1068.94 1170.32,1063.74C1167.51,1058.54 1159.31,1047.32 1157.69,1042.56C1156.06,1037.79 1149.62,1032.64 1144.91,1029.55C1140.21,1026.46 1134.74,1024.57 1134.74,1019.91C1134.74,1015.24 1135.88,1013.02 1136.79,1010.56C1137.7,1008.09 1136.43,1004.88 1134.93,1004.3C1133.43,1003.72 1118.04,994.148 1113.86,991.367C1110.71,989.271 1101.67,983.709 1096.79,980.595L1096.77,981.097C1097.1,973.311 1099.03,968.159 1099.95,966.978C1100.35,966.476 1100.74,965.475 1100.96,964.12ZM1224.77,1229.58L1224.8,1229.59L1224.75,1229.57L1224.77,1229.58ZM1224.46,1229.45L1224.6,1229.51L1224.37,1229.41L1224.46,1229.45ZM1224.15,1229.32L1224.23,1229.35L1223.98,1229.25L1224.15,1229.32ZM1223.15,1228.94L1223.42,1229.04L1223.1,1228.92L1223.15,1228.94ZM1096.77,981.203L1096.76,981.467L1096.77,981.203Z" style="fill:rgb(52,204,255);stroke:white;stroke-width:1.56px;"/>
    </g>
</svg>
