<?xml version="1.0" encoding="UTF-8" standalone="no"?>
<!DOCTYPE svg PUBLIC "-//W3C//DTD SVG 1.1//EN" "http://www.w3.org/Graphics/SVG/1.1/DTD/svg11.dtd">
<svg width="100%" height="100%" viewBox="0 0 157 151" version="1.1" xmlns="http://www.w3.org/2000/svg" xmlns:xlink="http://www.w3.org/1999/xlink" xml:space="preserve" style="fill-rule:evenodd;clip-rule:evenodd;stroke-linecap:round;stroke-linejoin:round;stroke-miterlimit:1.5;">
    <g id="waratimur" transform="matrix(1,0,0,1,-1167.03,-801.399)">
        <path d="M1208.74,803.771C1210.41,805.117 1212.83,803.726 1213.78,803.392C1215.08,802.942 1218.25,801.529 1218.84,802.581C1219.43,803.632 1221.54,804.647 1223.88,805.525C1226.23,806.402 1228.8,809.682 1231.62,812.277C1234.44,814.873 1234.51,818.537 1235.3,820.096C1236.09,821.656 1240.91,822.368 1242.27,821.14C1243.63,819.912 1246.33,819.851 1246.69,820.507C1247.04,821.162 1249.8,823.4 1250.96,823.4C1252.12,823.4 1255.2,823.91 1255.85,825.228C1256.5,826.545 1254.28,827.205 1255.72,829.258C1257.17,831.312 1258.54,831.759 1258.88,833.08C1259.22,834.401 1257.76,837.539 1256.43,840.922C1255.11,844.305 1255.78,846.66 1258.48,845.858C1261.17,845.056 1262.67,846.351 1267.7,846.684C1272.73,847.017 1278.4,852.263 1279.92,854.05C1281.44,855.837 1287.92,860.46 1289.38,863.151C1290.85,865.843 1293.43,864.82 1293.43,864.82C1293.43,864.82 1294.51,866.689 1295.23,868.782C1295.95,870.875 1296,875.569 1296.23,878.991C1296.46,882.412 1295.64,883.817 1298.56,882.72C1301.48,881.624 1304.71,883.641 1307.16,885.155C1309.61,886.669 1312.6,889.279 1315.39,892.946C1318.17,896.614 1321.66,910.867 1322.46,912.59C1323.26,914.312 1321.07,922.409 1319.67,925.722C1319.24,926.728 1316.66,926.829 1314.76,925.424C1309.92,921.85 1307.32,931.641 1304.28,934.067C1301.23,936.494 1300.17,942.38 1296.23,944.086C1292.29,945.792 1281.69,950.67 1281.69,950.67C1281.69,950.67 1266.72,952.389 1257.21,950.44C1247.71,948.492 1242.12,946.672 1238,944.591C1233.88,942.509 1233.04,941.236 1231.31,938.503C1229.59,935.77 1222.79,925.11 1221.13,924.155C1220.94,924.044 1220.76,923.951 1220.59,923.877L1212.98,916.547C1212.98,916.547 1208.46,904.769 1204.03,899.822C1199.61,894.874 1190.55,874.16 1190.55,874.16C1190.55,874.16 1178.16,848.369 1176.77,844.651C1175.46,841.186 1170.62,828.799 1167.81,822.29C1170.41,821.153 1172.16,820.359 1172.16,820.359L1208.74,803.771L1208.74,803.771ZM1208.67,803.716L1208.69,803.727L1208.69,803.726L1208.67,803.716ZM1208.62,803.665L1208.63,803.681L1208.63,803.68L1208.62,803.665ZM1208.56,803.615L1208.58,803.633L1208.58,803.631L1208.56,803.615ZM1208.51,803.563L1208.53,803.583L1208.53,803.58L1208.51,803.563ZM1208.46,803.509L1208.48,803.531L1208.47,803.527L1208.46,803.509ZM1208.41,803.454L1208.43,803.477L1208.42,803.472L1208.41,803.454ZM1208.36,803.396L1208.38,803.421L1208.37,803.415L1208.36,803.396ZM1208.31,803.337L1208.33,803.363L1208.32,803.356L1208.31,803.337ZM1208.26,803.276L1208.28,803.303L1208.27,803.295L1208.26,803.276ZM1208.21,803.212L1208.23,803.241L1208.22,803.232L1208.21,803.212ZM1208.16,803.146L1208.18,803.176L1208.18,803.166L1208.16,803.146ZM1208.12,803.079L1208.14,803.11L1208.13,803.098L1208.12,803.079ZM1208.07,803.008L1208.09,803.041L1208.08,803.028L1208.07,803.008ZM1208.03,802.936L1208.05,802.97L1208.04,802.955L1208.03,802.936ZM1207.98,802.862L1208,802.897L1207.99,802.88L1207.98,802.862ZM1207.94,802.785L1207.96,802.821L1207.95,802.803L1207.94,802.785ZM1207.89,802.706L1207.91,802.743L1207.9,802.723L1207.89,802.706ZM1207.85,802.624L1207.87,802.663L1207.86,802.641L1207.85,802.624ZM1207.81,802.54L1207.83,802.58L1207.82,802.557L1207.81,802.54ZM1207.77,802.454L1207.79,802.495L1207.78,802.47L1207.77,802.454ZM1207.73,802.365L1207.75,802.407L1207.74,802.38L1207.73,802.365ZM1207.69,802.274L1207.71,802.317L1207.7,802.288L1207.69,802.274ZM1207.65,802.181L1207.67,802.225L1207.66,802.193L1207.65,802.181Z" style="fill:rgb(212,57,255);stroke:white;stroke-width:1.56px;"/>
    </g>
</svg>
