<?xml version="1.0" encoding="UTF-8" standalone="no"?>
<!DOCTYPE svg PUBLIC "-//W3C//DTD SVG 1.1//EN" "http://www.w3.org/Graphics/SVG/1.1/DTD/svg11.dtd">
<svg width="100%" height="100%" viewBox="0 0 814 624" version="1.1" xmlns="http://www.w3.org/2000/svg" xmlns:xlink="http://www.w3.org/1999/xlink" xml:space="preserve" style="fill-rule:evenodd;clip-rule:evenodd;stroke-linecap:round;stroke-linejoin:round;stroke-miterlimit:1.5;">
    <g id="warabarat" transform="matrix(1,0,0,1,-325.039,-292.119)">
        <path d="M790.967,305.264C795.663,307.65 802.427,311.061 804.024,311.735C806.53,312.792 814.926,321.559 818.377,328.851C821.828,336.144 828.872,342.709 831.872,345.948C834.873,349.188 843.991,371.289 845.804,378.192C847.617,385.095 849.939,409.993 849.939,409.993C849.939,409.993 848.875,424.626 850.937,428.374C852.999,432.122 852.407,440.711 852.407,440.711C852.407,440.711 852.769,441.177 854.207,442.27C855.645,443.363 858.002,450.143 858.002,450.143C858.002,450.143 858.076,450.174 858.226,450.221C857.97,453.674 857.611,457.877 857.324,458.788C856.821,460.389 856.428,465.795 856.428,465.795C856.428,465.795 866.135,472.776 869.271,476.017C872.407,479.258 874.953,484.588 877.456,486.363C879.96,488.137 888.647,493.702 893.017,495.332C897.387,496.962 908.669,502.791 912.549,505.997C916.429,509.204 923.813,515.55 924.814,522.21C925.816,528.871 925.531,539.695 925.57,542.638C925.609,545.581 923.345,556.36 924.298,562.401C925.251,568.442 924.544,572.982 925.465,576.149C926.386,579.316 928.24,588.639 931.203,592.657C934.166,596.675 942.228,605.021 945.921,608.808C949.614,612.595 955.145,614.374 956.98,632.141C958.816,649.907 959.89,664.983 959.89,664.983C959.89,664.983 959.703,670.674 964.111,679.378C968.519,688.081 970.541,684.776 970.541,692.211C970.541,699.647 971.3,709.241 970.591,716.54C969.881,723.839 968.281,730.597 966.554,732.547C964.827,734.497 960.193,736.314 961.715,739.276C963.236,742.237 964.645,744.207 964.645,744.207C964.645,744.207 970.507,740.613 974.171,744.094C977.125,746.901 981.719,752.838 983.388,755.032L983.383,755.034C983.383,755.034 982.661,754.763 986.202,759.505C989.742,764.247 1000.59,777.652 1002.5,780.286C1004.4,782.921 1012,787.244 1013.94,794.219C1015.88,801.194 1019.3,810.368 1022.24,811.369C1025.17,812.37 1034.76,816.327 1036.36,816.652C1037.96,816.976 1043.35,819.402 1045.02,820.263C1046.68,821.124 1049.38,820.458 1050.53,819.802C1051.68,819.146 1052.32,820.1 1054.05,823.182C1055.78,826.263 1058.68,830.818 1060.71,831.369C1062.74,831.921 1064.28,834.044 1064.91,835.777C1065.54,837.51 1067.69,838.59 1069.22,838.666C1070.75,838.741 1070.45,840.316 1069.74,842.613C1069.03,844.91 1071.33,849.058 1074.79,840.895C1078.25,832.733 1084.53,846.911 1084.53,846.911C1084.53,846.911 1088.2,844.56 1095.27,841.402C1102.33,838.243 1120.08,831.973 1128.33,830.705C1131.96,830.146 1135.09,830.163 1137.91,830.267C1135.93,832.273 1133.67,834.385 1131.97,835.449C1128.17,837.82 1125.96,840.186 1127.2,841.398C1128.43,842.609 1128.52,845.211 1125.74,847.074C1122.95,848.936 1122.14,851.523 1122.33,853.354C1122.51,855.185 1117.39,862.983 1116.48,864.392C1115.57,865.801 1111.18,871.607 1114.52,875.83C1117.85,880.052 1113.67,880.412 1113.07,883.888C1112.47,887.364 1110.43,889.759 1108.38,889.89C1106.34,890.021 1100.32,888.701 1099.99,895.319C1099.67,901.938 1097.11,905.769 1096.11,904.882C1095.11,903.996 1091.36,901.927 1089.23,902.985C1087.09,904.044 1086.46,903.42 1086.85,905.411C1087.02,906.327 1087.12,908.312 1087.17,910.189C1087.1,910.255 1087.03,910.352 1086.98,910.482C1086.33,912.085 1085.02,914.3 1083.58,914.766L1082.8,914.834C1082.16,914.728 1081.51,914.196 1080.9,913.036C1078.68,908.776 1077.16,906.108 1075.24,905.801C1073.32,905.494 1066.28,908.689 1066.41,906.396C1066.55,904.103 1067.84,902.485 1067.69,897.94C1067.55,893.395 1066.22,892.983 1064.97,890.673C1063.73,888.364 1061.15,885.78 1060.06,884.662C1058.97,883.544 1057.25,882.828 1054.76,882.802C1052.28,882.776 1047.82,880.238 1050.82,878.375C1053.82,876.511 1056.84,872.452 1051.94,871.729C1047.04,871.006 1043.65,871.338 1041.26,868.519C1038.86,865.699 1032.33,864.551 1029.91,863.919C1027.49,863.286 1028.09,861.735 1025.1,861.161C1022.1,860.586 1017.7,859.806 1016.53,858.288C1015.35,856.77 1010.6,854.042 1009.66,854.264C1008.71,854.486 1006.98,858.676 1006.05,858.031C1005.11,857.387 1003.84,854.053 1000.91,855.12C997.981,856.187 995.31,857.823 992.975,859.478C990.64,861.133 987.896,862.262 985.738,859.861C983.58,857.46 977.6,856.754 974.453,859.406C971.306,862.059 969.287,865.193 965.622,865.167C961.957,865.141 960.8,866.535 958.096,867.815C955.391,869.095 954.59,869.611 951.386,870.304C948.182,870.997 945.431,875.388 941.097,872.509C936.762,869.631 928.004,864.606 917.108,853.005C906.212,841.405 905.954,837.652 901.965,833.721C897.976,829.791 884.214,813.192 872.604,808.163C860.993,803.134 836.832,802.732 822.132,806.701C807.433,810.67 795.194,816.036 791.775,818.367C788.357,820.697 762.141,839.239 754.895,843.849C747.65,848.459 733.84,857.419 724.78,861.043C715.721,864.667 709.445,864.13 704.299,862.492C699.153,860.853 691.497,861.357 686.571,863.927C681.646,866.498 675.386,871.695 671.158,874.474C666.931,877.253 661.006,883.009 659.685,884.601C658.364,886.192 654.995,888.498 648.083,887.553C641.171,886.609 629.702,891.28 624.532,892.789C619.361,894.298 611.811,897.724 596.884,892.395C581.956,887.066 576.339,889.172 573.568,891.469C570.796,893.766 567.098,901.795 554.176,899.572C541.254,897.349 534.873,897.561 532.05,898.095C530.471,898.393 525.711,899.09 521.826,899.646C523.467,889.047 518.741,886.491 511.188,883.932C501.341,880.595 494.542,875.825 490.318,873.038C486.095,870.25 484.9,867.29 479.125,866.169C473.35,865.049 463.992,862.372 456.238,862.177C448.485,861.982 445.643,857.106 441.522,849.924C437.401,842.742 432.923,840.319 428.03,836.38C423.136,832.442 420.971,831.749 410.967,822.776C400.964,813.802 394.645,810.671 393.212,805.591C391.779,800.511 392.42,801.402 391.278,795.802C390.137,790.203 382.617,790.938 379.924,788.673C377.23,786.407 367.679,782.128 360.977,781.152C354.276,780.175 349.821,773.49 348.701,767.341C347.58,761.192 345.254,762.511 339.39,762.682C333.526,762.853 335.156,759.554 335.3,752.104C335.444,744.654 344.245,725.3 348.931,716.265C353.617,707.229 353.998,707.451 364.202,693.054C374.407,678.657 369.509,681.123 370.392,672.734C371.276,664.345 369.83,657.663 364.521,650.296C359.212,642.928 346.904,634.571 342.427,630.57C337.949,626.568 335.379,616.903 335.11,613.487C334.841,610.071 332.899,608.801 332.728,607.729C332.557,606.656 332.441,598.977 332.66,596.532C332.879,594.088 329.662,587.248 328.663,584.72C327.664,582.192 324.94,579.855 326.105,579.665C327.271,579.475 329.813,579.173 333.267,580.5C336.72,581.827 341.169,585.529 344.752,585.889C348.334,586.248 350.471,586.258 360.439,581.74C370.407,577.223 368.24,577.122 370.867,570.215C373.494,563.308 377.68,559.776 379.732,557.647C381.784,555.517 386.519,552.125 387.592,550.111C388.666,548.097 391.224,543.221 393.095,540.908C394.966,538.594 395.857,533.366 395.806,529.48C395.755,525.594 399.869,519.704 401.925,517.701C403.982,515.698 410.702,515.888 413.307,514.676C415.913,513.465 415.628,509.261 418.067,506.213C420.507,503.166 423.277,502.486 423.651,501.209C424.024,499.933 424.574,497.216 425.734,496.502C426.895,495.788 427.733,490.182 427.803,486.918C427.873,483.655 433.374,481.931 435.063,481.141C436.751,480.351 438.385,477.135 439.548,473.599C440.711,470.062 441.479,471.24 444.05,470.641C446.622,470.043 447.51,468.214 455.797,465.488C464.084,462.761 465.498,464.298 470.246,465.304C474.993,466.309 477.912,462.33 481.094,459.703C484.276,457.076 485.536,453.924 488.786,452.457C492.035,450.989 495.509,451.458 500.007,450.707C504.506,449.957 505.327,452.387 512.968,454.127C520.608,455.867 519.831,451.396 521.245,449.707C522.66,448.018 525.015,448.078 529.002,446.991C532.989,445.903 534.299,441.901 534.757,439.545C535.215,437.189 535.135,436.821 537.977,433.768C540.818,430.715 538.822,424.416 538.202,423.584C537.583,422.752 539.278,419.414 543.901,419.303C548.524,419.192 547.973,415.302 551.989,412.584C556.006,409.866 558.114,404.303 560.527,398.49C562.94,392.678 565.041,391.305 567.562,391.604C570.084,391.903 570.886,391.326 572.566,388.954C574.245,386.581 571.687,382.959 572.435,379.931C573.184,376.902 577.604,376.164 580.625,374.686C583.646,373.208 584.843,375.246 586.176,375.611C587.509,375.975 588.061,374.933 590.659,374.404C593.258,373.876 593.924,373.302 596.191,375.211C598.458,377.12 599.542,376.732 603.543,375.838C607.545,374.945 606.879,371.492 607.872,370.263C608.865,369.034 616.141,368.3 619.494,369.487C622.848,370.674 626.999,368.788 628.143,366.797C629.287,364.807 635.004,359.81 638.58,358.491C642.155,357.172 642.931,358.491 648.443,357.129C653.954,355.767 655.46,355.565 660.42,356.305C665.381,357.045 671.99,351.161 671.397,346.709C670.804,342.256 672.687,340.365 674.687,340.576C676.687,340.787 679.69,342.721 684.842,342.788C689.995,342.855 688.169,340.661 693.276,337.337C698.383,334.012 699.59,333.471 704.119,331.033C708.649,328.595 711.149,330.389 712.74,331.98C714.332,333.571 720.603,333.904 726.556,333.284C732.509,332.665 737.411,336.812 739.611,339.554C741.811,342.295 745.622,340.427 748.111,339.051C750.6,337.674 754.705,332.85 759.364,330.817C764.024,328.784 768.66,324.405 768.982,322.195C769.304,319.984 773.005,315.493 777.54,315.522C782.076,315.55 782.965,313.053 784.406,310.183C785.4,308.202 788.518,306.48 790.967,305.264ZM521.341,902.2L521.36,902.111L521.341,902.2ZM521.414,901.865L521.406,901.899L521.432,901.776L521.414,901.865ZM521.483,901.534L521.479,901.555L521.499,901.455L521.483,901.534ZM521.549,901.208L521.548,901.215L521.558,901.164L521.549,901.208ZM983.388,755.032C983.388,755.032 983.388,755.032 983.388,755.032ZM791.348,305.076L790.967,305.264L791.267,305.116L791.348,305.076ZM791.686,304.911L791.433,305.035L791.586,304.96L791.686,304.911ZM792.483,304.525L792.214,304.655L792.662,304.438L792.483,304.525ZM792.809,304.366L792.771,304.384L792.864,304.338L792.809,304.366ZM793.107,304.218L793.052,304.245L793.146,304.198L793.107,304.218ZM793.375,304.081L793.316,304.111L793.405,304.065L793.375,304.081ZM793.441,304.046L793.609,303.955L793.496,304.017L793.441,304.046ZM819.207,292.988L819.169,293.048L819.19,293.015L819.207,292.988ZM819.268,292.9L819.228,292.958L819.238,292.942L819.268,292.9ZM819.152,293.074L819.1,293.158L819.144,293.087L819.152,293.074Z" style="fill:rgb(74,255,218);stroke:white;stroke-width:1.56px;"/>
    </g>
</svg>
