<?xml version="1.0" encoding="UTF-8" standalone="no"?>
<!DOCTYPE svg PUBLIC "-//W3C//DTD SVG 1.1//EN" "http://www.w3.org/Graphics/SVG/1.1/DTD/svg11.dtd">
<svg width="100%" height="100%" viewBox="0 0 681 325" version="1.1" xmlns="http://www.w3.org/2000/svg" xmlns:xlink="http://www.w3.org/1999/xlink" xml:space="preserve" style="fill-rule:evenodd;clip-rule:evenodd;stroke-linecap:round;stroke-linejoin:round;stroke-miterlimit:1.5;">
    <g id="bolacci" transform="matrix(1,0,0,1,-579.213,-1285.5)">
        <path d="M762.63,1286.48C763.396,1287.51 769.802,1296.16 772.388,1302.8C775.14,1309.87 780.175,1323.76 785.544,1330.43C790.914,1337.11 793.924,1352.11 796.891,1353.14C799.858,1354.18 824.162,1358.25 835.208,1359.38C846.253,1360.51 853.604,1361.14 869.574,1363.19C885.544,1365.25 910.341,1369.45 928.69,1374.54C947.038,1379.63 969.445,1376.49 986.336,1371.54C1003.23,1366.59 1034.99,1361.42 1048.41,1362.15C1061.82,1362.89 1075.1,1355.92 1078.66,1354.24C1082.22,1352.57 1081.72,1344.11 1080.46,1335.94C1079.2,1327.77 1079.32,1318.2 1079.32,1318.2C1079.32,1318.2 1106.28,1328.07 1113.13,1330C1119.99,1331.93 1137.16,1333.25 1146.15,1337.51C1155.13,1341.77 1171.86,1340.1 1171.86,1340.1C1171.86,1340.1 1187.65,1344.24 1198.89,1354.81C1210.12,1365.37 1194.94,1356.66 1217.78,1374.42C1232.98,1386.23 1249.4,1388.56 1258.69,1388.79L1258.68,1387.93C1258.76,1394.12 1258.55,1398.16 1258.55,1398.16C1258.55,1398.16 1258.86,1419.07 1258.86,1421.6C1258.86,1424.13 1257.42,1430.58 1254.22,1438.18C1251.02,1445.79 1246.15,1454.59 1246.32,1472.47C1246.49,1490.35 1245.68,1495.57 1251.08,1505.33C1256.47,1515.09 1259.58,1514.31 1257.24,1520.02C1254.89,1525.73 1252.4,1527.27 1243.87,1525.71C1235.34,1524.15 1232.19,1521.26 1229.17,1522.34C1226.14,1523.42 1217.33,1529.79 1212.13,1528.01C1206.94,1526.24 1201.79,1523.79 1195.06,1530.42C1188.34,1537.06 1184.56,1542.92 1181.81,1544.86C1179.05,1546.79 1177.01,1551.74 1176.5,1555.2C1175.99,1558.65 1168.62,1560.7 1165.84,1561.88C1163.06,1563.06 1163.77,1568.73 1163.62,1570.92C1163.49,1573.11 1161.37,1575.35 1158.2,1577.28C1155.03,1579.22 1153.89,1582.23 1147.81,1582.74C1141.74,1583.25 1133.23,1580.33 1126.72,1578.78C1120.21,1577.22 1111.68,1573.91 1104.31,1571.8C1096.93,1569.69 1082.49,1567.36 1077.05,1565.26C1071.61,1563.16 1069.3,1557.68 1067.23,1555.72C1065.16,1553.76 1062.03,1544.12 1051.18,1544.07C1040.32,1544.02 1030.93,1544.94 1026.04,1545.46C1021.15,1545.98 1013.87,1543.8 1004.74,1548.99C995.612,1554.18 993.127,1557.77 987.497,1559.34C981.866,1560.91 981.374,1565.5 976.19,1569.54C971.005,1573.58 968.979,1579.01 951.237,1576.44C933.496,1573.88 926.874,1581.81 918.859,1584.51C910.843,1587.21 901.637,1587.83 894.262,1587.78C886.887,1587.73 879.727,1592.06 879.727,1592.06C879.727,1592.06 853.311,1600.85 845.21,1601.61C837.11,1602.37 831.035,1607.67 831.035,1607.67C831.035,1607.67 802.404,1609.04 797.209,1608.8C792.013,1608.56 779.959,1611.92 780.176,1604.3C780.393,1596.67 784.994,1598.57 787.155,1584.89C789.317,1571.21 787.89,1564.52 786.251,1561.32C784.613,1558.11 786.169,1551.75 786.382,1550.09C786.596,1548.43 782.462,1538.57 779.814,1535.51C777.167,1532.45 772.44,1532.54 767.363,1527.36C762.286,1522.18 756.157,1511.35 751.852,1510.38C747.547,1509.41 730.073,1511.7 724.081,1511.97C718.089,1512.24 709.779,1509.04 706.657,1506.34C703.534,1503.64 694.626,1499.73 691.96,1495.36C689.295,1490.98 688.582,1485.06 688.225,1480.03C687.869,1475 688.764,1467.9 690.225,1462.92C691.685,1457.94 692.179,1451.26 692.179,1451.26C692.179,1451.26 671.181,1446.47 665.767,1445C660.353,1443.53 651.462,1443.4 648.466,1443.14C645.47,1442.89 634.641,1435.34 632.552,1432.02C630.462,1428.7 617.669,1416.34 614.985,1413.23C612.301,1410.13 603.852,1405.82 599.662,1404.5C595.472,1403.18 592.276,1398.06 589.261,1396.86C586.246,1395.66 580.359,1392.4 580.359,1392.4C580.359,1392.4 580.399,1392.69 580.251,1393.07L580.237,1393.11L580.238,1387.63L580.431,1373.49C580.431,1373.49 578.904,1367.85 582.315,1359.84C585.725,1351.83 599.612,1355.84 605.933,1356.59C612.254,1357.34 639.933,1362.08 646.303,1362.91C652.674,1363.74 656.818,1365.02 656.223,1360.91C655.629,1356.8 657.523,1356.87 661.019,1356.04C664.515,1355.22 663.27,1354.71 663.117,1352.07C662.965,1349.42 663.888,1349.89 666.737,1349.72C669.586,1349.54 668.927,1349.64 670.421,1346.71C671.916,1343.77 671.888,1345.05 675.206,1345.24C678.525,1345.43 683.188,1344.26 687.483,1340.75C691.778,1337.23 699.034,1324.63 703.346,1315.8C707.659,1306.98 714.302,1303.39 720.967,1302.07C727.632,1300.75 738.416,1296.36 747.603,1292.37C755.166,1289.09 760.854,1287.09 762.63,1286.48ZM579.994,1393.53L580.028,1393.49L579.994,1393.53ZM580.102,1393.37L580.075,1393.41L580.11,1393.36L580.102,1393.37ZM580.133,1393.32L580.117,1393.35L580.146,1393.3L580.133,1393.32ZM580.161,1393.27L580.152,1393.29L580.182,1393.23L580.161,1393.27ZM580.211,1393.17L580.237,1393.11C580.229,1393.13 580.221,1393.15 580.211,1393.17L580.211,1393.17L580.182,1393.23L580.211,1393.17ZM1258.68,1387.57L1258.68,1387.82L1258.68,1387.57ZM1240.53,1287.47L1240.46,1287.79L1240.52,1287.53L1240.53,1287.47ZM1240.6,1287.14L1240.55,1287.38L1240.57,1287.27L1240.6,1287.14ZM1240.69,1286.74L1240.62,1287.06C1240.67,1286.84 1240.72,1286.61 1240.78,1286.38L1240.69,1286.74ZM762.904,1286.34L762.739,1286.36L762.911,1286.34L762.904,1286.34ZM763.211,1286.29C763.211,1286.29 763.441,1286.27 762.929,1286.34L763.177,1286.3L763.211,1286.29ZM762.716,1286.36C762.611,1286.38 762.555,1286.38 762.555,1286.38L762.716,1286.36Z" style="fill:rgb(168,96,183);stroke:white;stroke-width:1.56px;"/>
    </g>
</svg>
