<?xml version="1.0" encoding="UTF-8" standalone="no"?>
<!DOCTYPE svg PUBLIC "-//W3C//DTD SVG 1.1//EN" "http://www.w3.org/Graphics/SVG/1.1/DTD/svg11.dtd">
<svg width="100%" height="100%" viewBox="0 0 714 443" version="1.1" xmlns="http://www.w3.org/2000/svg" xmlns:xlink="http://www.w3.org/1999/xlink" xml:space="preserve" style="fill-rule:evenodd;clip-rule:evenodd;stroke-linecap:round;stroke-linejoin:round;stroke-miterlimit:1.5;">
    <g id="bungoro" transform="matrix(1,0,0,1,-162.769,-792.25)">
        <path d="M752.923,815.349C753.034,815.368 753.097,815.372 753.097,815.372C753.097,815.372 758.281,814.259 758.64,813.459C759,812.659 758.059,807.02 761.543,805.825C765.027,804.631 773.833,796.674 776.968,800.602C780.103,804.53 783.11,803.39 785.461,802.905C787.812,802.421 789.282,801.762 792.918,802.48C796.554,803.197 801.913,803.466 804.302,800.216C806.692,796.965 809.426,799.188 811.146,798.648C812.866,798.109 818.813,792.3 820.666,795.404C822.519,798.507 824.711,800.068 826.639,799.263C828.568,798.457 831.913,792.437 834.397,793.079C836.88,793.721 837.263,796.587 836.716,799.071C836.168,801.555 838.762,801.204 841.123,799.807C843.484,798.41 847.773,796.656 850.996,799.757C854.22,802.858 854.028,803.84 856.415,804.533C858.803,805.226 858.658,808.492 859.207,811.853C859.757,815.214 861.899,817.69 862.113,821.806C862.327,825.922 859.974,835.194 859.509,840.034C859.043,844.874 858.501,854.249 858.347,857.253C858.193,860.258 855.54,867.239 858.014,878.302C860.488,889.365 860.713,898.583 862.069,904.116C863.425,909.649 863.82,910.856 867.269,913.999C870.719,917.142 872.242,921.68 872.875,922.67C873.508,923.66 875.66,928.819 872.581,929.232C869.503,929.645 867.923,930.99 866.918,933.051C865.913,935.111 863.985,935.664 862.24,934.888C860.495,934.112 860.165,935.625 857.683,935.898C855.201,936.17 849.986,934.159 847.898,935.795C845.81,937.431 843.919,937.765 844.722,939.846C845.524,941.927 846.832,944.501 845.667,945.273C844.502,946.045 843.803,946.757 842.51,946.059C841.217,945.361 840.124,945.378 840.172,946.831C840.221,948.285 840.21,950.562 836.801,951.269C833.392,951.976 831.943,951.436 832.65,954.67C833.357,957.903 830.013,963.224 826.864,965.604C823.715,967.984 821.73,969.354 825.149,975.409C828.569,981.464 830.399,984.429 833.158,984.714C835.917,984.998 842.534,986.145 844.381,986.089C846.228,986.033 853.676,988.178 854.528,994.41C855.38,1000.64 855.879,1003.64 855.451,1005.4C855.024,1007.16 853.893,1008.04 853.836,1009.28C853.779,1010.51 855.396,1015.14 857.448,1017.43C859.5,1019.71 858.708,1020.33 858.708,1020.33C858.708,1020.33 861.213,1022.15 863.053,1024.28C864.894,1026.41 868.02,1026.98 868.02,1026.98C868.02,1026.98 870.544,1031.4 872.582,1033.01C873.918,1034.07 874.873,1036.66 875.294,1039.39C872.101,1040.67 868.9,1042.17 866.449,1043.81C858.979,1048.77 848.964,1048.42 840.912,1049.37C832.859,1050.31 819.23,1045.65 813.347,1044.49C807.464,1043.33 798.352,1045.29 792.878,1045.69C787.404,1046.09 779.489,1057.87 771.308,1070.55C763.126,1083.22 761.228,1075.78 758.713,1074.83C756.198,1073.87 755.723,1066.37 745.224,1066.74C734.725,1067.11 728.85,1081.61 727.468,1088.49C726.086,1095.36 712.916,1094.7 712.916,1094.7C712.916,1094.7 700.381,1097.03 696.61,1092.88C692.838,1088.73 685.416,1090.67 681.545,1091.57C677.674,1092.46 664.883,1091.21 661.143,1088.88C657.404,1086.55 648.344,1079.59 643.04,1077.58C637.736,1075.56 628.824,1081.58 622.061,1081.57C615.297,1081.57 609.264,1080.61 608.791,1080C608.319,1079.39 604.334,1078.29 602.098,1079.23C599.862,1080.17 598.419,1079.31 596.258,1077.93C594.098,1076.54 591.266,1076.83 589.477,1077.9C587.688,1078.98 587.696,1077.03 585.747,1077.62C583.797,1078.22 579.63,1075.98 579.496,1073.87C579.361,1071.77 579.695,1066.5 573.515,1064.71C567.335,1062.93 570.577,1059.99 567.589,1055.53C564.601,1051.08 561.916,1052.61 559.853,1054.55C557.79,1056.49 554.682,1055.73 553.974,1053.31C553.265,1050.88 551.831,1052.38 549.3,1052.21C546.769,1052.05 545.821,1056.12 545.821,1058.15C545.821,1060.19 536.866,1064.17 536.38,1066.17C535.895,1068.18 533.361,1068.19 531.017,1067.43C528.672,1066.67 527.048,1069.79 525.486,1069.72C523.925,1069.65 522.399,1070.65 519.836,1070.78C517.272,1070.91 514.527,1067.73 509.99,1067.15C505.454,1066.57 499.172,1073.74 495.071,1077.2C490.969,1080.66 483.044,1088.17 480.42,1092.97C477.795,1097.78 467.979,1106.9 463.811,1107.74C459.644,1108.58 453.171,1119.07 448.068,1119.45C442.965,1119.83 442.361,1127.35 442.361,1127.35C442.361,1127.35 431.674,1130.68 423.541,1135.11C415.408,1139.54 390.552,1149.72 379.496,1152.62C368.44,1155.53 348.664,1169.46 343.667,1172.53C338.67,1175.59 321.545,1184 311.923,1189.61C302.301,1195.23 301.863,1190.8 300.559,1189.14C299.255,1187.49 297.084,1190.21 295.801,1189.27C294.518,1188.32 291.774,1187.11 291.171,1188.74C290.568,1190.37 284.263,1193.37 281.943,1193.45C279.623,1193.53 279.65,1196.75 278.882,1198.86C278.114,1200.96 274.77,1199.39 274.462,1202.05C274.154,1204.7 272.907,1205.12 268.464,1203.76C264.021,1202.39 262.878,1213.24 257.265,1217.8C251.651,1222.36 240.944,1232.33 232.872,1233.73C224.799,1235.13 219.219,1228.32 213.931,1227.45C208.643,1226.58 203.608,1224.6 197.889,1214.57C192.17,1204.55 187.768,1201.94 187.768,1201.94L187.207,1202.16C188.144,1200.17 185.053,1196.59 185.053,1196.59C185.053,1196.59 176.975,1191.29 179.803,1190.7C182.632,1190.11 187.537,1186.58 187.537,1186.58C187.537,1186.58 184.187,1184.98 185.476,1183.97C186.766,1182.96 191.058,1179.01 192.173,1175.42C193.287,1171.83 197.375,1167.27 197.375,1167.27C197.375,1167.27 192.656,1164.38 191.333,1159.45C190.011,1154.53 188.496,1154.76 188.297,1153.01C188.097,1151.26 187.012,1149.54 184.577,1148.84C182.142,1148.13 181.205,1147.37 180.581,1144.3C179.957,1141.23 175.836,1139.7 173.221,1140.24C170.606,1140.78 174.74,1134.2 177.999,1132.05C181.259,1129.91 182.196,1127.86 183.298,1127.76C184.401,1127.65 184.437,1128.14 183.236,1126.15C182.036,1124.16 183.329,1119.64 182.028,1115.88C180.727,1112.12 179.335,1107.1 179.283,1105.53C179.231,1103.96 178.919,1102.68 178.919,1102.68C178.919,1102.68 174.877,1104.15 172.438,1099.53C169.998,1094.92 169.297,1090.95 167.462,1088.57C165.626,1086.18 161.697,1084 164.567,1077.16C167.437,1070.33 168.377,1065.23 168.205,1061.68C168.1,1059.51 167.967,1059.35 167.663,1058.63C173.092,1059.1 178.762,1059.41 180.551,1059.26C183.457,1059.02 186.19,1054.76 188.31,1055.01C190.43,1055.25 193.914,1053.57 196.171,1052.37C198.429,1051.18 198.108,1050.92 204.144,1051.24C210.179,1051.56 213.035,1049.32 215.131,1048.33C217.226,1047.33 217.415,1047.11 218.475,1048.54C219.534,1049.96 220.645,1049.81 223.086,1048.8C225.526,1047.78 225.725,1047.8 226.418,1048.57C227.111,1049.34 237.96,1048.03 240.35,1047.97C242.74,1047.92 259.515,1048.26 263.426,1048.8C267.337,1049.33 274.915,1051.99 283.286,1055.75C291.656,1059.51 300.291,1059.04 306.964,1066.81C313.637,1074.58 318.145,1075.11 321.414,1074.38C324.683,1073.64 332.2,1075.15 336.93,1076.89C341.659,1078.62 350.06,1082.13 351.528,1085.24C352.996,1088.34 364.299,1086.96 370.701,1086.78C377.103,1086.6 391.506,1087.21 396.493,1085.72C401.481,1084.23 413.686,1078.8 419.268,1078.24C424.849,1077.67 434.45,1063.4 437.845,1060.51C441.239,1057.61 449.793,1049.37 456.626,1044.94C463.458,1040.51 484.358,1037.27 488.919,1036.75C493.481,1036.23 517.46,1033.45 523.867,1036.23C530.273,1039 532.461,1041.2 536.249,1038.05C540.036,1034.89 549.213,1028.71 553.097,1027.85C556.98,1026.98 556.683,1025.02 560.827,1022.51C564.97,1020.01 563.212,1015.18 567.511,1014.68C571.81,1014.18 569.79,1010.86 565.166,1008.85C560.541,1006.84 562.244,1003.47 566.544,1003.4C570.844,1003.34 577.198,998.833 577.198,998.833C577.198,998.833 582.055,998.557 586.06,998.9C590.065,999.242 589.793,1002.05 592.943,1003.79C596.094,1005.53 596.062,1003.65 600.484,1001.51C604.906,999.377 611.004,994.62 613.954,993.224C616.904,991.827 624.249,993.203 630.505,994.17C636.761,995.136 649.554,995.085 654.293,997.558C659.033,1000.03 660.078,986.607 660.916,982.519C661.755,978.431 666.704,969.084 672.137,965.332C677.571,961.581 679.775,947.629 679.873,940.403C679.97,933.177 682.25,925.185 683.61,916.536C684.97,907.886 684.444,889.159 684.444,889.159L683.803,889.17C684.199,886.483 684.521,880.44 682.399,876.954C680.019,873.044 678.619,872.707 677.946,870.772C677.273,868.837 676.621,867.48 674.502,864.672C672.383,861.865 677.654,856.923 682.139,854.281C686.623,851.64 688.186,850.183 689.845,847.312C691.505,844.441 696.401,843.913 696.401,843.913L696.565,843.672C698.241,843.23 711.825,839.609 718.538,836.742C725.699,833.684 733.255,833.176 736.339,831.399C739.423,829.622 745.923,824.492 748.225,824.208C750.527,823.925 754.72,822.745 753.166,817.578C752.959,816.891 752.863,816.133 752.852,815.335L752.923,815.349ZM167.589,1058.44L167.663,1058.63C167.64,1058.57 167.615,1058.51 167.589,1058.44L167.587,1058.44L167.51,1058.24L167.589,1058.44ZM167.471,1058.13L167.497,1058.2L167.484,1058.17L167.471,1058.13ZM167.419,1057.99L167.443,1058.05L167.426,1058.01L167.419,1057.99ZM167.365,1057.83L167.37,1057.84L167.364,1057.82L167.354,1057.79L167.365,1057.83ZM167.286,1057.58L167.307,1057.64L167.3,1057.62L167.286,1057.58ZM167.222,1057.36L167.244,1057.44L167.231,1057.4L167.222,1057.36ZM167.157,1057.13L167.173,1057.19L167.16,1057.15L167.157,1057.13ZM167.071,1056.82L167.089,1056.89L167.085,1056.87L167.071,1056.82ZM166.992,1056.51L167.017,1056.61L167.006,1056.57L166.992,1056.51ZM752.777,815.319L752.838,815.332L752.786,815.321L752.777,815.319ZM752.693,815.299L752.746,815.312L752.712,815.304L752.693,815.299ZM752.598,815.274L752.656,815.29L752.633,815.284L752.598,815.274ZM752.484,815.241L752.56,815.264L752.547,815.26L752.484,815.241ZM752.351,815.198L752.458,815.233C752.423,815.222 752.388,815.211 752.351,815.198ZM752.236,815.156L752.314,815.185L752.258,815.165L752.236,815.156ZM752.113,815.107L752.19,815.138L752.153,815.124L752.113,815.107ZM751.977,815.049L752.066,815.088L752.043,815.078L751.977,815.049ZM751.808,814.968L751.938,815.031C751.895,815.011 751.852,814.99 751.808,814.968ZM751.684,814.903L751.704,814.914L751.694,814.909L751.684,814.903ZM751.567,814.837L751.574,814.841L751.572,814.84L751.567,814.837ZM751.442,814.762L751.46,814.773L751.448,814.766L751.442,814.762ZM751.311,814.676L751.331,814.69L751.323,814.685L751.311,814.676ZM751.059,814.494L751.081,814.511L751.068,814.501L751.059,814.494ZM750.893,814.359L750.946,814.404L750.94,814.399L750.893,814.359ZM750.806,814.283L750.877,814.346C750.853,814.325 750.83,814.305 750.806,814.283ZM750.733,814.217L750.783,814.263L750.747,814.23L750.733,814.217ZM750.659,814.147L750.706,814.192L750.683,814.17L750.659,814.147ZM750.581,814.069L750.633,814.121L750.62,814.108L750.581,814.069ZM750.49,813.974L750.561,814.048C750.537,814.024 750.513,813.999 750.49,813.974ZM750.418,813.896L750.473,813.956L750.429,813.909L750.418,813.896ZM750.347,813.814L750.393,813.868L750.367,813.838L750.347,813.814ZM750.273,813.726L750.321,813.784L750.304,813.765L750.273,813.726ZM750.181,813.611L750.25,813.699C750.227,813.67 750.204,813.641 750.181,813.611ZM750.113,813.521L750.177,813.606L750.121,813.532L750.113,813.521ZM750.044,813.426L750.091,813.491L750.06,813.449L750.044,813.426ZM749.975,813.326L750.02,813.392L750.001,813.365L749.975,813.326ZM749.898,813.21L749.952,813.292L749.942,813.277L749.898,813.21ZM749.822,813.087L749.886,813.191C749.865,813.157 749.843,813.123 749.822,813.087ZM749.758,812.979L749.804,813.057L749.77,813.001L749.758,812.979ZM749.694,812.866L749.736,812.94L749.715,812.904L749.694,812.866ZM749.628,812.741L749.672,812.826L749.66,812.804L749.628,812.741ZM749.552,812.591L749.611,812.71C749.591,812.671 749.571,812.631 749.552,812.591ZM749.494,812.468L749.54,812.567L749.503,812.488L749.494,812.468ZM749.436,812.341L749.474,812.426L749.452,812.377L749.436,812.341ZM749.379,812.204L749.416,812.294L749.403,812.264L749.379,812.204ZM749.361,812.162C749.343,812.118 749.326,812.073 749.308,812.028L749.361,812.162ZM747.207,802.99L747.208,802.991L747.203,802.949L747.207,802.99ZM747.193,802.857L747.193,802.859L747.188,802.812L747.193,802.857ZM747.177,802.723L747.177,802.726L747.171,802.68L747.177,802.723ZM747.159,802.588L747.159,802.591L747.153,802.55L747.159,802.588ZM747.138,802.452L747.139,802.455L747.133,802.421L747.138,802.452ZM747.116,802.314L747.117,802.317L747.112,802.292L747.116,802.314ZM747.092,802.176L747.092,802.177L747.09,802.164L747.092,802.176Z" style="fill:rgb(65,202,197);stroke:white;stroke-width:1.56px;"/>
    </g>
</svg>
