<?xml version="1.0" encoding="UTF-8" standalone="no"?>
<!DOCTYPE svg PUBLIC "-//W3C//DTD SVG 1.1//EN" "http://www.w3.org/Graphics/SVG/1.1/DTD/svg11.dtd">
<svg width="100%" height="100%" viewBox="0 0 562 301" version="1.1" xmlns="http://www.w3.org/2000/svg" xmlns:xlink="http://www.w3.org/1999/xlink" xml:space="preserve" style="fill-rule:evenodd;clip-rule:evenodd;stroke-linecap:round;stroke-linejoin:round;stroke-miterlimit:1.5;">
    <g id="labbakkang" transform="matrix(1,0,0,1,-123.361,-787.371)">
        <path d="M248.53,788.152C250.169,790.223 252.094,792.808 252.8,794.352C254.121,797.24 254.844,798.7 256.472,800.911C258.099,803.122 262.392,805.22 263.443,807.789C264.493,810.357 264.967,811.564 264.493,814.571C264.019,817.577 262.679,821.198 263.977,822.069C265.275,822.94 265.795,824.126 269.759,823.854C273.723,823.582 275.646,823.474 277.99,819.732C280.334,815.989 282.529,809.974 286.722,811.506C290.914,813.038 293.591,812.781 293.666,816.446C293.742,820.111 288.735,825.752 291.824,828.721C294.914,831.691 297.929,833.214 298.648,832.113C299.367,831.012 302.983,830.172 301.759,826.468C300.534,822.764 297.777,822.455 299.799,819.736C301.822,817.017 305.069,816.863 307.436,816.787C309.803,816.71 319.203,816.116 319.761,818.935C320.318,821.754 322.257,825.077 317.323,826.956C312.39,828.834 313.856,831.975 315.519,833.485C317.183,834.996 321.352,841.744 323.118,844.267C324.883,846.79 331.368,846.329 329.69,843.375C328.012,840.42 324.305,839.935 324.864,836.719C325.422,833.504 326.984,832.095 329.768,832.52C332.551,832.946 334.585,831.172 337.057,831.46C339.529,831.749 341.499,831.242 340.025,833.304C338.55,835.366 337.831,837.073 338.341,838.06C338.851,839.046 342.404,840.429 345.382,840.373C348.36,840.317 351.919,836.651 355.009,836.904C358.098,837.157 362.08,836.994 361.06,834.47C360.04,831.947 354.371,830.14 356.383,827.119C358.394,824.097 361.461,824.978 363.663,822.542C365.865,820.106 367.799,819.921 369.963,818.591C372.126,817.262 373.983,818.031 375.413,818.989C376.844,819.947 379.131,820.29 381.858,822.398C384.585,824.507 386.812,826.332 388.694,825.744C390.576,825.157 393.2,826.057 393.873,827.196C394.547,828.335 395.516,830.469 400.381,829.307C405.247,828.145 413.536,824.722 419.444,827.224C425.352,829.725 427.482,832.052 429.877,832.411C432.272,832.771 436.205,836.597 440.049,834.99C443.894,833.384 451.114,827.537 455.779,834.102C460.444,840.667 461.874,846.023 468.223,851.983C474.572,857.942 484.821,868.782 493.262,872.281C501.703,875.781 512.089,882.852 517.066,883.583C522.044,884.314 527.633,888.373 533.318,889.755C539.002,891.138 542.534,889.422 548.747,894.345C554.961,899.267 565.328,901.696 572.896,902.208C580.464,902.721 601.472,897.185 608.546,894.488C615.619,891.791 620.606,887.393 630.073,887.854C639.54,888.316 659.079,889.443 668.262,889.362C677.445,889.282 684.444,889.159 684.444,889.159C684.444,889.159 684.97,907.886 683.61,916.536C682.25,925.185 679.97,933.177 679.873,940.403C679.775,947.629 677.571,961.581 672.137,965.332C666.704,969.084 661.755,978.431 660.916,982.519C660.078,986.607 659.033,1000.03 654.293,997.558C649.554,995.085 636.761,995.136 630.505,994.17C624.249,993.203 616.904,991.827 613.954,993.224C611.004,994.62 604.906,999.377 600.484,1001.51C596.062,1003.65 596.094,1005.53 592.943,1003.79C589.793,1002.05 590.065,999.242 586.06,998.9C582.055,998.557 577.198,998.833 577.198,998.833C577.198,998.833 570.844,1003.34 566.544,1003.4C562.244,1003.47 560.541,1006.84 565.166,1008.85C569.79,1010.86 571.81,1014.18 567.511,1014.68C563.212,1015.18 564.97,1020.01 560.827,1022.51C556.683,1025.02 556.98,1026.98 553.097,1027.85C549.213,1028.71 540.036,1034.89 536.249,1038.05C532.461,1041.2 530.273,1039 523.867,1036.23C517.46,1033.45 493.481,1036.23 488.919,1036.75C484.358,1037.27 463.458,1040.51 456.626,1044.94C449.793,1049.37 441.239,1057.61 437.845,1060.51C434.45,1063.4 424.849,1077.67 419.268,1078.24C413.686,1078.8 401.481,1084.23 396.493,1085.72C391.506,1087.21 377.103,1086.6 370.701,1086.78C364.299,1086.96 352.996,1088.34 351.528,1085.24C350.06,1082.13 341.659,1078.62 336.93,1076.89C332.2,1075.15 324.683,1073.64 321.414,1074.38C318.145,1075.11 313.637,1074.58 306.964,1066.81C300.291,1059.04 291.656,1059.51 283.286,1055.75C274.915,1051.99 267.337,1049.33 263.426,1048.8C259.515,1048.26 242.74,1047.92 240.35,1047.97C237.96,1048.03 227.111,1049.34 226.418,1048.57C225.725,1047.8 225.526,1047.78 223.086,1048.8C220.645,1049.81 219.534,1049.96 218.475,1048.54C217.415,1047.11 217.226,1047.33 215.131,1048.33C213.035,1049.32 210.179,1051.56 204.144,1051.24C198.108,1050.92 198.429,1051.18 196.171,1052.37C193.914,1053.57 190.43,1055.25 188.31,1055.01C186.19,1054.76 183.457,1059.02 180.551,1059.26C178.762,1059.41 173.091,1059.1 167.663,1058.63C167.469,1058.16 167.206,1057.47 166.836,1055.86C165.889,1051.76 167.74,1045.65 165.837,1044C163.933,1042.34 161.811,1043.46 161.226,1038.1C160.641,1032.75 161.219,1031.17 163.5,1030.26C165.782,1029.36 163.081,1021.54 162.398,1014.43C161.716,1007.31 162.228,993.646 162.168,987.778C162.108,981.909 161.949,974.208 159.829,973.992C157.708,973.777 156.067,976.302 154.878,974.915C153.69,973.527 152.626,971.833 153.897,970.227C155.168,968.621 156.829,967.455 156.532,964.577C156.236,961.699 155.333,956.871 154.273,955.448C153.212,954.025 151.251,950.783 151.191,948.674C151.131,946.565 143.344,940.221 141.474,937.468C139.603,934.715 135.904,932.387 133.962,931.183C132.021,929.978 127.097,926.825 127.097,925.015C127.097,923.206 126.812,920.548 126.358,919.217C125.904,917.886 122.259,912.858 125.42,909.497C128.581,906.135 133.669,901.36 135.012,899.184C136.355,897.008 141.858,891.384 144.463,889.274C147.068,887.163 148.688,884.911 148.783,883.444C148.878,881.977 152.435,883.385 152.347,882.373C152.259,881.361 150.897,880.811 150.767,879.241C150.638,877.671 151.196,876.948 151.386,876.08C151.577,875.211 152.141,870.93 151.966,870.317C151.791,869.703 150.804,870.405 151.224,868.161C151.644,865.918 152.217,866.835 152.158,863.353C152.098,859.87 155.277,856.018 156.671,852.815C158.064,849.611 165.221,844.464 167.584,841.571C169.948,838.678 174.458,837.937 176.234,838.757C178.01,839.576 178.701,833.094 179.953,828.968C181.205,824.842 186.539,816.109 194.966,815.051C203.393,813.993 209.74,814.565 212.764,812.798C215.787,811.032 222.423,810.453 223.783,811.427C225.143,812.401 226.642,813.412 227.093,812.678C227.543,811.945 231.381,806.443 231.663,804.096C231.944,801.749 231.023,797.822 232.441,796.124C233.858,794.425 238.129,791.962 242.358,790.695C245.664,789.704 247.684,789.073 248.53,788.152Z" style="fill:rgb(208,221,76);stroke:white;stroke-width:1.56px;"/>
    </g>
</svg>
