<?xml version="1.0" encoding="UTF-8" standalone="no"?>
<!DOCTYPE svg PUBLIC "-//W3C//DTD SVG 1.1//EN" "http://www.w3.org/Graphics/SVG/1.1/DTD/svg11.dtd">
<svg width="100%" height="100%" viewBox="0 0 267 328" version="1.1" xmlns="http://www.w3.org/2000/svg" xmlns:xlink="http://www.w3.org/1999/xlink" xml:space="preserve" style="fill-rule:evenodd;clip-rule:evenodd;stroke-linecap:round;stroke-linejoin:round;stroke-miterlimit:1.5;">
    <g id="mandale" transform="matrix(1,0,0,1,-437.989,-224.655)">
        <path d="M438.77,403.071C439.276,399.994 440.975,391.738 445.029,388.475C450.056,384.428 462.48,374.801 467.267,370.704C472.054,366.607 482.372,353.351 485.149,348.382C487.926,343.413 490.961,341.11 492.444,337.87C493.926,334.63 496.566,331.076 496.566,331.076C496.566,331.076 502.406,314.971 503.555,312.02C504.703,309.069 507.552,301.85 508.625,296.714C509.699,291.578 516.026,289.008 516.282,283.672C516.538,278.335 517.969,269.808 520.289,263.621C522.609,257.434 522.251,249.661 522.251,249.661L524.46,243.135C524.46,243.135 520.483,242.022 520.534,236.996C520.586,231.97 517.689,229.658 517.689,229.658C517.689,229.658 524.689,229.469 527.88,226.68C531.071,223.89 538.502,226.04 541.584,230.691C544.666,235.342 553.048,236.945 553.048,236.945C553.048,236.945 556.199,234.514 558.588,234.452C560.976,234.39 565.32,236.144 567.815,238.787C570.311,241.429 576.225,243.66 578.199,243.395C580.173,243.129 585.461,246.918 587.152,249.336C588.843,251.754 595.295,258.049 601.158,259.101C607.02,260.152 609.759,264.67 610.531,271.729C611.304,278.788 611.845,278.672 615.054,281.044C618.264,283.415 625.124,289.25 627.108,296.379C629.092,303.509 632.497,313.27 635.324,315.589C635.324,315.589 640.095,323.071 645.315,325.19C650.534,327.308 650.271,331.824 650.719,334.911C651.168,337.999 651.601,341.922 649.742,343.9C647.882,345.878 646.403,350.212 649.233,359.596C652.063,368.98 652.687,367.078 652.719,374.991C652.75,382.904 653.762,382.478 656.767,384.32C659.771,386.161 663.775,386.265 663.34,392.795C662.905,399.324 663.37,399.309 666.529,405.493C669.688,411.676 671.557,418.895 670.677,424.359C669.796,429.823 666.998,430.302 666.061,436.922C665.125,443.543 668.01,443.602 671.137,451.473C674.264,459.344 678.649,462.892 679.487,466.741C680.325,470.59 686.249,482.425 688.681,484.899C691.113,487.373 693.31,492.066 695.381,496.254C697.452,500.442 700.388,501.704 700.72,505.281C701.053,508.858 699.856,513.755 697.779,515.907C695.702,518.059 696.014,524.544 701.126,532.069C701.9,533.209 702.938,534.444 704.158,535.732C700.33,538.202 694.362,541.936 691.147,543.357C686.166,545.558 679.882,547.755 673.734,550.336C667.587,552.916 651.917,549.514 646.444,548.231C640.971,546.948 634.202,542.68 630.435,542.114C626.667,541.549 621.263,540.407 618.927,539.463C616.591,538.519 614.994,536.955 609.538,536.208C604.083,535.461 593.966,533.001 593.966,533.001C593.966,533.001 577.564,529.992 570.713,530.257C563.863,530.523 560.628,527.963 549.207,528.329C537.786,528.695 535.622,526.367 533.081,524.186C530.54,522.006 536.348,512.807 536.261,507.196C536.174,501.585 532.043,497.127 531.03,495.562C530.017,493.997 523.246,489.285 520.517,488.555C517.789,487.825 517.829,485.935 515.631,483.815C513.433,481.695 507.946,477.943 507.508,476.848C507.07,475.753 503.46,474.896 490.631,469.328C477.803,463.761 480.132,456.707 480.107,453.759C480.081,450.811 477.68,439.245 476.045,433.516C474.411,427.786 462.671,420.023 455.735,418.346C448.799,416.669 451.118,412.474 447.778,410.575C445.864,409.486 441.848,405.918 438.77,403.071Z" style="fill:rgb(190,190,190);stroke:white;stroke-width:1.56px;"/>
    </g>
</svg>
