<?xml version="1.0" encoding="UTF-8" standalone="no"?>
<!DOCTYPE svg PUBLIC "-//W3C//DTD SVG 1.1//EN" "http://www.w3.org/Graphics/SVG/1.1/DTD/svg11.dtd">
<svg width="100%" height="100%" viewBox="0 0 453 377" version="1.1" xmlns="http://www.w3.org/2000/svg" xmlns:xlink="http://www.w3.org/1999/xlink" xml:space="preserve" style="fill-rule:evenodd;clip-rule:evenodd;stroke-linecap:round;stroke-linejoin:round;stroke-miterlimit:1.5;">
    <g id="marang" transform="matrix(1,0,0,1,-244.692,-526.669)">
        <path d="M683.803,889.17C681.878,889.201 675.807,889.296 668.262,889.362C659.079,889.443 639.54,888.316 630.073,887.854C620.606,887.393 615.619,891.791 608.546,894.488C601.472,897.185 580.464,902.721 572.896,902.208C565.328,901.696 554.961,899.267 548.747,894.345C542.534,889.422 539.002,891.138 533.318,889.755C527.633,888.373 522.044,884.314 517.066,883.583C512.089,882.852 501.703,875.781 493.262,872.281C484.821,868.782 474.572,857.942 468.223,851.983C461.874,846.023 460.444,840.667 455.779,834.102C451.114,827.537 443.894,833.384 440.049,834.99C436.205,836.597 432.272,832.771 429.877,832.411C427.482,832.052 425.352,829.725 419.444,827.224C413.536,824.722 405.247,828.145 400.381,829.307C395.516,830.469 394.547,828.335 393.873,827.196C393.2,826.057 390.576,825.157 388.694,825.744C386.812,826.332 384.585,824.507 381.858,822.398C379.131,820.29 376.844,819.947 375.413,818.989C373.983,818.031 372.126,817.262 369.963,818.591C367.799,819.921 365.865,820.106 363.663,822.542C361.461,824.978 358.394,824.097 356.383,827.119C354.371,830.14 360.04,831.947 361.06,834.47C362.08,836.994 358.098,837.157 355.009,836.904C351.919,836.651 348.36,840.317 345.382,840.373C342.404,840.429 338.851,839.046 338.341,838.06C337.831,837.073 338.55,835.366 340.025,833.304C341.499,831.242 339.529,831.749 337.057,831.46C334.585,831.172 332.551,832.946 329.768,832.52C326.984,832.095 325.422,833.504 324.864,836.719C324.305,839.935 328.012,840.42 329.69,843.375C331.368,846.329 324.883,846.79 323.118,844.267C321.352,841.744 317.183,834.996 315.519,833.485C313.856,831.975 312.39,828.834 317.323,826.956C322.257,825.077 320.318,821.754 319.761,818.935C319.203,816.116 309.803,816.71 307.436,816.787C305.069,816.863 301.822,817.017 299.799,819.736C297.777,822.455 300.534,822.764 301.759,826.468C302.983,830.172 299.367,831.012 298.648,832.113C297.929,833.214 294.914,831.691 291.824,828.721C288.735,825.752 293.742,820.111 293.666,816.446C293.591,812.781 290.914,813.038 286.722,811.506C282.529,809.974 280.334,815.989 277.99,819.732C275.646,823.474 273.723,823.582 269.759,823.854C265.795,824.126 265.275,822.94 263.977,822.069C262.679,821.198 264.019,817.577 264.493,814.571C264.967,811.564 264.493,810.357 263.443,807.789C262.392,805.22 258.099,803.122 256.472,800.911C254.844,798.7 254.121,797.24 252.8,794.352C252.094,792.808 250.169,790.224 248.53,788.152C248.766,787.895 248.911,787.616 248.968,787.299C249.225,785.848 249.918,784.796 251.491,781.477C253.064,778.158 254.42,770.409 252.57,765.997C250.719,761.585 249.648,760.83 250.068,759.615C250.488,758.399 246.834,759.378 246.543,757.569C246.252,755.759 244.911,748.604 245.805,743.596C246.699,738.588 248.02,733.464 249.676,726.816C251.332,720.169 251.304,719.172 251.399,717.574C251.494,715.975 253.349,712.226 259.042,706.742C264.735,701.257 264.467,698.076 266.091,691.878C267.715,685.68 270.664,684.828 270.874,680.48C271.085,676.133 271.058,675.767 272.085,669.581C273.111,663.396 275.459,653.418 276.372,650.258C277.286,647.098 283.245,640.569 283.245,640.569C283.245,640.569 298.447,626.26 302.353,621.572C306.259,616.885 318.993,607.717 318.993,607.717C318.993,607.717 321.298,603.206 324.568,599.776C327.839,596.345 336.376,586.765 337.388,585.69C338.399,584.615 342.548,582.305 342.548,582.305C342.548,582.305 345.061,576.582 351.909,568.299C358.758,560.017 364.354,549.538 366.604,544.576C368.419,540.575 370.723,533.396 371.141,528.362C377.161,531.438 385.147,536.112 388.757,540.807C394.939,548.847 409.892,556.314 413.935,558.484C417.978,560.655 421.76,562.095 433.107,586.185C444.454,610.276 451.744,623.484 460.001,624.692C468.258,625.901 488.075,628.809 495.424,627.836C502.773,626.863 513.037,637.702 513.037,637.702C513.037,637.702 523.76,642.393 531.388,649.245C539.017,656.098 554.869,665.189 558.797,671.955C562.725,678.721 572.494,688.272 573.916,690.336C575.338,692.401 577.201,694.989 577.28,697.804C577.36,700.619 579.681,701.726 580.583,706.102C581.485,710.478 584.172,724.09 586.757,723.859C589.342,723.628 594.769,722.128 594.371,721.222C593.972,720.316 592.34,716.54 591.31,715.714C590.28,714.887 592.27,711.461 596.199,716.033C600.128,720.604 604.04,722.727 604.04,722.727C604.04,722.727 602.552,725.547 605.32,727.212C608.087,728.877 612.892,729.791 612.892,729.791C612.892,729.791 613.541,735.155 616.016,738.536C618.491,741.916 620.008,743.249 619.849,745.067C619.689,746.886 617.884,747.039 616.419,747.924C614.955,748.808 612.516,752.714 612.436,754.137C612.357,755.56 608.223,756.289 607.606,758.641C606.989,760.992 603.326,761.113 606.002,764.333C608.678,767.553 611.118,767.1 613.884,768.521C616.65,769.942 626.636,774.647 627.011,777.108C627.386,779.569 625.154,780.949 627.841,781.871C630.527,782.794 633.826,782.729 636.533,782.794C639.241,782.858 647.014,788.771 649.599,792.741C652.183,796.71 664.235,801.379 667.524,801.675C670.813,801.971 673.95,803.488 675.161,801.342C676.372,799.196 677.009,796.245 679.208,800.925C681.406,805.605 681.187,808.347 678.053,809.922C674.919,811.496 668.655,815.65 669.757,816.658C670.859,817.667 668.869,820.222 672.258,821.549C675.646,822.875 683.361,821.626 684.695,821.784C686.029,821.943 688.306,822.845 687.45,824.678C686.593,826.511 685.755,828.151 686.245,829.16C686.734,830.168 687.347,833.406 690.671,835.889C693.995,838.373 696.394,843.718 696.394,843.718L696.564,843.673L696.401,843.913C696.401,843.913 691.505,844.441 689.845,847.312C688.186,850.183 686.623,851.64 682.139,854.281C677.654,856.923 672.383,861.865 674.502,864.672C676.621,867.48 677.273,868.837 677.946,870.772C678.619,872.707 680.019,873.044 682.399,876.954C684.52,880.44 684.199,886.482 683.803,889.17ZM684.505,892.22L684.502,892.058L684.505,892.22ZM684.484,890.944L684.484,890.991L684.483,890.935L684.484,890.944ZM684.464,889.981L684.465,890.051L684.461,889.838L684.464,889.981ZM684.452,889.491L684.444,889.159C684.444,889.159 684.447,889.274 684.452,889.491ZM245.541,789.698L245.473,789.721L245.658,789.657L245.541,789.698ZM246.171,789.472L246.014,789.53L246.21,789.457L246.171,789.472ZM246.366,789.397L246.285,789.428L246.44,789.368L246.366,789.397ZM246.555,789.323L246.513,789.339L246.683,789.271L246.555,789.323ZM247.077,789.1L246.981,789.143L247.12,789.08L247.077,789.1ZM247.237,789.026L247.185,789.05L247.311,788.989L247.237,789.026ZM247.389,788.95L247.377,788.957L247.404,788.943L247.389,788.95ZM247.535,788.875L247.534,788.875L247.535,788.875L247.535,788.875ZM247.674,788.799L247.66,788.806L247.685,788.792L247.674,788.799ZM247.805,788.722L247.803,788.723L247.811,788.718L247.805,788.722ZM247.93,788.644L247.917,788.652L247.937,788.639L247.93,788.644ZM248.047,788.565L248.042,788.569L248.057,788.558L248.047,788.565ZM248.158,788.485L248.148,788.492L248.162,788.482L248.158,788.485ZM248.261,788.404L248.254,788.409L248.27,788.396L248.261,788.404ZM248.358,788.322L248.354,788.325L248.359,788.321L248.358,788.322ZM248.447,788.238L248.44,788.245L248.463,788.222L248.447,788.238ZM248.49,788.195L248.483,788.202L248.516,788.168L248.49,788.195ZM371.159,528.137L371.158,528.149L371.161,528.11L371.159,528.137ZM371.196,527.479L371.193,527.563L371.197,527.45L371.196,527.479Z" style="fill:rgb(205,136,91);stroke:white;stroke-width:1.56px;"/>
    </g>
</svg>
