<?xml version="1.0" encoding="UTF-8" standalone="no"?>
<!DOCTYPE svg PUBLIC "-//W3C//DTD SVG 1.1//EN" "http://www.w3.org/Graphics/SVG/1.1/DTD/svg11.dtd">
<svg width="100%" height="100%" viewBox="0 0 415 400" version="1.1" xmlns="http://www.w3.org/2000/svg" xmlns:xlink="http://www.w3.org/1999/xlink" xml:space="preserve" style="fill-rule:evenodd;clip-rule:evenodd;stroke-linecap:round;stroke-linejoin:round;stroke-miterlimit:1.5;">
    <g id="minasatene" transform="matrix(1,0,0,1,-372.724,-1051.13)">
        <path d="M762.63,1286.48C760.856,1287.09 755.167,1289.09 747.603,1292.37C738.416,1296.36 727.632,1300.75 720.967,1302.07C714.302,1303.39 707.659,1306.98 703.346,1315.8C699.034,1324.63 691.778,1337.23 687.483,1340.75C683.188,1344.26 678.525,1345.43 675.206,1345.24C671.888,1345.05 671.916,1343.77 670.421,1346.71C668.927,1349.64 669.586,1349.54 666.737,1349.72C663.888,1349.89 662.965,1349.42 663.117,1352.07C663.27,1354.71 664.515,1355.22 661.019,1356.04C657.523,1356.87 655.629,1356.8 656.223,1360.91C656.818,1365.02 652.674,1363.74 646.303,1362.91C639.933,1362.08 612.254,1357.34 605.933,1356.59C599.612,1355.84 585.725,1351.83 582.315,1359.84C578.904,1367.85 580.431,1373.49 580.431,1373.49L580.238,1387.63L580.237,1393.11C579.977,1393.74 579.195,1394.61 576.89,1394.85C573.136,1395.24 570.809,1393.76 568.234,1393.44C565.658,1393.12 562.072,1394.81 562.072,1394.81C562.072,1394.81 557.176,1395.82 555.008,1396.26C552.839,1396.7 551.802,1396.77 552.512,1393.79C553.222,1390.81 552.269,1388.32 552.269,1388.32C552.269,1388.32 547.557,1390.7 547.217,1393.37C546.876,1396.03 547.475,1400.11 547.942,1400.86C548.409,1401.6 551.844,1405.29 549.726,1405.74C547.608,1406.19 545.607,1409.54 544.108,1407.81C542.609,1406.08 537.409,1404.42 537.409,1405.18C537.409,1405.95 537.988,1405.46 539.235,1408.27C540.482,1411.07 539.532,1412.66 542.648,1412.51C545.764,1412.36 550.341,1413.69 550.341,1413.69C550.341,1413.69 542.895,1418.84 538.985,1420.13C535.074,1421.42 534.249,1423.84 531.761,1423.68C529.273,1423.53 529.09,1423.25 528.863,1424.24C528.636,1425.22 526.947,1426.02 528.989,1427.04C531.03,1428.06 539.864,1431.46 539.733,1434.08C539.601,1436.69 540.435,1438.58 537.198,1437.68C533.961,1436.77 530.666,1433.58 528.624,1433.81C526.583,1434.04 523.65,1436.12 523.701,1437.12C523.753,1438.12 524.24,1440.11 526.161,1441.19C528.082,1442.27 532.299,1442.98 531.964,1444.75C531.629,1446.52 530.586,1450.6 528.119,1449.72C525.653,1448.85 520.753,1447.62 520.753,1447.62C520.753,1447.62 516.707,1440.7 513.016,1438.43C509.325,1436.17 504.601,1432.19 504.644,1429.4C504.688,1426.6 505.975,1425.38 506.908,1423.41C507.841,1421.44 509.352,1418.77 501.149,1416.88C492.946,1414.99 490.976,1418.87 490.201,1420.72C489.427,1422.58 487.167,1433.32 487.459,1435.79C487.752,1438.25 489.285,1444.08 482.6,1444.47C475.915,1444.86 474.765,1448.13 472.303,1448.66C469.84,1449.19 466.775,1446.5 465.187,1445.09C463.599,1443.69 460.565,1442.6 458.377,1444.11C456.189,1445.62 451.23,1450.05 445.36,1447C439.489,1443.95 433.421,1441.34 432.65,1439.32C431.88,1437.29 432.256,1431.28 433.923,1430.58C435.589,1429.89 439.079,1427.16 441.702,1428.12C444.325,1429.07 449.047,1429.93 447.436,1425.41C445.826,1420.88 434.225,1421.41 430.744,1423.72C427.263,1426.03 421.669,1427.72 419.523,1421.02C417.377,1414.33 414.643,1405.64 407.302,1402.88C399.961,1400.11 397.104,1405.05 393.077,1406.1C389.05,1407.15 386.353,1404.53 384.69,1403.05C384.647,1403.01 384.601,1402.96 384.553,1402.92C384.652,1401.29 384.256,1399.13 382.448,1396.73C378.532,1391.55 370.99,1385.78 374.343,1383.57C377.695,1381.36 390.755,1378.27 394.815,1378.53C398.875,1378.79 400.742,1373.01 400.489,1368.88C400.237,1364.75 402.528,1360.63 405.078,1364.25C407.628,1367.87 410.78,1368.97 414.129,1368.65C417.479,1368.33 423.222,1370.13 424.017,1365.93C424.813,1361.73 430.74,1356.29 439.442,1356.12C448.144,1355.96 450.084,1351.28 446.114,1347.99C442.144,1344.69 443.138,1339.89 447.132,1341.06C451.125,1342.24 458.658,1343.39 458.126,1339.49C457.595,1335.58 453.13,1336.59 453.269,1334.8C453.408,1333.02 449.978,1330.77 452.104,1328.54C454.229,1326.31 455.075,1331.65 456.306,1328.59C457.537,1325.53 457.428,1324.67 458.92,1324.53C460.412,1324.39 465.317,1325.16 466.41,1323.03C467.503,1320.89 471.225,1318.76 472.751,1316.77C474.277,1314.78 474.265,1310.5 474.206,1308.29C474.147,1306.09 478.872,1306.33 474.106,1302.42C469.341,1298.52 462.779,1297.68 459.672,1294.58C456.564,1291.48 453.928,1293.53 453.696,1290.71C453.464,1287.9 453.451,1283.81 450.607,1285.17C447.762,1286.54 447.46,1284.88 445.97,1281.34C444.48,1277.8 441.349,1276.1 435.064,1275.71C428.779,1275.32 426.402,1275.61 423.707,1273.09C421.013,1270.58 411.512,1260.72 407.805,1258.39C404.099,1256.06 394.803,1245.3 394.234,1243.84C393.666,1242.38 397.28,1239.1 397.885,1236.39C398.489,1233.69 402.059,1223.22 401.986,1221.05C401.912,1218.88 404.07,1217.89 409.877,1220.01C415.684,1222.13 424.443,1221.92 426.114,1224.1C427.784,1226.27 439.446,1231.02 443.121,1234.18C446.797,1237.34 456.349,1238.72 457.285,1235.58C458.221,1232.45 459.751,1224.27 460.615,1221.33C461.479,1218.39 462.928,1209.62 473.422,1208.58C483.917,1207.53 486.709,1204.7 494.483,1198.27C502.258,1191.84 510.012,1184.5 510.311,1177.27C510.611,1170.04 513.973,1163 510.175,1161.32C506.378,1159.64 490.632,1148.89 484.546,1147.38C478.461,1145.86 460.513,1142.79 456.076,1138.59C452.77,1135.47 445.552,1131.68 441.962,1127.48C442.221,1127.39 442.361,1127.35 442.361,1127.35C442.361,1127.35 442.965,1119.83 448.068,1119.45C453.171,1119.07 459.644,1108.58 463.811,1107.74C467.979,1106.9 477.795,1097.78 480.42,1092.97C483.044,1088.17 490.969,1080.66 495.071,1077.2C499.172,1073.74 505.454,1066.57 509.99,1067.15C514.527,1067.73 517.272,1070.91 519.836,1070.78C522.399,1070.65 523.925,1069.65 525.486,1069.72C527.048,1069.79 528.672,1066.67 531.017,1067.43C533.361,1068.19 535.895,1068.18 536.38,1066.17C536.866,1064.17 545.821,1060.19 545.821,1058.15C545.821,1056.12 546.769,1052.05 549.3,1052.21C551.831,1052.38 553.265,1050.88 553.974,1053.31C554.682,1055.73 557.79,1056.49 559.853,1054.55C561.916,1052.61 564.601,1051.08 567.589,1055.53C570.577,1059.99 567.335,1062.93 573.515,1064.71C579.695,1066.5 579.361,1071.77 579.496,1073.87C579.63,1075.98 583.797,1078.22 585.747,1077.62C587.696,1077.03 587.688,1078.98 589.477,1077.9C591.266,1076.83 594.098,1076.54 596.258,1077.93C598.419,1079.31 599.862,1080.17 602.098,1079.23C604.334,1078.29 608.319,1079.39 608.791,1080C609.264,1080.61 615.297,1081.57 622.061,1081.57C628.824,1081.58 637.736,1075.56 643.04,1077.58C648.344,1079.59 657.404,1086.55 661.143,1088.88C664.883,1091.21 677.674,1092.46 681.545,1091.57C685.416,1090.67 692.838,1088.73 696.61,1092.88C697.044,1093.36 697.593,1093.75 698.227,1094.07C700.683,1099.75 706.711,1107.76 710.47,1110.85C714.911,1114.5 722.125,1118.67 723.601,1123.6C725.076,1128.54 728.686,1134.15 733.127,1139.66C737.569,1145.17 739.823,1155.15 742.75,1169.49C745.678,1183.83 745.338,1195.21 750.332,1206.54C755.326,1217.87 762.17,1224.08 765.127,1230.7C768.085,1237.32 781.788,1261.48 785.457,1266.29C789.127,1271.1 781.965,1275.49 779.279,1280.09C777.407,1283.29 770.021,1285.09 765.716,1285.88L763.211,1286.29L763.177,1286.3C762.779,1286.36 762.555,1286.38 762.555,1286.38L762.63,1286.48Z" style="fill:rgb(82,41,183);stroke:white;stroke-width:1.56px;"/>
    </g>
</svg>
