<?xml version="1.0" encoding="UTF-8" standalone="no"?>
<!DOCTYPE svg PUBLIC "-//W3C//DTD SVG 1.1//EN" "http://www.w3.org/Graphics/SVG/1.1/DTD/svg11.dtd">
<svg width="100%" height="100%" viewBox="0 0 331 284" version="1.1" xmlns="http://www.w3.org/2000/svg" xmlns:xlink="http://www.w3.org/1999/xlink" xml:space="preserve" style="fill-rule:evenodd;clip-rule:evenodd;stroke-linecap:round;stroke-linejoin:round;stroke-miterlimit:1.5;">
    <g id="pangkajene" transform="matrix(1,0,0,1,-182.159,-1126.57)">
        <path d="M441.962,1127.48C445.552,1131.68 452.77,1135.47 456.076,1138.59C460.513,1142.79 478.461,1145.86 484.546,1147.38C490.632,1148.89 506.378,1159.64 510.175,1161.32C513.973,1163 510.611,1170.04 510.311,1177.27C510.012,1184.5 502.258,1191.84 494.483,1198.27C486.709,1204.7 483.917,1207.53 473.422,1208.58C462.928,1209.62 461.479,1218.39 460.615,1221.33C459.751,1224.27 458.221,1232.45 457.285,1235.58C456.349,1238.72 446.797,1237.34 443.121,1234.18C439.446,1231.02 427.784,1226.27 426.114,1224.1C424.443,1221.92 415.684,1222.13 409.877,1220.01C404.07,1217.89 401.912,1218.88 401.986,1221.05C402.059,1223.22 398.489,1233.69 397.885,1236.39C397.28,1239.1 393.666,1242.38 394.234,1243.84C394.803,1245.3 404.099,1256.06 407.805,1258.39C411.512,1260.72 421.013,1270.58 423.707,1273.09C426.402,1275.61 428.779,1275.32 435.064,1275.71C441.349,1276.1 444.48,1277.8 445.97,1281.34C447.46,1284.88 447.762,1286.54 450.607,1285.17C453.451,1283.81 453.464,1287.9 453.696,1290.71C453.928,1293.53 456.564,1291.48 459.672,1294.58C462.779,1297.68 469.341,1298.52 474.106,1302.42C478.872,1306.33 474.147,1306.09 474.206,1308.29C474.265,1310.5 474.277,1314.78 472.751,1316.77C471.225,1318.76 467.503,1320.89 466.41,1323.03C465.317,1325.16 460.412,1324.39 458.92,1324.53C457.428,1324.67 457.537,1325.53 456.306,1328.59C455.075,1331.65 454.229,1326.31 452.104,1328.54C449.978,1330.77 453.408,1333.02 453.269,1334.8C453.13,1336.59 457.595,1335.58 458.126,1339.49C458.658,1343.39 451.125,1342.24 447.132,1341.06C443.138,1339.89 442.144,1344.69 446.114,1347.99C450.084,1351.28 448.144,1355.96 439.442,1356.12C430.74,1356.29 424.813,1361.73 424.017,1365.93C423.222,1370.13 417.479,1368.33 414.129,1368.65C410.78,1368.97 407.628,1367.87 405.078,1364.25C402.528,1360.63 400.237,1364.75 400.489,1368.88C400.742,1373.01 398.875,1378.79 394.815,1378.53C390.755,1378.27 377.695,1381.36 374.343,1383.57C370.99,1385.78 378.532,1391.55 382.448,1396.73C384.256,1399.13 384.652,1401.29 384.553,1402.92L384.617,1402.98L384.553,1402.92L384.553,1402.92C382.773,1401.21 378.015,1394.88 369.602,1399.98C360.963,1405.21 365.735,1404.93 357.845,1404.32C349.956,1403.71 347.807,1405.09 344.713,1406.44C341.619,1407.79 339.045,1408.3 333.984,1406.22C328.923,1404.13 327.349,1400.57 314.368,1403.13C301.387,1405.69 305.041,1409.94 298.512,1409.77C291.984,1409.6 288.181,1409 287.038,1401.94C285.896,1394.88 288.81,1384.26 271.952,1377.6C255.094,1370.93 263.313,1370.14 258.547,1366.03C253.782,1361.91 245.909,1355.59 242.735,1348.98C239.56,1342.38 237.849,1332.25 237.849,1332.25C237.849,1332.25 228.444,1332.79 220.243,1326.48C212.042,1320.17 208.995,1318.8 209.046,1316.57C209.098,1314.35 209.036,1312.53 209.036,1312.53C209.036,1312.53 203.927,1309.34 204.356,1304.68C204.784,1300.02 208.579,1288.5 205.233,1279.73C201.887,1270.95 198.318,1264.56 193.377,1261.57C188.437,1258.59 188.955,1255.46 190.106,1254.78C191.257,1254.11 186.507,1252.06 187.996,1250.42C189.486,1248.79 193.597,1242.4 191.92,1232.08C190.243,1221.77 186.317,1214.37 184.562,1211.96C182.807,1209.54 181.606,1204.4 185.715,1203.26C186.517,1203.03 186.98,1202.64 187.207,1202.16L187.768,1201.94C187.768,1201.94 192.17,1204.55 197.889,1214.57C203.608,1224.6 208.643,1226.58 213.931,1227.45C219.219,1228.32 224.799,1235.13 232.872,1233.73C240.944,1232.33 251.651,1222.36 257.265,1217.8C262.878,1213.24 264.021,1202.39 268.464,1203.76C272.907,1205.12 274.154,1204.7 274.462,1202.05C274.77,1199.39 278.114,1200.96 278.882,1198.86C279.65,1196.75 279.623,1193.53 281.943,1193.45C284.263,1193.37 290.568,1190.37 291.171,1188.74C291.774,1187.11 294.518,1188.32 295.801,1189.27C297.084,1190.21 299.255,1187.49 300.559,1189.14C301.863,1190.8 302.301,1195.23 311.923,1189.61C321.545,1184 338.67,1175.59 343.667,1172.53C348.664,1169.46 368.44,1155.53 379.496,1152.62C390.552,1149.72 415.408,1139.54 423.541,1135.11C431.674,1130.68 442.361,1127.35 442.361,1127.35L441.962,1127.48ZM187.229,1202.12L187.214,1202.15L187.231,1202.11L187.229,1202.12ZM187.248,1202.07L187.24,1202.09L187.254,1202.05L187.248,1202.07ZM187.267,1202.02L187.262,1202.03L187.275,1202L187.267,1202.02ZM187.284,1201.97L187.282,1201.98L187.286,1201.96L187.284,1201.97ZM187.313,1201.87L187.311,1201.88L187.314,1201.87L187.313,1201.87ZM187.338,1201.77L187.336,1201.78L187.339,1201.76L187.338,1201.77ZM187.357,1201.67L187.357,1201.67L187.357,1201.67L187.357,1201.67ZM187.37,1201.56L187.369,1201.58L187.371,1201.56L187.37,1201.56ZM187.38,1201.46L187.379,1201.46L187.38,1201.45L187.38,1201.46ZM187.384,1201.35L187.383,1201.36L187.384,1201.35L187.384,1201.35ZM187.383,1201.24L187.383,1201.25L187.383,1201.23L187.383,1201.24ZM187.379,1201.13L187.379,1201.13L187.378,1201.12L187.379,1201.13ZM187.37,1201.02L187.371,1201.03L187.369,1201.01L187.37,1201.02Z" style="fill:rgb(69,197,111);stroke:white;stroke-width:1.56px;"/>
    </g>
</svg>
