<?xml version="1.0" encoding="UTF-8" standalone="no"?>
<!DOCTYPE svg PUBLIC "-//W3C//DTD SVG 1.1//EN" "http://www.w3.org/Graphics/SVG/1.1/DTD/svg11.dtd">
<svg width="100%" height="100%" viewBox="0 0 398 443" version="1.1" xmlns="http://www.w3.org/2000/svg" xmlns:xlink="http://www.w3.org/1999/xlink" xml:space="preserve" style="fill-rule:evenodd;clip-rule:evenodd;stroke-linecap:round;stroke-linejoin:round;stroke-miterlimit:1.5;">
    <g id="sigeri" transform="matrix(1,0,0,1,-369.051,-402.253)">
        <path d="M438.595,404.251C438.595,404.251 438.817,402.786 438.77,403.071C441.848,405.918 445.864,409.486 447.778,410.575C451.118,412.474 448.799,416.669 455.735,418.346C462.671,420.023 474.411,427.786 476.045,433.516C477.68,439.245 480.081,450.811 480.107,453.759C480.132,456.707 477.803,463.761 490.631,469.328C503.46,474.896 507.07,475.753 507.508,476.848C507.946,477.943 513.433,481.695 515.631,483.815C517.829,485.935 517.789,487.825 520.517,488.555C523.246,489.285 530.017,493.997 531.03,495.562C532.043,497.127 536.174,501.585 536.261,507.196C536.348,512.807 530.54,522.006 533.081,524.186C535.622,526.367 537.786,528.695 549.207,528.329C560.628,527.963 563.863,530.523 570.713,530.257C577.564,529.992 593.966,533.001 593.966,533.001C593.966,533.001 604.083,535.461 609.538,536.208C614.994,536.955 616.591,538.519 618.927,539.463C621.263,540.407 626.667,541.549 630.435,542.114C634.202,542.68 640.971,546.948 646.444,548.231C651.917,549.514 667.587,552.916 673.734,550.336C679.882,547.755 686.166,545.558 691.147,543.357C694.362,541.936 700.33,538.202 704.158,535.732C710.995,542.952 723.548,551.825 727.366,554.659C731.866,558 746.773,569.227 749.619,571.083C752.465,572.939 763.745,576.29 764.937,583.712C766.129,591.134 765.688,591.236 761.711,600.461C757.734,609.686 756.751,613.434 756.115,616.489C755.48,619.545 751.203,625.138 744.812,630.838C738.421,636.538 737.047,642.149 734.503,653.217C731.96,664.285 729.022,666.327 728.468,673.081C727.914,679.834 727.019,679.967 732.214,684.589C737.409,689.21 739.009,694.952 739.009,694.952C739.009,694.952 742.061,702.027 742.874,705.512C743.687,708.998 746.618,718.548 746.993,724.548C747.367,730.547 747.411,735.914 747.178,737.552C746.946,739.19 747.721,744.142 742.16,746.658C736.599,749.173 733.865,751.366 734.995,759.764C736.124,768.163 737.529,773.319 736.869,777.56C736.21,781.8 737.358,784.554 739.068,786.614C740.778,788.674 746.749,797.623 747.22,803.121C747.69,808.62 748.102,808.862 749.308,812.028C750.289,814.602 752.18,815.201 752.852,815.335C752.863,816.133 752.959,816.891 753.166,817.578C754.72,822.745 750.527,823.925 748.225,824.208C745.923,824.492 739.423,829.622 736.339,831.399C733.255,833.176 725.699,833.684 718.538,836.742C711.376,839.8 696.394,843.718 696.394,843.718C696.394,843.718 693.995,838.373 690.671,835.889C687.347,833.406 686.734,830.168 686.245,829.16C685.755,828.151 686.593,826.511 687.45,824.678C688.306,822.845 686.029,821.943 684.695,821.784C683.361,821.626 675.646,822.875 672.258,821.549C668.869,820.222 670.859,817.667 669.757,816.658C668.655,815.65 674.919,811.496 678.053,809.922C681.187,808.347 681.406,805.605 679.208,800.925C677.009,796.245 676.372,799.196 675.161,801.342C673.95,803.488 670.813,801.971 667.524,801.675C664.235,801.379 652.183,796.71 649.599,792.741C647.014,788.771 639.241,782.858 636.533,782.794C633.826,782.729 630.527,782.794 627.841,781.871C625.154,780.949 627.386,779.569 627.011,777.108C626.636,774.647 616.65,769.942 613.884,768.521C611.118,767.1 608.678,767.553 606.002,764.333C603.326,761.113 606.989,760.992 607.606,758.641C608.223,756.289 612.357,755.56 612.436,754.137C612.516,752.714 614.955,748.808 616.419,747.924C617.884,747.039 619.689,746.886 619.849,745.067C620.008,743.249 618.491,741.916 616.016,738.536C613.541,735.155 612.892,729.791 612.892,729.791C612.892,729.791 608.087,728.877 605.32,727.212C602.552,725.547 604.04,722.727 604.04,722.727C604.04,722.727 600.128,720.604 596.199,716.033C592.27,711.461 590.28,714.887 591.31,715.714C592.34,716.54 593.972,720.316 594.371,721.222C594.769,722.128 589.342,723.628 586.757,723.859C584.172,724.09 581.485,710.478 580.583,706.102C579.681,701.726 577.36,700.619 577.28,697.804C577.201,694.989 575.338,692.401 573.916,690.336C572.494,688.272 562.725,678.721 558.797,671.955C554.869,665.189 539.017,656.098 531.388,649.245C523.76,642.393 513.037,637.702 513.037,637.702C513.037,637.702 502.773,626.863 495.424,627.836C488.075,628.809 468.258,625.901 460.001,624.692C451.744,623.484 444.454,610.276 433.107,586.185C421.76,562.095 417.978,560.655 413.935,558.484C409.892,556.314 394.939,548.847 388.757,540.807C385.147,536.112 377.161,531.438 371.141,528.362C371.243,527.152 371.235,526.066 371.085,525.178C370.311,520.595 368.674,515.004 371.138,513.22C373.601,511.436 375.056,509.185 377.869,509.149C380.682,509.114 377.555,506.093 377.555,506.093C377.555,506.093 373.819,502.861 378.173,499.422C382.527,495.983 394.964,484.412 401.703,471.921C408.443,459.43 416.34,444.541 417.966,443.955C419.593,443.369 418.417,439.019 419.473,437.659C420.529,436.298 432.772,414.519 434.207,410.806C435.641,407.093 438.595,404.251 438.595,404.251Z" style="fill:rgb(211,67,132);stroke:white;stroke-width:1.56px;"/>
    </g>
</svg>
