<?xml version="1.0" encoding="UTF-8" standalone="no"?>
<!DOCTYPE svg PUBLIC "-//W3C//DTD SVG 1.1//EN" "http://www.w3.org/Graphics/SVG/1.1/DTD/svg11.dtd">
<svg width="100%" height="100%" viewBox="0 0 581 352" version="1.1" xmlns="http://www.w3.org/2000/svg" xmlns:xlink="http://www.w3.org/1999/xlink" xml:space="preserve" style="fill-rule:evenodd;clip-rule:evenodd;stroke-linecap:round;stroke-linejoin:round;stroke-miterlimit:1.5;">
    <g id="tondongtalasa" transform="matrix(1,0,0,1,-697.446,-1037.61)">
        <path d="M875.294,1039.39C875.515,1040.83 875.588,1042.3 875.493,1043.62C875.214,1047.46 874.712,1051.96 874.984,1053.68C875.256,1055.4 875.242,1060.62 876.341,1061.5C877.441,1062.37 879.265,1067.21 879.265,1071.39C879.265,1075.57 882.003,1076.98 884.506,1079.41C887.009,1081.83 890.216,1087.77 891.371,1089.6C892.526,1091.43 894.506,1092.77 896.99,1093.36C899.474,1093.95 905.518,1096.67 912.001,1102.86C918.485,1109.05 926.069,1113.11 927.035,1114.45C928.001,1115.79 932.953,1118.05 933.65,1123.78C934.347,1129.51 935.827,1131.27 938.841,1132.79C941.855,1134.31 941.781,1133.51 941.934,1137.18C942.087,1140.85 941.539,1143.65 946.792,1144.43C952.045,1145.22 956.475,1148.31 958.047,1151.85C959.618,1155.38 963.46,1156.24 965.557,1154.11C967.655,1151.97 972.369,1152.51 973.532,1153.93C974.694,1155.36 975.651,1156.02 975.568,1158.69C975.486,1161.36 977.379,1162.34 979.149,1161.25C980.919,1160.16 983.086,1154.52 983.893,1149.84C984.7,1145.15 985.379,1141.68 996.979,1134.34C1008.58,1127.01 1008.18,1124.26 1012.32,1122.5C1016.47,1120.74 1025.17,1114.76 1029.75,1111.71C1034.32,1108.66 1041.84,1101.92 1046.83,1098.53C1051.82,1095.14 1058.4,1094.57 1061.49,1094.4C1064.58,1094.24 1076.17,1095.04 1079.77,1095C1083.37,1094.96 1087.87,1095.86 1090.59,1096.49C1093.3,1097.11 1098.51,1100.98 1102.49,1101.02C1106.46,1101.06 1110.15,1107.35 1110.15,1107.35C1110.15,1107.35 1112.92,1110.83 1110.84,1113.06C1108.75,1115.29 1109.22,1122.44 1109.22,1122.44C1109.22,1122.44 1109.75,1128.23 1110.99,1129.66C1112.22,1131.08 1112.77,1133.37 1112.77,1133.37C1112.77,1133.37 1115.12,1135.46 1115.85,1132.75C1116.58,1130.03 1116.91,1127.41 1118.59,1129.11C1120.26,1130.82 1123.49,1132.78 1123.09,1136.04C1122.69,1139.3 1122.33,1141.12 1119.69,1142.12C1117.06,1143.11 1116.85,1145.75 1117.67,1149.69C1118.49,1153.63 1120.35,1157.63 1120.65,1159.78C1120.94,1161.92 1121.66,1167.38 1123.59,1166.06C1125.52,1164.74 1130.35,1165.18 1130.35,1165.18C1130.35,1165.18 1134.94,1161.3 1136.04,1161.3C1137.14,1161.3 1136.89,1156.09 1138.47,1155.69C1140.06,1155.29 1143.64,1155.59 1145.57,1153.73C1147.49,1151.86 1145.61,1149.65 1145.61,1149.65C1145.61,1149.65 1149.14,1146.97 1151.51,1146.27C1153.89,1145.58 1161.25,1144.85 1162.12,1141.77C1163,1138.69 1157.94,1134.43 1160.13,1131.95C1162.32,1129.48 1167.55,1131.02 1168.69,1128.48C1169.84,1125.94 1174.84,1119.59 1177.05,1117.42C1179.27,1115.27 1181.99,1113.28 1181.99,1108.69C1181.99,1104.1 1184.01,1102.39 1185.4,1103.02C1186.79,1103.65 1192.07,1104.98 1192.07,1104.98C1192.07,1104.98 1196.17,1107.65 1196.89,1108.95C1197.61,1110.25 1198.21,1111.24 1199.18,1111.24C1200.15,1111.23 1206.95,1110.88 1208.4,1109.97C1209.85,1109.06 1217.01,1110.1 1219.72,1110.95C1222.44,1111.81 1236.68,1115.29 1242.42,1114.16C1248.17,1113.03 1256.66,1113.41 1256.66,1113.41L1263.66,1112.09C1263.66,1112.09 1263.35,1124 1267.58,1133.4C1271.81,1142.8 1277.5,1151.55 1277.65,1155.76C1277.81,1159.98 1275.28,1166.05 1273.78,1167.55C1272.29,1169.05 1270.49,1175.26 1271.11,1178.2C1271.73,1181.14 1267.98,1188.37 1265.62,1195.16C1263.27,1201.95 1260.58,1213.87 1261.17,1222.19C1261.77,1230.51 1261.3,1237.66 1259.45,1238.85C1257.6,1240.03 1251.77,1243.7 1252.26,1254.49C1252.75,1265.28 1255.95,1266.96 1250.06,1271.9C1244.18,1276.83 1241.55,1282.27 1240.46,1287.79C1239.38,1293.31 1238.77,1297.45 1238.77,1297.45C1238.77,1297.45 1238.16,1301.27 1233.51,1304.26C1228.85,1307.26 1225.29,1310.46 1227.61,1318.16C1229.93,1325.87 1233.48,1325.93 1234.72,1337.52C1235.95,1349.1 1244.56,1360.23 1247.54,1362.25C1250.51,1364.26 1257.99,1370.31 1258.47,1380.51C1258.61,1383.56 1258.67,1386.36 1258.69,1388.79C1249.4,1388.56 1232.98,1386.23 1217.78,1374.42C1194.94,1356.66 1210.12,1365.37 1198.89,1354.81C1187.65,1344.24 1171.86,1340.1 1171.86,1340.1C1171.86,1340.1 1155.13,1341.77 1146.15,1337.51C1137.16,1333.25 1119.99,1331.93 1113.13,1330C1106.28,1328.07 1079.32,1318.2 1079.32,1318.2C1079.32,1318.2 1079.2,1327.77 1080.46,1335.94C1081.72,1344.11 1082.22,1352.57 1078.66,1354.24C1075.1,1355.92 1061.82,1362.89 1048.41,1362.15C1034.99,1361.42 1003.23,1366.59 986.336,1371.54C969.445,1376.49 947.038,1379.63 928.69,1374.54C910.341,1369.45 885.544,1365.25 869.574,1363.19C853.604,1361.14 846.253,1360.51 835.208,1359.38C824.162,1358.25 799.858,1354.18 796.891,1353.14C793.924,1352.11 790.914,1337.11 785.544,1330.43C780.175,1323.76 775.14,1309.87 772.388,1302.8C769.635,1295.73 762.555,1286.38 762.555,1286.38C762.555,1286.38 776.594,1284.69 779.279,1280.09C781.965,1275.49 789.127,1271.1 785.457,1266.29C781.788,1261.48 768.085,1237.32 765.127,1230.7C762.17,1224.08 755.326,1217.87 750.332,1206.54C745.338,1195.21 745.678,1183.83 742.75,1169.49C739.823,1155.15 737.569,1145.17 733.127,1139.66C728.686,1134.15 725.076,1128.54 723.601,1123.6C722.125,1118.67 714.911,1114.5 710.47,1110.85C706.711,1107.76 700.683,1099.75 698.227,1094.07C703.1,1096.53 712.916,1094.7 712.916,1094.7C712.916,1094.7 726.086,1095.36 727.468,1088.49C728.85,1081.61 734.725,1067.11 745.224,1066.74C755.723,1066.37 756.198,1073.87 758.713,1074.83C761.228,1075.78 763.126,1083.22 771.308,1070.55C779.489,1057.87 787.404,1046.09 792.878,1045.69C798.352,1045.29 807.464,1043.33 813.347,1044.49C819.23,1045.65 832.859,1050.31 840.912,1049.37C848.964,1048.42 858.979,1048.77 866.449,1043.81C868.9,1042.17 872.1,1040.67 875.294,1039.39ZM875.264,1039.2L875.294,1039.39L875.257,1039.16L875.264,1039.2ZM875.231,1039.01L875.246,1039.1L875.216,1038.92L875.231,1039.01ZM875.197,1038.81L875.204,1038.86L875.164,1038.64L875.197,1038.81ZM875.115,1038.39C875.131,1038.47 875.146,1038.55 875.161,1038.62L875.115,1038.39Z" style="fill:rgb(174,87,106);stroke:white;stroke-width:1.56px;"/>
    </g>
</svg>
