<?xml version="1.0" encoding="UTF-8" standalone="no"?>
<!DOCTYPE svg PUBLIC "-//W3C//DTD SVG 1.1//EN" "http://www.w3.org/Graphics/SVG/1.1/DTD/svg11.dtd">
<svg width="100%" height="100%" viewBox="0 0 272 190" version="1.1" xmlns="http://www.w3.org/2000/svg" xmlns:xlink="http://www.w3.org/1999/xlink" xml:space="preserve" style="fill-rule:evenodd;clip-rule:evenodd;stroke-linecap:round;stroke-linejoin:round;stroke-miterlimit:1.5;">
    <g id="balusu" transform="matrix(1,0,0,1,-547.104,-606.686)">
        <path d="M806.265,795.292L806.254,795.141L806.265,795.292ZM806.227,794.8C806.236,794.904 806.244,795.009 806.252,795.113L806.227,794.8ZM806.217,794.683L806.221,794.729L806.212,794.64L806.217,794.683ZM806.197,794.48L806.202,794.538L806.193,794.449L806.197,794.48ZM806.175,794.276L806.182,794.343L806.172,794.258L806.175,794.276ZM806.15,794.072L806.157,794.128L806.15,794.072L806.143,794.019L806.15,794.072ZM806.123,793.868L806.126,793.886L806.114,793.801L806.123,793.868ZM806.094,793.664L806.099,793.695L806.085,793.605L806.094,793.664ZM806.062,793.459L806.069,793.504L806.055,793.412L806.062,793.459ZM806.028,793.254L806.038,793.312L806.022,793.22L806.028,793.254ZM805.991,793.048L806.003,793.117L805.987,793.028L805.991,793.048ZM805.951,792.843L805.964,792.909L805.95,792.838L805.942,792.799L805.951,792.843ZM805.908,792.637L805.911,792.653L805.892,792.567L805.908,792.637ZM805.862,792.431L805.869,792.461L805.848,792.369L805.862,792.431ZM805.813,792.224L805.823,792.268L805.801,792.175L805.813,792.224ZM805.761,792.017L805.775,792.074L805.751,791.981L805.761,792.017ZM805.705,791.81L805.723,791.878L805.699,791.787L805.705,791.81ZM557.566,764.086C557.617,763.696 557.8,763.252 558.199,762.687C559.744,760.496 562.283,759.126 564.293,757.544C566.303,755.963 567.118,754.37 567.118,751.87C567.118,749.371 569.129,746.629 566.688,745.936C564.247,745.243 562.782,743.991 560.892,744.42C559.003,744.848 554.215,747.28 552.618,748.497C551.021,749.713 549.305,752.092 548.642,751.739C547.98,751.385 547.514,749.426 548.289,748.823C549.064,748.221 549.673,748.778 550.643,747.34C551.612,745.902 553.283,745.004 552.342,743.216C551.4,741.428 551.875,741.814 552.667,737.777C553.46,733.741 552.56,735.447 552.424,733.441C552.287,731.434 553.703,733.55 553.951,731.22C554.198,728.89 555.567,728.083 554.305,727.802C553.043,727.52 552.555,729.427 552.172,727.187C551.788,724.948 552.198,724.721 553.42,724.33C554.642,723.939 556.171,723.78 557.192,724.977C558.212,726.173 559.877,727.421 561.225,727.076C562.573,726.732 562.367,725.488 561.087,724.628C559.808,723.768 558.147,722.324 559.318,721.843C560.488,721.363 562.663,722.409 563.775,721.876C564.887,721.343 568.951,717.684 569.606,713.767C570.262,709.85 574.87,703.594 575.892,700.564C576.914,697.534 578.428,693.174 580.011,690.003C581.594,686.831 581.229,686.629 580.273,683.827C579.317,681.024 576.854,675.171 576.854,675.171C576.854,675.171 574.016,677.661 573.064,675.741C572.112,673.82 569.329,670.458 569.329,670.458C569.329,670.458 575.777,665.463 577.904,662.923C580.031,660.383 581.461,657.231 582.23,657.918C582.999,658.604 585.14,660.009 583.961,656.809C582.783,653.61 581.839,654.199 581.839,654.199L582.235,651.495C582.235,651.495 578.772,650.897 578.312,648.633C577.851,646.369 575.935,645.204 575.348,644.894C574.761,644.584 575.51,642.075 574.028,641.924C572.547,641.773 572.45,642.759 570.197,644.042C567.943,645.325 565.15,647.224 562.161,646.474C559.171,645.723 557.687,646.311 556.642,646.279C555.597,646.247 558.387,645.568 559.693,644.524C561,643.48 560.782,641.925 561.883,641.019C562.985,640.112 564.779,638.883 560.935,639.265C557.091,639.646 556.044,639.06 557.765,636.838C559.486,634.616 560.003,634.766 560.557,632.965C560.916,631.798 559.692,632.369 558.615,632.271C560.217,631.204 562.027,629.591 562.589,627.517C563.667,623.543 563.286,620.984 565.204,623.408C567.121,625.832 571.412,628.839 574.483,628.072C577.555,627.304 578.459,626.273 575.247,625.119C572.036,623.965 570.16,621.532 573.025,621.065C575.89,620.598 577.848,622.742 581.329,622.946C584.81,623.151 589.348,616.123 592.277,612.481C595.206,608.839 607.339,606.872 614.081,607.627C620.823,608.383 629.205,610.099 633.745,610.654C638.284,611.21 639.637,612.478 642.379,614.628C645.121,616.777 648.599,619.326 654.139,621.05C659.679,622.775 665.213,626.161 667.83,629.969C670.447,633.777 683.144,639.416 688.537,642.154C693.93,644.892 702.195,647.718 704.763,646.898C707.332,646.078 714.193,647.393 718.937,647.722C723.68,648.05 732.765,647.006 737.975,645.594C743.184,644.181 752.402,643.401 755.018,641.277C757.634,639.152 769.855,628.562 774.792,626.773C778.352,625.483 788.788,621.216 796.877,618.654C802.802,619.353 806.767,621.924 808.53,625.315C810.325,628.769 812.549,630.076 811.391,637.491C810.234,644.906 808.204,656.699 808.461,663.115C808.718,669.53 808.303,670.515 809.264,673.502C810.225,676.489 809.895,678.955 809.195,681.246C808.496,683.536 807.494,689.137 810.335,694.45C813.175,699.762 811.682,704.162 812.692,709.644C813.702,715.126 813.785,722.155 814.386,729.339C814.988,736.524 814.178,740.51 816.254,744.678C818.33,748.846 818.463,754.745 817.493,756.279C816.523,757.813 814.648,758.764 815.537,762.738C816.426,766.713 813.203,772.011 811.337,775.116C809.472,778.22 808.488,781.615 806.869,783.477C805.25,785.34 802.905,785.21 804.948,789.717C805.246,790.375 805.482,791.026 805.666,791.672L805.644,791.594C798.326,788.701 795.299,784.261 791.917,780.732C787.287,775.899 785.106,772.744 773.016,770.159C760.926,767.574 763.744,768.174 747.541,767.698C731.338,767.222 679.169,774.436 671.883,774.509C664.598,774.581 649.658,774.121 636.292,773.325C622.925,772.53 623.22,771.593 604.613,768.975C590.573,767 567.894,764.813 557.61,763.859C557.59,763.937 557.576,764.012 557.566,764.086ZM558.395,767.56L558.397,767.604L558.394,767.545L558.395,767.56ZM558.383,767.386L558.383,767.393L558.381,767.37L558.383,767.386ZM558.365,767.22L558.367,767.237L558.363,767.21L558.365,767.22ZM558.342,767.059L558.344,767.071L558.339,767.042L558.342,767.059ZM558.316,766.906L558.318,766.916L558.315,766.902L558.316,766.906ZM558.285,766.758L558.288,766.772L558.282,766.743L558.285,766.758ZM558.252,766.616L558.252,766.618L558.249,766.607L558.252,766.616ZM558.215,766.479L558.224,766.512L558.19,766.394L558.215,766.479ZM558.131,766.211C558.148,766.259 558.164,766.308 558.179,766.358L558.131,766.211ZM558.092,766.097L558.121,766.181L558.081,766.068L558.092,766.097ZM558.048,765.978L558.065,766.024L558.027,765.925L558.048,765.978ZM558.003,765.863L558.013,765.887L557.964,765.764L558.003,765.863ZM557.959,765.75L557.962,765.759L557.938,765.7L557.959,765.75ZM557.789,765.335L557.841,765.461L557.797,765.356L557.789,765.335ZM557.746,765.223L557.765,765.272L557.747,765.226L557.738,765.202L557.746,765.223ZM557.689,765.065L557.706,765.114L557.7,765.099L557.689,765.065ZM557.643,764.922L557.667,764.999C557.648,764.941 557.631,764.882 557.616,764.824L557.643,764.922ZM557.593,764.721L557.615,764.819C557.599,764.754 557.585,764.689 557.575,764.623L557.593,764.721ZM557.561,764.517L557.574,764.618C557.563,764.551 557.556,764.483 557.553,764.414L557.561,764.517ZM557.551,764.365L557.553,764.413L557.551,764.394L557.551,764.365ZM557.55,764.308L557.551,764.357L557.55,764.327L557.55,764.308ZM557.559,764.146C557.554,764.201 557.551,764.254 557.55,764.307C557.551,764.254 557.554,764.201 557.559,764.146ZM557.565,764.091L557.559,764.144L557.562,764.121L557.565,764.091ZM558.399,767.636C558.4,767.671 558.401,767.706 558.402,767.742L558.399,767.636Z" style="fill:rgb(78,246,207);stroke:white;stroke-width:1.56px;"/>
    </g>
</svg>
