<?xml version="1.0" encoding="UTF-8" standalone="no"?>
<!DOCTYPE svg PUBLIC "-//W3C//DTD SVG 1.1//EN" "http://www.w3.org/Graphics/SVG/1.1/DTD/svg11.dtd">
<svg width="100%" height="100%" viewBox="0 0 323 292" version="1.1" xmlns="http://www.w3.org/2000/svg" xmlns:xlink="http://www.w3.org/1999/xlink" xml:space="preserve" style="fill-rule:evenodd;clip-rule:evenodd;stroke-linecap:round;stroke-linejoin:round;stroke-miterlimit:1.5;">
    <g id="barru" transform="matrix(1,0,0,1,-504.103,-763.077)">
        <path d="M619.639,979.028C621.009,977.398 622.327,975.693 622.968,974.774C624.219,972.981 625.043,968.413 623.914,967.326C622.784,966.239 621.448,963.637 622.833,962.113C624.218,960.588 625.691,957.247 624.061,956.015C622.43,954.783 615.808,953.261 615.808,953.261L615.397,951.133C615.397,951.133 614.336,950.894 612.523,948.266C610.711,945.638 609.429,944.075 605.305,943.754C601.181,943.434 596.074,938.619 596.074,938.619C596.074,938.619 593.003,933.451 589.769,932.314C586.535,931.176 588.715,927.168 588.715,927.168C588.715,927.168 578.273,920.081 575.887,918.685C573.501,917.289 573.507,916.472 570.29,914.749C567.073,913.026 564.86,912.549 561.188,912.343C557.516,912.138 557.003,913.874 554.476,914.235C551.949,914.597 547.689,914.235 544.881,912.181C542.072,910.126 540.891,908.07 537.108,906.292C533.324,904.514 532.533,906.236 531.137,907.463C529.742,908.689 528.249,910.731 527.182,910.057C526.115,909.383 521.495,909.309 521.495,909.309C521.495,909.309 520.638,910.323 519.321,905.438C518.575,902.67 515.34,900.448 512.676,899.043L512.725,899.018C512.994,898.885 513.334,898.688 513.563,897.738C514.088,895.565 513.415,894.965 512.324,894.603C511.232,894.241 506.877,890.381 506.627,888.85C506.378,887.32 508.218,887.249 507.468,883.646C506.717,880.043 505.249,881.851 504.939,879.055C504.629,876.258 505.638,876.291 507.787,873.282C509.935,870.273 510.216,871.735 512.362,867.833C514.509,863.931 514.619,860.565 515.689,857.958C516.758,855.351 516.843,856.131 517.842,854.525C518.841,852.918 518.751,849.684 520.287,847.311C521.822,844.938 521.755,840.206 521.491,835.274C521.226,830.343 521.911,830.378 523.556,828.074C525.201,825.77 529.083,819.368 529.178,815.572C529.273,811.775 528.159,813.966 531.537,810.953C534.916,807.939 540.702,802.734 541.316,800.138C541.93,797.542 542.234,791.117 547.237,788.52C552.241,785.923 552.114,784.7 552.868,782.978C553.621,781.256 557.722,777.641 561.04,777.28C564.358,776.918 564.204,776.689 562.851,773.396C561.497,770.103 558.457,770.242 558.402,767.742C558.358,765.765 557.29,765.124 557.61,763.859C567.894,764.813 590.573,767 604.613,768.975C623.22,771.593 622.925,772.53 636.292,773.325C649.658,774.121 664.598,774.581 671.883,774.509C679.169,774.436 731.338,767.222 747.541,767.698C763.744,768.174 760.926,767.574 773.016,770.159C785.106,772.744 787.287,775.899 791.917,780.732C795.299,784.261 798.326,788.701 805.644,791.594C806.759,795.406 806.113,799.039 806.311,802.702C806.54,806.962 810.687,810.205 810.487,813.107C810.286,816.009 809.328,821.554 807.725,825.273C806.122,828.993 805.525,833.189 809.15,846.253C812.775,859.316 816.292,864.538 816.585,868.719C816.878,872.9 815.039,877.7 813.43,880.229C811.821,882.758 813.018,884.999 815.063,886.464C817.108,887.929 821.294,892.859 816.312,900.222C811.33,907.586 811.183,904.083 813.201,912.699C815.219,921.315 814.661,924.172 814.487,929.612C814.314,935.052 810.361,937.481 812.522,942.594C814.683,947.707 814.645,954.593 813.696,956.054C812.746,957.515 801.456,961.1 811.123,969.717C820.79,978.334 816.828,974.788 817.733,982.806C818.637,990.824 816.356,985.061 816.101,993.634C815.846,1002.21 817.702,1006.14 819.25,1007.69C820.799,1009.24 821.164,1009.82 822.011,1012C822.514,1013.29 823.188,1014.34 823.933,1015.07L823.961,1015.09C822.605,1016.18 821.408,1017.27 820.563,1018.27C816.653,1022.89 812.542,1030.3 797.993,1044.42C783.444,1058.54 778.809,1052.77 777.734,1049.9C776.66,1047.03 775.416,1049.86 772.266,1049.65C769.115,1049.45 770.208,1045.7 768.917,1043.38C767.626,1041.05 764.243,1042.59 762.371,1041.98C760.5,1041.37 759.977,1040.71 759.708,1042.22C759.439,1043.72 756.924,1046.06 754.875,1043.34C752.825,1040.62 748.213,1039.89 745.843,1037.59C743.473,1035.28 741.892,1035.97 741.058,1032.49C740.223,1029.02 738.235,1027.39 737.752,1023.1C737.269,1018.81 738.059,1016.49 731.834,1014.96C725.61,1013.44 726.523,1017.25 723.919,1019.29C721.316,1021.33 719.74,1017.94 718.303,1013.72C716.865,1009.51 709.437,1006.01 704.448,1001.6C699.459,997.19 696.824,992.532 693.206,990.494C689.587,988.457 685.139,987.413 680.233,986.995C675.327,986.576 672.651,986.823 667.871,982.089C663.091,977.356 661.643,976.839 652.78,973.402C643.917,969.964 641.338,977.344 634.376,979.772C630.243,981.214 624.017,980.14 619.639,979.028ZM825.3,1016.01L825.38,1016.05L825.33,1016.02L825.3,1016.01ZM825.179,1015.96L825.26,1016L825.23,1015.98L825.179,1015.96ZM825.03,1015.88L825.144,1015.94C825.106,1015.92 825.068,1015.9 825.03,1015.88ZM824.917,1015.82L825.023,1015.88L824.931,1015.83L824.917,1015.82ZM824.803,1015.75L824.878,1015.8L824.832,1015.77L824.803,1015.75ZM824.687,1015.68L824.76,1015.73L824.733,1015.71L824.687,1015.68ZM824.549,1015.59L824.646,1015.65L824.635,1015.64L824.549,1015.59ZM824.429,1015.5L824.506,1015.55L824.439,1015.5L824.429,1015.5ZM824.321,1015.41L824.377,1015.46L824.343,1015.43L824.321,1015.41ZM824.216,1015.32L824.263,1015.36L824.246,1015.35L824.216,1015.32ZM824.132,1015.25L824.153,1015.27L824.15,1015.27L824.132,1015.25ZM616.287,982.603L616.232,982.648L616.289,982.601L616.287,982.603ZM616.374,982.528L616.325,982.571L616.378,982.525L616.374,982.528ZM616.465,982.449L616.417,982.491L616.468,982.447L616.465,982.449ZM616.652,982.279L616.547,982.375L616.66,982.272L616.652,982.279ZM616.849,982.093L616.747,982.189L616.86,982.083L616.849,982.093ZM617.055,981.892L616.955,981.989L617.068,981.879L617.055,981.892ZM617.268,981.678L617.171,981.775L617.284,981.661L617.268,981.678ZM617.487,981.451L617.394,981.547L617.506,981.431L617.487,981.451ZM617.713,981.213L617.624,981.307L617.734,981.19L617.713,981.213ZM617.944,980.964L617.86,981.054L617.967,980.939L617.944,980.964ZM618.179,980.707L618.102,980.791L618.203,980.68L618.179,980.707ZM618.418,980.441L618.35,980.517L618.442,980.414L618.418,980.441ZM618.659,980.168L618.601,980.234L618.683,980.142L618.659,980.168ZM618.903,979.889L618.857,979.942L618.924,979.866L618.903,979.889ZM619.148,979.606L619.116,979.643L619.164,979.587L619.148,979.606ZM619.393,979.318L619.376,979.338L619.403,979.307L619.393,979.318ZM512.386,900.456L512.429,900.69L512.388,900.463L512.386,900.456ZM512.353,900.247L512.375,900.386L512.355,900.261L512.353,900.247ZM512.33,900.07L512.333,900.094L512.331,900.08L512.33,900.07ZM512.313,899.898L512.316,899.932L512.315,899.921L512.313,899.898ZM512.309,899.824L512.311,899.865L512.31,899.848L512.309,899.824ZM512.306,899.754L512.307,899.794L512.307,899.78L512.306,899.754ZM512.305,899.689L512.305,899.727L512.305,899.717L512.305,899.689ZM512.307,899.627L512.306,899.665L512.306,899.658L512.307,899.627ZM512.311,899.567L512.308,899.607L512.308,899.602L512.311,899.567ZM512.317,899.504L512.312,899.554C512.315,899.519 512.319,899.487 512.325,899.457L512.317,899.504ZM512.334,899.415L512.326,899.453L512.333,899.419L512.334,899.415ZM512.345,899.376L512.337,899.406L512.343,899.381L512.345,899.376ZM512.357,899.34L512.348,899.366L512.355,899.346L512.357,899.34ZM512.371,899.307L512.361,899.33L512.368,899.314L512.371,899.307ZM512.387,899.277L512.376,899.298L512.382,899.284L512.387,899.277ZM512.404,899.248L512.391,899.269L512.398,899.257L512.404,899.248ZM512.423,899.222L512.408,899.242L512.415,899.232L512.423,899.222ZM512.443,899.198L512.427,899.217L512.433,899.209L512.443,899.198ZM512.465,899.175L512.446,899.195L512.452,899.188L512.465,899.175ZM512.676,899.043C512.597,899.082 512.525,899.119 512.467,899.174C512.525,899.119 512.597,899.081 512.676,899.043ZM825.416,1016.06L825.531,1016.1L825.43,1016.07L825.416,1016.06ZM616.203,982.672C616.175,982.695 616.147,982.717 616.12,982.738L616.203,982.672Z" style="fill:rgb(161,255,63);stroke:white;stroke-width:1.56px;"/>
    </g>
</svg>
