<?xml version="1.0" encoding="UTF-8" standalone="no"?>
<!DOCTYPE svg PUBLIC "-//W3C//DTD SVG 1.1//EN" "http://www.w3.org/Graphics/SVG/1.1/DTD/svg11.dtd">
<svg width="100%" height="100%" viewBox="0 0 294 371" version="1.1" xmlns="http://www.w3.org/2000/svg" xmlns:xlink="http://www.w3.org/1999/xlink" xml:space="preserve" style="fill-rule:evenodd;clip-rule:evenodd;stroke-linecap:round;stroke-linejoin:round;stroke-miterlimit:1.5;">
    <g id="malusetasi" transform="matrix(1,0,0,1,-521.265,-198.378)">
        <path d="M551.902,466.244C553.212,464.954 556.557,462.002 558.156,459.684C559.863,457.21 563.324,449.808 564.02,447.94C564.717,446.072 565.972,439.234 564.907,436.581C563.841,433.928 562.696,431.217 561.92,430.487C561.144,429.757 559.67,425.418 559.632,423.817C559.595,422.217 559.449,422.111 561.597,421.445C563.745,420.779 567.088,420.883 569.681,421.523C572.274,422.162 575.477,421.153 576.933,420.298C578.389,419.442 582.131,416.465 583.382,412.816C584.632,409.168 585.582,396.83 585.132,393.024C584.681,389.219 583.286,378.597 574.309,375.67C565.333,372.744 561.79,369.151 558.035,364.557C554.28,359.963 544.797,354.374 541.942,351.841C539.087,349.308 537.699,347.005 541.187,345.523C544.674,344.041 546.057,333.582 547.498,330.441C548.939,327.299 553.497,319.994 553.005,315.399C552.512,310.803 548.935,300.288 550.486,295.746C552.037,291.205 552.713,288.784 551.074,286.244C549.436,283.704 544.83,278.836 542.898,277.048C540.965,275.26 538.419,273.565 536.645,274.593C534.87,275.621 533.501,277.297 531.201,276.242C528.902,275.188 523.807,271.809 523.862,268.242C523.917,264.674 525.369,265.998 525.338,261.69C525.306,257.382 523.516,250.939 529.234,253.763C534.952,256.587 538.267,256.254 539.773,251.907C541.279,247.559 545.697,243.808 544.717,242.027C543.737,240.246 542.629,237.852 540.6,236.359C538.571,234.865 537.385,233.893 534.669,234.798C531.952,235.703 528.5,239.857 527.219,238.371C525.938,236.884 524.446,236.534 523.715,235.128C522.984,233.721 521.295,233.775 522.426,231.136C523.557,228.498 524.566,229.914 524.467,227.281C524.369,224.649 525.93,222.634 528.461,220.927C530.993,219.221 529.122,216.936 533.475,214.63C537.828,212.325 539.054,212.89 539.874,211.621C540.693,210.353 543.18,210.771 545.727,207.288C548.273,203.805 545.938,204.553 547.734,202.035C549.53,199.516 551.064,198.34 554.076,199.791C557.087,201.242 560.756,203.493 561.443,204.639C562.13,205.785 561.01,208.227 563.733,208.94C566.457,209.652 566.285,212.005 569.718,212.048C573.152,212.091 575.745,213.52 578.394,214.329C581.042,215.138 585.637,217.071 588.029,218.849C590.421,220.627 592.381,220.656 598.054,219.337C603.728,218.018 608.519,217.454 614.6,216.52C620.68,215.585 628.996,213.011 634.277,211.399C639.559,209.786 647.935,207.708 652.964,209.433C657.993,211.158 661.782,211.822 663.501,212.846C665.219,213.87 670.547,215.8 670.547,215.8C670.547,215.8 690.416,214.748 694.207,215.592C697.999,216.435 705.922,215.005 705.922,215.005C705.922,215.005 712.6,218.088 714.178,220.023C715.755,221.959 717.01,223.629 721.803,222.8C726.595,221.971 734.066,217.072 734.066,217.072C734.066,217.072 743.502,225.542 743.429,232.759C743.355,239.975 738.914,248.3 745.758,255.711C752.602,263.122 762.091,272.233 767.624,275.286C773.157,278.339 775.805,280.46 779.88,289.188C783.955,297.916 787.365,299.072 791.866,303.804C796.367,308.535 796.759,310.217 798.276,312.878C799.794,315.538 805.901,320.997 800.325,326.356C794.748,331.714 790.705,336.2 784.764,339.48C778.822,342.761 773.929,346.34 771.397,352.046C768.865,357.752 765.18,357.844 764.09,359.335C762.999,360.825 761.157,360.292 767.116,365.616C773.076,370.939 769.793,368.627 769.545,373.045C769.297,377.464 768.616,378.243 769.863,380.761C771.11,383.279 770.624,385.59 769.731,391.612C768.837,397.634 769.081,401.993 768.09,405.265C767.1,408.536 764.251,415.717 767.554,417.178C770.856,418.64 775.073,417.323 776.309,416.594C777.545,415.864 780.658,417.195 780.933,420.576C781.207,423.957 779.708,424.096 785.316,428.677C790.924,433.258 790.856,434.291 793.782,435.402C796.709,436.512 799.112,438.732 801.021,439.169C801.834,439.355 802.847,440.317 803.706,442.204C804.865,444.749 805.744,448.977 805.475,455.25C805.005,466.175 803.445,461.152 804.191,466.014C804.937,470.876 805.969,469.746 809.156,472.106C812.343,474.466 814.314,476.882 813.325,479.47C812.336,482.057 810.043,485.104 804.813,481.834C799.583,478.565 789.234,475.605 787.55,476.26C785.867,476.914 781.485,482.144 770.922,481.832C760.359,481.519 762.24,480.206 757.436,482.479C752.632,484.752 750.177,485.451 748.541,485.968C746.904,486.485 743.464,489.609 742.644,493.141C741.824,496.674 739.098,506.221 737.055,506.668C735.013,507.116 734.329,510.945 732.687,511.78C731.045,512.615 728.922,515.75 725.552,514.96C722.181,514.171 719.261,516.107 719.021,517.748C718.78,519.389 721.885,519.045 723.112,521.435C724.338,523.826 726.371,528.83 730.054,531.424C733.737,534.018 735.042,534.917 734.885,537.571C734.728,540.224 735.057,542.687 733.949,544.241C733.068,545.477 731.797,547.474 733.057,548.711C719.605,558.464 713.617,554.561 713.617,554.561C713.617,554.561 706.918,556.064 696.24,555.386C685.562,554.708 683.071,558.615 682.162,562.69C681.253,566.766 677.885,569.668 671.417,568.061C664.949,566.454 664.762,566.091 661.548,566.373C658.333,566.655 656.949,564.024 652.308,562.922C647.668,561.819 640.268,555.686 638.655,551.847C637.041,548.009 636.855,545.953 634.753,544.809C632.65,543.665 633.162,543.248 632.784,542.186C632.405,541.125 629.149,535.014 627.821,534.272C626.493,533.53 624.196,530.937 623.604,529.169C623.012,527.4 620.202,519.306 618.245,516.2C616.288,513.094 611.193,506.037 609.056,501.336C606.919,496.636 609.166,491.186 610.26,488.883C611.353,486.58 610.269,481.173 609.363,479.948C608.456,478.723 606.655,480.151 605.614,482.997C604.574,485.844 601.22,480.629 601.22,480.629C601.22,480.629 599.683,480.045 596.622,480.112C593.561,480.179 594.751,478.229 596.674,476.974C598.596,475.719 596.411,472.72 592.961,470.905C589.511,469.091 583.231,471.38 581.297,472.279C579.363,473.178 579.087,476.885 578.712,477.834C578.336,478.783 572.565,479.335 570.921,478.087C569.278,476.839 572.994,474.706 575.674,473.824C578.355,472.943 571.135,471.174 567.92,472.166C564.706,473.157 563.149,476.933 562.029,477.505C560.909,478.076 559.516,476.444 557.581,474.881C556.562,474.058 554.052,469.95 551.902,466.244Z" style="fill:rgb(131,110,253);stroke:white;stroke-width:1.56px;"/>
    </g>
</svg>
