<?xml version="1.0" encoding="UTF-8" standalone="no"?>
<!DOCTYPE svg PUBLIC "-//W3C//DTD SVG 1.1//EN" "http://www.w3.org/Graphics/SVG/1.1/DTD/svg11.dtd">
<svg width="100%" height="100%" viewBox="0 0 377 490" version="1.1" xmlns="http://www.w3.org/2000/svg" xmlns:xlink="http://www.w3.org/1999/xlink" xml:space="preserve" style="fill-rule:evenodd;clip-rule:evenodd;stroke-linecap:round;stroke-linejoin:round;stroke-miterlimit:1.5;">
    <g id="pujananting" transform="matrix(1,0,0,1,-568.813,-1135.81)">
        <path d="M570.353,1205.32C571.99,1203.52 574.054,1201.02 574.16,1199.75C574.337,1197.63 569.002,1198.49 569.648,1197.41C570.295,1196.32 573.083,1194.54 573.777,1192.8C574.472,1191.06 573.89,1189.69 576.626,1187.9C579.362,1186.11 580.603,1184.7 583.94,1182.22C587.277,1179.73 586.351,1176 585.281,1175.19C584.21,1174.37 581.484,1175.24 582.982,1172.17C584.48,1169.1 588.217,1170.98 587.369,1169.51C586.522,1168.05 585.269,1166.26 585.593,1164.89C585.917,1163.52 588.423,1158.75 592.795,1157.15C597.167,1155.56 600.965,1155.92 603.802,1150.02C606.638,1144.12 608.669,1140.76 608.766,1138.78C608.864,1136.8 609.153,1136.76 609.153,1136.76C609.153,1136.76 612.886,1136.34 615.693,1136.84C618.5,1137.34 624.698,1138.19 630.156,1143.21C635.613,1148.24 644.883,1157.01 647.364,1159.93C649.845,1162.86 649.454,1167.12 662.115,1168.18C674.775,1169.24 687.194,1170.87 690.485,1171.3C693.776,1171.73 698.755,1171.55 701.413,1171.85C704.07,1172.16 712.374,1180.13 713.348,1184.84C714.322,1189.55 715.536,1196.92 723.167,1203.78C730.798,1210.64 730.918,1216.26 730.661,1218.52C730.403,1220.78 727.007,1222.94 741.778,1233.11C756.549,1243.28 762.331,1246.28 766.807,1244.05C771.282,1241.82 782.807,1231.59 786.029,1222.09C789.252,1212.58 791.045,1199.03 797.564,1194.42C804.083,1189.82 804.39,1185.39 811.741,1186.7C819.092,1188 822.016,1190.98 822.016,1190.98C822.016,1190.98 823.196,1197.75 829.597,1199.48C835.998,1201.2 840.81,1200.22 845.302,1206.81C849.795,1213.39 850.424,1216.49 856.83,1224.66C863.235,1232.84 865.043,1237.67 872.156,1239.38C874.712,1239.99 878.06,1240.49 881.3,1240.87C881.311,1241.65 881.847,1242.63 882.195,1243.34C882.689,1244.34 883.839,1249.29 875.784,1248.86C867.729,1248.41 868.734,1254.14 865.673,1254.17C862.612,1254.2 860.451,1252.32 853.736,1256.7C847.021,1261.07 847.446,1261.33 840.829,1264.89C834.212,1268.45 832.791,1267.9 832.839,1272.74C832.888,1277.57 835.514,1283.6 833.361,1283.54C831.209,1283.49 823.857,1283.18 822.864,1285.4C821.871,1287.62 821.953,1291.43 821.617,1298.06C821.282,1304.69 817.577,1302.52 816.8,1306.7C816.023,1310.87 815.217,1313.37 815.15,1318.5C815.083,1323.62 815.713,1325.66 818.373,1326.93C821.032,1328.2 821.796,1330.42 821.447,1335.46C821.098,1340.49 818.531,1344.49 818.851,1349.76C819.171,1355.02 821.024,1352.05 820.939,1356.58C820.854,1361.11 824.025,1364.37 823.235,1367.43C822.445,1370.49 820.43,1377.88 819.543,1381.32C818.656,1384.76 818.768,1389.94 819.554,1394.2C820.339,1398.47 819.544,1400.2 822.107,1400.98C824.669,1401.76 828.177,1402.32 830.092,1401.64C832.007,1400.96 834.844,1403.65 835.799,1404.41C836.754,1405.17 843.571,1408.94 846.601,1408.43C849.63,1407.92 853.017,1401.73 858.227,1405.13C863.437,1408.53 865.107,1409.96 867.588,1408.15C870.07,1406.34 875.35,1405.96 882.26,1412.13C889.169,1418.29 891.372,1422.07 900.5,1424.9C909.628,1427.72 913.066,1428.22 914.497,1430.6C915.928,1432.99 917.765,1434.8 922.855,1436.08C927.944,1437.36 931.109,1441.83 931.158,1445.19C931.206,1448.55 929.592,1451.11 934.234,1458C938.876,1464.9 942.357,1466.86 944.212,1471.23C946.067,1475.6 943.263,1479.71 942.616,1483.78C941.969,1487.84 940.012,1489.04 942.856,1496.14C945.699,1503.25 945.511,1511.13 942.612,1514.69C939.713,1518.25 931.829,1524.67 929.638,1528.23C927.448,1531.79 921.389,1537.39 916.841,1541.91C912.293,1546.44 913.637,1549.36 911.264,1551.71C908.891,1554.06 906.746,1556.99 901.439,1556.69C896.132,1556.4 894.947,1558.09 889.121,1552.87C883.294,1547.66 883.44,1552.03 880.778,1547.23C878.116,1542.43 874.806,1533.99 874.806,1533.99C874.806,1533.99 867.904,1533.38 865.914,1534.78C863.923,1536.18 862.681,1535.95 860.523,1535.66C858.364,1535.36 859.051,1537.14 857.228,1537.46C855.404,1537.78 855.119,1536.93 853.633,1535.99C852.148,1535.04 852.369,1535.12 850.683,1536.04C848.997,1536.96 848.81,1536.43 847.792,1536.7C846.774,1536.97 845.537,1539.61 843.561,1538.99C841.585,1538.38 839.377,1540.35 838.485,1543.81C837.592,1547.27 835.289,1547.02 835.119,1550.76C834.949,1554.5 835.162,1556.07 833.341,1559.42C831.521,1562.76 831.147,1564.15 831.244,1565.13C831.341,1566.12 832.242,1568.16 829.266,1568.81C826.29,1569.45 826.642,1568.95 825.138,1570.31C823.635,1571.67 821.907,1572.85 820.705,1573.76C819.503,1574.67 819.299,1577.84 819.299,1577.84C819.299,1577.84 821.216,1581.05 817.358,1580.15C813.501,1579.25 814.986,1575.33 813.163,1579.85C811.339,1584.37 810.684,1586.52 810.684,1586.52C810.684,1586.52 811.093,1589.15 809.608,1589.56C808.122,1589.96 809.336,1591.36 810.397,1592.24C811.459,1593.13 813.792,1592.71 813.792,1592.71C813.792,1592.71 816.305,1590.91 816.45,1591.97C816.596,1593.04 818.887,1592.72 818.887,1592.72C818.887,1592.72 824.259,1595.01 821.866,1595.69C819.474,1596.36 816.921,1595.86 817.935,1597.45C818.949,1599.05 821.108,1603.19 818.502,1603.98C815.896,1604.77 814.237,1605.26 814.237,1605.26C814.237,1605.26 812.32,1608.35 810.802,1606.72C809.285,1605.08 807.02,1603.72 805.219,1604.52C803.417,1605.33 799.885,1606.14 800.817,1608.34C801.749,1610.55 804.09,1615.36 801.739,1615.44C799.388,1615.52 799.696,1618.77 797.235,1617.87C794.774,1616.97 793.308,1617.65 791.786,1616.48C790.265,1615.31 790.634,1613.65 788.828,1614.35C787.022,1615.05 785.963,1616.51 783.997,1616.03C782.031,1615.55 781.141,1613.88 779.807,1614.81C778.473,1615.73 778.721,1618.26 777.182,1617.82C775.643,1617.38 774.932,1615.71 772.608,1617.46C770.283,1619.2 768.095,1620.81 769.949,1621.44C771.803,1622.06 771.511,1625.22 767.852,1624.03C764.194,1622.84 762.253,1619.8 759.339,1612.78C756.426,1605.75 755.386,1603.24 753.558,1601.54C751.729,1599.83 751.601,1599.2 749.777,1601.02C747.953,1602.84 744.882,1601.4 743.032,1600.91C741.182,1600.43 742.044,1600.75 740.394,1601.57C738.744,1602.38 736.603,1602.56 735.762,1601.33C734.92,1600.11 733.59,1599.93 732.834,1600.57C732.078,1601.2 730.92,1602.84 729.416,1602.26C727.913,1601.68 721.545,1598.76 714.935,1601.27C708.324,1603.79 701.323,1606.71 700.019,1603.8C698.716,1600.89 693.978,1595.7 691.449,1593.7C688.92,1591.71 688.308,1591.17 687.969,1590.16C687.629,1589.15 685.835,1588.24 685.702,1586.28C685.57,1584.32 687.317,1582.37 686.397,1579.17C685.477,1575.97 684.57,1572.34 678.798,1571.91C673.026,1571.47 671.066,1570.52 669.682,1566.04C668.298,1561.57 669.458,1562.21 671.747,1559.43C674.036,1556.66 672.284,1554.47 675.03,1552.92C677.775,1551.38 678.825,1549.01 680.248,1548.93C681.671,1548.86 681.873,1547.56 680.996,1546.35C680.118,1545.14 680.765,1542.82 684.611,1543.18C688.457,1543.54 690.875,1544.17 692.968,1542.24C695.06,1540.31 697.644,1538.37 694.542,1534.78C691.44,1531.18 690.16,1531 690.105,1526.19C690.049,1521.39 688.439,1517.92 687.437,1513.2C686.436,1508.48 687.681,1506.06 688.159,1502.02C688.637,1497.98 688.088,1494.34 689.166,1489.65C690.245,1484.97 689.593,1475.24 688.758,1473.62C687.924,1472 685.9,1470.03 684.529,1469.21C683.157,1468.39 682.38,1466.92 680.568,1467.8C678.756,1468.68 676.831,1469.73 676.338,1468.51C675.845,1467.3 677.092,1464.52 675.218,1464.77C673.344,1465.03 674.189,1467.8 670.811,1467.6C667.434,1467.4 667.992,1466.4 666.571,1466.15C665.149,1465.9 664.378,1466.47 662.505,1467.43C660.631,1468.39 658.842,1470.11 655.351,1469.93C651.86,1469.74 649.001,1469.85 646.796,1469.96C644.592,1470.08 644.392,1468.63 642.463,1468.46C640.534,1468.29 641.512,1468.9 638.572,1470.15C635.632,1471.41 635.289,1470.1 634.657,1472.52C634.024,1474.94 635.259,1476.53 632.998,1476.5C630.736,1476.46 630.549,1477.9 629.345,1477.32C628.141,1476.74 627.026,1475.26 626.619,1471.79C626.212,1468.32 624.111,1464.05 622.378,1461.69C620.645,1459.33 620.052,1458.22 620.372,1455.62C620.692,1453.03 620.729,1450.21 620.248,1448.86C619.766,1447.51 618.479,1444.24 619.319,1442.8C620.16,1441.36 624.023,1438.52 625.589,1435.7C627.155,1432.87 626.994,1428.65 626.663,1426.74C626.332,1424.82 626.344,1422.73 624.538,1417.9C622.732,1413.07 622.453,1412.27 621.627,1410.02C620.801,1407.78 619.43,1405.52 617.573,1404.32C615.717,1403.11 614.07,1401.31 615.394,1398.58C616.719,1395.85 617.707,1393.1 618.405,1389.81C619.103,1386.53 620.391,1383.65 621.312,1381.27C622.233,1378.9 625.348,1374.78 627.491,1372.29C629.633,1369.79 633.045,1365.8 633.149,1362.05C633.253,1358.31 635.872,1357.66 636.41,1353.68C636.949,1349.69 636.549,1346.23 634.062,1344.86C631.574,1343.49 625.454,1340.6 623.278,1338.42C621.102,1336.24 616.544,1332.74 613.651,1330.67C610.759,1328.61 605.725,1324.98 604.207,1323.51C602.688,1322.04 598.179,1317.4 598.395,1313.83C598.611,1310.26 600.952,1308.94 600.171,1305.44C599.39,1301.94 594.022,1295.15 592.482,1291.53C590.942,1287.91 587.845,1283.37 586.21,1279.23C584.575,1275.08 579.992,1269.16 580.794,1266.57C581.597,1263.97 585.091,1260.3 584.439,1258.04C583.787,1255.78 581.51,1250.09 580.504,1245.85C579.497,1241.61 580.438,1240.88 579.465,1239.63C578.493,1238.39 577.227,1238.38 576.061,1236.72C574.895,1235.06 573.603,1236.31 573.727,1233.89C573.851,1231.47 574.321,1230.55 572.816,1226.52C571.312,1222.49 570.766,1221.53 571.065,1219.25C571.364,1216.97 574.081,1214.23 573.272,1210.88C572.504,1207.68 572.303,1206.31 570.353,1205.32Z" style="fill:rgb(196,196,196);stroke:white;stroke-width:1.56px;"/>
    </g>
</svg>
