<?xml version="1.0" encoding="UTF-8" standalone="no"?>
<!DOCTYPE svg PUBLIC "-//W3C//DTD SVG 1.1//EN" "http://www.w3.org/Graphics/SVG/1.1/DTD/svg11.dtd">
<svg width="100%" height="100%" viewBox="0 0 298 188" version="1.1" xmlns="http://www.w3.org/2000/svg" xmlns:xlink="http://www.w3.org/1999/xlink" xml:space="preserve" style="fill-rule:evenodd;clip-rule:evenodd;stroke-linecap:round;stroke-linejoin:round;stroke-miterlimit:1.5;">
    <g id="soppengriaja" transform="matrix(1,0,0,1,-499.753,-460.926)">
        <path d="M558.615,632.271C558.028,632.218 557.485,631.968 557.264,631.131C556.637,628.759 556.837,629.684 555.781,626.116C554.726,622.549 552.616,620.854 552.774,618.46C552.932,616.067 552.23,614.785 552.23,614.785C552.23,614.785 548.706,614.854 546.863,612.484C545.02,610.114 541.77,608.24 541.77,608.24C541.77,608.24 540.866,605.071 539.526,601.938C538.186,598.805 535.729,598.372 535.729,598.372C535.729,598.372 536.238,596.963 535.878,594.236C535.518,591.508 534.041,588.48 534.041,588.48C534.041,588.48 533.437,587.051 532.233,587.66C531.029,588.269 528.919,587.229 529.692,590.184C530.465,593.14 533.964,594.514 532.865,594.804C531.766,595.094 528.886,595.558 528.094,593.785C527.302,592.012 524.362,585.915 524.362,585.915C524.362,585.915 524.586,583.717 527.553,582.08C530.52,580.443 532.498,579.293 532.449,577.577C532.4,575.862 531.636,569.152 530.603,568.958C529.57,568.763 527.458,569.368 526.274,569.017C525.089,568.666 523.292,568.666 523.292,568.666C523.292,568.666 521.901,569.789 521.027,569.584C520.153,569.378 515.012,568.356 515.012,568.356C515.012,568.356 520.602,565.58 521.685,564.79C522.768,563.999 521.369,561.705 519.906,561.574C518.443,561.444 516.49,563.056 515.108,560.724C513.727,558.393 512.402,558.966 510.049,558.393C507.697,557.82 504.442,554.34 503.728,552.741C503.014,551.141 500.453,547.752 500.668,544.507C500.882,541.263 500.114,534.043 500.89,532.327C501.665,530.612 503.077,524.674 505.883,524.997C508.689,525.319 510.179,526.052 513.182,527.538C516.185,529.025 515.712,530.286 518.778,529.544C521.844,528.802 522.988,529.25 522.988,528.012C522.988,526.773 523.041,526.691 522.009,525.43C520.977,524.17 519.108,521.924 520.342,521.938C521.576,521.951 523.742,523.168 525.184,524.876C526.625,526.584 531.905,530.675 534.164,531.616C536.423,532.556 534.028,534.148 537.618,534.937C541.208,535.726 540.301,535.82 542.21,534.293C544.118,532.765 547.457,529.253 549.616,530.539C551.776,531.824 555.37,533.732 556.588,532.147C557.805,530.561 559.9,526.311 561.193,523.784C562.486,521.257 563.85,518.553 562.486,515.71C561.122,512.867 561.408,511.127 559.725,510.663C558.043,510.199 557.862,511.414 555.972,511.575C554.081,511.736 549.092,508.252 547.379,505.79C545.667,503.328 545.657,503.623 545.969,500.982C546.282,498.341 547.123,497.528 545.867,496.02C544.611,494.511 542.267,495.107 541.949,493.992C541.63,492.877 538.709,491.53 537.422,492.553C536.136,493.575 534.261,495.773 532.409,496.056C530.557,496.339 527.266,496.399 526.715,493.3C526.164,490.201 523.864,488.166 526.843,487.164C529.822,486.161 529.881,484.344 531.884,483.591C533.886,482.839 535.825,481.339 538.162,481.29C540.499,481.24 548.989,482.274 549.516,480.463C550.043,478.653 550.225,475.962 547.961,475.736C545.697,475.51 544.182,474.381 543.701,473.238C543.22,472.095 540.134,466.756 538.806,466.22C537.478,465.684 533.361,463.797 535.17,463.036C536.98,462.276 539.656,460.591 541.453,462.817C543.249,465.043 545.605,465.738 547.073,466.534C548.542,467.33 550.579,467.608 551.667,466.481C551.736,466.41 551.814,466.331 551.902,466.244C554.052,469.95 556.562,474.058 557.581,474.881C559.516,476.444 560.909,478.076 562.029,477.505C563.149,476.933 564.706,473.157 567.92,472.166C571.135,471.174 578.355,472.943 575.674,473.824C572.994,474.706 569.278,476.839 570.921,478.087C572.565,479.335 578.336,478.783 578.712,477.834C579.087,476.885 579.363,473.178 581.297,472.279C583.231,471.38 589.511,469.091 592.961,470.905C596.411,472.72 598.596,475.719 596.674,476.974C594.751,478.229 593.561,480.179 596.622,480.112C599.683,480.045 601.22,480.629 601.22,480.629C601.22,480.629 604.574,485.844 605.614,482.997C606.655,480.151 608.456,478.723 609.363,479.948C610.269,481.173 611.353,486.58 610.26,488.883C609.166,491.186 606.919,496.636 609.056,501.336C611.193,506.037 616.288,513.094 618.245,516.2C620.202,519.306 623.012,527.4 623.604,529.169C624.196,530.937 626.493,533.53 627.821,534.272C629.149,535.014 632.405,541.125 632.784,542.186C633.162,543.248 632.65,543.665 634.753,544.809C636.855,545.953 637.041,548.009 638.655,551.847C640.268,555.686 647.668,561.819 652.308,562.922C656.949,564.024 658.333,566.655 661.548,566.373C664.762,566.091 664.949,566.454 671.417,568.061C677.885,569.668 681.253,566.766 682.162,562.69C683.071,558.615 685.562,554.708 696.24,555.386C706.918,556.064 713.617,554.561 713.617,554.561C713.617,554.561 719.605,558.464 733.057,548.711L733.066,548.72C733.391,549.035 733.882,549.3 734.587,549.491C738.058,550.428 743.339,552.691 745.816,552.797C748.294,552.903 751.624,557.028 754.219,561.908C756.813,566.788 763.43,572.928 766.783,575.689C770.136,578.45 774.843,584.391 777.067,585.453C779.291,586.516 788.363,587.727 789.01,595.518C789.657,603.309 789.716,602.928 789.777,607.042C789.837,611.156 790.441,617.975 796.549,618.617C796.659,618.628 796.768,618.641 796.877,618.654C788.787,621.216 778.351,625.483 774.792,626.773C769.855,628.562 757.634,639.152 755.018,641.277C752.402,643.401 743.184,644.181 737.975,645.594C732.765,647.006 723.68,648.05 718.937,647.722C714.193,647.393 707.332,646.078 704.763,646.898C702.195,647.718 693.93,644.892 688.537,642.154C683.144,639.416 670.447,633.777 667.83,629.969C665.213,626.161 659.679,622.775 654.139,621.05C648.599,619.326 645.121,616.777 642.379,614.628C639.637,612.478 638.284,611.21 633.745,610.654C629.205,610.099 620.823,608.383 614.081,607.627C607.339,606.872 595.206,608.839 592.277,612.481C589.348,616.123 584.81,623.151 581.329,622.946C577.848,622.742 575.89,620.598 573.025,621.065C570.16,621.532 572.036,623.965 575.247,625.119C578.459,626.273 577.555,627.304 574.483,628.072C571.412,628.839 567.121,625.832 565.204,623.408C563.286,620.984 563.667,623.543 562.589,627.517C562.027,629.591 560.217,631.203 558.615,632.271L558.622,632.271L558.73,632.279L558.732,632.279L558.824,632.282L558.92,632.282L558.85,632.283L558.824,632.282C558.793,632.281 558.763,632.28 558.732,632.279L558.732,632.279L558.73,632.279L558.664,632.275L558.622,632.271L558.615,632.271L558.615,632.271ZM558.954,632.282L559.085,632.278C559.042,632.28 558.998,632.282 558.954,632.282L558.945,632.282L558.92,632.282L558.954,632.282ZM559.2,632.273L559.163,632.275L559.223,632.271L559.2,632.273ZM732.941,548.585L732.966,548.614L732.947,548.593L732.941,548.585ZM732.885,548.516L732.909,548.547L732.897,548.532L732.885,548.516ZM732.832,548.445L732.856,548.478L732.85,548.47L732.832,548.445ZM732.767,548.343L732.807,548.408C732.793,548.386 732.78,548.365 732.767,548.343ZM732.726,548.269L732.746,548.307L732.731,548.279L732.726,548.269ZM732.689,548.194L732.707,548.232L732.698,548.214L732.689,548.194ZM732.654,548.114L732.672,548.157L732.668,548.148L732.654,548.114ZM732.616,548.01L732.641,548.081C732.632,548.058 732.624,548.034 732.616,548.01ZM732.593,547.931L732.606,547.976L732.596,547.945L732.593,547.931ZM732.573,547.85L732.583,547.895L732.578,547.876L732.573,547.85ZM732.556,547.762L732.565,547.815L732.563,547.806L732.556,547.762ZM732.541,547.658L732.551,547.735L732.541,547.664L732.541,547.658ZM732.533,547.576L732.537,547.626L732.534,547.593L732.533,547.576ZM732.529,547.491L732.531,547.541L732.53,547.52L732.529,547.491ZM732.528,547.393L732.528,547.457L732.528,547.448L732.528,547.393ZM732.532,547.293L732.529,547.369L732.531,547.301L732.532,547.293ZM732.538,547.208L732.534,547.261L732.536,547.227L732.538,547.208ZM732.548,547.119L732.542,547.174L732.544,547.153L732.548,547.119ZM732.564,547.011L732.552,547.088L732.553,547.079L732.564,547.011ZM732.581,546.919L732.567,546.993L732.579,546.929L732.581,546.919ZM552.318,465.843L552.18,465.974L552.188,465.966L552.318,465.843Z" style="fill:rgb(255,126,147);stroke:white;stroke-width:1.56px;"/>
    </g>
</svg>
