<?xml version="1.0" encoding="UTF-8" standalone="no"?>
<!DOCTYPE svg PUBLIC "-//W3C//DTD SVG 1.1//EN" "http://www.w3.org/Graphics/SVG/1.1/DTD/svg11.dtd">
<svg width="100%" height="100%" viewBox="0 0 355 274" version="1.1" xmlns="http://www.w3.org/2000/svg" xmlns:xlink="http://www.w3.org/1999/xlink" xml:space="preserve" style="fill-rule:evenodd;clip-rule:evenodd;stroke-linecap:round;stroke-linejoin:round;stroke-miterlimit:1.5;">
    <g id="taneteriaja" transform="matrix(1,0,0,1,-562.234,-971.723)">
        <path d="M619.639,979.028C624.016,980.14 630.242,981.214 634.376,979.772C641.338,977.344 643.917,969.964 652.78,973.402C661.643,976.839 663.091,977.356 667.871,982.089C672.651,986.823 675.327,986.576 680.233,986.995C685.139,987.413 689.587,988.457 693.206,990.494C696.824,992.532 699.459,997.19 704.448,1001.6C709.437,1006.01 716.865,1009.51 718.303,1013.72C719.74,1017.94 721.316,1021.33 723.919,1019.29C726.523,1017.25 725.61,1013.44 731.834,1014.96C738.059,1016.49 737.269,1018.81 737.752,1023.1C738.235,1027.39 740.223,1029.02 741.058,1032.49C741.892,1035.97 743.473,1035.28 745.843,1037.59C748.213,1039.89 752.825,1040.62 754.875,1043.34C756.924,1046.06 759.439,1043.72 759.708,1042.22C759.977,1040.71 760.5,1041.37 762.371,1041.98C764.243,1042.59 767.626,1041.05 768.917,1043.38C770.208,1045.7 769.115,1049.45 772.266,1049.65C775.416,1049.86 776.66,1047.03 777.734,1049.9C778.809,1052.77 783.444,1058.54 797.993,1044.42C812.542,1030.3 816.653,1022.89 820.563,1018.27C821.408,1017.27 822.605,1016.18 823.961,1015.09C824.462,1015.58 824.996,1015.92 825.531,1016.1C826.87,1016.56 826.274,1017.87 828.246,1016.41C830.218,1014.95 834.163,1013 836.925,1015.12C839.687,1017.25 843.811,1016.88 846.051,1018.02C848.291,1019.15 850.019,1023.02 854.521,1025.32C859.024,1027.62 862.261,1030.34 863.591,1034.38C864.92,1038.42 867.918,1040.88 872.221,1042.17C876.523,1043.46 880.736,1049.63 879.893,1053.29C879.05,1056.94 878.028,1060.68 878.638,1063.01C879.249,1065.34 880.805,1068.93 881.931,1072.1C883.057,1075.28 886.032,1076.82 889.171,1077.58C892.309,1078.33 894.82,1081 896.85,1085.9C898.88,1090.81 899.289,1093.34 901.565,1095.12C903.841,1096.9 903.77,1097.86 903.627,1100.25C903.485,1102.64 904.507,1104.53 907.082,1110.15C909.658,1115.76 915.959,1131.34 915.874,1136.83C915.789,1142.32 914.892,1144.5 914.278,1145.55C913.664,1146.61 908.521,1150.89 906.646,1153.76C904.772,1156.63 900.178,1160 900.143,1163.68C900.107,1167.36 900.568,1172.05 901.411,1175.88C902.254,1179.72 903.071,1187.71 903.071,1189.87C903.071,1192.02 901.835,1196.89 900.016,1199.42C898.198,1201.95 898.982,1201.45 899.888,1203.32C900.793,1205.18 900.614,1208.84 900.614,1211.15C900.614,1213.46 900.969,1217.65 898.433,1219.56C895.897,1221.46 887.995,1225.32 886.898,1228.22C885.801,1231.12 882.303,1230.61 880.858,1230.83C879.413,1231.05 882.3,1232.89 882.108,1236.05C881.916,1239.21 882.409,1239.27 881.618,1240.03C881.395,1240.24 881.304,1240.52 881.3,1240.82L881.3,1240.87C878.06,1240.49 874.712,1239.99 872.156,1239.38C865.043,1237.67 863.235,1232.84 856.83,1224.66C850.424,1216.49 849.795,1213.39 845.302,1206.81C840.81,1200.22 835.998,1201.2 829.597,1199.48C823.196,1197.75 822.016,1190.98 822.016,1190.98C822.016,1190.98 819.092,1188 811.741,1186.7C804.39,1185.39 804.083,1189.82 797.564,1194.42C791.045,1199.03 789.252,1212.58 786.029,1222.09C782.807,1231.59 771.282,1241.82 766.807,1244.05C762.331,1246.28 756.549,1243.28 741.778,1233.11C727.007,1222.94 730.403,1220.78 730.661,1218.52C730.918,1216.26 730.798,1210.64 723.167,1203.78C715.536,1196.92 714.322,1189.55 713.348,1184.84C712.374,1180.13 704.07,1172.16 701.413,1171.85C698.755,1171.55 693.776,1171.73 690.485,1171.3C687.194,1170.87 674.775,1169.24 662.115,1168.18C649.454,1167.12 649.845,1162.86 647.364,1159.93C644.883,1157.01 635.613,1148.24 630.156,1143.21C624.698,1138.19 618.5,1137.34 615.693,1136.84C612.886,1136.34 609.153,1136.76 609.153,1136.76C609.153,1136.76 609.047,1136.77 608.942,1137.22C608.91,1132.76 608.882,1128.05 608.882,1125.22C608.882,1118.6 608.402,1112.49 607.786,1099.74C607.17,1086.99 595.774,1080.12 584.222,1072.16C572.67,1064.2 568.375,1061.62 564.654,1048.29C560.932,1034.95 564.329,1033.44 567.16,1030.63C569.991,1027.83 575.694,1017.62 577.955,1012.4C580.217,1007.17 586.836,999.131 586.836,999.131L598.493,1006.88L607.92,993.545C607.92,993.545 614.353,984.119 616.12,982.738C616.981,982.065 618.334,980.581 619.639,979.028ZM881.899,1242.74L881.94,1242.82L881.91,1242.76L881.899,1242.74ZM881.802,1242.54L881.877,1242.69L881.836,1242.61L881.802,1242.54ZM881.753,1242.43L881.771,1242.47L881.762,1242.45L881.753,1242.43ZM881.687,1242.29L881.7,1242.31L881.69,1242.29L881.687,1242.29ZM881.612,1242.11L881.627,1242.14L881.621,1242.13L881.612,1242.11ZM881.551,1241.96L881.566,1242L881.556,1241.97L881.551,1241.96ZM881.429,1241.6L881.455,1241.69L881.442,1241.65L881.429,1241.6ZM881.368,1241.38L881.389,1241.46L881.375,1241.41L881.368,1241.38ZM881.324,1241.15L881.341,1241.25L881.327,1241.17L881.324,1241.15ZM881.311,1241.05L881.32,1241.13L881.316,1241.1L881.311,1241.05Z" style="fill:rgb(255,177,23);stroke:white;stroke-width:1.56px;"/>
    </g>
</svg>
