<?xml version="1.0" encoding="UTF-8" standalone="no"?>
<!DOCTYPE svg PUBLIC "-//W3C//DTD SVG 1.1//EN" "http://www.w3.org/Graphics/SVG/1.1/DTD/svg11.dtd">
<svg width="100%" height="100%" viewBox="0 0 153 310" version="1.1" xmlns="http://www.w3.org/2000/svg" xmlns:xlink="http://www.w3.org/1999/xlink" xml:space="preserve" style="fill-rule:evenodd;clip-rule:evenodd;stroke-linecap:round;stroke-linejoin:round;stroke-miterlimit:1.5;">
    <g id="taneteritau" transform="matrix(1,0,0,1,-473.303,-898.261)">
        <path d="M572.142,1207.04L572.147,1207.04L572.13,1207.01L572.142,1207.04ZM572.102,1206.96L572.106,1206.97L572.089,1206.93L572.102,1206.96ZM572.061,1206.88L572.064,1206.89L572.048,1206.86L572.061,1206.88ZM572.019,1206.81L572.021,1206.82L572.007,1206.79L572.019,1206.81ZM571.976,1206.74L571.976,1206.74L571.968,1206.73L571.976,1206.74ZM571.789,1206.47L571.799,1206.48L571.788,1206.47L571.789,1206.47ZM571.739,1206.4L571.752,1206.42L571.737,1206.4L571.739,1206.4ZM571.688,1206.34L571.702,1206.36L571.684,1206.34L571.688,1206.34ZM571.635,1206.28L571.649,1206.3L571.63,1206.27L571.635,1206.28ZM571.58,1206.22L571.594,1206.23L571.574,1206.21L571.58,1206.22ZM571.524,1206.16L571.537,1206.17L571.516,1206.15L571.524,1206.16ZM571.466,1206.1L571.479,1206.11L571.457,1206.09L571.466,1206.1ZM571.406,1206.04L571.418,1206.05L571.396,1206.03L571.406,1206.04ZM571.344,1205.98L571.355,1205.99L571.333,1205.97L571.344,1205.98ZM571.281,1205.93L571.291,1205.94L571.268,1205.92L571.281,1205.93ZM571.215,1205.87L571.224,1205.88L571.201,1205.86L571.215,1205.87ZM571.148,1205.82L571.155,1205.83L571.133,1205.81L571.148,1205.82ZM571.078,1205.77L571.084,1205.77L571.063,1205.75L571.078,1205.77ZM571.007,1205.71L571.011,1205.72L570.992,1205.7L571.007,1205.71ZM570.933,1205.66L570.936,1205.66L570.92,1205.65L570.933,1205.66ZM570.857,1205.61L570.858,1205.61L570.849,1205.61L570.857,1205.61ZM570.353,1205.32C570.252,1205.27 570.147,1205.22 570.036,1205.17C567.789,1204.18 564.762,1201.8 563.94,1198.82C563.117,1195.84 561.001,1194.04 560.307,1191.12C559.613,1188.2 557.73,1183.02 554.867,1181.61C552.003,1180.2 550.314,1179.41 550.418,1176.84C550.522,1174.28 548.606,1168.78 546.5,1167.94C544.394,1167.1 540.173,1165.89 538.222,1163.05C536.271,1160.2 533.704,1159.05 531.599,1158.6C529.495,1158.14 526.34,1156.5 524.649,1155.23C522.959,1153.96 522.734,1153.6 521.642,1154.15C520.551,1154.7 519.673,1158.22 515.303,1153.74C510.933,1149.26 510.222,1148.16 506.173,1149.56C502.123,1150.96 501.806,1153 499.298,1150.92C496.79,1148.85 495.467,1150.93 493.975,1148.81C492.483,1146.69 492.014,1147.2 493.157,1143.75C494.301,1140.31 495.646,1134.04 493.868,1128.26C492.089,1122.47 487.111,1111.65 485.122,1110.21C483.133,1108.77 478.907,1108.69 477.751,1105.23C476.595,1101.76 475.297,1100.91 474.524,1100.05C473.751,1099.19 474.091,1097.85 474.828,1096.73C475.564,1095.61 479.88,1092.38 480.355,1090.17C480.831,1087.95 480.851,1082.17 482.045,1079.38C483.238,1076.58 487.37,1067.5 488.748,1063.61C490.126,1059.73 493.597,1046.37 494.008,1043.24C494.419,1040.11 499.697,1024.85 500.531,1020.68C501.365,1016.51 504.931,1007.86 506.705,1003.8C508.478,999.739 508.666,992.8 509.563,988.167C510.461,983.534 511.138,977.52 510.36,972.198C509.582,966.875 508.459,961.324 506.714,956.678C504.969,952.031 501.283,944.366 503.073,944.05C504.862,943.734 505.071,945.902 506.023,944.94C506.975,943.979 509.723,944.061 508.878,941.896C508.033,939.731 506.734,938.364 508.033,936.103C509.332,933.842 509.354,931.415 508.017,928.424C506.68,925.434 506.996,925.85 507.137,921.959C507.279,918.067 507.005,917.756 509.009,914.882C511.013,912.009 512.923,903.236 512.429,900.69C512.165,899.326 512.358,899.199 512.676,899.043C515.34,900.448 518.575,902.67 519.321,905.438C520.638,910.323 521.495,909.309 521.495,909.309C521.495,909.309 526.115,909.383 527.182,910.057C528.249,910.731 529.742,908.689 531.137,907.463C532.533,906.236 533.324,904.514 537.108,906.292C540.891,908.07 542.072,910.126 544.881,912.181C547.689,914.235 551.949,914.597 554.476,914.235C557.003,913.874 557.516,912.138 561.188,912.343C564.86,912.549 567.073,913.026 570.29,914.749C573.507,916.472 573.501,917.289 575.887,918.685C578.273,920.081 588.715,927.168 588.715,927.168C588.715,927.168 586.535,931.176 589.769,932.314C593.003,933.451 596.074,938.619 596.074,938.619C596.074,938.619 601.181,943.434 605.305,943.754C609.429,944.075 610.711,945.638 612.523,948.266C614.336,950.894 615.397,951.133 615.397,951.133L615.808,953.261C615.808,953.261 622.43,954.783 624.061,956.015C625.691,957.247 624.218,960.588 622.833,962.113C621.448,963.637 622.784,966.239 623.914,967.326C625.043,968.413 624.219,972.981 622.968,974.774C621.717,976.568 617.886,981.358 616.12,982.738C614.353,984.119 607.92,993.545 607.92,993.545L598.493,1006.88L586.836,999.131C586.836,999.131 580.217,1007.17 577.955,1012.4C575.694,1017.62 569.991,1027.83 567.16,1030.63C564.329,1033.44 560.932,1034.95 564.654,1048.29C568.375,1061.62 572.67,1064.2 584.222,1072.16C595.774,1080.12 607.17,1086.99 607.786,1099.74C608.402,1112.49 608.882,1118.6 608.882,1125.22C608.882,1128.05 608.91,1132.76 608.942,1137.22C608.874,1137.52 608.805,1138 608.766,1138.78C608.669,1140.76 606.638,1144.12 603.802,1150.02C600.965,1155.92 597.167,1155.56 592.795,1157.15C588.423,1158.75 585.917,1163.52 585.593,1164.89C585.269,1166.26 586.522,1168.05 587.369,1169.51C588.217,1170.98 584.48,1169.1 582.982,1172.17C581.484,1175.24 584.21,1174.37 585.281,1175.19C586.351,1176 587.277,1179.73 583.94,1182.22C580.603,1184.7 579.362,1186.11 576.626,1187.9C573.89,1189.69 574.472,1191.06 573.777,1192.8C573.083,1194.54 570.295,1196.32 569.648,1197.41C569.002,1198.49 574.337,1197.63 574.16,1199.75C574.054,1201.02 571.991,1203.52 570.353,1205.32Z" style="fill:rgb(230,65,25);stroke:white;stroke-width:1.56px;"/>
    </g>
</svg>
