<?xml version="1.0" encoding="UTF-8" standalone="no"?><!DOCTYPE svg PUBLIC "-//W3C//DTD SVG 1.1//EN" "http://www.w3.org/Graphics/SVG/1.1/DTD/svg11.dtd"><svg width="100%" height="100%" viewBox="0 0 63 66" version="1.1" xmlns="http://www.w3.org/2000/svg" xmlns:xlink="http://www.w3.org/1999/xlink" xml:space="preserve" style="fill-rule:evenodd;clip-rule:evenodd;stroke-linecap:round;stroke-linejoin:round;stroke-miterlimit:1.5;"><path id="bajengbarat" d="M39.338,0.454c0.401,1.597 0.877,3.165 1.361,4.024c1.245,2.208 -0.034,1.482 1.604,1.281c1.637,-0.202 -0.451,0.99 -0.451,2.652c0,1.661 1.162,3.54 1.162,3.54l3.631,1.305l1.885,1.496l2.418,1.413l3.687,0.411l2.25,-1.689c0,0 2.245,-2.841 3.746,-0.391c1.501,2.451 0.117,3.86 0.117,3.86l-3.14,1.114l-1.61,-0.248l-1.022,2.329l0,4.769l0.587,3.805l1.566,1.625c0,0 0.582,-0.28 -0.337,1.661c-0.919,1.942 -1.775,2.285 -1.775,2.285l-0.598,1.663l0.235,4.418l0.231,6.049l0.571,4.547c0,0 -0.029,0.007 -0.029,0.007l-0.016,0.004l0,0l-0.001,0c-0.041,0.011 -0.083,0.023 -0.126,0.037l-0.01,0.003l-0.002,0.001l-0.007,0.002l-0.022,0.008l-0.016,0.005l-0.007,0.003l-0.01,0.003l-0.016,0.006l-0.014,0.005l-0.012,0.005l-0.014,0.005l-0.011,0.005l-0.01,0.003l-0.019,0.008l-0.016,0.007l-0.006,0.002l-0.006,0.003l-0.008,0.003l-0.036,0.016l-0.048,0.021l-0.004,0.002l-0.002,0.001c-0.028,0.013 -0.057,0.027 -0.086,0.042l-0.01,0.004l-0.007,0.004c-0.028,0.015 -0.057,0.03 -0.085,0.046l-0.006,0.003l-0.01,0.005l-0.031,0.018l-0.06,0.034c-2.543,1.505 -8.869,8.532 -13.098,9.147c-4.229,0.616 -3.071,1.9 -3.071,1.9c0,0 -1.492,0.733 -3.68,1.212l-0.214,0.045c-0.009,-0.015 -0.02,-0.03 -0.031,-0.045l-0.009,-0.011l-0.02,-0.025l-0.008,-0.011l-0.011,-0.012l-0.023,-0.026l-0.009,-0.01l-0.013,-0.013c-0.042,-0.045 -0.092,-0.092 -0.148,-0.14l-0.02,-0.016c-1.216,-1.026 -5.246,-2.742 -6.797,-3.308c-1.793,-0.653 -3.141,-2.735 -4.1,-3.902c-0.96,-1.167 -1.415,-0.583 -2.823,-2.289c-1.407,-1.706 -0.352,-4.288 -1.086,-9.921c-0.734,-5.634 -4.395,-11.937 -4.395,-11.937c0,0 -1.921,3.614 -3.96,1.736c-2.039,-1.877 -8.297,-7.06 -9.616,-10.671c-1.32,-3.612 -0.692,-5.711 0.533,-7.206c1.226,-1.495 3.542,-2.213 4.594,-2.216c0,0 0.635,-1.828 0.983,-4.054c0.101,-0.651 0.286,-1.244 0.537,-1.805l0.029,-0.064l0.007,-0.015l0.008,-0.017l0.013,-0.027l0.016,-0.036l0.019,-0.039l0.012,-0.024l0.007,-0.014l0.008,-0.017l-0.008,0.017l-0.001,0l-0.006,0.013l-0.01,0.021l-0.002,0.004l-0.035,0.075l-0.003,0.006l-0.01,0.021l-0.006,0.013l-0.002,0.004l-0.036,0.079l-0.014,0.032c1.614,0.504 4.009,1.043 6.865,1.044l0.261,-0.002c2.621,-0.029 5.616,-0.518 8.745,-1.898c9.693,-4.274 9.745,-5.934 13.195,-6.727c0,0 0.068,-0.017 0.068,-0.017l0.007,-0.002l0.006,-0.001l0.018,-0.005l0.036,-0.009l0.015,-0.004l0.011,-0.003l0.017,-0.005l0.025,-0.007l0.023,-0.007l0.016,-0.005l0.012,-0.004l0.016,-0.004l0.034,-0.011l0.018,-0.006l0.007,-0.002l0.008,-0.003l0.058,-0.02l0.007,-0.002l0.001,0c0.024,-0.009 0.049,-0.018 0.074,-0.027l0.005,-0.002l0.017,-0.007l0.038,-0.014l0.014,-0.005l0.01,-0.004l0.017,-0.007l0.025,-0.01l0.022,-0.009l0.015,-0.007l0.013,-0.005l0.017,-0.007l0.031,-0.014l0.019,-0.008l0.007,-0.003l0.009,-0.004l0.05,-0.023l0.012,-0.005l0.002,-0.001c0.024,-0.011 0.048,-0.023 0.072,-0.035l0.005,-0.002l0.018,-0.009l0.038,-0.019l0.012,-0.006l0.01,-0.005l0.018,-0.009l0.025,-0.013l0.02,-0.011l0.015,-0.008l0.014,-0.007l0.016,-0.009l0.029,-0.015l0.019,-0.011l0.009,-0.005l0.008,-0.005l0.042,-0.023l0.018,-0.011l0.003,-0.002c0.024,-0.013 0.047,-0.027 0.07,-0.041l0.005,-0.002l0.021,-0.013l0.035,-0.022l0.01,-0.006l0.01,-0.006l0.021,-0.013l0.023,-0.015l0.016,-0.01l0.017,-0.011l0.016,-0.011l0.015,-0.009l0.023,-0.015l0.022,-0.015l0.011,-0.008l0.008,-0.005l0.03,-0.02l0.027,-0.019l0.006,-0.003l0.001,-0.001l0.001,-0.001l0.068,-0.048l0.05,-0.036l0.007,-0.005l0.004,-0.002c0.039,-0.029 0.077,-0.058 0.116,-0.087l0.006,-0.004l0.006,-0.006c0.082,-0.062 0.162,-0.127 0.242,-0.193Z" style="fill:#438cd2;stroke:#fff;stroke-width:0.56px;"/></svg>