<?xml version="1.0" encoding="UTF-8" standalone="no"?><!DOCTYPE svg PUBLIC "-//W3C//DTD SVG 1.1//EN" "http://www.w3.org/Graphics/SVG/1.1/DTD/svg11.dtd"><svg width="100%" height="100%" viewBox="0 0 176 119" version="1.1" xmlns="http://www.w3.org/2000/svg" xmlns:xlink="http://www.w3.org/1999/xlink" xml:space="preserve" style="fill-rule:evenodd;clip-rule:evenodd;stroke-linecap:round;stroke-linejoin:round;stroke-miterlimit:1.5;"><path id="bajeng" d="M73.021,0.951c0.992,2.557 2.704,5.624 5.508,7.159c5.318,2.912 -1.683,9.975 -1.683,9.975c0,0 -0.299,2.454 0.896,4.66c1.195,2.206 0.052,7.126 0.052,7.126l0.178,2.108l-0.994,1.106l0.016,1.794l1.755,0.744c0,0 0.456,3.139 2.246,8.413c1.789,5.273 11.06,15.409 16.262,16.874c5.202,1.464 14.299,4.571 17.007,4.13c2.708,-0.441 6.99,0.74 8.618,1.35c1.629,0.609 5.848,4.271 10.33,3.337c4.482,-0.933 12.877,-0.764 12.877,-0.764l0.456,4.895c0,0 -0.108,5.397 3.439,3.372c3.547,-2.026 2.771,-2.921 2.771,-2.921l5.12,1.329l5.422,2.903l5.366,2.857c0,0 2.137,2.437 4.335,2.214c0.517,-0.053 1.032,0.032 1.517,0.192c-0.603,0.657 -1.075,1.334 -1.497,1.561c-1.386,0.745 -5.566,3.747 -5.566,3.747c0,0 -4.029,4.529 -6.828,5.008c-2.8,0.479 -10.613,2.92 -9.569,4.804c1.043,1.884 2.635,6.7 1.851,8.268c-0.784,1.568 -5.053,4.817 -7.564,2.905c-2.511,-1.913 -2.144,-2.166 -4.436,-2.405c-2.293,-0.239 -2.557,-0.924 -2.517,-3.296c0.039,-2.371 -0.048,-3.488 -2.656,-3.865c-2.607,-0.377 -2.147,4.357 -3.916,2.993c-1.769,-1.364 -2.106,1.92 -3.311,-2.802c-1.206,-4.723 -0.362,-4.855 -3.663,-3.894c-3.3,0.961 -4.329,2.138 -6.632,2.864c-2.302,0.727 -3.841,2.023 -5.427,0.532c-1.586,-1.492 -3.556,-2.451 -4.948,-2.207c-1.393,0.244 -5.971,-1.601 -1.624,2.276c4.347,3.877 1.715,6.053 0.057,7.099c-1.657,1.047 -3.647,3.205 -5.024,2.127c-1.377,-1.077 -0.764,-2.22 -3.083,-1.808c-2.32,0.413 -3.672,-0.087 -3.166,5.474c0.01,0.1 0.018,0.198 0.025,0.296c-5.01,-0.369 -12.493,-1.101 -14.888,-2.296c-3.712,-1.852 -9.443,-4.556 -9.443,-4.556l-1.273,-0.639c0,0 -4.872,5.956 -7.983,3.504c-3.11,-2.451 -4.197,-5.805 -6.741,-4.3c-2.543,1.505 -8.869,8.532 -13.098,9.147c-4.229,0.616 -3.071,1.9 -3.071,1.9c0,0 -1.59,0.781 -3.894,1.257c-0.598,-0.947 -5.368,-2.99 -7.089,-3.617c-1.793,-0.653 -3.141,-2.735 -4.1,-3.902c-0.96,-1.167 -1.415,-0.583 -2.823,-2.289c-1.407,-1.706 -0.352,-4.288 -1.086,-9.921c-0.734,-5.634 -4.395,-11.937 -4.395,-11.937c0,0 -1.921,3.614 -3.96,1.736c-2.039,-1.877 -8.297,-7.06 -9.616,-10.671c-1.32,-3.612 -0.692,-5.711 0.533,-7.206c1.226,-1.495 3.542,-2.213 4.594,-2.216c0,0 0.635,-1.828 0.983,-4.054c0.123,-0.787 0.367,-1.488 0.702,-2.152c-0.063,0.125 -0.123,0.251 -0.179,0.379c3.131,0.977 9.196,2.088 15.871,-0.856c9.693,-4.274 9.745,-5.934 13.195,-6.727c3.451,-0.794 6.379,-6.81 6.706,-10.068c0.327,-3.257 4.581,-9.886 7.674,-9.996c3.093,-0.11 9.738,0.627 10.157,-3.061c0.419,-3.688 -2.018,-5.342 -0.358,-7.975c1.66,-2.633 -1.669,-4.548 0.531,-9.714c2.2,-5.166 2.027,-9.275 6.432,-10.146c1.447,-0.286 3.076,-1.092 4.619,-2.154Zm-64.582,60.19l-0.064,0.124c0.042,-0.082 0.084,-0.163 0.129,-0.244l-0.065,0.12Zm0.111,-0.203l-0.042,0.075l0.022,-0.04l0.02,-0.035Zm0.088,-0.155l-0.031,0.054l0.021,-0.037l0.01,-0.017Zm0.114,-0.19l-0.029,0.048l0.007,-0.013l0.022,-0.035Zm0.1,-0.161l-0.035,0.055l0.019,-0.029l0.016,-0.026Zm0.096,-0.149l-0.018,0.029l0.015,-0.024l0.006,-0.009l-0.003,0.004Zm0.132,-0.195l-0.035,0.051l0.013,-0.021l0.022,-0.03Zm0.105,-0.153l-0.031,0.046l0.021,-0.031l0.01,-0.015Zm0.132,-0.184l-0.03,0.04l0.008,-0.01l0.022,-0.03Zm0.118,-0.161l-0.036,0.048l0.019,-0.026l0.017,-0.022Zm0.111,-0.15l-0.012,0.017l0.01,-0.014l0.002,-0.003Zm0.167,-0.217l-0.166,0.217l0.126,-0.166l0.04,-0.051Zm0.19,-0.243l-0.146,0.186l0.048,-0.062l0.098,-0.124Zm0.193,-0.243l-0.166,0.209c0.055,-0.069 0.11,-0.139 0.166,-0.209Zm0.315,-0.387l-0.065,0.079l0.013,-0.016l0.052,-0.063Zm0.194,-0.236c0.113,-0.137 0.227,-0.276 0.343,-0.417l-0.343,0.417Zm22.311,-29.827l0.005,0.112l-0.002,-0.047l-0.003,-0.065Zm-0.018,-0.46l0.008,0.229l-0.004,-0.092l-0.004,-0.137Zm-0.006,-0.161l0.003,0.083l-0.001,-0.028l-0.002,-0.055Zm-0.008,-0.269l0.003,0.099l-0.002,-0.049l-0.001,-0.05Zm-0.007,-0.288l0.002,0.103l-0.001,-0.067l-0.001,-0.036Zm-0.006,-0.31l0.002,0.085l-0.002,-0.068l0,-0.017Zm-0.005,-0.354l0,0.019l0,-0.002l0,-0.017Zm-0.003,-0.436l0,0.105l0,-0.029l0,-0.076Zm0,-0.394l0,0.128l0,-0.055l0,-0.073Zm0.003,-0.399l-0.002,0.132l0.001,-0.077l0.001,-0.055Zm0.005,-0.409l-0.002,0.114l0.001,-0.084l0.001,-0.03Zm0.009,-0.42c0,0 0,0 0,0Zm0.047,4.122l0.009,0.172l-0.005,-0.085l-0.004,-0.087Z" style="fill:#a9d243;stroke:#fff;stroke-width:0.56px;"/></svg>