<?xml version="1.0" encoding="UTF-8" standalone="no"?><!DOCTYPE svg PUBLIC "-//W3C//DTD SVG 1.1//EN" "http://www.w3.org/Graphics/SVG/1.1/DTD/svg11.dtd"><svg width="100%" height="100%" viewBox="0 0 73 117" version="1.1" xmlns="http://www.w3.org/2000/svg" xmlns:xlink="http://www.w3.org/1999/xlink" xml:space="preserve" style="fill-rule:evenodd;clip-rule:evenodd;stroke-linecap:round;stroke-linejoin:round;stroke-miterlimit:1.5;"><path id="barombong" d="M0.694,114.898c0.605,-1.372 1.606,-2.556 2.754,-3.951c1.611,-1.955 0.318,-4.129 0.628,-7.966c0.311,-3.837 0.837,-3.737 2.148,-4.774c1.31,-1.037 9.337,-6.811 10.793,-8.645c1.457,-1.833 2.918,-2.825 2.918,-2.825c0,0 0.074,-3.496 1.45,-3.509c1.377,-0.012 4.051,-1.297 4.051,-1.297c0,0 -0.331,-5.293 0.413,-9.724c0.745,-4.432 1.377,-11.403 1.2,-13.584c-0.177,-2.182 -3.809,-3.097 -3.809,-3.097c0,0 -0.348,-7.185 4.41,-11.597c0,0 1.896,-3.099 2.013,-5.936c0.117,-2.836 1.959,-2.96 1.959,-2.96c0,0 -0.823,-5.019 2.342,-6.454c3.165,-1.434 1.881,-5.133 0.577,-6.85c-1.303,-1.718 -3.317,-3.256 -4.833,-1.227c-1.516,2.029 -3.3,1.615 -3.3,1.615l1.249,-2.82c0,0 2.466,-1.982 0.946,-2.584c-1.52,-0.602 -4.895,-2.039 -7.894,-1.388c-2.998,0.651 -2.026,0.934 -1.19,-3.408c0.835,-4.341 1.105,-3.461 1.961,-5.541c0.855,-2.079 0.408,-2.568 0.279,-3.981c-0.129,-1.413 2.783,-1.92 4.006,-1.895c1.223,0.025 4.092,0.899 5.937,0.603c1.846,-0.295 4.908,1.163 5.746,2.62c0.839,1.458 -0.208,2.229 2.199,2.989c2.407,0.76 9.011,3.301 11.991,2.262c0.602,-0.21 1.264,-0.654 1.98,-1.214c0.389,3.618 0.916,8.829 1.051,11.678c0.22,4.659 -1.874,10.455 -1.874,10.455c0,0 0.649,0.557 3.645,0.063c2.996,-0.494 5.104,4.762 7.724,9.072c2.619,4.309 7.673,4.605 7.673,4.605l-0.219,3.082c-0.219,3.082 -6.312,8.77 -10.716,9.64c-4.405,0.871 -4.232,4.98 -6.432,10.146c-2.2,5.166 1.129,7.081 -0.531,9.714c-1.66,2.633 0.777,4.287 0.358,7.975c-0.419,3.688 -7.064,2.951 -10.157,3.061c-3.093,0.11 -7.347,6.739 -7.674,9.996c-0.327,3.258 -3.255,9.274 -6.706,10.068c-3.45,0.793 -3.502,2.453 -13.195,6.727c-6.675,2.944 -12.74,1.833 -15.871,0.856Z" style="fill:#d29443;stroke:#fff;stroke-width:0.56px;"/></svg>