<?xml version="1.0" encoding="UTF-8" standalone="no"?><!DOCTYPE svg PUBLIC "-//W3C//DTD SVG 1.1//EN" "http://www.w3.org/Graphics/SVG/1.1/DTD/svg11.dtd"><svg width="100%" height="100%" viewBox="0 0 224 210" version="1.1" xmlns="http://www.w3.org/2000/svg" xmlns:xlink="http://www.w3.org/1999/xlink" xml:space="preserve" style="fill-rule:evenodd;clip-rule:evenodd;stroke-linecap:round;stroke-linejoin:round;stroke-miterlimit:1.5;"><path id="biringbulu" d="M19.767,14.484c2.182,0.117 4.486,0.06 5.677,-0.534c2.66,-1.327 2.24,-3.929 5.579,-3.038c3.34,0.892 5.671,-0.939 9.076,-4.791c3.405,-3.853 5.821,-6.248 7.967,-5.78c2.146,0.468 5.89,0.809 9.636,1.348c3.745,0.539 3.23,5.426 4.853,7.135c1.622,1.71 3.359,5.988 6.298,7.826c2.939,1.839 0.641,4.59 10.188,4.492c9.548,-0.098 11.962,1.188 13.562,3.049c1.6,1.862 4.44,4.414 4.527,10.89c0.087,6.476 -0.023,5.009 -0.914,9.623c-0.891,4.615 0.155,5.225 0.155,5.225c0,0 9.853,-5.643 13.178,-7.051c3.326,-1.408 9.836,-7.828 23.03,-6.931c13.194,0.896 14.839,0.704 14.839,0.704c0,0 -3.585,3.695 5.916,5.604c9.501,1.909 9.149,3.75 9.149,3.75c0,0 4.286,-2.308 6.641,0.757c2.355,3.064 1.001,1.688 3.961,4.496c2.96,2.807 3.714,2.368 8.39,4.103c4.675,1.735 8.555,4.092 9.158,6.814c0.603,2.721 3.925,-0.671 4.751,2.617c0.826,3.288 2.913,8.001 2.035,8.785c-0.879,0.784 -4.175,-2.764 -3.555,1.688c0.619,4.452 1.577,-0.886 2.588,5.46c1.01,6.347 -1.5,5.491 -1.417,8.124c0.084,2.633 1.764,4.187 2.982,6.485c1.218,2.297 3.199,5.906 3.199,5.906l0.254,2.811l2.963,4.153c0,0 3.092,3.645 3.231,3.97c0.139,0.324 -1.149,2.339 -1.149,2.339l-0.683,3.843l1.564,2.826c0,0 2.397,4.224 0.396,4.343c-2.001,0.118 -4.836,0.719 -4.892,2.388c-0.055,1.67 -1.653,2.195 -0.966,3.569c0.686,1.374 3.064,1.992 2.178,3.539c-0.886,1.548 -0.547,3.589 -0.547,3.589l2.556,0.637c0,0 2.139,-0.327 2.712,2.02c0.573,2.347 2.246,5.45 2.246,5.45c0,0 6.506,-0.495 7.352,1.297c0.846,1.791 2.485,5.072 2.485,5.072l1.748,2.454c-0.661,1.255 -1.007,2.883 -0.661,4.977c1.175,7.104 1.678,7.651 -0.199,7.557c-1.876,-0.094 -2.789,-3.418 -5.067,-1.488c-2.277,1.931 -2.082,1.931 -1.332,2.844c0.75,0.913 3.782,1.507 4.072,2.063c0.291,0.557 2.528,2.01 -0.258,2.501c-2.785,0.49 -5.926,-2.706 -6.106,-1.022c-0.181,1.683 -0.181,1.722 -0.181,1.722c0,0 -0.18,1.242 0.172,2.335c0.352,1.093 0.659,1.78 -1.65,1.917c-2.308,0.136 -2.368,1.279 -2.25,2.839c0.118,1.559 2.222,8.857 0.794,9.762c-1.429,0.905 -4.399,-0.123 -4.818,-0.296c-0.419,-0.173 -4.069,2.977 -6.169,1.617c-2.099,-1.36 -4.138,9.288 -6.87,8.878c-2.732,-0.409 -4.09,3.01 -4.09,3.01c0,0 1.768,4.487 0.391,3.475c-1.377,-1.012 -6.017,-5.083 -7.023,-0.85c0,0 -2.061,1.506 -2.13,-1.225c-0.069,-2.731 0.284,-5.334 0.284,-5.334c0,0 0.008,-1.562 -1.345,-1.916c-1.354,-0.355 -2.052,1.633 -1.732,2.715c0.319,1.083 -1.801,0.195 -2.062,2.488c-0.261,2.292 -6.975,6.357 -8.312,3.306c-1.337,-3.051 -3.143,-4.283 -4.727,-3.098c-1.583,1.186 -4.705,1.576 -6.792,1.204c-2.086,-0.373 -7.829,0.692 -10.141,-0.624c-2.311,-1.315 -8.137,-7.198 -11.514,-7.521c-3.377,-0.323 -6.771,-1.499 -9.522,0.032c-2.752,1.531 -0.906,-1.057 -2.454,-2.869c-1.548,-1.812 -0.946,-1.42 -4.435,-2.398c-3.49,-0.979 -3.946,-2.818 -5.709,-3.302c-1.764,-0.485 1.929,-1.244 0.367,-3.19c-1.563,-1.946 -3.476,-2.796 -6.226,-2.912c-2.75,-0.117 -12.32,-2.105 -13.601,-6.583c-1.28,-4.478 -2.685,-10.488 -4.183,-14.612c-1.499,-4.124 0.645,-3.804 2.565,-6.684c1.92,-2.88 4.524,-9.92 0.476,-15.535c-1.849,-2.565 0.574,-3.224 1.24,-4.591c0.666,-1.366 -0.115,-5.295 -2.202,-5.838c-2.088,-0.544 -2.017,-2.507 -5.587,-3.33c-3.57,-0.823 -13.908,-3.167 -21.391,5.334c-7.484,8.501 -8.152,12.846 -11.018,10.88c-2.866,-1.966 -8.889,-12.363 -8.077,-15.979c0.812,-3.615 0.741,-3.099 0.074,-5.8c-0.666,-2.702 -0.335,-2.931 -1.852,-4.686c-1.517,-1.755 -1.517,-3.331 -1.517,-4.501c0,-1.17 -2.518,-0.119 -2.19,-1.948c0.329,-1.829 0.319,-3.245 2.228,-1.945c1.908,1.3 1.09,-0.078 1.76,-2.095c0.67,-2.017 2.958,-2.053 2.839,-4.154c-0.119,-2.101 0.504,-2.992 -3.806,-4.535c-4.309,-1.542 -8.733,-4.456 -8.856,-6.709c-0.123,-2.253 -2.8,-1.757 -7.241,-1.581c-4.442,0.177 -13.53,3.805 -18.147,6.459l-1.503,0.352c0,0 5.209,-11.247 7.418,-12.91c2.208,-1.664 0.629,-1.2 1.6,-5.755c0.97,-4.555 3.754,-3.409 5.22,-3.681c1.467,-0.271 8.093,-3.548 5.731,-6.285c-2.362,-2.736 -2.687,-1.142 -2.81,-3.351c-0.123,-2.209 0.778,-2.976 -0.64,-4.004c-1.418,-1.028 -1.903,-0.217 -1.903,-2.741c0,-2.524 0.4,-2.17 -1.472,-4.497c-1.872,-2.327 -2.922,-2.303 -1.283,-3.842c1.639,-1.539 1.006,-3.56 0.189,-4.102c-0.817,-0.542 -0.383,-1.471 -2.308,-1.188c-1.925,0.283 -5.166,-0.946 -4.222,-2.818c0.943,-1.871 3.252,-3.063 2.105,-4.152c-1.146,-1.088 -0.858,-2.507 -3.611,-1.273c-2.753,1.234 -3.346,2.42 -3.346,3.438c0,1.019 -2.8,-0.48 -2.97,-2.025c-0.17,-1.544 0.602,-2.396 1.564,-3.181c0.962,-0.785 2.068,-2.518 1.172,-2.526c-0.895,-0.008 -2.542,0.028 -3.836,-0.649c-1.294,-0.676 -1.602,-2.091 0.273,-2.816c1.875,-0.725 2.942,-0.416 4.453,-0.161c1.511,0.255 4.342,-1.599 4.651,-3.418c0.309,-1.82 2.334,-3.255 3.025,-1.641c0.69,1.615 1.59,1.187 2.261,-0.438c0.642,-1.553 2.316,-1.565 3.526,-6.156Z" style="fill:#baafaf;stroke:#fff;stroke-width:0.56px;"/></svg>