<?xml version="1.0" encoding="UTF-8" standalone="no"?><!DOCTYPE svg PUBLIC "-//W3C//DTD SVG 1.1//EN" "http://www.w3.org/Graphics/SVG/1.1/DTD/svg11.dtd"><svg width="100%" height="100%" viewBox="0 0 93 82" version="1.1" xmlns="http://www.w3.org/2000/svg" xmlns:xlink="http://www.w3.org/1999/xlink" xml:space="preserve" style="fill-rule:evenodd;clip-rule:evenodd;stroke-linecap:round;stroke-linejoin:round;stroke-miterlimit:1.5;"><path id="bontonompo" d="M70.269,11.442c0.431,5.345 -1.208,6.608 1.775,6.48c3.03,-0.131 9.838,-5.126 13.444,-5.591c3.605,-0.465 6.778,1.475 6.965,2.79c0.187,1.314 -2.73,3.75 -4.5,5.037c-1.771,1.288 -3.452,3.708 -3.999,6.041c-0.546,2.333 -2.995,5.562 -4.505,6.479c-1.511,0.917 -2.361,4.291 -2.832,7.076c-0.471,2.785 -1.869,3.047 -3.013,4.604c-1.143,1.558 -5.671,2.593 -7.842,2.949c-2.171,0.356 -3.921,3.332 -4.262,5.979c-0.34,2.647 -1.236,2.908 -0.34,5.235c0.896,2.328 -1.333,2.252 1.914,3.449c3.247,1.197 7.973,1.427 7.764,5.024c-0.21,3.597 -3.798,6.614 -7.763,8.97c-3.864,2.295 -5.315,4.795 -8.559,5.248c-4.385,-4.033 -8.57,-9.245 -8.57,-9.245c0,0 -7.18,-5.016 -8.458,-6.076c-1.277,-1.061 -4.971,-2.427 -4.971,-2.427c0,0 -0.755,-2.787 -3.129,-3.394c-2.374,-0.607 -4.264,-1.311 -4.264,-1.311c0,0 -3.652,-3.299 -4.746,-2.601c-1.094,0.698 -6.677,-1.938 -9.98,-2.545c-1.696,-0.312 -4.561,-0.768 -6.947,-1.138c1.506,-1.646 3.084,-3.271 3.758,-3.979c1.394,-1.465 3.235,-4.945 2.012,-7.695c0,0 -2.832,-0.174 -3.1,-1.908c-0.268,-1.734 -1.982,-4.347 -2.277,-6.347c-0.294,-2 -0.173,-2.476 0.362,-2.725c0.535,-0.249 0.994,-2.863 2.373,-5.237c1.379,-2.373 3.603,-8.087 3.354,-8.974c-0.01,-0.035 -0.028,-0.073 -0.053,-0.112c2.304,-0.476 3.894,-1.257 3.894,-1.257c0,0 -1.158,-1.284 3.071,-1.9c4.229,-0.615 10.555,-7.642 13.098,-9.147c2.544,-1.505 3.631,1.849 6.741,4.3c3.111,2.452 7.983,-3.504 7.983,-3.504l1.273,0.639c0,0 5.731,2.704 9.443,4.556c2.395,1.195 9.878,1.927 14.888,2.296c-0.007,-0.098 -0.015,-0.196 -0.025,-0.296l0.023,0.257Zm-60.42,4.011l0.008,0.011l-0.017,-0.022l0.009,0.011Zm-0.037,-0.047l0.008,0.011l-0.019,-0.023l0.011,0.012Zm-0.043,-0.048l0.009,0.01l-0.022,-0.023l0.013,0.013Zm-0.048,-0.05l0.008,0.009l-0.023,-0.023l0.015,0.014Zm-0.054,-0.051l0.008,0.008l-0.025,-0.023l0.017,0.015Zm-0.059,-0.052l0.007,0.007l-0.027,-0.023l0.02,0.016Zm-0.065,-0.054l0.007,0.006l-0.028,-0.022l0.021,0.016Zm-0.069,-0.054l0.006,0.004l-0.029,-0.022l0.023,0.018Zm-0.074,-0.056l0.005,0.003l-0.029,-0.021l0.024,0.018Zm-0.078,-0.057l0.003,0.002l-0.027,-0.019l0.024,0.017Zm-0.083,-0.058l0.002,0.001l-0.024,-0.016l0.022,0.015Zm-0.088,-0.06l0.001,0.001l-0.009,-0.006l0.008,0.005Zm-0.389,-0.244l0.014,0.008l-0.015,-0.009l0.001,0.001Zm-0.106,-0.063l0.025,0.015l-0.029,-0.017l0.004,0.002Zm-0.11,-0.064l0.03,0.018l-0.034,-0.02l0.004,0.002Zm-0.229,-0.129l0.106,0.06l-0.119,-0.068l0.013,0.008Zm-0.239,-0.131l0.105,0.058l-0.125,-0.068l0.02,0.01Zm-0.25,-0.132l0.104,0.055l-0.13,-0.068l0.026,0.013Zm-0.258,-0.133l0.101,0.052l-0.134,-0.069l0.033,0.017Zm-0.266,-0.134l0.099,0.05l-0.138,-0.069l0.039,0.019Zm-0.271,-0.133l0.095,0.047l-0.142,-0.069l0.047,0.022Zm-0.277,-0.133l0.092,0.044l-0.145,-0.069l0.053,0.025Zm-0.279,-0.132l0.087,0.041l-0.147,-0.069l0.06,0.028Zm-0.281,-0.131l0.081,0.038l-0.148,-0.068l0.067,0.03Zm-0.282,-0.129l0.076,0.035l-0.149,-0.068l0.073,0.033Zm-0.282,-0.126l0.07,0.031l-0.148,-0.066l0.078,0.035Zm-0.279,-0.124l0.064,0.028l-0.148,-0.065l0.084,0.037Zm-0.276,-0.121l0.057,0.025l-0.146,-0.063l0.089,0.038Zm-0.271,-0.117l0.051,0.022l-0.145,-0.062l0.094,0.04Zm-0.266,-0.112l0.045,0.019l-0.143,-0.06l0.098,0.041Zm-0.258,-0.108l0.038,0.015l-0.139,-0.057l0.101,0.042Zm-0.249,-0.103l0.031,0.013l-0.135,-0.056l0.104,0.043Zm-0.24,-0.098l0.025,0.01l-0.131,-0.052l0.106,0.042Zm-0.228,-0.091l0.019,0.007l-0.127,-0.05l0.108,0.043Zm-0.216,-0.085l0.014,0.005l-0.125,-0.048l0.111,0.043Zm-0.201,-0.078l0.008,0.003l-0.128,-0.049l0.12,0.046Zm-0.183,-0.07l-0.174,-0.064c0.055,0.02 0.113,0.042 0.174,0.064Zm-0.289,-0.108l0.029,0.011l-0.003,0l-0.026,-0.011Zm-0.091,-0.038l0.034,0.015l-0.004,-0.002l-0.03,-0.013Zm-0.086,-0.039l0.036,0.017l-0.007,-0.003l-0.029,-0.014Zm-0.085,-0.04l0.036,0.018l-0.008,-0.004l-0.028,-0.014Zm-0.084,-0.042l0.037,0.019l-0.011,-0.006l-0.026,-0.013Zm-0.083,-0.044l0.037,0.02l-0.013,-0.007l-0.024,-0.013Zm-0.082,-0.046l0.037,0.021l-0.015,-0.008l-0.022,-0.013Zm-0.081,-0.047l0.037,0.022l-0.017,-0.01l-0.02,-0.012Zm-0.081,-0.049l0.037,0.022l-0.019,-0.011l-0.018,-0.011Zm-0.08,-0.051l0.036,0.023l-0.02,-0.013l-0.016,-0.01Zm-0.079,-0.052l0.036,0.023l-0.022,-0.014l-0.014,-0.009Zm-0.078,-0.054l0.034,0.023l-0.022,-0.015l-0.012,-0.008Zm-0.077,-0.056l0.033,0.024l-0.024,-0.017l-0.009,-0.007Zm-0.077,-0.056l0.031,0.023l-0.024,-0.018l-0.007,-0.005Zm-0.077,-0.058l0.029,0.021l-0.024,-0.017l-0.005,-0.004Zm-0.075,-0.06l0.023,0.018l-0.02,-0.015l-0.003,-0.003Zm-0.075,-0.06l0.008,0.006l-0.007,-0.006l-0.001,0Zm-0.161,-0.137l0.011,0.01l-0.001,-0.001l-0.01,-0.009Zm-0.08,-0.07l0.017,0.015l-0.002,-0.002l-0.015,-0.013Zm-0.172,-0.159l0.12,0.112c-0.04,-0.037 -0.08,-0.074 -0.12,-0.112Zm-0.125,-0.12l0.103,0.1c-0.034,-0.033 -0.069,-0.067 -0.103,-0.1Zm-0.137,-0.138l0.051,0.051l-0.037,-0.036l-0.014,-0.015Zm-0.135,-0.14l0.043,0.044l-0.033,-0.034l-0.01,-0.01Zm-0.132,-0.142l0.029,0.03l-0.024,-0.025l-0.005,-0.005Zm81.199,-4.825l-0.123,0.078l0.143,-0.091l-0.02,0.013Zm0.126,-0.083l-0.062,0.041l0.105,-0.07l-0.043,0.029Zm0.128,-0.087l-0.016,0.011l0.025,-0.017l-0.009,0.006Zm0.129,-0.091l-0.008,0.006l0.022,-0.016l-0.014,0.01Zm0.13,-0.095l-0.014,0.01l0.02,-0.015l-0.006,0.005Zm0.13,-0.1l-0.011,0.009l0.025,-0.02l-0.014,0.011Zm0.129,-0.104l-0.007,0.007l0.011,-0.009l-0.004,0.002Zm0.065,-0.053l-0.048,0.039l0.061,-0.051l-0.013,0.012Zm0.063,-0.055l-0.025,0.022l0.051,-0.045l-0.026,0.023Zm0.064,-0.056l-0.014,0.012l0.062,-0.055l-0.048,0.043Zm0.131,-0.122c-0.023,0.023 -0.047,0.045 -0.071,0.068l0.071,-0.068Zm0.054,-0.052l-0.033,0.033l0.051,-0.05l-0.018,0.017Zm0.061,-0.06l-0.019,0.019l0.05,-0.051l-0.031,0.032Zm0.119,-0.126c-0.022,0.025 -0.045,0.049 -0.068,0.073l0.068,-0.073Zm0.055,-0.062l-0.046,0.052l0.057,-0.064l-0.011,0.012Zm0.056,-0.065l-0.024,0.028l0.045,-0.053l-0.021,0.025Zm0.055,-0.066l-0.012,0.015l0.049,-0.061l-0.037,0.046Zm0.11,-0.142c-0.019,0.027 -0.039,0.053 -0.06,0.079l0.06,-0.079Zm0.045,-0.063l-0.029,0.041l0.043,-0.06l-0.014,0.019Zm0.049,-0.071l-0.016,0.024l0.039,-0.059l-0.023,0.035Zm0.092,-0.145c-0.017,0.028 -0.034,0.056 -0.052,0.084l0.052,-0.084Zm0.043,-0.074l-0.038,0.067l0.045,-0.08l-0.007,0.013Zm0.041,-0.076l-0.018,0.035l0.032,-0.062l-0.014,0.027Zm0.04,-0.076l-0.01,0.019l0.033,-0.068l-0.023,0.049Zm0.074,-0.164c-0.013,0.031 -0.026,0.061 -0.04,0.091l0.04,-0.091Zm0.03,-0.074l-0.021,0.05l0.028,-0.07l-0.007,0.02Zm0.03,-0.082l-0.002,0.004l0.002,-0.005l0,0.001Zm0.027,-0.083l-0.002,0.007l0.004,-0.015l-0.002,0.008Zm0.047,-0.17l-0.002,0.009l0.003,-0.015l-0.001,0.006Zm0.019,-0.086l0,0.002l0.002,-0.008l-0.002,0.006Zm0.017,-0.088l-0.002,0.008l0.003,-0.013l-0.001,0.005Zm0.014,-0.09l-0.001,0.005l0.001,-0.013l0,0.008Zm0.01,-0.09l-0.001,0.006l0.001,-0.009l0,0.003Zm0.008,-0.092l-0.001,0.006l0.001,-0.015l0,0.009Zm0.004,-0.094l0,0.001l0,-0.001l0,0Zm0.001,-0.094l0,0.008l0,-0.016l0,0.008Zm-0.003,-0.096l0,0.001l0,-0.003l0,0.002Zm-0.006,-0.097l0.001,0.009l-0.001,-0.015l0,0.006Zm-0.009,-0.099l0,0.004l-0.001,-0.011l0.001,0.007Zm-0.013,-0.099l0.001,0.008l-0.002,-0.013l0.001,0.005Zm-0.017,-0.102l0.001,0.006l-0.003,-0.015l0.002,0.009Zm-0.02,-0.102l0,0.004l-0.001,-0.006l0.001,0.002Zm-0.025,-0.104l0.002,0.008l-0.004,-0.017l0.002,0.009Zm-0.061,-0.212l0.003,0.01l-0.006,-0.018l0.003,0.008Zm-0.037,-0.108l0.001,0.002l-0.003,-0.007l0.002,0.005Zm-0.041,-0.109l0.004,0.01l-0.006,-0.016l0.002,0.006Zm-0.045,-0.111l0.002,0.005l-0.006,-0.014l0.004,0.009Zm-0.05,-0.112l0.004,0.008l-0.005,-0.011l0.001,0.003Zm-0.054,-0.113l0.004,0.007l-0.009,-0.017l0.005,0.01Z" style="fill:#43d2b8;stroke:#fff;stroke-width:0.56px;"/></svg>