<?xml version="1.0" encoding="UTF-8" standalone="no"?><!DOCTYPE svg PUBLIC "-//W3C//DTD SVG 1.1//EN" "http://www.w3.org/Graphics/SVG/1.1/DTD/svg11.dtd"><svg width="100%" height="100%" viewBox="0 0 200 154" version="1.1" xmlns="http://www.w3.org/2000/svg" xmlns:xlink="http://www.w3.org/1999/xlink" xml:space="preserve" style="fill-rule:evenodd;clip-rule:evenodd;stroke-linecap:round;stroke-linejoin:round;stroke-miterlimit:1.5;"><path id="bontolempangan" d="M40.876,1.036c0.756,-0.075 7.515,-0.735 11.481,-0.657c4.205,0.082 8.729,0.847 11.556,0.742c2.827,-0.106 13.326,-0.259 19.522,0.696c6.195,0.954 4.997,3.403 8.761,3.568c3.764,0.165 3.37,-0.677 15.59,5.725c12.221,6.401 16.868,-0.094 19.566,-1.598c2.697,-1.505 7.903,-4.433 11.074,-4.38c3.171,0.054 5.612,-2.74 9.284,-3.259c3.672,-0.52 6.791,1.974 9.178,1.921c2.386,-0.053 9.288,1.152 11.045,2.111c1.757,0.959 4.798,3.589 4.798,3.589c0,0 7.379,1.53 12.341,2.567c4.962,1.037 13.432,7.394 13.432,7.394c0,0 -9.845,0.237 -11.414,-0.288c-1.569,-0.526 -2.047,1.653 -4.081,1.079c-2.034,-0.574 -3.208,-0.952 -4.379,0.513c-1.171,1.465 -1.416,2.497 -6.813,4.783c-5.398,2.287 -4.489,-0.308 -7.12,2.16c-2.63,2.469 -7.629,4.62 -11.27,5.205c-3.64,0.586 -3.778,1.214 -4.914,3.936c-1.135,2.723 -5.179,4.2 -9.81,5.574c-4.631,1.374 -7.881,3.687 -7.881,3.687c0,0 -0.947,3.128 -1.407,5.175c-0.46,2.046 -5.159,4.889 -7.294,9.03c-2.135,4.14 -7.319,10.287 -8.185,11.697c-0.866,1.409 -3.183,4.132 -5.203,5.061c-2.021,0.929 -2.255,-0.018 -2.915,1.85c-0.661,1.868 -1.29,3.05 -3.231,3.598c-1.941,0.548 -1.192,0.877 -3.759,4.289c-2.567,3.413 -1.436,0.913 -0.84,2.941c0.596,2.028 0.788,4.276 -0.615,4.444c-1.403,0.167 -2.543,0.716 -2.75,2.479c-0.208,1.763 -0.593,1.023 -2.26,1.44c-1.667,0.418 -2.888,1.856 -2.073,2.905c0.815,1.049 1.258,1.473 0.09,2.922c-1.168,1.449 -1.608,2.84 -2.481,5.16c-0.872,2.319 0.991,1.68 0.991,1.68c0,0 2.343,1.915 -2.721,5.242c-5.063,3.326 -2.021,6.242 -1.48,9.065c0.541,2.822 0.383,3.663 -0.245,4.529c-0.629,0.867 -2.156,1.089 -3.576,3.391c-1.42,2.301 -2.444,5.547 -3.897,7.849c-1.452,2.303 -2,2.69 -3.606,2.545c-1.606,-0.144 -1.358,0 -4.822,1.499c-3.464,1.499 -4.985,-0.758 -7.3,-0.186c-2.315,0.572 -1.768,0.436 -2.969,0.764c-1.201,0.327 -5.81,0.063 -8.062,1.327c-2.251,1.264 -2.749,6.451 -2.749,6.451l-0.48,-0.062c-0.51,-1.647 -1.201,-3.563 -1.599,-5.147c-0.826,-3.288 -4.148,0.104 -4.751,-2.617c-0.603,-2.722 -4.483,-5.079 -9.158,-6.814c-4.676,-1.735 -5.43,-1.296 -8.39,-4.103c-2.96,-2.808 -1.606,-1.432 -3.961,-4.496c-2.355,-3.065 -6.641,-0.757 -6.641,-0.757c0,0 0.352,-1.841 -9.149,-3.75c-1.073,-0.216 -1.98,-0.454 -2.743,-0.708c2.215,-1.327 6.918,-4.193 9.781,-6.301c3.845,-2.831 8.133,-9.557 8.133,-9.557c0,0 11.443,-8.141 15.814,-12.352c4.37,-4.211 14.716,-2.461 14.716,-2.461l0.855,-1.038c0,0 0.496,-1.711 0.739,-5.124c0.243,-3.414 3.883,-7.329 5.745,-9.602c1.861,-2.272 2.7,-4.462 2.399,-5.571c-0.301,-1.109 -0.766,-2.43 -1.469,-5.675c-0.704,-3.244 -3.071,-10.496 -4.917,-11.798c-1.846,-1.302 -8.219,-3.885 -7.361,-12.25c0.858,-8.365 -1.918,-10.642 -3.06,-12.588c-1.142,-1.946 -6.959,-8.445 -6.959,-8.445c0,0 1.391,1.519 1.891,-7.533c0.443,-8.023 3.329,-12.543 3.978,-13.466Z" style="fill:#b582d4;stroke:#fff;stroke-width:0.56px;"/></svg>