<?xml version="1.0" encoding="UTF-8" standalone="no"?><!DOCTYPE svg PUBLIC "-//W3C//DTD SVG 1.1//EN" "http://www.w3.org/Graphics/SVG/1.1/DTD/svg11.dtd"><svg width="100%" height="100%" viewBox="0 0 107 117" version="1.1" xmlns="http://www.w3.org/2000/svg" xmlns:xlink="http://www.w3.org/1999/xlink" xml:space="preserve" style="fill-rule:evenodd;clip-rule:evenodd;stroke-linecap:round;stroke-linejoin:round;stroke-miterlimit:1.5;"><path id="bontonomposelatan" d="M43.951,5.975c2.386,0.37 5.251,0.827 6.947,1.138c3.303,0.607 8.886,3.243 9.98,2.545c1.094,-0.698 4.746,2.601 4.746,2.601c0,0 1.89,0.704 4.264,1.311c2.374,0.607 3.129,3.394 3.129,3.394c0,0 3.694,1.366 4.971,2.427c1.278,1.06 8.458,6.076 8.458,6.076c0,0 4.185,5.212 8.57,9.245l0.147,-0.022c-0.132,0.022 -0.268,0.04 -0.407,0.054c-3.43,0.354 -3.524,1.982 -3.163,6.203c0.36,4.221 2.27,2.849 1.732,4.38c-0.539,1.532 -1.312,4.634 -5.847,3.891c-4.535,-0.742 -2.601,-3.572 -5.194,-2.761c-2.593,0.81 -4.858,0.365 -5.728,2.535c-0.871,2.169 -1.798,2.583 -0.348,5.043c1.449,2.46 2.907,4.964 2.61,8.118c-0.297,3.153 -0.287,6.451 -2.835,7.369c-2.548,0.917 -4.225,0.602 -4.117,3.942c0.108,3.34 0.433,8.2 3.65,9.035c3.217,0.834 4.238,1.422 6.719,4.038c2.481,2.617 4.382,8.597 2.526,10.095c-1.856,1.498 -4.94,1.493 -3.619,2.829c1.32,1.335 4.294,4.737 3.184,6.597c-1.111,1.86 -2.126,3.698 -2.188,6.482c-0.062,2.785 -3.344,3.087 -6.43,3.203c-3.085,0.115 -8.82,-0.304 -12.456,-0.413c-3.635,-0.109 -5.154,0.687 -8.052,-0.587c-2.898,-1.274 -3.887,-1.219 -3.403,-5.135c0.483,-3.917 -0.492,-4.976 1.486,-5.233c1.979,-0.257 1.01,1.128 4.173,-0.304c3.163,-1.433 3.818,1.094 5.35,-3.246c1.531,-4.34 2.018,-1.306 3.816,-5.71c1.799,-4.403 -0.554,-6.994 -1.178,-9.92c-0.624,-2.927 0.359,-2.715 -0.658,-5.675c-1.017,-2.959 -1.208,-5.9 1.352,-8.759c2.56,-2.86 4.782,0.295 2.649,-3.151c-2.133,-3.446 -4.872,-3.841 -7.958,-3.446c-3.087,0.395 -9.823,-0.618 -11.208,-0.153c-1.385,0.465 -3.779,0.756 -5.465,2.785c-1.685,2.028 -8.693,6.487 -13.909,6.23c-5.217,-0.257 -11.645,-2.909 -11.569,0.528c0.077,3.438 -0.221,4.305 -4.014,5.963c-3.793,1.657 -2.993,4.665 -5.146,3.464c-2.152,-1.2 -1.086,-2.606 -3.999,-2.302c-2.913,0.303 -3.752,2.233 -3.433,-1.716c0.318,-3.949 -3.854,-3.303 -0.479,-7.229c3.375,-3.927 1.913,-0.178 3.906,-8.804c1.994,-8.626 3.245,-13.114 3.245,-13.114c0,0 1.734,-10.093 10.389,-9.258c8.655,0.834 10.681,-3.024 14.224,-4.916c3.543,-1.892 3.481,-7.75 0.656,-8.448c-2.825,-0.698 -5.209,-5.376 -3.649,-7.933c1.56,-2.558 0.831,-3.505 6.074,-4.398c5.243,-0.894 3.627,-3.264 4.115,-4.641c0.251,-0.711 1.776,-2.491 3.384,-4.247Zm51.274,28.705l-0.056,0.009l0.14,-0.024l-0.084,0.015Zm0.151,-0.028l-0.057,0.011l0.134,-0.026l-0.077,0.015Zm0.149,-0.03l-0.058,0.012l0.128,-0.028l-0.07,0.016Zm0.146,-0.034l-0.059,0.014l0.124,-0.03l-0.065,0.016Zm0.144,-0.036l-0.061,0.015l0.121,-0.032l-0.06,0.017Zm0.142,-0.04l-0.062,0.017l0.116,-0.033l-0.054,0.016Zm0.139,-0.042l-0.063,0.019l0.114,-0.035l-0.051,0.016Zm0.138,-0.045l-0.064,0.021l0.11,-0.037l-0.046,0.016Zm0.135,-0.047l-0.065,0.023l0.108,-0.039l-0.043,0.016Zm0.134,-0.051l-0.067,0.026l0.107,-0.041l-0.04,0.015Zm0.132,-0.052l-0.068,0.027l0.104,-0.043l-0.036,0.016Zm0.131,-0.056l-0.07,0.03l0.103,-0.045l-0.033,0.015Zm0.129,-0.058l-0.072,0.033l0.102,-0.047l-0.03,0.014Zm0.128,-0.06l-0.075,0.035l0.102,-0.048l-0.027,0.013Zm0.126,-0.062l-0.077,0.038l0.102,-0.051l-0.025,0.013Zm0.126,-0.065l-0.081,0.042l0.103,-0.054l-0.022,0.012Zm0.124,-0.067l-0.085,0.045l0.105,-0.057l-0.02,0.012Zm0.123,-0.07l-0.09,0.051l0.108,-0.061l-0.018,0.01Zm0.123,-0.071l-0.097,0.056l0.112,-0.066l-0.015,0.01Zm1.099,-0.745c-0.359,0.269 -0.716,0.516 -1.084,0.735c0.368,-0.219 0.725,-0.466 1.084,-0.735Zm0.22,-0.166l-0.069,0.052l0.126,-0.096l-0.057,0.044Zm0.241,-0.187l-0.072,0.056l0.128,-0.1l-0.056,0.044Zm0.244,-0.192l-0.076,0.059l0.132,-0.104l-0.056,0.045Zm0.969,-0.779c-0.289,0.231 -0.566,0.456 -0.836,0.672c0.27,-0.216 0.547,-0.441 0.836,-0.672Zm0.215,-0.171l-0.144,0.114l0.042,-0.033l0.102,-0.081Zm0.27,-0.212l-0.145,0.113l0.036,-0.028l0.109,-0.085Zm0.278,-0.215l-0.149,0.114l0.032,-0.024l0.117,-0.09Zm0.18,-0.138l-0.036,0.027l0.016,-0.012l0.02,-0.015Zm0.321,-0.239l-0.068,0.051l0.014,-0.011l0.054,-0.04Zm0.15,-0.109l-0.08,0.058l0.023,-0.017l0.057,-0.041Zm0.153,-0.11l-0.081,0.058l0.02,-0.015l0.061,-0.043Zm0.155,-0.11l-0.083,0.059l0.019,-0.014l0.064,-0.045Zm0.159,-0.11l-0.085,0.059l0.017,-0.012l0.068,-0.047Zm0.161,-0.11l-0.087,0.059l0.015,-0.01l0.072,-0.049Zm0.165,-0.111l-0.09,0.06l0.013,-0.009l0.077,-0.051Zm0.168,-0.111l-0.093,0.061l0.011,-0.007l0.082,-0.054Zm0.173,-0.111l-0.098,0.062l0.01,-0.006l0.088,-0.056Zm0.178,-0.113l-0.104,0.065l0.007,-0.004l0.097,-0.061Zm0.189,-0.117l-0.118,0.073l0.004,-0.003l0.114,-0.07Zm0.06,-0.037l0.002,-0.001l0.18,-0.108l-0.182,0.109Zm0.511,-0.306l-0.027,0.016l0.04,-0.025l-0.013,0.009Zm0.327,-0.201l-0.028,0.017l0.051,-0.032l-0.023,0.015Zm0.324,-0.204l-0.018,0.012l0.044,-0.028l-0.026,0.016Zm0.322,-0.206l-0.005,0.003l0.016,-0.011l-0.011,0.008Zm0.318,-0.21l-0.011,0.007l0.017,-0.011l-0.006,0.004Zm0.158,-0.106l-0.062,0.041l0.076,-0.051l-0.014,0.01Zm0.156,-0.107l-0.046,0.032l0.068,-0.046l-0.022,0.014Zm0.156,-0.107l-0.034,0.023l0.061,-0.042l-0.027,0.019Zm0.155,-0.108l-0.023,0.015l0.052,-0.036l-0.029,0.021Zm0.153,-0.109l-0.011,0.007l0.036,-0.025l-0.025,0.018Zm-61.744,-22.236l-0.278,0.302l0.139,-0.152l0.139,-0.15Zm0.278,-0.302l-0.266,0.289l0.142,-0.154l0.124,-0.135Zm0.279,-0.3l-0.255,0.275l0.144,-0.156l0.111,-0.119Zm0.236,-0.252l-0.202,0.216l0.145,-0.155l0.057,-0.061Zm0.571,-0.607l-0.315,0.335l0.255,-0.271l0.06,-0.064Zm0.526,-0.554l-0.283,0.298l0.238,-0.25l0.045,-0.048Zm0.488,-0.511l-0.241,0.252l0.208,-0.218l0.033,-0.034Zm0.442,-0.462l-0.187,0.195l0.16,-0.167l0.181,-0.188l-0.154,0.16Zm0.358,-0.373l0.302,-0.316l-0.293,0.307l-0.009,0.009Zm0.368,-0.386l-0.005,0.004l0.021,-0.022l-0.016,0.018Zm0.066,-0.073l-0.008,0.009l0.024,-0.027l-0.016,0.018Zm0.066,-0.076l-0.011,0.013l0.025,-0.029l-0.014,0.016Zm0.143,-0.171c-0.034,0.042 -0.068,0.083 -0.102,0.123l0.102,-0.123Zm0.06,-0.073l-0.047,0.057l0.104,-0.13l-0.057,0.073Zm0.17,-0.222c-0.036,0.048 -0.071,0.095 -0.107,0.141l0.107,-0.141Zm0.121,-0.166c-0.035,0.049 -0.07,0.097 -0.105,0.145l0.105,-0.145Zm0.183,-0.268c-0.056,0.085 -0.113,0.168 -0.169,0.248c0.075,-0.107 0.15,-0.218 0.224,-0.333l-0.055,0.085Z" style="fill:#d24743;stroke:#fff;stroke-width:0.56px;"/></svg>