<?xml version="1.0" encoding="UTF-8" standalone="no"?><!DOCTYPE svg PUBLIC "-//W3C//DTD SVG 1.1//EN" "http://www.w3.org/Graphics/SVG/1.1/DTD/svg11.dtd"><svg width="100%" height="100%" viewBox="0 0 105 107" version="1.1" xmlns="http://www.w3.org/2000/svg" xmlns:xlink="http://www.w3.org/1999/xlink" xml:space="preserve" style="fill-rule:evenodd;clip-rule:evenodd;stroke-linecap:round;stroke-linejoin:round;stroke-miterlimit:1.5;"><path id="bontomaranu" d="M6.315,0.534c1.095,1.115 2.621,0.851 2.621,0.851c0,0 3.809,0 7.91,0.753c4.102,0.754 8.874,3.885 8.874,3.885c0,0 5.351,1.994 8.772,6.553c3.42,4.56 5.478,6.796 6.266,11.049c0.788,4.253 2.99,4.784 5.969,7.619c2.978,2.836 6.028,9.346 6.231,10.284c0.203,0.938 3.444,1.477 5.117,1.477c1.673,0 5.738,1.979 8.488,3.834c2.75,1.855 9.054,2.069 12.516,1.608c3.462,-0.461 23.864,1.256 23.864,1.256c0,0 -0.357,1.306 0.223,-0.14l0.128,0.151c0,0 -3.588,9.011 -4.828,11.315c-1.24,2.304 -4.516,11.208 -4.516,11.208l6.277,5.053l2.731,5.77l-6.138,8.152c-0.314,-0.17 -0.693,-0.297 -1.15,-0.345c-2.152,-0.224 -3.572,-1.248 -4.035,-1.946c-0.463,-0.697 -3.626,2.296 -8.037,2.06c-4.412,-0.235 -5.078,-0.699 -6.853,-2.274c-1.774,-1.575 -4.18,-1.562 -4.53,-0.131c-0.351,1.432 -5.571,6.025 -10.778,6.071c-5.207,0.047 -9.377,3.485 -6.936,6.734c2.441,3.248 2.08,4.878 0.216,4.553c-1.818,-0.317 -11.274,-0.302 -16.669,-6.026c-0.281,-1.992 -0.558,-4.061 -0.643,-5.024c-0.189,-2.149 -4.641,-3.643 -5.375,-4.297c-0.734,-0.655 -4.012,-2.541 -4.818,-3.68c-0.807,-1.139 -3.029,-3.532 -4.13,-4.826c-1.1,-1.293 -1.394,-3.792 -2.11,-7.034c-0.715,-3.242 -1.319,-2.613 -1.319,-2.613c0,0 0.543,-2.264 0.645,-5.558c0.102,-3.294 -1.678,-3.998 -2.905,-4.048c-1.226,-0.051 -1.657,-1.496 -1.657,-3.165c0,-1.669 -0.952,-2.967 -1.408,-4.333c-0.455,-1.366 -5.601,-3.383 -6.439,-4.119c-0.838,-0.737 -3.61,-1.302 -4.186,-2.624c-0.575,-1.322 3.046,-7.655 3.403,-8.212c0.357,-0.556 0.609,-2.973 0.823,-3.687c0.213,-0.715 -1.095,-3.869 -2.647,-4.782c-1.553,-0.914 -4.482,-2.167 -4.482,-2.167c0,0 -0.386,-0.924 -0.438,-2.124c-0.052,-1.201 1.005,-2.513 1.005,-2.513c0,0 0.283,-1.404 0.425,-2.484c0.141,-1.079 1.492,-2.271 1.492,-2.271l2.021,-2.499l-0.45,-2.484c0,0 0.222,-3.255 0.34,-5.161c0.118,-1.906 3.314,-2.789 3.314,-2.789c0,0 -2.31,-1.702 -3.228,-4.07c-0.404,-1.043 0.215,-2.031 1.034,-2.81Z" style="fill:#6e7b4b;stroke:#fff;stroke-width:0.56px;"/></svg>