<?xml version="1.0" encoding="UTF-8" standalone="no"?><!DOCTYPE svg PUBLIC "-//W3C//DTD SVG 1.1//EN" "http://www.w3.org/Graphics/SVG/1.1/DTD/svg11.dtd"><svg width="100%" height="100%" viewBox="0 0 258 173" version="1.1" xmlns="http://www.w3.org/2000/svg" xmlns:xlink="http://www.w3.org/1999/xlink" xml:space="preserve" style="fill-rule:evenodd;clip-rule:evenodd;stroke-linecap:round;stroke-linejoin:round;stroke-miterlimit:1.5;"><path id="bungaya" d="M8.566,0.734c2.445,0.394 6.519,1.526 8.658,4.759c3.183,4.815 12.41,9.39 14.304,11.298c1.894,1.909 2.61,1.793 3.15,3.613c0.54,1.82 2.574,5.018 4.512,5.344c1.938,0.327 3.555,-2.801 4.839,-0.596c1.285,2.205 4.116,4.989 12.977,1.424c8.862,-3.565 8.161,-12.043 27.731,-12.57c19.571,-0.528 36.918,3.079 40.97,5.786c4.052,2.707 5.281,6.51 18.874,7.728c13.593,1.219 6.367,0.804 12.642,2.504c6.275,1.699 19.311,1.702 28.125,-0.047c8.813,-1.75 13.618,-1.408 31.945,4.91c18.327,6.319 22.463,4.972 22.463,4.972c0,0 -3.608,4.592 -4.108,13.643c-0.5,9.052 -1.891,7.533 -1.891,7.533c0,0 5.817,6.499 6.959,8.445c1.142,1.946 3.918,4.223 3.06,12.588c-0.858,8.365 5.515,10.948 7.361,12.25c1.846,1.302 4.213,8.554 4.917,11.798c0.703,3.245 1.168,4.566 1.469,5.675c0.301,1.109 -0.538,3.299 -2.399,5.571c-1.862,2.273 -5.502,6.188 -5.745,9.602c-0.243,3.413 -0.739,5.124 -0.739,5.124l-0.855,1.038c0,0 -10.346,-1.75 -14.716,2.461c-4.371,4.211 -15.814,12.352 -15.814,12.352c0,0 -4.288,6.726 -8.133,9.557c-2.863,2.108 -7.566,4.975 -9.781,6.301c-5.993,-1.989 -3.173,-4.896 -3.173,-4.896c0,0 -1.645,0.192 -14.839,-0.704c-13.194,-0.897 -19.704,5.523 -23.03,6.931c-3.325,1.408 -13.178,7.051 -13.178,7.051c0,0 -1.046,-0.61 -0.155,-5.225c0.891,-4.614 1.001,-3.147 0.914,-9.623c-0.087,-6.476 -2.927,-9.028 -4.527,-10.89c-1.6,-1.861 -4.014,-3.147 -13.562,-3.049c-9.547,0.098 -7.249,-2.653 -10.188,-4.492c-2.939,-1.838 -4.676,-6.116 -6.298,-7.826c-1.623,-1.709 -1.108,-6.596 -4.853,-7.135c-3.746,-0.539 -7.49,-0.88 -9.636,-1.348c-2.146,-0.468 -4.562,1.927 -7.967,5.78c-3.405,3.852 -5.736,5.683 -9.076,4.791c-3.339,-0.891 -2.919,1.711 -5.579,3.038c-1.191,0.594 -3.494,0.651 -5.677,0.534c0.057,-0.215 0.112,-0.441 0.167,-0.677c1.218,-5.27 1.912,-1.795 2.214,-7.967c0.302,-6.172 1.591,-3.749 -0.353,-7.202c-1.943,-3.453 -3.078,-2.956 -3.317,-5.529c-0.239,-2.574 -1.221,-3.552 -4.768,-4.294c0,0 -1.928,-2.603 -1.596,-5.373c0.332,-2.77 -1.744,-3.95 -3.523,-4.862c-1.779,-0.912 -9.451,-1.893 -11.451,-3.2c-2.001,-1.307 -5.196,-4.963 -6.053,-6.254c-0.857,-1.291 -4.074,-7.703 -1.776,-11.814c2.299,-4.112 -0.463,-8.973 -2.156,-10.624c-1.694,-1.652 0.437,-1.085 -2.168,-4.437c-2.604,-3.352 -7.958,-8.455 -11.787,-9.611c-1.023,-0.309 -1.194,-2.103 -1.429,-3.184c-0.235,-1.081 -2.556,-1.196 -4.11,-1.717c-1.554,-0.52 -0.511,-2.692 0.987,-4.215c1.497,-1.523 0.621,-4.297 -5.446,-9.613c-6.068,-5.317 -1.354,-4.991 0.078,-5.433c1.432,-0.442 -1.802,-3.062 -2.86,-5.699c-1.058,-2.638 -5.229,-6.306 -6.147,-10.483c-0.917,-4.177 -3.374,-4.086 -2.439,-6.238c0.935,-2.153 -0.012,-3.652 0.312,-4.927c0.325,-1.275 2.617,-1.26 3.678,0.123c1.061,1.384 2.085,1.499 2.97,-0.2c0.671,-1.289 1.374,-1.887 1.022,-2.57Zm59.894,136.212l-0.002,0.005l0.009,-0.031l-0.007,0.026Z" style="fill:#954c5e;stroke:#fff;stroke-width:0.56px;"/></svg>