<?xml version="1.0" encoding="UTF-8" standalone="no"?><!DOCTYPE svg PUBLIC "-//W3C//DTD SVG 1.1//EN" "http://www.w3.org/Graphics/SVG/1.1/DTD/svg11.dtd"><svg width="100%" height="100%" viewBox="0 0 256 97" version="1.1" xmlns="http://www.w3.org/2000/svg" xmlns:xlink="http://www.w3.org/1999/xlink" xml:space="preserve" style="fill-rule:evenodd;clip-rule:evenodd;stroke-linecap:round;stroke-linejoin:round;stroke-miterlimit:1.5;"><path id="manuju" d="M250.288,95.809l-0.013,0.088l0.025,-0.185l-0.012,0.097Zm0.035,-0.265l-0.017,0.128l0.023,-0.181l-0.006,0.053Zm0.034,-0.277l-0.027,0.217l0.026,-0.208l0.016,-0.139l-0.015,0.13Zm0.033,-0.289l-0.006,0.053l0.016,-0.14l-0.01,0.087Zm0.033,-0.303l-0.009,0.08l0.014,-0.132l-0.005,0.052Zm0.032,-0.316l-0.009,0.083l0.01,-0.099l-0.001,0.016Zm0.031,-0.33l-0.003,0.031l0.009,-0.107l-0.006,0.076Zm0.029,-0.343l-0.005,0.06l0.01,-0.116l-0.005,0.056Zm0.029,-0.357l-0.005,0.069l0.007,-0.093l-0.002,0.024Zm0.028,-0.372l-0.001,0.015l0.005,-0.075l-0.004,0.06Zm0.026,-0.387l-0.003,0.05l0.008,-0.117l-0.005,0.067Zm0.026,-0.401l-0.005,0.073l0.007,-0.112l-0.002,0.039Zm0.168,-2.211l-0.032,0.314l0.016,-0.165l0.016,-0.149Zm0.078,-0.67l-0.017,0.139l0.012,-0.103l0.005,-0.036Zm0.047,-0.362l-0.014,0.11l0.012,-0.093l0.002,-0.017Zm0.058,-0.404l-0.008,0.049l0.001,-0.004l0.007,-0.045Zm0.065,-0.42l-0.019,0.12l0.003,-0.023l0.016,-0.097Zm0.061,-0.359l-0.024,0.135l0.007,-0.041l0.017,-0.094Zm0.061,-0.342l-0.025,0.138l0.01,-0.058l0.015,-0.08Zm0.063,-0.333l-0.026,0.137l0.014,-0.073l0.012,-0.064Zm0.066,-0.325l-0.027,0.131l0.017,-0.084l0.01,-0.047Zm0.067,-0.318l-0.025,0.119l0.019,-0.09l0.006,-0.029Zm0.07,-0.311l-0.02,0.086l0.017,-0.075l0.003,-0.011Zm0.088,-0.375l-0.017,0.07l0.002,-0.007l0.015,-0.063Zm0.084,-0.339l-0.027,0.109l0.005,-0.023l0.022,-0.086Zm0.079,-0.303l-0.031,0.118l0.01,-0.039l0.021,-0.079Zm0.079,-0.291l-0.033,0.12l0.014,-0.053l0.019,-0.067Zm0.08,-0.281l-0.034,0.117l0.018,-0.065l0.016,-0.052Zm0.08,-0.275l-0.033,0.112l0.022,-0.075l0.011,-0.037Zm0.081,-0.268l-0.031,0.102l0.024,-0.08l0.007,-0.022Zm-0.02,0.067l0,0.002l-0.001,0.002l0.001,-0.004Zm0.103,-0.329l-0.022,0.071l0.019,-0.063l0.003,-0.008Zm0.109,-0.332l-0.027,0.079l0.003,-0.009l0.024,-0.07Zm0.092,-0.27l-0.006,0.017l0.003,-0.008l-0.009,0.027l0.003,-0.01l-0.004,0.01l-0.022,0.064l0.008,-0.024l0.027,-0.076l0,0Zm0.087,-0.248l-0.037,0.104l0.013,-0.036l0.024,-0.068Zm0,0l-0.024,0.068l-0.013,0.036l0.037,-0.104Zm0.087,-0.239l-0.021,0.057l-0.017,0.048l0.038,-0.105l-0.038,0.105m0.038,-0.105l-0.038,0.105l0.017,-0.048l0.021,-0.057Zm0.086,-0.23l-0.017,0.043l-0.021,0.059m0.038,-0.102l-0.038,0.102l0.021,-0.059l0.017,-0.043Zm0,0l-0.038,0.102l0.038,-0.102l0,0Zm0.048,-0.126l0.026,-0.068l-0.026,0.068l0,0Zm0.124,-0.316l-0.036,0.092l0.029,-0.074l0.007,-0.018Zm-0.007,0.018l-0.021,0.054l0.003,-0.007l0.018,-0.047Zm0.091,-0.224l0.007,-0.016l-0.005,0.011l-0.014,0.035l-0.002,0.004l0.002,-0.004l-0.01,0.023l0.002,-0.004l0.02,-0.049Zm0.123,-0.292l0,0l-0.038,0.088l0.005,-0.013l0.033,-0.075Zm0.081,-0.188l-0.006,0.014l-0.028,0.063l0.011,-0.024l0.023,-0.053Zm-0.005,0.01l0.006,-0.012l0.007,-0.015l-0.013,0.027Zm0.098,-0.221l-0.042,0.095l0.015,-0.035l0.027,-0.06Zm-0.022,0.05l0.011,-0.025l-0.011,0.025l0,0Zm0.273,-0.588l-0.013,0.027l-0.031,0.065m0.044,-0.092l-0.044,0.092l0.031,-0.065l0.013,-0.027Zm0,0l-0.044,0.092c0,0 0.044,-0.092 0.044,-0.092Zm0.047,-0.096l0.004,-0.009l-0.016,0.032l0.012,-0.023Zm0.073,-0.15l0.003,-0.005l0.016,-0.032l0.003,-0.006l-0.022,0.043Zm0.162,-0.317l-0.008,0.015l-0.041,0.08l0.008,-0.017l0.041,-0.078Zm-0.002,0.003l0.004,-0.007l0.001,-0.003l-0.005,0.01Zm0.072,-0.137l-0.016,0.03l-0.027,0.051l0.014,-0.026l0.029,-0.055Zm-0.008,0.016l0.011,-0.021l0.004,-0.009l-0.015,0.03Zm0.089,-0.168l-0.049,0.092l0.019,-0.036l0.03,-0.056Zm0.237,-0.423l0.01,-0.017l0.068,-0.118l0.049,-0.081c-0.067,0.111 -0.138,0.233 -0.212,0.365l0.085,-0.149Zm0,0l-0.001,0.001l0.002,-0.003l-0.001,0.002Zm0.084,-0.145l-0.005,0.009l0.001,-0.002l0.004,-0.007Zm0.083,-0.137l0.009,-0.016l0.056,-0.09l-0.065,0.106Zm0.156,-0.253l-0.032,0.051l-0.015,0.023l0.015,-0.024l0.032,-0.05Zm-0.031,0.05l0.032,-0.051l0.021,-0.033l-0.053,0.084Zm0.133,-0.207c0,0 -0.004,0.005 -0.004,0.005l-0.034,0.053l0.019,-0.031l0.019,-0.027l0.001,-0.003l-0.02,0.03l-0.021,0.033l0.002,-0.002l0.034,-0.053l0.004,-0.005l-0.038,0.058l-0.002,0.002m0.061,-0.093l-0.065,0.099l0.022,-0.034l0.043,-0.065Zm0.085,-0.127l-0.005,0.008l0.005,-0.008l0,0l-0.026,0.038c0,0 0.001,0 0.001,0l0.025,-0.038c0,0 -0.025,0.038 -0.025,0.038l0.014,-0.023l-0.015,0.023m0.03,-0.043l-0.062,0.091l0.027,-0.041l0.035,-0.05Zm0.047,-0.069l-0.032,0.046l0.059,-0.086l-0.027,0.04Zm0,0l0.027,-0.04l0.001,0l-0.028,0.04Zm0.079,-0.111l-0.036,0.05l0.005,-0.008l0.031,-0.042Zm-1.279,0.014l-0.003,0l0.026,0l-0.023,0Zm-0.198,-0.001l0.046,0l-0.009,0l-0.037,0Zm0.35,0l-0.014,0l0.046,-0.001l-0.032,0.001Zm-0.523,-0.004l0.06,0.002l-0.023,0l-0.037,-0.002Zm0.664,0.001l-0.022,0.001l0.047,-0.002l-0.025,0.001Zm0.131,-0.004l-0.027,0.001l0.042,-0.002l-0.015,0.001Zm-0.971,-0.002l0.066,0.002l-0.036,-0.001l-0.03,-0.001Zm1.093,-0.004l-0.023,0.001l0.028,-0.001l-0.005,0Zm-1.275,-0.003l0.062,0.002l-0.045,-0.002l-0.017,0Zm1.387,-0.004l-0.089,0.005l0.151,-0.01l-0.062,0.005Zm-1.578,-0.006l0.017,0.001l-0.015,-0.001l-0.002,0Zm-0.266,-0.017l0.067,0.004l-0.016,-0.001l-0.051,-0.003Zm-0.227,-0.018l0.082,0.007l-0.034,-0.003l-0.048,-0.004Zm2.497,-0.003l-0.058,0.008l0.092,-0.014l-0.034,0.006Zm0.06,-0.01l-0.011,0.002l0.034,-0.006l-0.023,0.004Zm-2.786,-0.006l0.086,0.007l-0.05,-0.004l-0.036,-0.003Zm2.882,-0.011l-0.011,0.002l0.027,-0.006l-0.016,0.004Zm-3.118,-0.011l0.076,0.007l-0.058,-0.005l-0.018,-0.002Zm3.184,-0.003l-0.01,0.002l0.018,-0.005l-0.008,0.003Zm0.039,-0.01l-0.013,0.003l0.025,-0.007l-0.012,0.004Zm-3.496,-0.016l0.028,0.003l-0.003,0l-0.025,-0.003Zm-0.319,-0.037l0.09,0.011l-0.025,-0.003l-0.065,-0.008Zm-0.285,-0.035l0.105,0.013l-0.047,-0.005l-0.058,-0.008Zm-0.288,-0.038l0.107,0.014l-0.066,-0.009l-0.041,-0.005Zm-0.296,-0.042l0.09,0.013l-0.071,-0.01l-0.019,-0.003Zm-0.368,-0.056l0.063,0.01l-0.008,-0.001l-0.055,-0.009Zm-0.372,-0.059l0.116,0.019l-0.035,-0.006l-0.081,-0.013Zm-0.347,-0.059l0.13,0.023l-0.062,-0.011l-0.068,-0.012Zm-0.352,-0.061l0.129,0.023l-0.084,-0.015l-0.045,-0.008Zm-0.361,-0.067l0.098,0.019l-0.081,-0.015l-0.017,-0.004Zm-0.469,-0.089l0.099,0.019l-0.017,-0.003l-0.082,-0.016Zm-0.432,-0.087l0.144,0.03l-0.049,-0.01l-0.095,-0.02Zm-0.415,-0.086l0.156,0.033l-0.08,-0.016l-0.076,-0.017Zm-0.422,-0.09l0.152,0.033l-0.103,-0.022l-0.049,-0.011Zm-0.431,-0.095l0.097,0.022l-0.083,-0.019l-0.014,-0.003Zm-0.574,-0.131l0.133,0.031l-0.026,-0.006l-0.107,-0.025Zm-0.5,-0.118l0.174,0.042l-0.064,-0.015l-0.11,-0.027Zm-0.489,-0.118l0.184,0.045l-0.099,-0.024l-0.085,-0.021Zm-0.495,-0.123l0.172,0.043l-0.123,-0.03l-0.049,-0.013Zm-0.507,-0.129l0.075,0.019l-0.066,-0.016l-0.009,-0.003Zm-0.686,-0.179l0.169,0.045l-0.039,-0.01l-0.13,-0.035Zm-0.575,-0.154l0.205,0.055l-0.082,-0.021l-0.123,-0.034Zm-0.567,-0.155l0.212,0.058l-0.121,-0.033l-0.091,-0.025Zm-0.575,-0.161l0.19,0.054l-0.141,-0.04l-0.049,-0.014Zm-239.959,-38.163c-0.402,-1.546 -0.515,-3.43 1.252,-3.596c3.035,-0.286 7.399,-3.324 7.209,-4.726c-0.191,-1.402 -3.936,-4.845 -3.936,-4.845l-0.529,-4.414c0,0 5.368,3.368 7.838,4.28c2.47,0.913 3.501,0.551 3.501,0.551c0,0 1.633,7.956 7.433,3.836c4.586,-3.258 0.416,-8.983 0.416,-8.983c0,0 -0.954,-2.699 0.616,-5.054c1.57,-2.355 1.86,-5.076 3.5,-5.217c1.64,-0.142 5.409,0.554 7.323,-1.127c1.913,-1.68 7.906,-3.324 10.729,-2.778c2.823,0.546 4.511,2.428 7.324,0.72c2.812,-1.708 5.958,-1.674 6.944,-1.472c0.985,0.201 0.694,-3.36 1.835,-2.975c1.14,0.384 1.034,2.265 1.034,2.265c0,0 0.213,2.531 2.28,1.38c2.067,-1.152 8.178,-6.444 14.022,-4.911c5.845,1.534 7.059,4.846 11.494,7.972c4.435,3.126 6.687,-0.821 7.954,-2.854c1.268,-2.033 -0.534,-3.919 -0.534,-3.919l5.717,-0.462c0,0 9.642,-0.1 13.027,1.715c3.385,1.815 6.573,0.847 8.24,1.725c1.667,0.878 4.325,-1.695 6.604,-1.923c2.278,-0.228 9.733,-0.685 14.129,1.472c4.395,2.157 7.802,4.379 7.802,4.379c0,0 9.477,5.621 13.084,6.383c3.606,0.762 6.269,2.726 7.856,3.206c1.587,0.481 2.615,1.822 5.787,2.198c3.172,0.375 8.764,2.818 14.939,0.558c6.175,-2.26 10.593,-2.099 15.26,0.377c4.666,2.475 5.845,3.823 8.83,4.361c2.985,0.539 7.014,0.062 8.143,0.636c0.766,0.39 4.772,0.792 7.267,1.009c0.693,1.626 1.115,2.995 1.115,2.995c0,0 -0.438,5.009 5.685,11.754c6.124,6.745 10.27,8.934 11.282,11.926c1.013,2.992 3.155,4.051 -0.222,6.197c-3.376,2.146 -7.051,4.936 -8.081,8.133c-0.593,1.84 -2.922,4.931 -4.794,7.225c-2.363,-0.679 -5.095,-1.538 -8.246,-2.625c-18.327,-6.318 -23.132,-6.66 -31.945,-4.91c-8.814,1.749 -21.85,1.746 -28.125,0.047c-6.275,-1.7 0.951,-1.285 -12.642,-2.504c-13.593,-1.218 -14.822,-5.021 -18.874,-7.728c-4.052,-2.707 -21.399,-6.314 -40.97,-5.786c-19.57,0.527 -18.869,9.005 -27.731,12.57c-8.861,3.565 -11.692,0.781 -12.977,-1.424c-1.284,-2.205 -2.901,0.923 -4.839,0.596c-1.938,-0.326 -3.972,-3.524 -4.512,-5.344c-0.54,-1.82 -1.256,-1.704 -3.15,-3.613c-1.894,-1.908 -11.121,-6.483 -14.304,-11.298c-2.139,-3.233 -6.213,-4.365 -8.658,-4.759c-0.112,-0.218 -0.33,-0.444 -0.69,-0.703c-1.492,-1.076 -7.433,-3.565 -9.413,-3.666c-1.98,-0.101 1.454,0.829 -0.18,1.677c-1.633,0.848 -2.692,1.599 -2.786,3.08c-0.094,1.481 -0.751,1.947 -0.751,1.947c0,0 -0.425,-1.977 -2.576,-2.202c-2.152,-0.224 -3.572,-1.248 -4.035,-1.946c-0.199,-0.299 -0.894,0.081 -1.971,0.594Z" style="fill:#123e91;stroke:#fff;stroke-width:0.56px;"/></svg>