<?xml version="1.0" encoding="UTF-8" standalone="no"?><!DOCTYPE svg PUBLIC "-//W3C//DTD SVG 1.1//EN" "http://www.w3.org/Graphics/SVG/1.1/DTD/svg11.dtd"><svg width="100%" height="100%" viewBox="0 0 137 147" version="1.1" xmlns="http://www.w3.org/2000/svg" xmlns:xlink="http://www.w3.org/1999/xlink" xml:space="preserve" style="fill-rule:evenodd;clip-rule:evenodd;stroke-linecap:round;stroke-linejoin:round;stroke-miterlimit:1.5;"><path id="pallangga" d="M104.328,146.107l-0.272,0.089l0.182,-0.06l0.09,-0.029Zm0.31,-0.099l-0.266,0.085l0.081,-0.026l0.185,-0.059Zm0.55,-0.167l-0.227,0.068l0.13,-0.04l0.097,-0.028Zm0.315,-0.092l-0.259,0.075c0.174,-0.051 0.346,-0.101 0.515,-0.148l-0.256,0.073Zm0.514,-0.144l-0.198,0.055l0.094,-0.027l0.104,-0.028Zm0.533,-0.14l-0.209,0.054l0.156,-0.041l0.053,-0.013Zm0.245,-0.061l-0.18,0.045l0.069,-0.018l0.111,-0.027Zm0.478,-0.113l-0.166,0.038l0.108,-0.025l0.058,-0.013Zm0.23,-0.05l-0.169,0.037l0.048,-0.011l0.121,-0.026Zm0.404,-0.082l-0.136,0.027l0.076,-0.016l0.06,-0.011Zm27.599,-4.604l0.021,0.008l0,0l-0.021,-0.008Zm-0.205,-0.083l0.029,0.012l-0.021,-0.008l-0.008,-0.004Zm-0.236,-0.098l0.036,0.015l-0.01,-0.004l-0.026,-0.011Zm-0.216,-0.094l0.055,0.024l-0.03,-0.012l-0.025,-0.012Zm-0.197,-0.087l0.029,0.013l-0.024,-0.01l-0.005,-0.003Zm-0.25,-0.115l0.06,0.028l-0.021,-0.009l-0.039,-0.019Zm-0.201,-0.095l0.064,0.031l-0.04,-0.019l-0.024,-0.012Zm-0.185,-0.09l0.004,0.002l-0.01,-0.005l-0.032,-0.016l0.038,0.019Zm-0.26,-0.131l0.072,0.036l-0.032,-0.015l-0.04,-0.021Zm-0.193,-0.101l0.069,0.036l-0.049,-0.025l-0.02,-0.011Zm-0.242,-0.13l0.067,0.036l-0.017,-0.008l-0.05,-0.028Zm-0.199,-0.111l0.079,0.044l-0.041,-0.022l-0.038,-0.022Zm-0.186,-0.106l0.068,0.039l-0.053,-0.031l-0.015,-0.008Zm-0.247,-0.147l0.079,0.047l-0.026,-0.015l-0.053,-0.032Zm-0.187,-0.115l0.082,0.051l-0.049,-0.03l-0.033,-0.021Zm-0.172,-0.108l0.053,0.033l-0.054,-0.033l-0.053,-0.035l0.054,0.035Zm-0.254,-0.166l0.083,0.055l-0.034,-0.022l-0.049,-0.033Zm-0.18,-0.121l0.083,0.056l-0.056,-0.038l-0.027,-0.018Zm-0.157,-0.11l0.007,0.005l-0.024,-0.016l-0.06,-0.044l0.077,0.055Zm-0.259,-0.186l0.085,0.062l-0.042,-0.03l-0.043,-0.032Zm-0.173,-0.129l0.08,0.06l-0.061,-0.045l-0.019,-0.015Zm-0.233,-0.181l0.082,0.065l-0.025,-0.019l-0.057,-0.046Zm-0.172,-0.137l0.084,0.068l-0.048,-0.039l-0.036,-0.029Zm-0.16,-0.132l0.068,0.056l-0.063,-0.052l-0.059,-0.05l0.054,0.046Zm-0.235,-0.201l0.083,0.072l-0.032,-0.027l-0.051,-0.045Zm-0.164,-0.146l0.082,0.074l-0.053,-0.048l-0.029,-0.026Zm-121.713,-131.934c2.825,-2.211 6.473,-6.194 10.467,-4.551c1.958,0.806 2.943,1.155 3.55,1.175l0.053,0.001c2.324,4.279 5.228,9.842 7.136,14.265c3.626,8.405 4.585,6.354 8.488,11.794c3.904,5.441 7.551,9.386 7.551,9.386c0,0 8.591,2.667 10.734,3.82c2.142,1.154 5.954,-0.404 5.954,-0.404c0,0 0.556,2.712 3.953,8.61c3.396,5.898 9.019,10.406 9.019,10.406l12.186,5.675l4.323,-0.025l0.018,0.074c0.116,0.47 0.238,0.762 0.238,0.762c0,0 2.929,1.253 4.482,2.167c1.552,0.913 2.86,4.067 2.647,4.782c-0.214,0.714 -0.466,3.131 -0.823,3.687c-0.357,0.557 -3.978,6.89 -3.403,8.212c0.576,1.322 3.348,1.887 4.186,2.624c0.838,0.736 5.984,2.753 6.439,4.119c0.456,1.366 1.408,2.664 1.408,4.333c0,1.669 0.431,3.114 1.657,3.165c1.227,0.05 3.007,0.754 2.905,4.048c-0.102,3.294 -0.645,5.558 -0.645,5.558c0,0 0.604,-0.629 1.319,2.613c0.716,3.242 1.01,5.741 2.11,7.034c1.101,1.294 3.323,3.687 4.13,4.826c0.806,1.139 4.084,3.025 4.818,3.68c0.734,0.654 5.186,2.148 5.375,4.297c0.085,0.963 0.362,3.032 0.643,5.023l0.003,0.004l0.158,0.165l0.027,0.027l0.133,0.134l0.043,0.042l0.124,0.12l0.043,0.041l0.164,0.154c-0.055,-0.051 -0.11,-0.102 -0.164,-0.154l-0.013,-0.012l-0.03,-0.029l-0.079,-0.076l-0.045,-0.044l-0.021,-0.021l-0.022,-0.021l-0.053,-0.052l-0.08,-0.082l-0.018,-0.018l-0.009,-0.009c-0.053,-0.055 -0.106,-0.11 -0.158,-0.165l-0.003,-0.003l0,-0.001c-0.139,-0.147 -0.276,-0.298 -0.409,-0.453c-3.652,-4.249 -5.702,-2.932 -7.077,-1.451l-0.047,0.051c-0.485,-0.16 -1,-0.245 -1.517,-0.192c-2.198,0.223 -4.335,-2.214 -4.335,-2.214l-5.366,-2.857l-5.422,-2.903l-5.12,-1.329c0,0 0.776,0.895 -2.771,2.921c-3.547,2.025 -3.439,-3.372 -3.439,-3.372l-0.456,-4.895c0,0 -8.395,-0.169 -12.877,0.764c-4.482,0.934 -8.701,-2.728 -10.33,-3.337c-1.628,-0.61 -5.91,-1.791 -8.618,-1.35c-2.708,0.441 -11.805,-2.666 -17.007,-4.13c-5.202,-1.465 -14.473,-11.601 -16.262,-16.874c-1.79,-5.274 -2.246,-8.413 -2.246,-8.413l-1.755,-0.744l-0.016,-1.794l0.994,-1.106l-0.178,-2.108c0,0 1.143,-4.92 -0.052,-7.126c-1.195,-2.206 -0.896,-4.66 -0.896,-4.66c0,0 7.001,-7.063 1.683,-9.975c-2.804,-1.535 -4.516,-4.602 -5.508,-7.159l0.214,-0.15c3.066,-2.169 5.74,-5.313 5.883,-7.336l0.219,-3.082c0,0 -5.054,-0.296 -7.673,-4.605c-2.62,-4.31 -4.728,-9.566 -7.724,-9.072c-2.996,0.494 -3.645,-0.063 -3.645,-0.063c0,0 2.094,-5.796 1.874,-10.455c-0.135,-2.849 -0.662,-8.06 -1.051,-11.678l0.012,-0.009Zm111.953,130.826l-0.017,0.01l0.026,-0.016l-0.009,0.006Zm0.033,-0.022l-0.011,0.007l0.025,-0.017l-0.014,0.01Zm0.034,-0.023l-0.007,0.004l0.014,-0.01l-0.007,0.006Zm0.067,-0.052l-0.004,0.003l0.005,-0.004l-0.001,0.001Zm0.068,-0.057l-0.007,0.005l0.013,-0.011l-0.006,0.006Zm0.211,-0.205l-0.048,0.049l0.061,-0.062l-0.013,0.013Zm0.072,-0.077l-0.029,0.031l0.053,-0.057l-0.024,0.026Zm0.075,-0.082l-0.018,0.02l0.052,-0.059l-0.034,0.039Zm0.075,-0.085l-0.008,0.009l0.021,-0.024l-0.013,0.015Zm0.155,-0.18l0,0l0,0l0,0Zm0.282,-0.331l-0.092,0.107l0.023,-0.027l0.069,-0.08Zm0.184,-0.212l-0.105,0.119l0.061,-0.07l0.044,-0.049Zm-113.136,-51.661l-0.003,0.003l0.011,-0.013l-0.008,0.01Zm0.067,-0.082l-0.01,0.011l0.01,-0.012l0,0.001Zm0.032,-0.042l-0.009,0.012l0.017,-0.023l-0.008,0.011Zm0.031,-0.043l-0.002,0.004l0.025,-0.037l-0.023,0.033Zm0.06,-0.087l-0.014,0.021l0.021,-0.031l-0.007,0.01Zm0.029,-0.044l-0.006,0.008l0.023,-0.037l-0.017,0.029Zm0.054,-0.092l-0.021,0.037l0.026,-0.045l-0.005,0.008Zm0.026,-0.046l-0.008,0.015l0.021,-0.041l-0.013,0.026Zm0.052,-0.102c-0.009,0.019 -0.019,0.038 -0.029,0.057l0.029,-0.057Zm0.02,-0.042l-0.011,0.023l0.021,-0.045l-0.01,0.022Zm0.044,-0.103c-0.008,0.021 -0.017,0.041 -0.026,0.061l0.026,-0.061Zm0.019,-0.048l-0.013,0.034l0.02,-0.052l-0.007,0.018Zm0.019,-0.052l-0.005,0.014l0.021,-0.061l-0.016,0.047Zm0.039,-0.119c-0.007,0.023 -0.014,0.045 -0.021,0.067l0.021,-0.067Zm0.012,-0.04l-0.006,0.021l0.016,-0.057l-0.01,0.036Zm0.031,-0.119c-0.005,0.023 -0.011,0.046 -0.017,0.069l0.017,-0.069Zm0.011,-0.047l-0.007,0.029l0.013,-0.058l-0.006,0.029Zm0.023,-0.12c-0.004,0.025 -0.009,0.049 -0.014,0.073l0.014,-0.073Zm0.009,-0.053l-0.007,0.04l0.01,-0.063l-0.003,0.023Zm0.006,-0.043l0.01,-0.076l-0.008,0.06l-0.002,0.016Zm82.641,-16.967l0.003,0.021l-0.001,-0.01l-0.002,-0.011Zm-0.022,-0.162l0.001,0.01l0,-0.002l-0.001,-0.008Zm-0.02,-0.179l0.003,0.032l-0.001,-0.017l-0.002,-0.015Zm-0.009,-0.101l0.006,0.065l-0.004,-0.037l-0.002,-0.028Zm-0.008,-0.107l0.005,0.07l-0.002,-0.024l-0.003,-0.046Zm-75.831,-10.423l-0.013,0.003l0.037,-0.009l-0.024,0.006Zm0.137,-0.031l-0.023,0.005l0.039,-0.009l-0.016,0.004Zm0.138,-0.035l-0.013,0.004l0.016,-0.004l-0.003,0Zm0.139,-0.037l-0.011,0.003l0.036,-0.01l-0.025,0.007Zm0.14,-0.04l-0.022,0.006l0.041,-0.011l-0.019,0.005Zm0.141,-0.043l-0.02,0.006l0.025,-0.007l-0.005,0.001Zm0.142,-0.045l-0.009,0.002l0.033,-0.011l-0.024,0.009Zm0.142,-0.049l-0.021,0.007l0.041,-0.014l-0.02,0.007Zm0.143,-0.051l-0.024,0.009l0.032,-0.012l-0.008,0.003Zm0.143,-0.053l-0.006,0.002l0.028,-0.011l-0.022,0.009Zm0.145,-0.056l-0.02,0.007l0.042,-0.016l-0.022,0.009Zm0.144,-0.059l-0.025,0.01l0.036,-0.014l-0.011,0.004Zm0.145,-0.061l-0.003,0.001l0.02,-0.008l-0.017,0.007Zm0.146,-0.064l-0.017,0.008l0.041,-0.018l-0.024,0.01Zm0.146,-0.065l-0.025,0.011l0.038,-0.018l-0.013,0.007Zm0.146,-0.069l-0.001,0.001l0.006,-0.003l-0.005,0.002Zm0.147,-0.07l-0.015,0.007l0.039,-0.019l-0.024,0.012Zm0.147,-0.073l-0.024,0.012l0.039,-0.02l-0.015,0.008Zm0.147,-0.075l-0.08,0.041l0.168,-0.087l-0.088,0.046Zm0.322,-0.172c-0.065,0.036 -0.129,0.071 -0.194,0.105l0.194,-0.105Zm0.119,-0.065l-0.072,0.04l0.168,-0.094l-0.096,0.054Zm0.327,-0.187c-0.065,0.038 -0.129,0.075 -0.194,0.112l0.194,-0.112Zm0.115,-0.068l-0.066,0.038l0.169,-0.101l-0.103,0.063Zm0.329,-0.202c-0.064,0.04 -0.128,0.08 -0.192,0.119l0.192,-0.119Zm0.111,-0.07l-0.058,0.036l0.169,-0.108l-0.111,0.072Zm0.33,-0.216c-0.063,0.042 -0.126,0.084 -0.189,0.125l0.189,-0.125Zm0.107,-0.071l-0.051,0.034l0.17,-0.116l-0.119,0.082Zm-15.572,-45.081l0.075,0l-0.059,0.001l-0.016,-0.001Zm0.201,0l-0.021,0l0.076,-0.001l-0.055,0.001Zm-0.384,-0.003l0.07,0.001l-0.06,-0.001l-0.01,0Zm0.671,-0.006c-0.044,0.002 -0.088,0.004 -0.132,0.005l0.132,-0.005Zm-0.857,-0.001l0.05,0.002l-0.046,-0.002l-0.004,0Zm1.025,-0.009c-0.05,0.004 -0.099,0.007 -0.149,0.009l0.149,-0.009Zm0.08,-0.007l-0.07,0.006l0.151,-0.013l-0.081,0.007Zm-1.353,0.001l0.061,0.004l-0.004,0l-0.057,-0.004Zm1.439,-0.009l-0.002,0.001l0.02,-0.003l-0.018,0.002Zm-1.65,-0.008l0.081,0.007l-0.011,-0.001l-0.07,-0.006Zm1.734,-0.001l-0.004,0.001l0.03,-0.004l-0.026,0.003Zm-1.935,-0.018l0.089,0.009l-0.019,-0.001l-0.07,-0.008Zm2.019,0.008l-0.007,0.001l0.033,-0.005l-0.026,0.004Zm0.083,-0.011l-0.01,0.001l0.034,-0.005l-0.024,0.004Zm-2.302,-0.019l0.093,0.011l-0.025,-0.002l-0.068,-0.009Zm2.383,0.006l-0.012,0.002l0.035,-0.006l-0.023,0.004Zm0.08,-0.014l-0.014,0.003l0.034,-0.007l-0.02,0.004Zm-2.664,-0.016l0.097,0.012l-0.034,-0.004l-0.063,-0.008Zm2.744,0.001l-0.017,0.003l0.034,-0.006l-0.017,0.003Zm0.078,-0.016l-0.019,0.004l0.033,-0.007l-0.014,0.003Zm-3.025,-0.013l0.1,0.014l-0.041,-0.005l-0.059,-0.009Zm3.101,-0.004l-0.02,0.004l0.033,-0.007l-0.013,0.003Zm-3.305,-0.026l0.103,0.016l-0.049,-0.007l-0.054,-0.009Zm3.381,0.007l-0.022,0.006l0.032,-0.008l-0.01,0.002Zm0.074,-0.02l-0.023,0.006l0.03,-0.008l-0.007,0.002Zm-3.66,-0.019l0.107,0.017l-0.059,-0.009l-0.048,-0.008Zm3.733,-0.002l-0.023,0.007l0.028,-0.008l-0.005,0.001Zm-3.94,-0.034l0.111,0.019l-0.068,-0.011l-0.043,-0.008Zm4.012,0.012l-0.021,0.006l0.024,-0.007l-0.003,0.001Zm0.127,-0.044l-0.056,0.02l0.064,-0.023l-0.008,0.003Zm-4.346,-0.005l0.115,0.021l-0.079,-0.014l-0.036,-0.007Zm4.403,-0.017l-0.029,0.011l0.045,-0.017l-0.016,0.006Zm-4.612,-0.023l0.123,0.024l-0.093,-0.018l-0.03,-0.006Zm4.67,0l-0.018,0.007l0.044,-0.018l-0.026,0.011Zm-4.88,-0.042l0.137,0.028l-0.113,-0.023l-0.024,-0.005Zm4.937,0.018l-0.009,0.004l0.021,-0.01l-0.012,0.006Zm-5.955,-0.246c0.327,0.079 0.653,0.153 0.978,0.22c-0.324,-0.067 -0.651,-0.141 -0.978,-0.22Zm6.072,0.193l-0.01,0.005l0.014,-0.007l-0.004,0.002Zm0.117,-0.057l-0.01,0.005l0.022,-0.012l-0.012,0.007Zm0.119,-0.063l-0.002,0.001l0.009,-0.004l-0.007,0.003Zm0.121,-0.067l-0.012,0.007l0.02,-0.011l-0.008,0.004Zm0.122,-0.071l-0.008,0.004l0.02,-0.012l-0.012,0.008Zm0.123,-0.076l-0.042,0.026l0.093,-0.059l-0.051,0.033Zm0.125,-0.079l-0.023,0.014l0.107,-0.07l-0.084,0.056Zm0.261,-0.178c-0.047,0.033 -0.094,0.066 -0.141,0.098l0.141,-0.098Zm0.12,-0.085l-0.073,0.052l0.099,-0.07l-0.026,0.018Zm0.13,-0.094l-0.044,0.032l0.088,-0.065l-0.044,0.033Zm0.131,-0.098l-0.024,0.018l0.089,-0.067l-0.065,0.049Zm0.132,-0.1l-0.005,0.004l0.139,-0.108l-0.134,0.104Zm33.735,-1.24l0.264,0.07l-0.042,-0.011l-0.222,-0.059Zm-0.395,-0.108l0.317,0.088c-0.214,-0.058 -0.429,-0.119 -0.644,-0.182l0.327,0.094Zm-1.793,-0.571c0.264,0.094 0.53,0.184 0.797,0.27c-0.267,-0.086 -0.533,-0.176 -0.797,-0.27Zm-0.123,-0.045l0.106,0.039l-0.01,-0.004l-0.096,-0.035Zm-0.155,-0.057l0.093,0.035l-0.014,-0.005l-0.079,-0.03Zm-0.161,-0.06l0.087,0.033l-0.018,-0.007l-0.069,-0.026Zm-0.162,-0.062l0.083,0.032l-0.022,-0.008l-0.061,-0.024Zm-0.163,-0.064l0.081,0.032l-0.026,-0.01l-0.055,-0.022Zm-0.162,-0.065l0.079,0.032l-0.03,-0.012l-0.049,-0.02Zm-0.162,-0.066l0.078,0.032l-0.034,-0.014l-0.044,-0.018Zm-0.161,-0.067l0.077,0.032l-0.037,-0.016l-0.04,-0.016Zm-0.159,-0.069l0.075,0.033l-0.041,-0.018l-0.034,-0.015Zm-0.159,-0.069l0.074,0.032l-0.044,-0.019l-0.03,-0.013Zm-0.157,-0.07l0.072,0.032l-0.047,-0.021l-0.025,-0.011Zm-0.156,-0.072l0.071,0.033l-0.05,-0.023l-0.021,-0.01Zm-0.154,-0.072l0.068,0.032l-0.051,-0.024l-0.017,-0.008Zm-0.153,-0.074l0.065,0.032l-0.052,-0.026l-0.013,-0.006Zm-0.151,-0.074l0.061,0.03l-0.053,-0.026l-0.008,-0.004Zm-0.149,-0.075l0.05,0.025l-0.046,-0.023l-0.004,-0.002Zm-14.803,-0.508l-0.003,0l0.014,-0.001l-0.011,0.001Zm0.079,-0.005l-0.01,0.001l0.019,-0.002l-0.009,0.001Zm0.075,-0.008l-0.021,0.002l0.024,-0.003l-0.003,0.001Zm0.036,-0.006l-0.005,0.001l0.025,-0.005l-0.02,0.004Zm0.069,-0.015l-0.013,0.003l0.024,-0.006l-0.011,0.003Zm0.065,-0.019l-0.028,0.008l0.033,-0.01l-0.005,0.002Zm0.032,-0.011l-0.006,0.002l0.031,-0.012l-0.025,0.01Zm0.061,-0.026l-0.013,0.006l0.025,-0.012l-0.012,0.006Zm0.088,-0.045l-0.004,0.002l0.011,-0.006l-0.007,0.004Zm0.055,-0.035l-0.006,0.004l0.013,-0.008l-0.007,0.004Zm0.055,-0.038l-0.007,0.005l0.011,-0.008l-0.004,0.003Zm0.053,-0.042l-0.002,0.001l0.003,-0.002l-0.001,0.001Zm0.053,-0.046l0,0l0,-0.001l0,0.001Zm0.052,-0.049l-0.003,0.003l0.011,-0.011l-0.008,0.008Zm0.053,-0.053l-0.006,0.006l0.013,-0.014l-0.007,0.008Zm0.053,-0.056l-0.007,0.007l0.012,-0.012l-0.005,0.005Zm0.054,-0.059l-0.026,0.029l0.05,-0.056l-0.024,0.027Zm0.112,-0.128l-0.014,0.016l0.039,-0.045l-0.025,0.029Zm0.386,-0.437l-0.028,0.03l0.013,-0.014l0.015,-0.016Zm0.074,-0.08l-0.047,0.05l0.023,-0.024l0.024,-0.026Zm0.083,-0.085l-0.054,0.055l0.015,-0.015l0.039,-0.04Zm0.196,-0.193l-0.08,0.076l0.07,-0.067l0.01,-0.009Zm0.094,-0.087l-0.064,0.058l0.044,-0.04l0.02,-0.018Zm0.1,-0.09l-0.064,0.057l0.031,-0.028l0.033,-0.029Zm0.11,-0.095l-0.072,0.062l0.021,-0.019l0.051,-0.043Z" style="fill:#1eb142;stroke:#fff;stroke-width:0.56px;"/></svg>