<?xml version="1.0" encoding="UTF-8" standalone="no"?><!DOCTYPE svg PUBLIC "-//W3C//DTD SVG 1.1//EN" "http://www.w3.org/Graphics/SVG/1.1/DTD/svg11.dtd"><svg width="100%" height="100%" viewBox="0 0 233 161" version="1.1" xmlns="http://www.w3.org/2000/svg" xmlns:xlink="http://www.w3.org/1999/xlink" xml:space="preserve" style="fill-rule:evenodd;clip-rule:evenodd;stroke-linecap:round;stroke-linejoin:round;stroke-miterlimit:1.5;"><path id="parangloe" d="M1.737,150.137c0.362,-0.98 3.316,-8.947 4.479,-11.108c1.24,-2.304 4.828,-11.315 4.828,-11.315l-0.128,-0.151c0.183,-0.455 0.459,-1.183 0.869,-2.31c1.709,-4.708 3.915,-7.984 3.915,-7.984c0,0 3.021,-2.635 3.852,-5.67c0.832,-3.034 11.247,-14.095 11.247,-14.095c0,0 3.964,-3.334 7.141,-6.388c3.177,-3.055 -0.814,-11.315 -3.107,-17.672c-2.293,-6.356 -0.454,-11.178 -0.454,-11.178c0,0 2.066,-3.69 1.09,-7.017c-0.976,-3.327 -1.477,-8.42 -1.477,-8.42l-1.569,-3.806l-2.716,-2.547c0,0 -4.549,-2.494 -7.045,-4.99c-2.497,-2.497 -8.621,-1.725 -8.621,-1.725c0,0 -0.015,-2.129 -3.567,-3.313c-2.031,-0.677 -5.658,-3.862 -8.392,-6.466c1,-0.38 2.255,-1.201 3.152,-0.802c1.344,0.599 0.995,2.677 7.103,-1.05c6.109,-3.727 7.046,-5.334 7.555,-8.538c0.51,-3.204 -2.307,-6.671 -0.118,-7.43c2.188,-0.758 3.437,-0.166 5.728,-2.272c2.29,-2.106 8.219,-5.412 10.835,-0.88c2.616,4.531 -0.404,6.038 9.778,6.571c10.182,0.533 16.903,-0.433 17.252,1.384c0.349,1.816 0.82,5.304 -1.582,9.856c-2.403,4.552 -0.456,3.123 3.345,5.343c3.801,2.22 6.202,0.551 4.994,-0.465c-1.208,-1.017 -1.303,-2.803 0.574,-1.952c1.878,0.85 6.405,-0.08 8.896,1.159c2.49,1.239 1.397,1.044 1.706,3.419c0.308,2.375 5.254,10.063 11.627,-1.718c4.118,-7.611 6.636,-7.157 9.72,-7.619c3.083,-0.462 5.845,-2.283 14.719,1.03c8.874,3.313 8.281,-0.211 11.969,-0.816c3.689,-0.605 13.335,3.388 20.041,7.882c6.707,4.494 10.268,6.542 13.558,6.583c3.29,0.04 1.849,0.308 7.867,2.483c6.019,2.174 8.797,0.705 14.582,1.927c5.547,1.171 14.495,-1.821 24.897,3.19c-0.833,3.039 -1.584,6.655 -1.244,8.939c0.679,4.555 5.914,9.958 6.006,13.594c0.092,3.636 -1.592,2.816 -1.592,5.716c0,2.9 0.562,6.183 -2.595,7.811c-3.157,1.628 -3.225,7.148 -3.225,10.265c0,3.118 -1.516,6.397 -0.026,10.735c1.49,4.337 3.461,8.135 3.461,9.55c0,1.415 0.892,4.137 2.469,5.184c1.576,1.047 1.008,5.51 0.788,8.237c-0.22,2.726 0.301,5.06 0.796,6.82c0.495,1.761 -0.015,8.742 -0.015,8.742c0,0 2.491,3.267 3.617,7.695c1.126,4.427 0.781,6.409 4.072,5.75c3.291,-0.659 4.86,0.648 6.775,2.981c1.265,1.541 2.496,4.605 2.237,3.996c-2.495,-0.217 -6.501,-0.619 -7.267,-1.009c-1.129,-0.574 -5.158,-0.097 -8.143,-0.636c-2.985,-0.538 -4.164,-1.886 -8.83,-4.361c-4.667,-2.476 -9.085,-2.637 -15.26,-0.377c-6.175,2.26 -11.767,-0.183 -14.939,-0.558c-3.172,-0.376 -4.2,-1.717 -5.787,-2.198c-1.587,-0.48 -4.25,-2.444 -7.856,-3.206c-3.607,-0.762 -13.084,-6.383 -13.084,-6.383c0,0 -3.407,-2.222 -7.802,-4.379c-4.396,-2.157 -11.851,-1.7 -14.129,-1.472c-2.279,0.228 -4.937,2.801 -6.604,1.923c-1.667,-0.878 -4.855,0.09 -8.24,-1.725c-3.385,-1.815 -13.027,-1.715 -13.027,-1.715l-5.717,0.462c0,0 1.802,1.886 0.534,3.919c-1.267,2.033 -3.519,5.98 -7.954,2.854c-4.435,-3.126 -5.649,-6.438 -11.494,-7.972c-5.844,-1.533 -11.955,3.759 -14.022,4.911c-2.067,1.151 -2.28,-1.38 -2.28,-1.38c0,0 0.106,-1.881 -1.034,-2.265c-1.141,-0.385 -0.85,3.176 -1.835,2.975c-0.986,-0.202 -4.132,-0.236 -6.944,1.472c-2.813,1.708 -4.501,-0.174 -7.324,-0.72c-2.823,-0.546 -8.816,1.098 -10.729,2.778c-1.914,1.681 -5.683,0.985 -7.323,1.127c-1.64,0.141 -1.93,2.862 -3.5,5.217c-1.57,2.355 -0.616,5.054 -0.616,5.054c0,0 4.17,5.725 -0.416,8.983c-5.8,4.12 -7.433,-3.836 -7.433,-3.836c0,0 -1.031,0.362 -3.501,-0.551c-2.103,-0.777 -6.31,-3.335 -7.511,-4.077Zm8.853,-21.895l0.002,0.001l-0.002,0l0,-0.001Zm0.012,-0.001l-0.003,0.001l0.004,-0.002l-0.001,0.001Zm-0.015,-0.005l0.002,0.005l-0.001,-0.001l-0.001,-0.004Zm0.02,0l-0.001,0.002l0.002,-0.003l-0.001,0.001Zm-0.021,-0.003l0,0.002l0,0l0,-0.002Zm-0.001,-0.028l0,0.019l-0.001,-0.004l0.001,-0.015Zm0.051,-0.01l-0.002,0.004l0.016,-0.029l-0.014,0.025Zm0.044,-0.082l-0.016,0.032l0.019,-0.038l-0.003,0.006Zm-0.082,-0.011l-0.003,0.016l0.001,-0.005l0.002,-0.011Zm0.11,-0.047l-0.009,0.018l0.017,-0.035l-0.008,0.017Zm-0.088,-0.058l-0.014,0.069l0.005,-0.026l0.009,-0.043Zm0.12,-0.013l-0.004,0.008l0.016,-0.035l-0.012,0.027Zm199.865,-86.559l0.046,0.023l-0.035,-0.017l-0.094,-0.046l0.083,0.04Zm-0.325,-0.158l0.001,0l0.141,0.068l-0.142,-0.068Zm-209.035,-17.109l0.047,0.002l-0.014,0l-0.033,-0.002Zm0.147,0l-0.032,0.002l0.046,-0.003l-0.014,0.001Zm-0.254,-0.014l0.044,0.008l-0.012,-0.002l-0.032,-0.006Zm0.415,-0.006l-0.006,0.001l0.019,-0.004l-0.013,0.003Zm-0.517,-0.021l0.043,0.013l-0.012,-0.003l-0.031,-0.01Zm0.6,0.004l-0.011,0.002l0.02,-0.004l-0.009,0.002Zm-0.695,-0.047l0.041,0.02l-0.011,-0.005l-0.03,-0.015Zm0.868,0.001l-0.004,0.002l0.014,-0.005l-0.01,0.003Zm0.09,-0.028l-0.008,0.003l0.014,-0.005l-0.006,0.002Z" style="fill:#8c43d2;stroke:#fff;stroke-width:0.56px;"/></svg>