<?xml version="1.0" encoding="UTF-8" standalone="no"?><!DOCTYPE svg PUBLIC "-//W3C//DTD SVG 1.1//EN" "http://www.w3.org/Graphics/SVG/1.1/DTD/svg11.dtd"><svg width="100%" height="100%" viewBox="0 0 218 91" version="1.1" xmlns="http://www.w3.org/2000/svg" xmlns:xlink="http://www.w3.org/1999/xlink" xml:space="preserve" style="fill-rule:evenodd;clip-rule:evenodd;stroke-linecap:round;stroke-linejoin:round;stroke-miterlimit:1.5;"><path id="parigi" d="M195.739,89.805l0.008,0.08l-0.003,-0.023l-0.005,-0.057Zm-0.009,-0.111l0.006,0.074l-0.003,-0.029l-0.003,-0.045Zm-0.008,-0.112l0.005,0.069l-0.003,-0.034l-0.002,-0.035Zm-0.006,-0.113l0.003,0.066l-0.002,-0.039l-0.001,-0.027Zm-0.004,-0.112l0.002,0.061l-0.002,-0.043l0,-0.018Zm-0.003,-0.112l0.001,0.054l-0.001,-0.043l0,-0.011Zm-194.472,-77.849c2.653,-2.475 10.164,-2.766 10.164,-2.766c0,0 0.97,1.025 2.038,1.052c1.068,0.028 2.362,1.174 2.362,1.174l6.282,-0.071c0,0 2.315,-2.356 5.215,-1.332c2.9,1.024 6.211,-2.436 6.211,-2.436l7.067,-0.585l3.471,-0.573l2.137,0.266l3.066,-0.658l3.372,0.46l4.391,-0.974l1.574,0.853c0,0 2.964,-1.603 4.735,-2.322c1.771,-0.72 4.59,-0.208 4.59,-0.208c0,0 1.134,-1.156 3.584,-0.801c2.45,0.355 4.575,-1.149 4.855,-1.681c0.28,-0.533 1.602,0.304 2.6,0.396c0.997,0.092 3.101,-0.287 3.101,-0.287l2.349,0.852c0,0 1.226,4.11 3.118,2.693c1.891,-1.417 2.995,-0.339 2.995,-0.339c0,0 3.053,0.12 4.058,-0.906c1.005,-1.025 2.067,-0.186 3.522,-0.272c1.455,-0.085 2.612,-0.374 3.386,0.834c0.774,1.208 -0.264,2.783 0.966,2.52c1.231,-0.263 2.243,-1.517 3.014,-1.161c0.77,0.356 3.295,0.356 3.295,0.356l2.208,1.142c0,0 1.954,4.249 3.405,5.375c1.45,1.125 2.888,2.275 4.415,2.355c1.527,0.08 1.475,-0.019 2.298,1.736c0.823,1.754 0.136,5.241 2.87,5.486c2.735,0.244 3.916,0.586 4.955,2.685c1.04,2.1 1.404,2.368 3.862,2.646c2.459,0.279 3.815,1.67 5.431,1.697c1.616,0.027 2.091,0.134 2.693,-1.017c0.601,-1.15 1.403,-1.813 3.547,-1.348c2.144,0.465 5.624,2.993 8.728,5.083c3.104,2.09 6.849,5.41 10.905,4.819c4.055,-0.592 1.649,0 3.537,-0.768c1.889,-0.768 2.572,0.133 3.595,0.612c1.022,0.478 0.847,0.626 2.613,1.475c1.767,0.849 0.565,1.623 3.873,1.041c3.308,-0.582 3.429,-0.836 4.4,-1.562c0.97,-0.725 3.544,-0.122 4.843,0.861c1.299,0.982 2.654,0.335 3.369,0.638c0.716,0.303 1.682,2.144 2.045,2.861c0.363,0.717 3.301,0.059 3.301,0.059c0,0 0.796,0.437 2.282,1.235c1.486,0.798 4.718,0.522 4.718,0.522c0,0 7.368,4.135 9.369,5.238c2.001,1.103 4.355,2.724 4.355,2.724l0.122,0.571c-0.398,1.402 -0.639,2.917 -0.748,3.875c-0.192,1.68 -1.218,6.067 -3.661,5.619c-2.442,-0.447 -4.981,4.95 -5.564,8.507c-0.583,3.556 -2.847,3.531 -4.031,4.91c-1.183,1.378 -2.43,5.594 -3.265,7.202c-0.626,1.207 -3.534,3.645 -3.517,7.408l0,-0.03c-3.68,-0.278 -7.703,-0.796 -11.129,-1.744c-1.775,-1.291 -8.708,-6.183 -13.007,-7.082c-4.962,-1.037 -12.341,-2.567 -12.341,-2.567c0,0 -3.041,-2.63 -4.798,-3.589c-1.757,-0.959 -8.659,-2.164 -11.045,-2.111c-2.387,0.053 -5.506,-2.441 -9.178,-1.921c-3.672,0.519 -6.113,3.313 -9.284,3.259c-3.171,-0.053 -8.377,2.875 -11.074,4.38c-2.698,1.504 -7.345,7.999 -19.566,1.598c-12.22,-6.402 -11.826,-5.56 -15.59,-5.725c-3.764,-0.165 -2.566,-2.614 -8.761,-3.568c-6.196,-0.955 -16.695,-0.802 -19.522,-0.696c-2.827,0.105 -7.351,-0.66 -11.556,-0.742c-3.965,-0.078 -10.721,0.582 -11.481,0.657l-0.083,0.122l0.083,-0.122l0,0c0.084,-0.118 0.13,-0.177 0.13,-0.177c0,0 -2.836,0.923 -14.217,-2.347c1.872,-2.294 4.201,-5.385 4.794,-7.225c1.03,-3.197 4.705,-5.987 8.081,-8.133c3.377,-2.146 1.235,-3.205 0.222,-6.197c-1.012,-2.992 -5.158,-5.181 -11.282,-11.926c-6.123,-6.745 -5.685,-11.754 -5.685,-11.754c0,0 -1.437,-4.659 -3.352,-6.991c-1.493,-1.819 -2.777,-3.015 -4.83,-3.14Zm183.657,76.227l0.007,0.005l-0.048,-0.035l0.041,0.03Z" style="fill:#432461;stroke:#fff;stroke-width:1.17px;"/></svg>