<?xml version="1.0" encoding="UTF-8" standalone="no"?><!DOCTYPE svg PUBLIC "-//W3C//DTD SVG 1.1//EN" "http://www.w3.org/Graphics/SVG/1.1/DTD/svg11.dtd"><svg width="100%" height="100%" viewBox="0 0 129 116" version="1.1" xmlns="http://www.w3.org/2000/svg" xmlns:xlink="http://www.w3.org/1999/xlink" xml:space="preserve" style="fill-rule:evenodd;clip-rule:evenodd;stroke-linecap:round;stroke-linejoin:round;stroke-miterlimit:1.5;"><path id="patalassang" d="M2.502,33.298c1.098,-0.263 2.303,-1.032 3.159,0.159c1.34,1.863 8.815,9.574 11.948,4.134c2.045,-3.552 0.509,-10.376 0.509,-10.376l1.052,-1.627c0,0 -1.031,-2.399 -2.99,-4.89c-1.96,-2.492 -1.27,-5.022 0.092,-5.867c1.363,-0.845 0.356,-2.487 1.585,-5.058c1.229,-2.571 3.267,0.603 4.435,-4.134c0,0 0.908,0.147 2.435,1.221c1.527,1.074 5.437,-0.315 7.245,4.779c0,0 0.358,1.671 3.324,1.907c2.965,0.235 6.389,1.871 7.524,2.086c1.134,0.216 1.329,-2.003 3.02,-2.079c1.691,-0.075 3.165,-0.673 2.415,-2.38c-0.75,-1.706 -0.458,-4.803 2.053,-4.572c2.511,0.231 3.573,-1.895 4.649,-4.017c1.075,-2.122 1.448,-1.376 4.673,-0.794c3.226,0.583 3.634,-1.069 5.109,-0.739c1.474,0.33 2.579,0.443 2.788,1.787c0.209,1.344 0.99,1.684 3.264,2.367c2.274,0.683 4.52,1.519 5.137,4.014c0.618,2.496 2.753,1.475 4.242,1.775c1.49,0.299 2.414,2.082 4.145,2.726c1.731,0.643 4.147,-3.912 5.039,-3.204c0.296,0.235 0.73,0.155 1.228,-0.034c2.734,2.604 6.361,5.789 8.392,6.466c3.552,1.184 3.567,3.313 3.567,3.313c0,0 6.124,-0.772 8.621,1.725c2.496,2.496 7.045,4.99 7.045,4.99l2.716,2.547l1.569,3.806c0,0 0.501,5.093 1.477,8.42c0.976,3.327 -1.09,7.017 -1.09,7.017c0,0 -1.839,4.822 0.454,11.178c2.293,6.357 6.284,14.617 3.107,17.672c-3.177,3.054 -7.141,6.388 -7.141,6.388c0,0 -10.415,11.061 -11.247,14.095c-0.831,3.035 -3.852,5.67 -3.852,5.67c0,0 -2.206,3.276 -3.915,7.984c-1.71,4.708 -1.092,2.45 -1.092,2.45c0,0 -20.402,-1.717 -23.864,-1.256c-3.462,0.461 -9.766,0.247 -12.516,-1.608c-2.75,-1.855 -6.815,-3.834 -8.488,-3.834c-1.673,0 -4.914,-0.539 -5.117,-1.477c-0.203,-0.938 -3.253,-7.448 -6.231,-10.284c-2.979,-2.835 -5.181,-3.366 -5.969,-7.619c-0.788,-4.253 -2.846,-6.489 -6.266,-11.049c-3.421,-4.559 -8.772,-6.553 -8.772,-6.553c0,0 -4.772,-3.131 -8.874,-3.885c-4.101,-0.753 -7.91,-0.753 -7.91,-0.753c0,0 -2.953,0.511 -3.59,-2.89c-0.638,-3.402 -1.629,-6.331 -0.352,-8.369c1.278,-2.038 2.212,-0.994 0.582,-4.701c-1.63,-3.707 0.377,-5.932 0.819,-6.377c0.442,-0.446 3.878,-0.924 2.493,-4.048c-0.829,-1.87 -2.015,-3.542 -2.636,-6.202Z" style="fill:#8db983;stroke:#fff;stroke-width:0.56px;"/></svg>