<?xml version="1.0" encoding="UTF-8" standalone="no"?><!DOCTYPE svg PUBLIC "-//W3C//DTD SVG 1.1//EN" "http://www.w3.org/Graphics/SVG/1.1/DTD/svg11.dtd"><svg width="100%" height="100%" viewBox="0 0 81 78" version="1.1" xmlns="http://www.w3.org/2000/svg" xmlns:xlink="http://www.w3.org/1999/xlink" xml:space="preserve" style="fill-rule:evenodd;clip-rule:evenodd;stroke-linecap:round;stroke-linejoin:round;stroke-miterlimit:1.5;"><path id="sombaopu" d="M70.294,76.903l-4.323,0.025l-12.186,-5.675c0,0 -5.623,-4.508 -9.019,-10.406c-3.397,-5.898 -3.953,-8.61 -3.953,-8.61c0,0 -3.812,1.558 -5.954,0.404c-2.143,-1.153 -10.734,-3.82 -10.734,-3.82c0,0 -3.647,-3.945 -7.551,-9.386c-3.903,-5.44 -4.862,-3.389 -8.488,-11.794c-1.908,-4.423 -4.812,-9.986 -7.136,-14.265c0.895,0.002 0.944,-0.76 2.277,-1.83c2.23,-1.79 9.21,0.579 12.42,2.261c3.209,1.683 7.781,2.68 10.147,2.62c2.366,-0.059 1.72,-4.299 2.483,-6.179c0.764,-1.881 -0.503,-7.63 1.58,-8.717c2.083,-1.087 4.279,-1.216 6.556,0.189c2.277,1.405 14.508,7.852 19.46,9.637c4.953,1.786 11.907,2.765 14.25,2.626c2.342,-0.14 2.902,0.607 4.202,2.328c0.47,0.621 1.056,0.635 1.677,0.487c0.621,2.66 1.807,4.332 2.636,6.202c1.385,3.124 -2.051,3.602 -2.493,4.048c-0.442,0.445 -2.449,2.67 -0.819,6.377c1.63,3.707 0.696,2.663 -0.582,4.701c-1.277,2.038 -0.286,4.967 0.352,8.369c0.169,0.903 0.501,1.531 0.899,1.965l0.07,0.074c-0.819,0.779 -1.438,1.767 -1.034,2.81c0.918,2.368 3.228,4.07 3.228,4.07c0,0 -3.196,0.883 -3.314,2.789c-0.118,1.906 -0.34,5.161 -0.34,5.161l0.45,2.484l-2.021,2.499c0,0 -1.351,1.192 -1.492,2.271c-0.142,1.08 -0.425,2.484 -0.425,2.484c0,0 -1.057,1.312 -1.005,2.513c0.021,0.49 0.098,0.934 0.182,1.288Zm6.002,-28.159l0.053,0.043l-0.02,-0.016l-0.033,-0.027Zm-0.081,-0.068l0.066,0.056c-0.022,-0.018 -0.044,-0.037 -0.066,-0.056Zm-0.066,-0.061l0.051,0.047l-0.031,-0.027l-0.02,-0.02Zm-0.083,-0.08l0.064,0.063l-0.013,-0.012l-0.051,-0.051Zm3.849,-30.66l0.046,0.051l-0.03,-0.034l-0.016,-0.017Zm-0.115,-0.13l0.037,0.041l-0.029,-0.033l-0.008,-0.008Zm-0.112,-0.13l0.004,0.005l-0.001,-0.001l-0.003,-0.004Zm-0.13,-0.153l0.032,0.038l-0.007,-0.009l-0.025,-0.029Zm-0.097,-0.119l0.034,0.042l-0.013,-0.015l-0.021,-0.027Zm-0.087,-0.108l0.032,0.041l-0.017,-0.021l-0.015,-0.02Zm-0.079,-0.1l0.029,0.037l-0.019,-0.024l-0.01,-0.013Zm-0.071,-0.093l0.023,0.03l-0.018,-0.024l-0.005,-0.006Zm-0.094,-0.128l0.031,0.043l-0.036,-0.05l0.005,0.007Zm-0.032,-0.041l0.015,0.019l-0.026,-0.033l0.011,0.014Zm-0.032,-0.04l0.008,0.011l-0.028,-0.034l0.02,0.023Zm-2.961,-0.061l-0.006,0.001l0.016,-0.004l-0.01,0.003Zm2.863,-0.047l0.022,0.024l-0.03,-0.031l0.008,0.007Zm-2.759,0.018l-0.008,0.002l0.013,-0.004l-0.005,0.002Zm0.104,-0.031l-0.047,0.014l0.109,-0.032l-0.062,0.018Zm2.621,-0.02l0.013,0.013l-0.027,-0.026l0.014,0.013Zm-2.516,-0.012l-0.004,0.002l0.023,-0.008l-0.019,0.006Zm2.483,-0.019l0.006,0.006l-0.034,-0.03l0.028,0.024Zm-2.149,-0.089l-0.119,0.039l0.095,-0.031l0.024,-0.008Zm2.046,0.004l0.019,0.015l-0.029,-0.022l0.01,0.007Zm-0.035,-0.025l0.011,0.008l-0.029,-0.021l0.018,0.013Zm-1.861,-0.027l-0.023,0.007l0.014,-0.004l0.009,-0.003Zm1.756,-0.04l0.029,0.017l-0.036,-0.021l0.007,0.004Zm-0.036,-0.02l0.016,0.009l-0.03,-0.016l0.014,0.007Zm-0.036,-0.018l0.009,0.004l-0.034,-0.016l0.025,0.012Zm-1.345,-0.023l-0.064,0.018l0.045,-0.012l0.019,-0.006Zm0.099,-0.025l-0.063,0.016l0.027,-0.007l0.036,-0.009Zm1.137,0.001l0.023,0.008l-0.032,-0.012l0.009,0.004Zm-1.014,-0.029l-0.09,0.02l0.012,-0.003l0.078,-0.017Zm0.978,0.015l0.012,0.005l-0.03,-0.011l0.018,0.006Zm-0.037,-0.012l0.006,0.002l-0.043,-0.013l0.037,0.011Zm-0.844,-0.022l-0.089,0.017l0.076,-0.015l0.013,-0.002Zm0.094,-0.016l-0.065,0.01l0.039,-0.006l0.026,-0.004Zm0.6,0.001l0.005,0.001l-0.014,-0.002l0.009,0.001Zm-0.499,-0.014l-0.068,0.009l0.021,-0.003l0.047,-0.006Zm0.423,0.002l0.004,0.001l-0.006,-0.001l0.002,0Zm-0.382,-0.006l-0.013,0.001l0.004,0l0.009,-0.001Zm0.305,-0.002l0.007,0.001l-0.015,-0.002l0.008,0.001Zm-0.231,-0.003l-0.011,0.001l0.008,-0.001l0.003,0Zm0.153,-0.002l0.001,0l-0.004,0l0.003,0Zm-0.069,0l-0.015,0l0.006,0l0.009,0Z" style="fill:#4378d2;stroke:#fff;stroke-width:0.56px;"/></svg>