<?xml version="1.0" encoding="UTF-8" standalone="no"?><!DOCTYPE svg PUBLIC "-//W3C//DTD SVG 1.1//EN" "http://www.w3.org/Graphics/SVG/1.1/DTD/svg11.dtd"><svg width="100%" height="100%" viewBox="0 0 235 193" version="1.1" xmlns="http://www.w3.org/2000/svg" xmlns:xlink="http://www.w3.org/1999/xlink" xml:space="preserve" style="fill-rule:evenodd;clip-rule:evenodd;stroke-linecap:round;stroke-linejoin:round;stroke-miterlimit:1.5;"><path id="tinggimoncong" d="M212.989,191.805l0.008,0.08l-0.003,-0.023l-0.005,-0.057Zm-0.009,-0.111l0.006,0.074l-0.003,-0.029l-0.003,-0.045Zm-0.008,-0.112l0.005,0.069l-0.003,-0.034l-0.002,-0.035Zm-0.006,-0.113l0.003,0.066l-0.002,-0.039l-0.001,-0.027Zm-0.004,-0.112l0.002,0.061l-0.002,-0.043l0,-0.018Zm-0.003,-0.112l0.001,0.054l-0.001,-0.043l0,-0.011Zm-100.456,-190.274l0,0.008c0.147,0.213 0.262,0.396 0.343,0.543c1.191,2.18 2.223,3.286 2.708,5.043c0.485,1.756 5.811,3.699 9.383,5.023c3.572,1.324 9.677,4.803 11.587,6.09c1.909,1.287 7.572,3.84 9.772,3.675c2.2,-0.165 8.04,3.097 10.592,4.964c2.552,1.868 8.443,7.168 9.487,8.344c1.044,1.176 3.594,5.34 4.652,7.278c1.059,1.937 4.239,3.772 4.239,1.51c0,-2.262 3.194,-2.784 6.403,-2.129c3.209,0.654 3.54,5.809 3.54,8.7c0,2.892 1.065,-1.467 2.845,1.436c1.781,2.903 -0.777,4.782 4.017,7.328c4.794,2.547 5.236,4.051 5.942,7.981c0.706,3.93 -0.207,5.475 0.824,8.145c1.031,2.67 3.619,3.356 4.166,5.998c0.547,2.642 3.108,6.328 6.351,9.917c3.243,3.588 4.486,12.98 5.441,23.343c0.955,10.363 4.809,18.351 7.498,25.653c1.783,4.841 7.788,10.177 11.634,13.224c-0.509,1.552 -0.806,3.379 -0.931,4.476c-0.192,1.68 -1.218,6.067 -3.661,5.619c-2.442,-0.447 -4.981,4.95 -5.564,8.507c-0.583,3.556 -2.847,3.531 -4.031,4.91c-1.183,1.378 -2.43,5.594 -3.265,7.202c-0.626,1.207 -3.534,3.645 -3.517,7.408l0,-0.03c-3.68,-0.278 -7.703,-0.796 -11.129,-1.744c-1.775,-1.291 -8.708,-6.183 -13.007,-7.082c-4.962,-1.037 -12.341,-2.567 -12.341,-2.567c0,0 -3.041,-2.63 -4.798,-3.589c-1.757,-0.959 -8.659,-2.164 -11.045,-2.111c-2.387,0.053 -5.506,-2.441 -9.178,-1.921c-3.672,0.519 -6.113,3.313 -9.284,3.259c-3.171,-0.053 -8.377,2.875 -11.074,4.38c-2.698,1.504 -7.345,7.999 -19.566,1.598c-12.22,-6.402 -11.826,-5.56 -15.59,-5.725c-3.764,-0.165 -2.566,-2.614 -8.761,-3.568c-6.196,-0.955 -16.695,-0.802 -19.522,-0.696c-2.827,0.105 -7.351,-0.66 -11.556,-0.742c-3.966,-0.078 -10.725,0.582 -11.481,0.657l-0.083,0.122c0.135,-0.199 0.213,-0.299 0.213,-0.299c0,0 -2.836,0.923 -14.217,-2.347c1.872,-2.294 4.201,-5.385 4.794,-7.225c1.03,-3.197 4.705,-5.987 8.081,-8.133c3.377,-2.146 1.235,-3.205 0.222,-6.197c-1.012,-2.992 -5.158,-5.181 -11.282,-11.926c-6.123,-6.745 -5.685,-11.754 -5.685,-11.754c0,0 -1.437,-4.659 -3.352,-6.991c-1.915,-2.333 -3.484,-3.64 -6.775,-2.981c-3.291,0.659 -2.946,-1.323 -4.072,-5.75c-1.126,-4.428 -3.617,-7.695 -3.617,-7.695c0,0 0.51,-6.981 0.015,-8.742c-0.495,-1.76 -1.016,-4.094 -0.796,-6.82c0.22,-2.727 0.788,-7.19 -0.788,-8.237c-1.577,-1.047 -2.469,-3.769 -2.469,-5.184c0,-1.415 -1.971,-5.213 -3.461,-9.55c-1.49,-4.338 0.026,-7.617 0.026,-10.735c0,-3.117 0.068,-8.637 3.225,-10.265c3.157,-1.628 2.595,-4.911 2.595,-7.811c0,-2.9 1.684,-2.08 1.592,-5.716c-0.092,-3.636 -5.327,-9.039 -6.006,-13.594c-0.34,-2.284 0.411,-5.901 1.245,-8.939c0.447,0.215 0.897,0.445 1.349,0.691c10.977,5.967 5.858,1.969 10.823,3.438c4.964,1.469 5.835,7.958 6.615,9.655c0.78,1.696 1.953,3.083 3.804,3.234c1.852,0.15 3.231,0.516 3.3,7.846c0,0 1.926,3.368 11.008,3.358c3.338,-0.003 6.316,2.518 6.316,2.518c0,0 2.439,0.05 4.95,-0.099c2.511,-0.149 3.93,0.947 5.343,1.219c1.414,0.271 7.451,-5.382 9.231,-7.535c1.78,-2.152 8.187,-1.052 10.185,-0.754c1.998,0.299 7.218,-4.012 9.576,-7.506c0,0 10.765,-0.337 16.079,-7.318c5.315,-6.981 4.266,-7.062 4.266,-7.062l2.549,-0.11l3.142,-3.707c0,0 -0.071,-0.573 -0.064,-1.406l0,0l0,-0.008Zm89.641,188.652l0.007,0.005l-0.048,-0.035l0.041,0.03Zm31.849,-36.774l-0.038,0.112l0.024,-0.07l0.014,-0.042Z" style="fill:#5d8b47;stroke:#fff;stroke-width:0.56px;"/></svg>