<?xml version="1.0" encoding="UTF-8" standalone="no"?><!DOCTYPE svg PUBLIC "-//W3C//DTD SVG 1.1//EN" "http://www.w3.org/Graphics/SVG/1.1/DTD/svg11.dtd"><svg width="100%" height="100%" viewBox="0 0 225 262" version="1.1" xmlns="http://www.w3.org/2000/svg" xmlns:xlink="http://www.w3.org/1999/xlink" xml:space="preserve" style="fill-rule:evenodd;clip-rule:evenodd;stroke-linecap:round;stroke-linejoin:round;stroke-miterlimit:1.5;"><path id="tombolopao" d="M0.753,108.979c0.014,-1.72 0.359,-4.547 2.342,-5.724c2.942,-1.747 4.895,-1.913 5.666,-3.87c0.77,-1.957 5.376,-3.833 7.223,-4.014c1.847,-0.182 4.204,-4.072 4.997,-7.001c0.794,-2.929 2.613,-1.616 3.411,-3.313c0.799,-1.698 1.778,-7.037 -5.364,-10.706c-7.141,-3.669 -2.924,-1.391 -2.405,-7.21c0.519,-5.82 0.888,-3.585 2.438,-5.314c1.549,-1.728 3.103,-4.187 5.231,-6.062c2.127,-1.874 2.002,-5.36 2.002,-5.36c0,0 4.315,-2.609 4.872,-6.641c0.558,-4.032 1.197,-4.225 1.197,-4.225c0,0 3.084,-1.049 -2.019,-6.058c-5.103,-5.009 -9.407,-3.12 -10.943,-6.675c-1.536,-3.556 -1.473,-6.248 2.533,-10.613c4.005,-4.365 2.052,-6.937 2.637,-10.644c0.585,-3.708 0.63,-5.239 2.322,-3.363c1.692,1.876 8.295,3.702 13.41,-0.257c5.116,-3.959 4.328,-0.119 9.941,4.516c0,0 2.106,4.696 6.178,8.256c0,0 1.597,1.567 3.439,5.708c1.842,4.141 3.834,2.399 3.834,2.399c0,0 -1.219,1.339 5.392,5.338c6.611,3.998 10.353,7.577 10.353,7.577c0,0 5.566,4.732 7.858,8.789c2.293,4.057 12.127,9.998 15.466,8.606c3.338,-1.391 6.96,-3.801 7.756,-5.581c0.796,-1.781 3.847,0.27 6.084,0.99c2.237,0.72 5.581,1.83 6.974,1.933c1.393,0.103 5.802,3.85 8.056,4.026c2.254,0.176 3.063,-2.943 11.034,3.6c0,0 1.713,1.479 6.82,1.326c5.106,-0.152 3.724,4.72 4.278,5.508c0.554,0.788 1.09,4.476 1.782,5.835c0.692,1.359 0.225,5.751 -1.706,8.081c-1.932,2.329 0.041,6.229 4.269,8.775c4.229,2.547 5.468,1.722 5.468,1.722l2.17,1.76c0,0 0.429,1.867 7.879,1.239c7.45,-0.628 9.865,-3.554 13.669,-2.152c3.804,1.402 4.48,1.357 7.08,5.157c2.6,3.8 8.775,6.326 12.492,7.563c3.718,1.236 4.152,3.153 4.376,5.729c0.225,2.576 1.219,5.542 5.681,4.45c4.462,-1.093 6.765,-1.57 6.621,0.297c-0.144,1.867 -3.087,9.492 -4.905,10.278c-1.818,0.787 -5.168,-0.71 -4.148,1.535c1.019,2.246 1.913,4.402 1.075,5.246c-0.839,0.843 -2.713,0.476 -4.499,0.166c-1.785,-0.31 -2.53,-1.032 -4.457,-0.351c-1.928,0.68 -1.695,2.788 -4.407,1.744c-2.712,-1.044 -4.037,-3.747 -6.466,-2.409c-2.429,1.337 -4.25,1.499 -5.104,0.339c-0.854,-1.161 -2.408,-2.598 -2.408,-1.445c-0.001,1.152 2.538,3.618 0.116,3.201c-2.422,-0.418 -1.765,-1.947 -2.884,-0.99c-1.119,0.956 -0.481,2.228 -2.035,1.998c-1.553,-0.229 -3.767,-2.867 -4.178,-1.094c-0.41,1.772 0.471,2.909 1.367,3.247c0.895,0.337 2.066,0.965 -0.649,1.708c-2.715,0.744 -5.139,3.226 -4.729,4.127c0.41,0.901 0.909,1.711 0.193,2.288c-0.717,0.576 -1.492,0.901 -0.496,2.237c0.995,1.335 3.128,0.119 2.739,3.329c-0.389,3.21 -0.47,1.61 -0.47,3.532c0,1.922 1.316,1.352 2.435,2.669c1.119,1.316 1.974,1.216 2.973,3.28c0.998,2.064 0.146,3.659 -0.442,5.103c-0.588,1.444 -0.175,2.135 -0.175,2.135c0,0 2.182,0.965 0.945,2.958c-1.238,1.994 -6.972,5.427 -7.353,8.522c-0.382,3.094 -0.607,3.469 -2.863,3.414c-2.256,-0.056 -4.716,4.227 -6.77,5.104c-2.053,0.877 -5.195,5.803 -5.195,8.057c0,2.253 -2.369,3.237 -3.167,5.22c-0.798,1.984 -0.675,1.569 -0.207,3.582c0.467,2.013 0.182,7.742 -1.298,9.553c-1.48,1.812 -2.903,2.598 -1.344,7.515c1.558,4.917 -3.542,5.56 -5.326,6.684c-1.784,1.124 -2.828,3.726 -7.353,4.366c-4.526,0.64 -2.08,2.32 -3.164,3.835c-1.083,1.515 -4.689,2.647 -8.176,8.963c-3.487,6.316 -2.416,9.879 -3.189,11.69c-0.772,1.812 -3.22,2.749 -4.36,4.243c-0.396,0.518 -0.726,1.265 -0.996,2.09c-3.846,-3.047 -9.851,-8.383 -11.634,-13.224c-2.689,-7.302 -6.543,-15.29 -7.498,-25.653c-0.955,-10.363 -2.198,-19.755 -5.441,-23.343c-3.243,-3.589 -5.804,-7.275 -6.351,-9.917c-0.547,-2.642 -3.135,-3.328 -4.166,-5.998c-1.031,-2.67 -0.118,-4.215 -0.824,-8.145c-0.706,-3.93 -1.148,-5.434 -5.942,-7.981c-4.794,-2.546 -2.236,-4.425 -4.017,-7.328c-1.78,-2.903 -2.845,1.456 -2.845,-1.436c0,-2.891 -0.331,-8.046 -3.54,-8.7c-3.209,-0.655 -6.403,-0.133 -6.403,2.129c0,2.262 -3.18,0.427 -4.239,-1.51c-1.058,-1.938 -3.608,-6.102 -4.652,-7.278c-1.044,-1.176 -6.935,-6.476 -9.487,-8.344c-2.552,-1.867 -8.392,-5.129 -10.592,-4.964c-2.2,0.165 -7.863,-2.388 -9.772,-3.675c-1.91,-1.287 -8.015,-4.766 -11.587,-6.09c-3.572,-1.324 -8.898,-3.267 -9.383,-5.023c-0.485,-1.757 -1.517,-2.863 -2.708,-5.043c-0.081,-0.147 -0.197,-0.33 -0.343,-0.543Z" style="fill:#50c097;stroke:#fff;stroke-width:0.56px;"/></svg>