<?xml version="1.0" encoding="UTF-8" standalone="no"?><!DOCTYPE svg PUBLIC "-//W3C//DTD SVG 1.1//EN" "http://www.w3.org/Graphics/SVG/1.1/DTD/svg11.dtd"><svg width="100%" height="100%" viewBox="0 0 179 222" version="1.1" xmlns="http://www.w3.org/2000/svg" xmlns:xlink="http://www.w3.org/1999/xlink" xml:space="preserve" style="fill-rule:evenodd;clip-rule:evenodd;stroke-linecap:round;stroke-linejoin:round;stroke-miterlimit:1.5;"><path id="tompobulu" d="M29.048,220.272l-0.016,0.033l0.012,-0.025l0.004,-0.008Zm-25.565,-85.833l0.48,0.062c0,0 0.498,-5.187 2.749,-6.451c2.252,-1.264 6.861,-1 8.062,-1.327c1.201,-0.328 0.654,-0.192 2.969,-0.764c2.315,-0.572 3.836,1.685 7.3,0.186c3.464,-1.499 3.216,-1.643 4.822,-1.499c1.606,0.145 2.154,-0.242 3.606,-2.545c1.453,-2.302 2.477,-5.548 3.897,-7.849c1.42,-2.302 2.947,-2.524 3.576,-3.391c0.628,-0.866 0.786,-1.707 0.245,-4.529c-0.541,-2.823 -3.583,-5.739 1.48,-9.065c5.064,-3.327 2.721,-5.242 2.721,-5.242c0,0 -1.863,0.639 -0.991,-1.68c0.873,-2.32 1.313,-3.711 2.481,-5.16c1.168,-1.449 0.725,-1.873 -0.09,-2.922c-0.815,-1.049 0.406,-2.487 2.073,-2.905c1.667,-0.417 2.052,0.323 2.26,-1.44c0.207,-1.763 1.347,-2.312 2.75,-2.479c1.403,-0.168 1.211,-2.416 0.615,-4.444c-0.596,-2.028 -1.727,0.472 0.84,-2.941c2.567,-3.412 1.818,-3.741 3.759,-4.289c1.941,-0.548 2.57,-1.73 3.231,-3.598c0.66,-1.868 0.894,-0.921 2.915,-1.85c2.02,-0.929 4.337,-3.652 5.203,-5.061c0.866,-1.41 6.05,-7.557 8.185,-11.697c2.135,-4.141 6.834,-6.984 7.294,-9.03c0.46,-2.047 1.407,-5.175 1.407,-5.175c0,0 3.25,-2.313 7.881,-3.687c4.631,-1.374 8.675,-2.851 9.81,-5.574c1.136,-2.722 1.274,-3.35 4.914,-3.936c3.641,-0.585 8.64,-2.736 11.27,-5.205c2.631,-2.468 1.722,0.127 7.12,-2.16c5.397,-2.286 5.642,-3.318 6.813,-4.783c1.171,-1.465 2.345,-1.087 4.379,-0.513c2.034,0.574 2.512,-1.605 4.081,-1.079c1.569,0.525 11.414,0.288 11.414,0.288c0,0 -0.151,-0.114 -0.425,-0.312c3.425,0.948 7.449,1.466 11.129,1.744c0,1.261 0.33,2.672 1.184,4.237c3.393,6.208 3.688,6.8 4.68,10.236c0.991,3.435 3.799,4.493 1.7,6.329c-2.1,1.837 -8.309,7.34 -5.494,15.069c2.815,7.729 7.641,13.132 9.332,14.393c1.691,1.26 0.358,4.063 -2.326,4.91c-2.684,0.847 -4.958,3.676 -6.063,7.273c-1.104,3.597 -6.77,5.111 -10.933,7.358c-4.164,2.248 -9.52,8.171 -10.925,13.413c-1.405,5.243 -6.188,11.614 -11.41,11.963c-5.223,0.349 -3.313,1.317 -10.197,1.696c-6.885,0.378 -9.085,2.219 -13.583,5.047c-4.498,2.829 -7.483,3.413 -10.353,5.461c-2.869,2.049 -7.62,7.302 -9.319,9.852c-1.699,2.55 -4.295,3.741 -4.643,6.227c-0.348,2.486 -1.784,2.655 -3.718,3.56c-1.933,0.905 -7.784,10.01 -8.511,12.642c-0.726,2.631 -2.155,3.174 -3.849,3.56c-1.695,0.386 -7.388,8.169 -7.921,10.55c-0.533,2.38 -8.568,15.55 -8.775,18.785c-0.207,3.234 -1.966,4.845 -2.779,6.551c-0.813,1.707 -1.109,8.245 -1.109,10.872c0,2.627 0.055,3.565 -3.599,6.509c-3.655,2.943 -5.957,5.139 -7.072,5.644c-1.116,0.506 -1.016,1.392 -1.523,3.098c-0.507,1.705 -1.191,2.197 -2.61,1.956c0,0 -2.009,1.493 -2.215,3.447c-0.205,1.954 0.449,3.398 0.449,3.398c0,0 -3.386,0.866 -4.965,3.874l0.003,-0.007l-1.748,-2.454c0,0 -1.639,-3.281 -2.485,-5.072c-0.846,-1.792 -7.352,-1.297 -7.352,-1.297c0,0 -1.673,-3.103 -2.246,-5.45c-0.573,-2.347 -2.712,-2.02 -2.712,-2.02l-2.556,-0.637c0,0 -0.339,-2.041 0.547,-3.589c0.886,-1.547 -1.492,-2.165 -2.178,-3.539c-0.687,-1.374 0.911,-1.899 0.966,-3.569c0.056,-1.669 2.891,-2.27 4.892,-2.388c2.001,-0.119 -0.396,-4.343 -0.396,-4.343l-1.564,-2.826l0.683,-3.843c0,0 1.288,-2.015 1.149,-2.339c-0.139,-0.325 -3.231,-3.97 -3.231,-3.97l-2.963,-4.153l-0.254,-2.811c0,0 -1.981,-3.609 -3.199,-5.906c-1.218,-2.298 -2.898,-3.852 -2.982,-6.485c-0.083,-2.633 2.427,-1.777 1.417,-8.124c-1.011,-6.346 -1.969,-1.008 -2.588,-5.46c-0.62,-4.452 2.676,-0.904 3.555,-1.688c0.455,-0.406 0.114,-1.867 -0.436,-3.638Z" style="fill:#f38080;stroke:#fff;stroke-width:0.56px;"/></svg>