<?xml version="1.0" encoding="UTF-8" standalone="no"?>
<!DOCTYPE svg PUBLIC "-//W3C//DTD SVG 1.1//EN" "http://www.w3.org/Graphics/SVG/1.1/DTD/svg11.dtd">
<svg width="100%" height="100%" viewBox="0 0 271 222" version="1.1" xmlns="http://www.w3.org/2000/svg" xmlns:xlink="http://www.w3.org/1999/xlink" xml:space="preserve" style="fill-rule:evenodd;clip-rule:evenodd;stroke-linecap:round;stroke-linejoin:round;stroke-miterlimit:1.5;">
    <g id="awanrantekarua" transform="matrix(1,0,0,1,-190.504,-882.46)">
        <path d="M204.531,882.994C204.002,883.462 203.467,883.926 202.932,884.388C211.191,884.444 221.551,886.032 225.348,893.075C232.044,905.494 232.985,899.278 236.489,897.134C239.992,894.991 242.604,896.938 245.563,897.72C248.521,898.501 265.871,895.899 269.288,900.012C272.704,904.124 292.742,920.242 299.29,918.328C305.838,916.415 311.448,911.582 315.478,911.856C319.507,912.13 324.838,911.962 324.838,911.962C324.838,911.962 339.436,921.393 347.471,922.127C355.505,922.861 354.462,927.508 354.462,927.508L364.807,927.928L368.505,929.02L372.515,926.548L377.016,925.887C377.016,925.887 377.973,919.052 381.77,922.068C385.566,925.085 387.934,927.006 390.105,923.09C392.277,919.175 399.518,914.66 403.636,920.018C405.875,922.93 408.422,924.081 411.34,923.951C412.825,927.74 415.273,929.59 415.273,929.59C415.273,929.59 415.729,932.927 415.924,934.403C416.12,935.879 419.013,940.169 418.535,944.438C418.058,948.708 427.958,956.111 427.958,956.111L428.315,961.598C428.315,961.598 429.625,970.542 431.023,974.113C432.421,977.684 433.158,981.654 433.158,981.654C433.158,981.654 431.813,985.514 433.157,987.222C434.5,988.929 437.286,993.057 437.286,999.551C437.286,1006.05 442.525,1008.49 442.525,1008.49C442.525,1008.49 448.522,1012.21 444.61,1016.88C440.698,1021.56 447.288,1028.92 447.288,1028.92L447.814,1032.03C447.814,1032.03 453.26,1037.68 455.885,1039.93C458.51,1042.17 458.062,1056.51 458.062,1056.51C458.062,1056.51 462.295,1059.51 459.592,1060.61C456.889,1061.7 450.154,1067.99 446.895,1070.88C443.636,1073.76 431.144,1071.88 428.962,1071.24C426.779,1070.61 423.169,1071.24 420.97,1074.15C418.77,1077.06 414.658,1073.88 414.658,1073.88C414.658,1073.88 408.982,1070.01 405.491,1068.76C402,1067.5 391.423,1070.3 384.012,1067.52C368.686,1061.75 339.149,1074.68 331.388,1080.13C323.627,1085.58 300.612,1105.54 296.93,1102.64C293.247,1099.74 278.198,1096.68 272.092,1095.44C265.987,1094.19 264.58,1091.03 263.078,1086.12C261.575,1081.21 253.119,1084.77 253.307,1075.63C253.495,1066.5 246.809,1055.25 243.102,1046.79C239.394,1038.32 242.768,1021.86 240.98,1015.86C239.192,1009.87 230.285,998.254 230.285,990.718C230.285,983.182 222.552,981.282 218.856,974.305C215.16,967.329 206.672,958.711 206.309,952.531C205.945,946.35 197.97,943.57 200.442,932.738C202.913,921.905 194.073,917.331 193.039,913.733C192.005,910.135 190.822,900.79 191.071,894.527C191.218,890.854 198.517,886.209 204.531,882.994Z" style="fill:rgb(128,0,85);stroke:white;stroke-width:1.07px;"/>
    </g>
</svg>
