<?xml version="1.0" encoding="UTF-8" standalone="no"?>
<!DOCTYPE svg PUBLIC "-//W3C//DTD SVG 1.1//EN" "http://www.w3.org/Graphics/SVG/1.1/DTD/svg11.dtd">
<svg width="100%" height="100%" viewBox="0 0 309 180" version="1.1" xmlns="http://www.w3.org/2000/svg" xmlns:xlink="http://www.w3.org/1999/xlink" xml:space="preserve" style="fill-rule:evenodd;clip-rule:evenodd;stroke-linecap:round;stroke-linejoin:round;stroke-miterlimit:1.5;">
    <g id="balusu" transform="matrix(1,0,0,1,-861.458,-892.052)">
        <path d="M864.573,1059.17C865.094,1058.75 865.498,1058.2 865.682,1057.46C866.545,1054 872.182,1048.55 872.182,1048.55L872.273,1040.06C872.273,1040.06 873.668,1036.34 872.984,1034.12C872.299,1031.91 868.266,1031.88 868.266,1031.88C868.266,1031.88 867.77,1031.46 866.421,1028.06C865.072,1024.66 858.937,1019.52 863.896,1014.59C868.854,1009.66 869.669,1006.03 869.669,1006.03C869.669,1006.03 867.732,1001.4 870.471,999.757C873.209,998.109 873.062,992.43 873.062,992.43L865.608,991.314L865.595,991.314C866.814,989.286 867.963,987.379 868.388,986.695C869.437,985.005 874.314,978.779 879.031,976.556C883.749,974.333 885.302,969.522 886.399,967.597C887.497,965.672 888.294,954.716 888.294,954.716C888.294,954.716 887.3,954.232 886.33,953.541C892.367,947.366 898.939,948.212 904.139,947.26C909.742,946.234 912.133,941.891 912.133,941.891C912.133,941.891 919.449,937.534 925.14,935.279C930.831,933.025 941.735,925.865 941.735,925.865C941.735,925.865 952.079,926.191 952.739,921.868C953.399,917.545 961.33,907.263 961.33,907.263C961.33,907.263 966.398,908.144 967.586,903.523C968.774,898.901 972.414,898.002 974.067,898.107C975.72,898.212 980.458,897.1 980.458,897.1C984.229,894.019 989.803,892.86 995.163,892.585C994.714,898.7 991.326,901.166 1000.77,913.405C1005.71,919.807 1007,924.713 1007,924.713L1019.75,928.18C1019.75,928.18 1029.65,938.142 1029.03,942.311C1028.41,946.479 1025.62,953.026 1028.2,952.21C1030.79,951.395 1035.62,943.981 1035.62,943.981C1035.62,943.981 1042.13,935.08 1054.68,935.404C1067.22,935.728 1074.15,932.739 1074.15,932.739L1077.99,932.853L1086.06,926.707C1086.06,926.707 1113.35,915.479 1119.58,910.475C1125.81,905.472 1127.7,908.06 1132.36,916.282C1137.02,924.505 1140.16,929.313 1147.69,931.778C1155.22,934.242 1152.85,935.256 1154.55,946.864C1156.26,958.473 1160.3,959.436 1166.11,964.298C1171.92,969.159 1168.64,971.37 1166.36,978.246C1164.08,985.123 1163.75,991.451 1165.8,994.823C1167.84,998.196 1157.17,994.682 1155.07,1001.62C1152.97,1008.55 1150.91,1009.63 1150.77,1013.66C1150.62,1017.7 1141.45,1023.87 1138.67,1025.77C1135.89,1027.67 1128.78,1031.18 1136.25,1034.01C1143.72,1036.84 1141.98,1040.47 1141.98,1040.47C1141.98,1040.47 1146.26,1043.08 1147.77,1045.95C1143.74,1045.57 1139.12,1045.14 1136.12,1044.9C1129.76,1044.4 1126.46,1044.39 1121.49,1045.43C1116.53,1046.46 1110.78,1042.21 1106.23,1043.75C1101.67,1045.28 1099.86,1049.59 1095.99,1048.19C1092.12,1046.79 1082.28,1041.82 1070.19,1045.97C1058.1,1050.13 1055.8,1048.23 1055.8,1048.23C1055.8,1048.23 1046.74,1052.24 1042.87,1054.44C1039.01,1056.64 1034.58,1056.74 1028.51,1056.74C1022.45,1056.74 1016,1062.18 1012.35,1064.16C1008.7,1066.15 1005.86,1064.48 1000.31,1067.48C994.769,1070.48 994.132,1069.68 994.132,1069.68L993.049,1070.18C993.168,1069.76 993.23,1069.5 993.23,1069.5C987.449,1071.8 950.437,1071.91 936.08,1069.89C921.724,1067.88 907.18,1056.69 905.699,1052.82C904.218,1048.94 892.094,1049.46 886.414,1050C880.734,1050.54 876.068,1061.47 872.1,1061.37C868.131,1061.27 866.551,1061.47 866.551,1061.47L864.573,1059.17ZM864.482,1059.24L864.478,1059.24L864.484,1059.24L864.482,1059.24ZM886.33,953.541L886.329,953.541L886.158,953.417L886.33,953.541Z" style="fill:rgb(128,54,0);stroke:white;stroke-width:1.07px;"/>
    </g>
</svg>
