<?xml version="1.0" encoding="UTF-8" standalone="no"?>
<!DOCTYPE svg PUBLIC "-//W3C//DTD SVG 1.1//EN" "http://www.w3.org/Graphics/SVG/1.1/DTD/svg11.dtd">
<svg width="100%" height="100%" viewBox="0 0 212 212" version="1.1" xmlns="http://www.w3.org/2000/svg" xmlns:xlink="http://www.w3.org/1999/xlink" xml:space="preserve" style="fill-rule:evenodd;clip-rule:evenodd;stroke-linecap:round;stroke-linejoin:round;stroke-miterlimit:1.5;">
    <g id="bangkelekila" transform="matrix(1,0,0,1,-677.803,-780.094)">
        <path d="M772.839,969.585C772.45,968.387 771.702,967.302 770.374,966.599C765.649,964.098 764.678,959.691 752.468,949.016C740.258,938.341 729.353,931.998 724.749,933.477C720.145,934.957 708.602,938.686 696.348,936.948C688.642,935.854 683.238,926.313 680.289,919.381C682.187,917.882 683.424,915.974 683.595,913.571C684.401,902.263 682.78,900.118 682.25,892.127C681.72,884.136 686.409,870.984 686.658,865.823C686.908,860.662 685.57,861.848 683.398,855.183C681.226,848.519 680.4,844.222 680.4,839.41C680.4,834.599 676.159,830.514 679.835,818.439C683.511,806.364 682.598,801.124 690.578,792.031C694.234,787.864 697.563,784.13 699.92,780.628C701.345,782.566 702.555,785.184 702.296,788.328C701.713,795.4 706.529,794.364 706.529,794.364C706.529,794.364 707.665,799.92 707.665,802.656C707.665,805.391 710.773,805.748 710.773,805.748L715.041,808.549L716.987,815.454L722.271,817.153L724.915,821.313L730.027,823.796C730.027,823.796 738.272,832.582 739.806,833.651C741.34,834.721 742.542,833.55 742.542,836.5C742.542,839.45 746.42,838.113 746.42,838.113L750.019,840.348L756.912,845.589C756.912,845.589 759.881,847.57 761.494,846.837C763.106,846.105 767.385,845.659 767.385,845.659L775.119,845.917L780.667,847.297L781.579,851.067L787.558,852.687C787.558,852.687 790.92,859.709 788.611,860.813C786.303,861.917 782.004,866.081 786.458,866.9C790.911,867.719 790.586,869.519 790.586,869.519L792.186,872.742L799.041,872.742C799.099,872.764 801.407,873.676 801.788,876.638C802.174,879.636 806.655,879.636 806.655,879.636L820.535,880.701C820.535,880.701 823.319,888.738 823.319,890.869C823.319,892.999 830.575,896.8 830.575,896.8C830.575,896.8 837.907,903.081 838.884,904.976C839.86,906.871 841.589,908.044 841.589,908.044L844.573,906.27L846.237,909.498L855.62,910.477L858.669,920.578C858.669,920.578 862.586,920.44 863.547,916.37C864.509,912.3 865.793,914.156 865.793,914.156C865.793,914.156 870.95,922.469 870.504,928.241C870.059,934.013 868.672,937.685 868.672,937.685C868.672,937.685 867.871,943.048 872.562,940.982C877.252,938.916 880.603,940.452 880.603,940.452C880.603,940.452 884.852,949.379 884.522,951.05C884.192,952.721 888.294,954.716 888.294,954.716C888.294,954.716 887.497,965.672 886.399,967.597C885.302,969.522 883.749,974.333 879.031,976.556C874.314,978.779 869.437,985.005 868.388,986.695C867.963,987.379 866.813,989.286 865.595,991.314L854.246,991.314C854.246,991.314 845.273,991.533 846.766,984.317C848.259,977.101 844.555,976.004 840.886,976.005C837.218,976.006 831.637,971.901 831.637,971.901L822.387,973.821C822.387,973.821 815.173,972.856 814.155,972.696C813.138,972.537 805.385,971.792 798.75,975.976C792.115,980.161 787.487,977.439 782.883,974.062C780.507,972.319 776.328,970.722 772.839,969.585L772.839,969.585ZM773.177,971.358L773.169,971.264L773.177,971.358ZM773.146,971.04C773.153,971.101 773.16,971.162 773.165,971.223L773.146,971.04ZM773.131,970.91L773.141,970.993L773.123,970.85L773.131,970.91ZM773.087,970.612C773.097,970.673 773.107,970.734 773.115,970.795L773.087,970.612ZM773.061,970.463L773.085,970.601L773.054,970.428L773.061,970.463ZM773.032,970.315L773.034,970.328L773.031,970.311L773.032,970.315ZM773,970.168L773.002,970.177L772.996,970.151L773,970.168ZM772.964,970.021L772.968,970.037L772.962,970.013L772.964,970.021ZM772.926,969.875L772.927,969.88L772.922,969.862L772.926,969.875ZM772.884,969.729L772.889,969.745L772.881,969.718L772.884,969.729Z" style="fill:rgb(199,139,154);stroke:white;stroke-width:1.07px;"/>
    </g>
</svg>
