<?xml version="1.0" encoding="UTF-8" standalone="no"?>
<!DOCTYPE svg PUBLIC "-//W3C//DTD SVG 1.1//EN" "http://www.w3.org/Graphics/SVG/1.1/DTD/svg11.dtd">
<svg width="100%" height="100%" viewBox="0 0 483 731" version="1.1" xmlns="http://www.w3.org/2000/svg" xmlns:xlink="http://www.w3.org/1999/xlink" xml:space="preserve" style="fill-rule:evenodd;clip-rule:evenodd;stroke-linecap:round;stroke-linejoin:round;stroke-miterlimit:1.5;">
    <g id="barupu" transform="matrix(1,0,0,1,-158.62,-198.664)">
        <path d="M202.932,884.388C208.688,879.423 214.315,874.201 214.001,867.288C213.378,853.553 216.447,818.603 207.689,808.387C198.931,798.171 204.664,784.564 205.06,772.285C205.457,760.007 201.167,758.715 201.167,758.715C201.167,758.715 201.761,738.156 197.099,730.094C192.437,722.033 189.754,711.903 189.226,706.216C188.698,700.53 185.395,695.375 185.395,695.375C185.395,695.375 184.19,684.89 179.216,684.105C174.242,683.32 173.439,670.064 173.439,670.064L170.67,659.517L173.004,641.796C173.004,641.796 164.271,637.274 162.799,630.117C161.327,622.959 159.153,618.896 159.153,618.896L167.443,612.745C167.443,612.745 173.261,604.653 174.449,601.029C175.638,597.404 185.244,598.165 186.917,592.989C188.591,587.814 192.96,584.595 192.96,584.595L193.267,577.186C193.267,577.186 199.471,569.374 203.401,568.833C207.33,568.292 206.363,567.093 210.882,558.086C215.402,549.079 226.544,547.07 226.544,547.07L232.773,538.993L240.952,530.383L243.26,522.236C243.26,522.236 249.339,522.267 252.526,519.247C255.713,516.227 274.522,509.947 274.522,509.947C274.522,509.947 289.553,506.219 293.017,500.859C296.481,495.499 297.834,497.761 297.834,497.761L303.658,485.242C303.658,485.242 309.672,480.262 319.324,482.936L329.126,480.033L336.353,478.535C336.353,478.535 354.37,479.813 355.107,455.947L350.034,447.073L352.908,436.744C352.908,436.744 343.912,425.731 347.332,421.845C350.753,417.959 354.37,416.809 354.37,416.809L355.529,412.837L351.277,408.848L354.803,404.697L357.982,403.501L362.62,397.564L375.309,396.299C375.309,396.299 373.19,389.863 376.921,386.477C380.652,383.091 381.473,381.022 381.473,381.022C381.473,381.022 374.199,377.439 369.817,378.685C369.817,378.685 365.907,373.219 363.872,365.771C361.836,358.323 364.644,360.496 364.644,360.496C364.644,360.496 373.989,357.304 377.142,354.402C380.295,351.5 384.096,348.356 384.096,348.356L393.246,347.573L400.328,339.262C400.328,339.262 421.732,338.409 426.411,338.409C431.09,338.409 431.212,334.176 431.212,334.176L432.082,327.56C432.082,327.56 439.759,319.134 442.739,315.586C445.719,312.037 450.987,309.85 450.987,309.85L460.813,299.03C460.813,299.03 465.958,295.632 469.786,287.45C473.615,279.269 484.205,278.291 484.205,278.291C484.205,278.291 492.252,264.82 494.313,260.693C496.374,256.567 508.216,251.936 522.518,250.869C536.821,249.801 548.252,250.034 554.848,240.415C561.444,230.796 571.948,222.375 582.109,211.512C592.269,200.649 599.012,199.197 599.012,199.197L602.987,205.486L607.041,205.337C607.041,205.337 610.337,205.512 612.076,210.696C613.816,215.879 616.89,219.619 616.949,222.021C617.007,224.422 618.668,224.687 618.668,224.687L621.039,222.828C621.039,222.828 624.314,224.922 623.451,227.447C622.588,229.971 621.559,234.01 621.559,234.01C621.559,234.01 623.712,235.253 625.857,235.549C628.003,235.846 628.984,239.815 628.984,239.815C628.984,239.815 628.269,245.681 627.809,249.544C627.349,253.407 626.076,254.291 626.076,254.291C626.076,254.291 611.275,254.879 622.082,261.106L625.627,259.488L627.932,261.213L628.469,264.202L628.661,267.014C628.661,267.014 637.079,270.66 637.012,273.921C636.945,277.181 638.094,279.556 638.094,279.556L640.302,283.342C640.302,283.342 632.904,291.369 632.605,297.323C632.305,303.278 632.407,306.399 632.321,309.319C632.235,312.238 630.94,315.656 630.94,315.656L635.542,319.492C635.542,319.492 630.335,330.916 629.773,334.502C629.212,338.088 632.863,348.325 632.89,356.502C632.916,364.68 632.216,365.602 632.216,365.602L631.207,371.295C631.207,371.295 622.8,374.761 627.586,383.739C632.372,392.717 631.909,398.808 631.808,402.634C631.706,406.459 630.115,413.66 629.695,416.712C629.275,419.764 628.196,435.148 631.636,436.467C633.699,437.259 637.218,438.95 639.702,440.177C637.097,442.199 634.068,444.5 631.994,445.921C627.634,448.908 616.141,447.751 610.852,448.004C605.563,448.258 598.843,451.857 590.999,455.526C583.154,459.195 575.316,456.902 575.316,456.902C575.316,456.902 575.019,458.045 564.824,468.304C554.629,478.563 562.412,486.709 566.034,490.255C569.656,493.802 566.986,503.059 564.608,507.924C562.231,512.789 559.289,512.383 557.713,521.84C556.136,531.297 538.683,536.762 539.047,541.714C539.412,546.666 535.467,557.559 532.047,559.849C528.627,562.138 518.91,568.268 519.446,572.953C519.982,577.637 518.025,581.843 515.036,587.894C512.047,593.946 489.091,606.352 482.484,609.739C475.878,613.125 480.587,618.653 481.688,622.557C482.789,626.461 484.026,625.047 486.337,626.513C488.647,627.979 495.083,635.325 493.169,638.233C491.255,641.142 488.897,642.462 491.245,647.014C493.592,651.566 490.565,663.622 486.474,667.805C482.383,671.988 483.164,674.587 485.513,679.849C487.862,685.112 485.657,685.389 484.72,688.097C483.782,690.805 483.052,700.662 484.672,709.163C486.292,717.664 491.931,709.669 493.871,708.206C495.81,706.743 498.738,709.942 499.286,712.289C499.834,714.636 497.366,725.642 499.768,728.704C502.169,731.765 506.085,733.161 506.396,740.004C506.706,746.847 513.367,750.614 520.357,756.57C527.347,762.526 521.324,772.984 513.788,778.17C506.252,783.356 499.123,788.486 500.711,792.841C504.359,802.851 498.298,808.74 493.55,815.673C488.802,822.606 494.587,831.04 496.769,838.083C498.951,845.125 487.76,880.832 486.199,888.68C484.639,896.529 479.689,903.505 477.002,911.349C474.316,919.193 460.127,929.028 452.259,921.816C444.391,914.604 426.119,917.634 419.517,921.203C412.915,924.771 407.755,925.376 403.636,920.018C399.518,914.66 392.277,919.175 390.105,923.09C387.934,927.006 385.566,925.085 381.77,922.068C377.973,919.052 377.016,925.887 377.016,925.887L372.515,926.548L368.505,929.02L364.807,927.928L354.462,927.508C354.462,927.508 355.505,922.861 347.471,922.127C339.436,921.393 324.838,911.962 324.838,911.962C324.838,911.962 319.507,912.13 315.478,911.856C311.448,911.582 305.838,916.415 299.29,918.328C292.742,920.242 272.704,904.124 269.288,900.012C265.871,895.899 248.521,898.501 245.563,897.72C242.604,896.938 239.992,894.991 236.489,897.134C232.985,899.278 232.044,905.494 225.348,893.075C221.551,886.032 211.191,884.444 202.932,884.388Z" style="fill:rgb(85,19,150);stroke:white;stroke-width:1.07px;"/>
    </g>
</svg>
