<?xml version="1.0" encoding="UTF-8" standalone="no"?>
<!DOCTYPE svg PUBLIC "-//W3C//DTD SVG 1.1//EN" "http://www.w3.org/Graphics/SVG/1.1/DTD/svg11.dtd">
<svg width="100%" height="100%" viewBox="0 0 148 164" version="1.1" xmlns="http://www.w3.org/2000/svg" xmlns:xlink="http://www.w3.org/1999/xlink" xml:space="preserve" style="fill-rule:evenodd;clip-rule:evenodd;stroke-linecap:round;stroke-linejoin:round;stroke-miterlimit:1.5;">
    <g id="buntao" transform="matrix(1,0,0,1,-840.76,-1283.54)">
        <path d="M841.294,1393.45L841.578,1393.93C847.318,1391.96 853.117,1389.96 857.292,1388.48C869.028,1384.33 875.081,1371.9 875.081,1371.9C875.081,1371.9 871.657,1361.7 880.65,1347.76C889.643,1333.82 888.094,1308.21 888.094,1308.21C888.094,1308.21 888.094,1305.6 893.358,1293.03C898.623,1280.46 902.086,1284.23 913.648,1286.05C925.211,1287.87 940.82,1300.68 945.686,1295.23C953.677,1286.28 969.578,1291.73 972.393,1291.67C973.007,1295.6 974.287,1299.97 976.914,1302.84C982.72,1309.18 988.242,1313.57 986.094,1320.25C983.947,1326.92 983.169,1334.64 982.452,1337.11C981.735,1339.58 982.934,1343.14 983.066,1344.28C983.198,1345.42 981.619,1350.75 980.907,1355.52C980.194,1360.28 984.774,1364.5 986.02,1374.47C987.265,1384.44 986.235,1386.07 987.373,1391.08C988.511,1396.08 988.003,1400.43 987.303,1408C986.603,1415.58 986.965,1424.47 987.176,1426.4C987.387,1428.34 984.789,1442.38 981.072,1444.42C977.356,1446.45 976.85,1448.21 971.023,1444.23C965.197,1440.25 963.305,1437.4 956.554,1435.72C951.21,1434.39 943.209,1429.64 937.49,1429.08C938.286,1422.31 938.917,1410.55 934.913,1404.12C929.066,1394.73 932.323,1392.99 932.323,1392.99C932.323,1392.99 907.268,1402.55 896.881,1412.55C886.494,1422.56 873.093,1409.87 868.26,1404.82C863.426,1399.77 849.272,1404.65 849.272,1404.65C849.272,1404.65 845.027,1399.78 841.294,1393.45Z" style="fill:rgb(77,144,176);stroke:white;stroke-width:1.07px;"/>
    </g>
</svg>
