<?xml version="1.0" encoding="UTF-8" standalone="no"?>
<!DOCTYPE svg PUBLIC "-//W3C//DTD SVG 1.1//EN" "http://www.w3.org/Graphics/SVG/1.1/DTD/svg11.dtd">
<svg width="100%" height="100%" viewBox="0 0 273 489" version="1.1" xmlns="http://www.w3.org/2000/svg" xmlns:xlink="http://www.w3.org/1999/xlink" xml:space="preserve" style="fill-rule:evenodd;clip-rule:evenodd;stroke-linecap:round;stroke-linejoin:round;stroke-miterlimit:1.5;">
    <g id="buntupepasan" transform="matrix(1,0,0,1,-478.499,-438.997)">
        <path d="M639.671,440.161L638.823,439.745C639.115,439.888 639.399,440.027 639.671,440.161L639.702,440.177L639.702,440.177C641.358,440.994 642.555,441.605 642.555,441.605C642.555,441.605 647.09,447.843 648.172,452.895C649.255,457.946 655.822,463.316 655.822,463.316C655.822,463.316 652.341,474.676 656.489,478.801C660.637,482.927 670.517,486.857 671.679,500.155C672.841,513.453 677.246,525.239 682.021,531.528C686.797,537.818 685.768,536.556 685.156,550.089C684.544,563.622 684.147,564.928 688.399,572.24C692.651,579.552 691.287,583.823 691.287,583.823C691.287,583.823 696.196,597.073 712.248,601.846C718.254,603.632 725.822,618.727 725.822,618.727L736.362,624.444L747.494,638.424C747.494,638.424 748.922,638.216 750.911,637.802C748.901,644.692 742.959,653.033 742.831,655.716C742.673,659.033 739.199,661.436 737.044,665.419C734.889,669.402 734.047,670.027 732.966,675.589C731.885,681.151 726.78,677.468 726.647,686.924C726.513,696.38 727.04,698.918 724.127,702.854C721.214,706.791 721.108,706.047 720.925,713.668C720.741,721.289 709.621,724.967 704.878,732.307C700.134,739.647 698.469,744.466 699.814,751.871C701.158,759.277 701.327,761.787 703.152,768.845C704.977,775.902 698.558,782.937 690.578,792.031C682.598,801.124 683.511,806.364 679.835,818.439C676.159,830.514 680.4,834.599 680.4,839.41C680.4,844.222 681.226,848.519 683.398,855.183C685.57,861.848 686.908,860.662 686.658,865.823C686.409,870.984 681.72,884.136 682.25,892.127C682.78,900.118 684.401,902.263 683.595,913.571C682.789,924.879 658.4,925.199 652.537,923.85C649.059,923.05 642.072,925.303 636.963,927.268C637.388,926.272 637.684,925.65 637.684,925.65C637.684,925.65 598.452,928.192 581.478,919.733C564.504,911.273 570.256,903.924 570.256,903.924C570.256,903.924 571.963,895.396 570.256,890.115C568.548,884.834 559.338,856.818 556.74,850.544C554.142,844.27 549.123,838.746 548.414,834.853C547.704,830.96 542.824,820.117 539.531,819.146C536.237,818.174 533.695,810.357 533.695,810.357C533.695,810.357 525.723,812.923 523.855,806.749C521.986,800.575 513.448,800.689 513.448,800.689L501.79,797.695C501.683,796.183 501.342,794.573 500.711,792.841C499.123,788.486 506.252,783.356 513.788,778.17C521.324,772.984 527.347,762.526 520.357,756.57C513.367,750.614 506.706,746.847 506.396,740.004C506.085,733.161 502.169,731.765 499.768,728.704C497.366,725.642 499.834,714.636 499.286,712.289C498.738,709.942 495.81,706.743 493.871,708.206C491.931,709.669 486.292,717.664 484.672,709.163C483.052,700.662 483.782,690.805 484.72,688.097C485.657,685.389 487.862,685.112 485.513,679.849C483.164,674.587 482.383,671.988 486.474,667.805C490.565,663.622 493.592,651.566 491.245,647.014C488.897,642.462 491.255,641.142 493.169,638.233C495.083,635.325 488.647,627.979 486.337,626.513C484.026,625.047 482.789,626.461 481.688,622.557C480.587,618.653 475.878,613.125 482.484,609.739C489.091,606.352 512.047,593.946 515.036,587.894C518.025,581.843 519.982,577.637 519.446,572.953C518.91,568.268 528.627,562.138 532.047,559.849C535.467,557.559 539.412,546.666 539.047,541.714C538.683,536.762 556.136,531.297 557.713,521.84C559.289,512.383 562.231,512.789 564.608,507.924C566.986,503.059 569.656,493.802 566.034,490.255C562.412,486.709 554.629,478.563 564.824,468.304C575.019,458.045 575.316,456.902 575.316,456.902C575.316,456.902 583.154,459.195 590.999,455.526C598.843,451.857 605.563,448.258 610.852,448.004C616.141,447.751 627.634,448.908 631.994,445.921C634.068,444.5 637.096,442.2 639.702,440.177L639.671,440.161ZM501.825,798.532L501.826,798.571L501.825,798.519L501.825,798.532ZM501.822,798.366L501.823,798.398L501.821,798.339L501.822,798.366ZM501.817,798.199L501.817,798.218L501.815,798.162L501.817,798.199ZM501.81,798.032L501.81,798.036L501.808,798.008L501.81,798.032ZM638.385,439.531L638.661,439.666L638.385,439.531Z" style="fill:rgb(203,113,118);stroke:white;stroke-width:1.07px;"/>
    </g>
</svg>
