<?xml version="1.0" encoding="UTF-8" standalone="no"?>
<!DOCTYPE svg PUBLIC "-//W3C//DTD SVG 1.1//EN" "http://www.w3.org/Graphics/SVG/1.1/DTD/svg11.dtd">
<svg width="100%" height="100%" viewBox="0 0 174 245" version="1.1" xmlns="http://www.w3.org/2000/svg" xmlns:xlink="http://www.w3.org/1999/xlink" xml:space="preserve" style="fill-rule:evenodd;clip-rule:evenodd;stroke-linecap:round;stroke-linejoin:round;stroke-miterlimit:1.5;">
    <g id="dendepiongannapo" transform="matrix(1,0,0,1,-424.342,-1053.47)">
        <path d="M459.917,1058.25C465.718,1056.97 472.273,1055.92 475.87,1056.61C483.291,1058.04 496.537,1052.39 507.981,1054.47C519.424,1056.55 528.125,1052.76 532.091,1054.51C536.057,1056.27 541.247,1055.41 543.876,1057.29C546.505,1059.17 550.738,1062.41 555.973,1062.41C560.697,1062.41 569.312,1062.5 572.75,1063.59C574.148,1071.61 575.845,1082.45 575.575,1086.46C575.126,1093.13 575.328,1099.3 577.762,1106.34C580.197,1113.38 584.787,1126.75 584.787,1126.75C584.787,1126.75 583.342,1128.42 583.733,1133.51C584.124,1138.6 586.164,1139.98 586.792,1145.95C587.42,1151.91 586.09,1152.08 586.09,1158.63C586.09,1165.18 585.209,1166.41 581.558,1171.91C577.907,1177.41 582.186,1181.6 582.186,1181.6C582.186,1181.6 584.983,1187.85 586.712,1191.7C588.442,1195.56 588.135,1206.09 590.878,1207.27C593.621,1208.45 596.398,1215.62 596.324,1219.79C596.292,1221.58 596.65,1223.87 597.071,1225.91L595.951,1225.7C595.951,1225.7 589.437,1238.13 575.985,1242.34C567.919,1244.86 569.945,1256.57 569.945,1256.57C569.945,1256.57 565.968,1269.92 557.648,1273.62C549.328,1277.32 548.204,1282.87 545.369,1291.33C542.535,1299.78 524.341,1297.79 517.795,1291.75C511.249,1285.72 506.167,1284.15 498.669,1286.79C491.171,1289.43 498.091,1287.53 490.794,1285.22C483.497,1282.91 483.468,1282.34 483.468,1282.34L481.939,1279.53L478.976,1276.86L474.501,1276.33C474.501,1276.33 471.098,1272 470.66,1269.74C470.221,1267.47 468.638,1266.64 468.638,1266.64L468.573,1262.06L465.001,1260.79C465.001,1260.79 464.81,1258.81 464.408,1255.77C464.005,1252.72 462.831,1252.2 462.831,1252.2L459.441,1249.25C459.441,1249.25 459.197,1243.69 456.861,1241.09C454.524,1238.5 455.508,1236.79 456.928,1232.47C458.349,1228.15 458.276,1226.16 454.952,1222.88C451.627,1219.61 455.348,1215.54 457.002,1215.75C458.656,1215.96 460.043,1211.07 460.043,1211.07L455.441,1210.4L455.374,1206.92C455.374,1206.92 449.612,1212.42 447.988,1210.52C446.363,1208.61 441.724,1207.83 442.655,1199.95C443.586,1192.07 439.926,1192.95 439.926,1192.95L441.289,1189.56L444.812,1185.37L451.042,1181.11C451.042,1181.11 446.897,1178.43 448.76,1172.16C448.76,1172.16 446.961,1171.72 444.691,1168.88C442.42,1166.03 440.207,1166.74 441.488,1160.29C442.769,1153.85 440.301,1150.76 434.276,1147.92C428.252,1145.08 432.351,1139.67 432.53,1137.75C432.71,1135.83 428.823,1133.14 428.823,1133.14C428.823,1133.14 428.485,1128.59 430.006,1127.4C431.528,1126.23 431.986,1115.92 431.986,1115.92C431.986,1115.92 437.263,1112.08 436.206,1108.63C435.15,1105.18 434.928,1104.12 436.749,1103.26C438.569,1102.4 436.828,1098.94 435.283,1097.33C433.738,1095.72 434.761,1092.25 434.57,1089.49C434.379,1086.73 435.743,1088.19 431.751,1084.3C427.758,1080.41 425.849,1077.19 425.849,1077.19L424.876,1072.9C424.876,1072.9 425.019,1072.14 425.008,1071.36C426.446,1070.92 427.88,1070.93 428.962,1071.24C431.144,1071.88 443.636,1073.76 446.895,1070.88C450.154,1067.99 456.889,1061.7 459.592,1060.61C460.895,1060.08 460.586,1059.11 459.917,1058.25ZM459.479,1057.74L459.549,1057.82L459.447,1057.71L459.479,1057.74ZM459.324,1057.59L459.358,1057.62L459.294,1057.56L459.324,1057.59ZM459.168,1057.43L459.205,1057.47L459.141,1057.41L459.168,1057.43ZM459.014,1057.29L459.053,1057.33L458.99,1057.27L459.014,1057.29ZM458.864,1057.16L458.904,1057.19L458.842,1057.14L458.864,1057.16ZM458.72,1057.03L458.76,1057.07L458.701,1057.02L458.72,1057.03ZM458.584,1056.92L458.624,1056.95L458.569,1056.91L458.584,1056.92ZM458.459,1056.82L458.497,1056.85L458.447,1056.81L458.459,1056.82ZM458.347,1056.73L458.382,1056.76L458.338,1056.72L458.347,1056.73ZM458.251,1056.65L458.281,1056.68L458.246,1056.65L458.251,1056.65ZM458.112,1056.55L458.142,1056.57L458.11,1056.55L458.112,1056.55Z" style="fill:rgb(128,70,0);stroke:white;stroke-width:1.07px;"/>
    </g>
</svg>
