<?xml version="1.0" encoding="UTF-8" standalone="no"?>
<!DOCTYPE svg PUBLIC "-//W3C//DTD SVG 1.1//EN" "http://www.w3.org/Graphics/SVG/1.1/DTD/svg11.dtd">
<svg width="100%" height="100%" viewBox="0 0 136 196" version="1.1" xmlns="http://www.w3.org/2000/svg" xmlns:xlink="http://www.w3.org/1999/xlink" xml:space="preserve" style="fill-rule:evenodd;clip-rule:evenodd;stroke-linecap:round;stroke-linejoin:round;stroke-miterlimit:1.5;">
    <g id="kapalapitu" transform="matrix(1,0,0,1,-535.407,-952.109)">
        <path d="M571.579,1063.29L571.649,1063.31L571.463,1063.27L571.579,1063.29ZM571.348,1063.25L571.437,1063.27L571.348,1063.25ZM582.188,1119.18C580.736,1114.96 578.98,1109.86 577.762,1106.34C575.328,1099.3 575.126,1093.13 575.575,1086.46C575.845,1082.45 574.148,1071.61 572.75,1063.59C572.631,1063.56 572.505,1063.52 572.374,1063.48L572.37,1063.48L572.241,1063.45L572.232,1063.44L572.103,1063.41L572.089,1063.41L571.962,1063.38L571.938,1063.37L571.816,1063.35L571.665,1063.31C571.716,1063.32 571.766,1063.34 571.816,1063.35L571.826,1063.35L571.938,1063.37L571.983,1063.38L572.089,1063.41L572.136,1063.42L572.232,1063.44L572.284,1063.46L572.374,1063.48C572.915,1063.63 573.357,1063.8 573.674,1063.98C576.124,1065.45 577.148,1058.47 575.756,1055.46C574.364,1052.44 575.018,1052.02 572.551,1044.44C570.084,1036.87 566.718,1032.71 565.446,1031.53C564.173,1030.36 564.048,1025.33 564.048,1025.33L560.688,1019.67L558.645,1014.58L554.862,1012.57C554.862,1012.57 549.642,1006.75 549.231,1003.74C548.82,1000.74 543.354,999.177 541.694,995.417C540.034,991.656 540.865,990.58 540.865,990.58C540.865,990.58 543.853,985.102 543.237,982.069C542.622,979.036 544.702,977.898 542.178,974.108C539.653,970.318 539.276,965.014 539.276,965.014L535.941,957.832C535.941,957.832 536.79,956.355 541.434,956.259C546.077,956.164 546.545,954.977 550.941,955.308C555.337,955.639 561.305,950.862 566.481,953.377C571.656,955.892 584.543,960.121 591.196,960.759C596.911,961.307 610.73,962.422 614.512,962.725C618.122,966.501 622.698,972.536 624.346,980.092C627.222,993.286 633.736,989.948 635.072,991.969C636.408,993.991 636.541,995.672 635.011,998.571C633.481,1001.47 635.365,1005.98 637.133,1012.64C638.901,1019.31 641.72,1032.88 641.72,1039.79C641.719,1046.69 644.836,1062.49 646.535,1070.17C648.235,1077.86 651.083,1084.53 656.164,1086.33C661.246,1088.14 663.377,1090.96 661.496,1099.68C659.616,1108.4 663.495,1104.82 664.744,1109.31C665.992,1113.8 668.981,1122.97 668.981,1122.97C668.981,1122.97 672.426,1133.84 669.238,1145.73C668.373,1145.88 667.324,1146.13 666.096,1146.47C660.541,1147.98 646.593,1143.77 643.641,1136.66C640.689,1129.55 636.174,1128.5 631.062,1130.43C625.949,1132.37 620.863,1129.17 618.147,1125.87C615.431,1122.56 598.597,1118.9 592.225,1122.96C590.47,1124.08 587.767,1125.39 584.771,1126.7L584.787,1126.75L582.188,1119.18Z" style="fill:rgb(179,77,180);stroke:white;stroke-width:1.07px;"/>
    </g>
</svg>
