<?xml version="1.0" encoding="UTF-8" standalone="no"?>
<!DOCTYPE svg PUBLIC "-//W3C//DTD SVG 1.1//EN" "http://www.w3.org/Graphics/SVG/1.1/DTD/svg11.dtd">
<svg width="100%" height="100%" viewBox="0 0 221 179" version="1.1" xmlns="http://www.w3.org/2000/svg" xmlns:xlink="http://www.w3.org/1999/xlink" xml:space="preserve" style="fill-rule:evenodd;clip-rule:evenodd;stroke-linecap:round;stroke-linejoin:round;stroke-miterlimit:1.5;">
    <g id="kesu" transform="matrix(1,0,0,1,-666.498,-1128.58)">
        <path d="M670.532,1306.19C669.981,1303.83 670.054,1301.27 671.894,1299.38C676.363,1294.79 669.578,1290.62 668.672,1287.92C667.765,1285.22 668.052,1287.47 670.026,1283.58C671.999,1279.68 670.234,1277.77 670.472,1273.09C670.71,1268.41 674.842,1262.98 671.908,1263.23C668.974,1263.49 665.609,1261.92 667.664,1258.41C669.719,1254.91 677.597,1246.42 675.212,1244.21C672.826,1242 685.312,1232.47 687.302,1231.52C689.291,1230.58 690.801,1214.49 703.257,1210.41C715.712,1206.33 725.448,1192.23 719.597,1188.05C714.652,1184.52 716.204,1182.04 716.803,1181.36C720.608,1182.17 725.193,1182.79 726.743,1181.6C729.556,1179.44 731.083,1181.98 734.191,1182.08C737.298,1182.17 744.441,1182.23 750.487,1178.57C756.533,1174.92 761.333,1180.41 761.333,1180.41C761.333,1180.41 767.973,1175.49 770.343,1173.98C772.712,1172.47 778.678,1167.09 781.354,1164.53C784.029,1161.96 788.163,1158.36 789.955,1158.12C791.521,1157.9 795.776,1153.51 796.826,1152.4C796.826,1152.4 801.27,1148.62 801.27,1148.62C801.27,1148.62 809.829,1138.34 812.755,1133.54C813.224,1132.77 813.543,1131.88 813.746,1130.9C820.397,1130.39 831.02,1130.02 834.534,1132.38C839.787,1135.91 842.462,1137.54 842.462,1137.54L852.317,1137.05L858.464,1138.3C858.464,1138.3 873.462,1135.99 875.23,1131.81C876.997,1127.63 881.762,1129.57 881.762,1129.57L886.446,1132.56C886.446,1132.56 885.419,1136.23 885.419,1139.58C885.419,1142.92 881.427,1151.3 881.427,1151.3C881.427,1151.3 868.928,1174.7 865.307,1177.45C861.686,1180.2 839.42,1198.75 835.069,1204.61C830.717,1210.47 816.698,1220.7 816.698,1220.7C816.698,1220.7 807.707,1228.32 783.891,1232.4C760.074,1236.48 759.632,1252.3 759.632,1252.3C759.632,1252.3 752.882,1272.71 752.569,1276.78C752.255,1280.85 741.599,1293.06 738.699,1293.96C738.301,1294.08 737.823,1294.74 737.296,1295.77L737.146,1295.25C737.146,1295.25 715.206,1286.01 709.489,1284.37C703.773,1282.74 693.464,1282.18 693.464,1282.18L688.842,1291.67C688.842,1291.67 692.809,1303.37 674.888,1305.58C673.232,1305.78 671.788,1305.99 670.532,1306.19ZM716.87,1181.29L716.856,1181.3L716.863,1181.3L716.87,1181.29ZM716.931,1181.23L716.892,1181.27L716.916,1181.24L716.931,1181.23ZM716.966,1181.19L716.947,1181.21L716.956,1181.2L716.966,1181.19Z" style="fill:rgb(229,159,88);stroke:white;stroke-width:1.07px;"/>
    </g>
</svg>
