<?xml version="1.0" encoding="UTF-8" standalone="no"?>
<!DOCTYPE svg PUBLIC "-//W3C//DTD SVG 1.1//EN" "http://www.w3.org/Graphics/SVG/1.1/DTD/svg11.dtd">
<svg width="100%" height="100%" viewBox="0 0 207 227" version="1.1" xmlns="http://www.w3.org/2000/svg" xmlns:xlink="http://www.w3.org/1999/xlink" xml:space="preserve" style="fill-rule:evenodd;clip-rule:evenodd;stroke-linecap:round;stroke-linejoin:round;stroke-miterlimit:1.5;">
    <g id="nanggala" transform="matrix(1,0,0,1,-959.176,-1042.87)">
        <path d="M982.846,1241.48C983.229,1240.71 983.518,1240.27 983.518,1240.27L983.692,1237.84L983.692,1229.4C983.692,1229.4 981.407,1224.94 981.407,1221.44C981.407,1217.93 978.279,1213.61 974.985,1214C971.691,1214.39 960.626,1210.05 959.835,1209.06C959.045,1208.07 962.186,1204.53 963.496,1203.74C964.806,1202.95 965.64,1200.2 964.341,1198.09C963.042,1195.98 960.695,1192.28 960.997,1191.19C961.299,1190.1 964.116,1184.47 964.116,1184.47C964.116,1184.47 963.842,1184.24 963.413,1183.83C966.305,1180.89 969.775,1177.33 970.121,1176.84C970.723,1175.98 971.067,1171 971.067,1171L968.336,1161.46C968.336,1161.46 970.474,1158.37 969.45,1149.88C968.426,1141.4 968.383,1133.15 974.6,1130.71C980.816,1128.27 980.681,1126.75 973.129,1115.25C965.577,1103.75 969.695,1106.09 973.969,1103.29C978.243,1100.49 987.135,1105.36 987.135,1105.36L993.039,1102.39C993.039,1102.39 989.836,1099.1 989.179,1096.82C988.522,1094.54 985.889,1089.31 989.918,1085.59C993.947,1081.86 991.363,1078.79 991.12,1078.55C990.876,1078.3 990.132,1076.7 991.344,1074.52C992.19,1072.99 992.773,1071.15 993.049,1070.18L994.132,1069.68C994.132,1069.68 994.769,1070.48 1000.31,1067.48C1005.86,1064.48 1008.7,1066.15 1012.35,1064.16C1016,1062.18 1022.45,1056.74 1028.51,1056.74C1034.58,1056.74 1039.01,1056.64 1042.87,1054.44C1046.74,1052.24 1055.8,1048.23 1055.8,1048.23C1055.8,1048.23 1058.1,1050.13 1070.19,1045.97C1082.28,1041.82 1092.12,1046.79 1095.99,1048.19C1099.86,1049.59 1101.67,1045.28 1106.23,1043.75C1110.78,1042.21 1116.53,1046.46 1121.49,1045.43C1126.46,1044.39 1129.76,1044.4 1136.12,1044.9C1139.12,1045.14 1143.73,1045.57 1147.77,1045.95C1148.43,1047.22 1148.56,1048.54 1147.53,1049.71C1144.18,1053.54 1139.78,1057.87 1139.78,1057.87L1135.64,1062.05C1135.64,1062.05 1138.88,1065.8 1139.74,1083.62L1140.51,1093.33L1146.5,1103.48C1146.5,1103.48 1149.79,1115.38 1150.85,1120.9C1151.9,1126.42 1163.29,1129.87 1164.99,1136.77C1166.7,1143.67 1164.78,1150.12 1160,1158.48C1155.21,1166.84 1148.01,1179.39 1150.23,1183.86L1150.28,1183.96C1148.53,1184.79 1146.88,1185.61 1145.6,1186.34C1140.46,1189.26 1135.77,1198.23 1135.77,1198.23C1135.77,1198.23 1123.21,1205.53 1119.25,1210.22C1115.29,1214.91 1105.35,1223.79 1099.33,1223.94C1093.31,1224.09 1090.07,1230.69 1090.07,1230.69C1090.07,1230.69 1075.17,1233.87 1070.8,1233.87C1066.43,1233.87 1062.39,1234.51 1061.58,1245.33C1060.76,1256.15 1056.03,1262.39 1044.15,1265.01C1032.27,1267.64 1019.83,1272.19 1016.25,1266.71C1012.66,1261.23 1000.65,1249.69 999.5,1248.52C998.352,1247.34 993.826,1239.29 986.703,1241.04C985.589,1241.32 984.273,1241.45 982.846,1241.48ZM1150.42,1184.23L1150.44,1184.26L1150.44,1184.26L1150.42,1184.23ZM1150.37,1184.14L1150.39,1184.16L1150.39,1184.16L1150.37,1184.14ZM1150.33,1184.05L1150.33,1184.06L1150.33,1184.06L1150.33,1184.05ZM993.128,1069.89L993.122,1069.91L993.137,1069.86L993.128,1069.89ZM993.184,1069.68L993.177,1069.71L993.189,1069.66L993.184,1069.68ZM992.675,1069.69L992.623,1069.7L992.748,1069.66L992.675,1069.69ZM993.025,1069.58L992.958,1069.6L993.067,1069.56L993.025,1069.58ZM993.13,1069.54L993.104,1069.55L993.23,1069.5L993.13,1069.54ZM1147.77,1045.95L1147.77,1045.95L1147.76,1045.95L1147.77,1045.95ZM1147.54,1045.56C1147.59,1045.64 1147.64,1045.73 1147.69,1045.82L1147.62,1045.69L1147.54,1045.56ZM1147.5,1045.49L1147.53,1045.55L1147.45,1045.42L1147.5,1045.49ZM1147.37,1045.29C1147.37,1045.29 1147.4,1045.33 1147.45,1045.42L1147.37,1045.29Z" style="fill:rgb(69,187,229);stroke:white;stroke-width:1.07px;"/>
    </g>
</svg>
