<?xml version="1.0" encoding="UTF-8" standalone="no"?>
<!DOCTYPE svg PUBLIC "-//W3C//DTD SVG 1.1//EN" "http://www.w3.org/Graphics/SVG/1.1/DTD/svg11.dtd">
<svg width="100%" height="100%" viewBox="0 0 132 81" version="1.1" xmlns="http://www.w3.org/2000/svg" xmlns:xlink="http://www.w3.org/1999/xlink" xml:space="preserve" style="fill-rule:evenodd;clip-rule:evenodd;stroke-linecap:round;stroke-linejoin:round;stroke-miterlimit:1.5;">
    <g id="rantepao" transform="matrix(1,0,0,1,-666.313,-1102.39)">
        <path d="M667.012,1116.81C671.571,1117.58 677.559,1118.48 680.77,1118.55C686.362,1118.67 691.828,1114.07 691.913,1114L696.013,1114L697.579,1111.88C701.219,1104.24 714.221,1105.18 714.221,1105.18C714.221,1105.18 717.909,1101.81 720.112,1103.3C721.789,1104.44 722.798,1107.8 723.184,1109.33C723.163,1112.56 723.809,1115.54 726.138,1116.08C731.557,1117.34 738.355,1116.19 738.61,1120.54C738.865,1124.89 739.414,1133.4 739.923,1136.13C740.433,1138.86 738.7,1141.24 742.266,1138.25C745.831,1135.26 747.203,1131.09 751.352,1134.02C755.501,1136.95 754.808,1140.54 757.863,1141.89C760.917,1143.24 762.787,1146.5 768.506,1144.21C774.226,1141.91 777.147,1144.67 778.501,1141.48C779.854,1138.3 784.582,1138.37 787.654,1141.42C790.726,1144.48 794.609,1147.17 794.609,1147.17L797.062,1152.15C797.062,1152.15 791.748,1157.87 789.955,1158.12C788.163,1158.36 784.029,1161.96 781.354,1164.53C778.678,1167.09 772.712,1172.47 770.343,1173.98C767.973,1175.49 761.333,1180.41 761.333,1180.41C761.333,1180.41 756.533,1174.92 750.487,1178.57C744.441,1182.23 737.298,1182.17 734.191,1182.08C731.083,1181.98 729.556,1179.44 726.743,1181.6C725.193,1182.79 720.608,1182.17 716.803,1181.36C716.913,1181.24 716.991,1181.17 716.991,1181.17C716.991,1181.17 718.933,1179.27 714.93,1177.57C710.927,1175.87 693.053,1180.26 689.826,1172.44C686.599,1164.62 680.322,1162.91 675.674,1163.58C671.027,1164.24 671.283,1160.84 669.699,1158.53C668.116,1156.21 669.12,1151.7 671.329,1148.43C673.021,1145.93 672.311,1145.22 669.392,1145.7L669.238,1145.73C672.426,1133.84 668.981,1122.97 668.981,1122.97C668.981,1122.97 668.051,1120.12 667.012,1116.81L667.012,1116.81L666.846,1116.28L667.012,1116.81ZM668.947,1145.78L668.879,1145.8L668.905,1145.79L668.947,1145.78ZM669.111,1145.75L669.061,1145.76L669.074,1145.76L669.111,1145.75Z" style="fill:rgb(108,110,187);stroke:white;stroke-width:1.07px;"/>
    </g>
</svg>
