<?xml version="1.0" encoding="UTF-8" standalone="no"?>
<!DOCTYPE svg PUBLIC "-//W3C//DTD SVG 1.1//EN" "http://www.w3.org/Graphics/SVG/1.1/DTD/svg11.dtd">
<svg width="100%" height="100%" viewBox="0 0 302 442" version="1.1" xmlns="http://www.w3.org/2000/svg" xmlns:xlink="http://www.w3.org/1999/xlink" xml:space="preserve" style="fill-rule:evenodd;clip-rule:evenodd;stroke-linecap:round;stroke-linejoin:round;stroke-miterlimit:1.5;">
    <g id="rantebua" transform="matrix(1,0,0,1,-936.189,-1183.43)">
        <path d="M982.846,1241.48C984.273,1241.45 985.589,1241.32 986.703,1241.04C993.826,1239.29 998.352,1247.34 999.5,1248.52C1000.65,1249.69 1012.66,1261.23 1016.25,1266.71C1019.83,1272.19 1032.27,1267.64 1044.15,1265.01C1056.03,1262.39 1060.76,1256.15 1061.58,1245.33C1062.39,1234.51 1066.43,1233.87 1070.8,1233.87C1075.17,1233.87 1090.07,1230.69 1090.07,1230.69C1090.07,1230.69 1093.31,1224.09 1099.33,1223.94C1105.35,1223.79 1115.29,1214.91 1119.25,1210.22C1123.21,1205.53 1135.77,1198.23 1135.77,1198.23C1135.77,1198.23 1140.46,1189.26 1145.6,1186.34C1146.88,1185.61 1148.53,1184.79 1150.28,1183.96C1152.5,1188.29 1155.94,1185.84 1155.94,1185.84L1158.61,1191.13L1166.34,1194.21C1166.34,1194.21 1171.08,1198.18 1175.37,1198.55L1176.52,1204.54C1176.52,1204.54 1201.39,1225.94 1202.69,1229.14C1204,1232.33 1212.46,1230.35 1214.76,1231.53C1217.06,1232.71 1222.47,1238.65 1226.65,1238.98C1230.84,1239.32 1236.74,1244.04 1231.47,1253.88C1226.2,1263.72 1235.67,1274.5 1235.67,1274.5C1235.67,1274.5 1240.27,1281.31 1234.87,1291.56C1234.87,1291.56 1231.34,1293.96 1234.36,1300.57C1237.37,1307.18 1236.12,1307.19 1236.12,1307.19C1236.12,1307.19 1222.99,1306.92 1217.36,1308.48C1211.73,1310.05 1202.44,1309.79 1202.44,1309.79C1202.44,1309.79 1191.94,1313.36 1189.73,1315.11C1187.52,1316.86 1171.83,1321.27 1171.83,1321.27C1171.83,1321.27 1152.73,1320.33 1146.1,1325.75C1139.46,1331.18 1132.58,1341.16 1133.72,1349.71C1134.86,1358.27 1141.54,1365.19 1137.54,1367.39C1133.53,1369.59 1134.83,1373.04 1134.83,1373.04C1134.83,1373.04 1126.6,1377.12 1120.07,1378.59C1113.54,1380.05 1105.93,1383.07 1103.44,1386.67C1100.95,1390.26 1078.06,1390.06 1075.13,1387.47C1072.2,1384.89 1074.57,1393.19 1074.57,1393.19L1070.83,1400.78C1070.83,1400.78 1073.16,1401.37 1073.16,1407.17C1073.16,1412.96 1071.7,1415.26 1071.7,1415.26L1065.71,1414.11L1061.17,1417.61L1057.88,1417.61L1051.82,1418.87L1047.56,1417.98C1047.56,1417.98 1047.5,1423.56 1041.54,1426.69C1035.57,1429.82 1032.9,1439.75 1032.9,1439.75C1032.9,1439.75 1027.34,1449.1 1024.92,1451.88C1022.49,1454.66 1029.74,1457.8 1029.74,1457.8C1029.74,1457.8 1045.22,1459.54 1045.96,1469.51C1046.69,1479.47 1044.85,1483.42 1050.85,1485.42C1056.85,1487.41 1059.6,1491.79 1059.6,1491.79C1059.6,1491.79 1082.73,1496.83 1070.27,1514.11C1057.81,1531.39 1064.96,1539.37 1064.96,1539.37L1063.08,1547.78C1063.08,1547.78 1065.15,1556.02 1061.8,1569.15C1058.45,1582.29 1058.63,1581.09 1058.63,1586.72C1058.63,1592.35 1052.57,1604.44 1052.57,1604.44C1052.57,1604.44 1048.65,1610.27 1049.23,1618.55C1049.81,1626.83 1048,1623.11 1048,1623.11C1048,1623.11 1032.05,1610.55 1009.05,1610.55C986.041,1610.56 975.061,1595.9 975.061,1595.9C975.061,1595.9 975.384,1582.91 971.314,1572.86C967.244,1562.8 957.964,1554.7 952.339,1552.73C946.715,1550.76 949.475,1538.96 949.475,1538.96L939.577,1518.58C939.577,1518.58 944.761,1458.88 944.424,1448.25C944.086,1437.62 936.723,1434.26 936.723,1434.26C936.723,1434.26 937.124,1432.2 937.49,1429.08C943.209,1429.64 951.21,1434.39 956.554,1435.72C963.305,1437.4 965.197,1440.25 971.023,1444.23C976.85,1448.21 977.356,1446.45 981.072,1444.42C984.789,1442.38 987.387,1428.34 987.176,1426.4C986.965,1424.47 986.603,1415.58 987.303,1408C988.003,1400.43 988.511,1396.08 987.373,1391.08C986.235,1386.07 987.265,1384.44 986.02,1374.47C984.774,1364.5 980.194,1360.28 980.907,1355.52C981.619,1350.75 983.198,1345.42 983.066,1344.28C982.934,1343.14 981.735,1339.58 982.452,1337.11C983.169,1334.64 983.947,1326.92 986.094,1320.25C988.242,1313.57 982.72,1309.18 976.914,1302.84C974.287,1299.97 973.007,1295.6 972.393,1291.67C972.632,1291.67 972.777,1291.62 972.814,1291.53C973.284,1290.29 978.694,1280.26 978.694,1280.26L981.541,1264.62C981.541,1264.62 982.601,1258.31 981.271,1251.99C980.318,1247.47 981.881,1243.41 982.846,1241.48ZM972.25,1291.67L972.274,1291.67L972.252,1291.67L972.25,1291.67ZM972.169,1291.67L972.196,1291.67L972.174,1291.67L972.169,1291.67ZM972.087,1291.66L972.112,1291.66L972.091,1291.66L972.087,1291.66ZM971.906,1291.65L971.92,1291.65L971.913,1291.65L971.906,1291.65ZM971.687,1291.62L971.788,1291.63L971.717,1291.62L971.687,1291.62ZM971.463,1291.59L971.568,1291.6L971.504,1291.59L971.463,1291.59ZM971.222,1291.55L971.33,1291.57L971.274,1291.56L971.222,1291.55ZM970.966,1291.51L971.075,1291.53L971.027,1291.52L970.966,1291.51Z" style="fill:rgb(144,76,179);stroke:rgb(144,76,179);stroke-width:1.07px;"/>
    </g>
</svg>
