<?xml version="1.0" encoding="UTF-8" standalone="no"?>
<!DOCTYPE svg PUBLIC "-//W3C//DTD SVG 1.1//EN" "http://www.w3.org/Graphics/SVG/1.1/DTD/svg11.dtd">
<svg width="100%" height="100%" viewBox="0 0 228 272" version="1.1" xmlns="http://www.w3.org/2000/svg" xmlns:xlink="http://www.w3.org/1999/xlink" xml:space="preserve" style="fill-rule:evenodd;clip-rule:evenodd;stroke-linecap:round;stroke-linejoin:round;stroke-miterlimit:1.5;">
    <g id="rindungallo" transform="matrix(1,0,0,1,-410.399,-794.18)">
        <path d="M572.986,1064.95L572.75,1063.59C572.828,1064.04 572.907,1064.49 572.986,1064.95ZM566.568,1062.69L566.513,1062.69L566.274,1062.67L566.436,1062.68C565.603,1062.63 564.745,1062.58 563.883,1062.55L564.062,1062.56L563.892,1062.55L563.766,1062.54L563.648,1062.54L563.421,1062.53L563.228,1062.52L563.134,1062.52L563.049,1062.52L562.773,1062.51L562.565,1062.5L562.504,1062.5C562.086,1062.49 561.671,1062.47 561.26,1062.46L561.25,1062.46L561.111,1062.46L560.681,1062.45L560.641,1062.45L560.603,1062.45L560.407,1062.45L560.104,1062.44L560.031,1062.44L559.966,1062.44L559.779,1062.44L559.537,1062.43L559.43,1062.43L559.341,1062.43L559.177,1062.43C558.003,1062.41 556.911,1062.41 555.973,1062.41C550.738,1062.41 546.505,1059.17 543.876,1057.29C543.782,1057.22 543.685,1057.16 543.585,1057.1L543.531,1057.07L543.508,1057.06L543.489,1057.05L543.438,1057.02L543.455,1057.03L543.41,1057L543.379,1056.99L543.354,1056.97L543.323,1056.95L543.287,1056.94L543.246,1056.92L543.214,1056.9L543.189,1056.89L543.16,1056.87L543.109,1056.85C542.944,1056.77 542.772,1056.7 542.595,1056.64L542.491,1056.6L542.48,1056.6C542.359,1056.55 542.235,1056.51 542.109,1056.48L542.061,1056.46L542.023,1056.45L541.988,1056.44L541.951,1056.43L541.913,1056.42L541.866,1056.41C541.546,1056.32 541.213,1056.25 540.868,1056.18L540.825,1056.18L540.816,1056.18L540.776,1056.17C540.611,1056.14 540.444,1056.11 540.274,1056.09L540.165,1056.07L540.11,1056.06C539.918,1056.03 539.723,1056.01 539.526,1055.98L539.483,1055.97L539.426,1055.97L539.481,1055.97C537.098,1055.67 534.389,1055.53 532.091,1054.51C528.125,1052.76 519.424,1056.55 507.981,1054.47C496.537,1052.39 483.291,1058.04 475.87,1056.61C472.273,1055.92 465.718,1056.97 459.917,1058.25C459.803,1058.1 459.678,1057.96 459.549,1057.82L459.479,1057.74L459.447,1057.71L459.409,1057.67L459.358,1057.62L459.324,1057.59L459.294,1057.56C459.213,1057.48 459.132,1057.4 459.053,1057.33L459.014,1057.29L458.99,1057.27L458.961,1057.24L458.904,1057.19L458.864,1057.16L458.842,1057.14L458.818,1057.12L458.76,1057.07L458.72,1057.03L458.701,1057.02L458.681,1057L458.624,1056.95L458.584,1056.92L458.569,1056.91L458.553,1056.89L458.497,1056.85L458.459,1056.82L458.447,1056.81L458.435,1056.8L458.382,1056.76L458.347,1056.73L458.338,1056.72L458.329,1056.71L458.254,1056.66L458.281,1056.68L458.251,1056.65L458.246,1056.65L458.239,1056.64L458.142,1056.57L458.112,1056.55L458.11,1056.55C458.079,1056.53 458.062,1056.51 458.062,1056.51C458.062,1056.51 458.51,1042.17 455.885,1039.93C453.26,1037.68 447.814,1032.03 447.814,1032.03L447.288,1028.92C447.288,1028.92 440.698,1021.56 444.61,1016.88C448.522,1012.21 442.525,1008.49 442.525,1008.49C442.525,1008.49 437.286,1006.05 437.286,999.551C437.286,993.057 434.5,988.929 433.157,987.222C431.813,985.514 433.158,981.654 433.158,981.654C433.158,981.654 432.421,977.684 431.023,974.113C429.625,970.542 428.315,961.598 428.315,961.598L427.958,956.111C427.958,956.111 418.058,948.708 418.535,944.438C419.013,940.169 416.12,935.879 415.924,934.403C415.729,932.927 415.273,929.59 415.273,929.59C415.273,929.59 412.825,927.74 411.34,923.951C413.791,923.843 416.504,922.832 419.517,921.203C426.119,917.634 444.391,914.604 452.259,921.816C460.127,929.028 474.316,919.193 477.002,911.349C479.689,903.505 484.639,896.529 486.199,888.68C486.703,886.148 488.209,880.716 489.944,874.283L490.288,873.007L490.474,872.314L490.69,871.509C490.69,871.509 490.805,871.079 490.805,871.079L490.905,870.7C491.173,869.694 491.443,868.673 491.713,867.645L491.851,867.116L492.045,866.371C492.265,865.522 492.485,864.668 492.702,863.814L492.725,863.72L492.786,863.479L492.888,863.079L493.077,862.325C493.211,861.791 493.343,861.258 493.473,860.726L493.638,860.054L493.731,859.669L493.835,859.24L493.88,859.052L493.907,858.939L494.103,858.117C494.103,858.117 494.118,858.057 494.118,858.057L494.157,857.89C494.157,857.89 494.311,857.232 494.311,857.232L494.35,857.068L494.376,856.955L494.576,856.088C494.723,855.445 494.865,854.808 495.003,854.179L495.008,854.158L495.026,854.073L495.186,853.337L495.213,853.211L495.237,853.097C495.237,853.097 495.403,852.311 495.403,852.311L495.41,852.277L495.416,852.251L495.576,851.468L495.599,851.358L495.621,851.245C495.621,851.245 495.765,850.522 495.765,850.522L495.779,850.455L495.783,850.432C495.783,850.432 495.791,850.392 495.791,850.392L495.865,850.01L495.888,849.889L495.915,849.743C495.915,849.743 495.949,849.569 495.949,849.569L495.954,849.541C496.015,849.217 496.074,848.896 496.13,848.58L496.184,848.277L496.207,848.145L496.233,847.998C496.233,847.998 496.258,847.856 496.258,847.856L496.304,847.583C496.345,847.343 496.384,847.106 496.421,846.872L496.46,846.626L496.473,846.544L496.504,846.342L496.522,846.228L496.567,845.93C496.6,845.707 496.631,845.486 496.661,845.269L496.689,845.068L496.709,844.917C496.76,844.526 496.806,844.146 496.847,843.777L496.865,843.614L496.881,843.454C496.901,843.264 496.919,843.077 496.935,842.893C496.935,842.893 496.96,842.597 496.96,842.597L496.966,842.524L496.975,842.404L496.985,842.273L496.996,842.108L497.004,841.987L497.005,841.957L497.022,841.649L497.023,841.639L497.023,841.637L497.034,841.373C497.034,841.373 497.035,841.348 497.035,841.348L497.036,841.312L497.044,841.056L497.049,840.793L497.049,840.773L497.049,840.736C497.049,840.736 497.05,840.533 497.05,840.533C497.05,840.533 497.05,840.498 497.05,840.498L497.05,840.481C497.05,840.481 497.047,840.248 497.047,840.248L497.047,840.231L497.046,840.198L497.04,840.008C497.04,840.008 497.039,839.974 497.039,839.974L497.038,839.956L497.028,839.738C497.028,839.738 497.027,839.725 497.027,839.725L497.025,839.696C497.025,839.696 497.013,839.518 497.013,839.518C497.013,839.518 497.011,839.486 497.011,839.486L497.009,839.467L496.991,839.265L496.99,839.256L496.987,839.232L496.968,839.064L496.965,839.036L496.962,839.016C496.941,838.853 496.916,838.699 496.887,838.553L496.882,838.528L496.862,838.434C496.851,838.387 496.84,838.341 496.829,838.297L496.818,838.253L496.814,838.238C496.8,838.185 496.785,838.133 496.769,838.083C494.587,831.04 488.802,822.606 493.55,815.673L493.757,815.372L493.824,815.276L493.999,815.026C494.111,814.866 494.224,814.706 494.337,814.547L494.552,814.246L494.832,813.856L494.985,813.644L495.199,813.349L495.812,812.504L495.815,812.5L495.83,812.48C495.942,812.325 496.055,812.17 496.167,812.015L496.19,811.982L496.234,811.922L496.211,811.954L496.167,812.015L495.873,812.42L496.211,811.954L496.387,811.709L496.656,811.334L496.601,811.412L496.489,811.568L496.387,811.709L496.373,811.728L496.489,811.568L496.566,811.461L496.601,811.412C496.705,811.267 496.808,811.122 496.911,810.977L496.937,810.94L496.945,810.929C497.111,810.694 497.276,810.459 497.439,810.223L497.485,810.157L497.57,810.032L497.623,809.956L497.641,809.928L497.664,809.895L497.812,809.677C497.908,809.534 498.004,809.391 498.098,809.248L498.191,809.107L498.227,809.051L498.319,808.909L498.346,808.866L498.401,808.781L498.494,808.637L498.531,808.579L498.617,808.441L498.666,808.363C498.757,808.217 498.847,808.071 498.934,807.924L499.02,807.782L499.104,807.641L499.179,807.513L499.216,807.449L499.304,807.295L499.375,807.17L499.457,807.024L499.485,806.974L499.569,806.82L499.613,806.74C499.684,806.608 499.754,806.475 499.823,806.342L499.918,806.156L499.938,806.117L499.957,806.079C499.99,806.013 500.023,805.947 500.055,805.881L500.052,805.888L500.055,805.881L500.062,805.867L500.121,805.746C500.232,805.516 500.339,805.284 500.44,805.051L500.442,805.047L500.446,805.038L500.504,804.903L500.557,804.779L500.562,804.766L500.565,804.76L500.576,804.733L500.675,804.491L500.685,804.465L500.681,804.477L500.675,804.491L500.671,804.5L500.678,804.483L500.681,804.477L500.687,804.462L500.79,804.197L500.791,804.195L500.79,804.197L500.79,804.197L500.789,804.199L500.789,804.198L500.79,804.197C500.826,804.103 500.861,804.009 500.895,803.914L500.896,803.912L500.898,803.904L500.897,803.908L500.895,803.914L500.89,803.926L500.897,803.908L500.992,803.638L500.997,803.623L501.003,803.605C501.065,803.423 501.124,803.24 501.179,803.056L501.184,803.041L501.187,803.032C501.269,802.756 501.345,802.478 501.413,802.197L501.424,802.151L501.428,802.134L501.437,802.094L501.451,802.034L501.459,802L501.466,801.969C501.486,801.881 501.505,801.792 501.524,801.703L501.525,801.698L501.533,801.658L501.555,801.546L501.577,801.432L501.584,801.393L501.585,801.389L501.59,801.361L501.604,801.282L501.612,801.24L501.615,801.221C501.64,801.073 501.664,800.925 501.685,800.777L501.685,800.776L501.686,800.77C501.698,800.681 501.71,800.591 501.721,800.501L501.725,800.465L501.741,800.325L501.742,800.321L501.743,800.307L501.745,800.285L501.743,800.305L501.742,800.321L501.739,800.346L501.743,800.305L501.757,800.175L501.759,800.149L501.763,800.114C501.791,799.817 501.81,799.515 501.819,799.21L501.82,799.187L501.821,799.151C501.834,798.675 501.825,798.19 501.79,797.695C501.79,797.695 513.448,800.689 513.448,800.689C513.448,800.689 521.986,800.575 523.855,806.749C525.723,812.923 533.695,810.357 533.695,810.357C533.695,810.357 536.237,818.174 539.531,819.146C542.824,820.117 547.704,830.96 548.414,834.853C549.123,838.746 554.142,844.27 556.74,850.544C559.338,856.818 568.548,884.834 570.256,890.115C571.963,895.396 570.256,903.924 570.256,903.924C570.256,903.924 564.504,911.273 581.478,919.733C586.783,922.376 594.261,923.945 602.036,924.854L602.619,924.92C603.009,924.964 603.399,925.006 603.789,925.047L604.039,925.072L604.06,925.075L604.084,925.077C604.572,925.127 605.06,925.174 605.548,925.219L605.759,925.238C607.057,925.356 608.356,925.457 609.646,925.544L609.9,925.56L609.933,925.563L609.967,925.565C610.636,925.609 611.303,925.648 611.966,925.685L612.424,925.709L612.421,925.709C612.694,925.723 612.966,925.737 613.237,925.75L613.257,925.751C613.516,925.764 613.774,925.776 614.032,925.787L614.06,925.788L614.086,925.789L614.04,925.787L614.032,925.787L614.021,925.787L614.04,925.787C614.764,925.82 615.482,925.848 616.193,925.872L616.735,925.889L617.637,925.917L618.539,925.939L619.066,925.952L619.033,925.951L618.707,925.944L618.539,925.939L618.365,925.935L618.837,925.947L619.033,925.951L619.231,925.955L619.416,925.959L619.607,925.963L619.755,925.966L619.869,925.968L620.112,925.972L620.13,925.972L620.121,925.972L620.112,925.972L619.755,925.966L619.416,925.959L619.406,925.959L620.121,925.972C620.606,925.98 621.085,925.987 621.558,925.992L622.158,925.998C622.631,926.003 623.097,926.005 623.557,926.007L624.025,926.008L624.23,926.008L624.376,926.008L624.524,926.008L624.723,926.008L625.188,926.006C625.613,926.005 626.031,926.003 626.441,925.999L626.739,925.997L627.029,925.994C627.755,925.986 628.455,925.976 629.125,925.964L629.23,925.962L629.387,925.959L629.742,925.952L630.247,925.94L630.381,925.938L630.437,925.936L630.532,925.934C630.83,925.927 631.12,925.92 631.402,925.912L631.464,925.91L631.604,925.906L632.01,925.894C632.495,925.88 632.954,925.865 633.385,925.849L633.408,925.849L633.494,925.845C634.138,925.822 634.717,925.799 635.225,925.776L635.719,925.754L636.126,925.735L636.183,925.732L636.295,925.726L636.612,925.71L636.481,925.717L636.183,925.732L636.087,925.736L636.481,925.717L636.737,925.704L636.784,925.701L636.896,925.695L637.239,925.676L637.359,925.669L637.453,925.664L637.684,925.65L637.612,925.805L637.611,925.806L637.479,926.095L637.466,926.122L637.43,926.203L637.378,926.318C637.298,926.497 637.205,926.708 637.101,926.948L637.09,926.973L637.075,927.007L637.064,927.032L637.018,927.141L636.963,927.268L636.963,927.268C636.203,929.043 635.03,932.007 634.375,934.756C633.355,939.047 630.531,942.24 626.183,946.575C621.834,950.91 615.482,962.803 615.482,962.803L614.512,962.725C613.296,962.627 611.042,962.446 608.354,962.226L608.121,962.207L608.253,962.218C602.592,961.756 595.051,961.129 591.196,960.759C584.543,960.121 571.656,955.892 566.481,953.377C561.305,950.862 555.337,955.639 550.941,955.308C546.545,954.977 546.077,956.164 541.434,956.259C536.79,956.355 535.941,957.832 535.941,957.832L539.276,965.014C539.276,965.014 539.653,970.318 542.178,974.108C544.702,977.898 542.622,979.036 543.237,982.069C543.853,985.102 540.865,990.58 540.865,990.58C540.865,990.58 540.034,991.656 541.694,995.417C543.354,999.177 548.82,1000.74 549.231,1003.74C549.642,1006.75 554.862,1012.57 554.862,1012.57L558.645,1014.58L560.688,1019.67L564.048,1025.33C564.048,1025.33 564.173,1030.36 565.446,1031.53C566.718,1032.71 570.084,1036.87 572.551,1044.44C575.018,1052.02 574.364,1052.44 575.756,1055.46C577.148,1058.47 576.124,1065.45 573.674,1063.98C573.401,1063.82 573.034,1063.67 572.59,1063.54L572.585,1063.54L572.585,1063.54L572.572,1063.54L572.501,1063.52L572.413,1063.49L572.391,1063.49L572.374,1063.48L572.284,1063.46L572.241,1063.45L572.37,1063.48L572.391,1063.49L572.234,1063.44L572.226,1063.44L572.136,1063.42L572.103,1063.41L572.089,1063.41L572.065,1063.4L572.047,1063.4L572.032,1063.39L571.983,1063.38L571.938,1063.37L571.882,1063.36L571.854,1063.35L571.843,1063.35L571.826,1063.35L571.816,1063.35L571.833,1063.35L571.654,1063.31L571.508,1063.28L571.649,1063.31L571.579,1063.29L571.463,1063.27L571.448,1063.27L571.437,1063.27L571.348,1063.25L571.249,1063.23C571.168,1063.21 571.086,1063.2 571.003,1063.18L570.863,1063.16L570.795,1063.15L570.974,1063.18L570.794,1063.15L570.791,1063.15L570.565,1063.11L570.493,1063.1L570.45,1063.1L570.403,1063.09L570.33,1063.08L570.127,1063.05L570.098,1063.04L570.092,1063.04C569.987,1063.03 569.881,1063.01 569.773,1063L569.736,1063L569.692,1062.99C569.574,1062.97 569.455,1062.96 569.334,1062.94L569.254,1062.93L569.112,1062.92L569.251,1062.93C568.935,1062.9 568.61,1062.86 568.277,1062.83L567.939,1062.8L567.812,1062.79L567.738,1062.78L567.671,1062.78C567.531,1062.77 567.39,1062.75 567.247,1062.74L567.177,1062.74L566.897,1062.72L566.605,1062.69L566.568,1062.69ZM572.567,1063.54L572.575,1063.54L572.516,1063.52L572.567,1063.54ZM572.07,1063.4L572.103,1063.41L572.218,1063.44L572.07,1063.4ZM571.893,1063.36L571.962,1063.38L572.013,1063.39L571.893,1063.36ZM571.109,1063.2L571.22,1063.22L571.026,1063.19L571.109,1063.2ZM570.45,1063.1L570.487,1063.1L570.411,1063.09L570.45,1063.1ZM570.098,1063.04L570.105,1063.05L570.097,1063.04L570.098,1063.04ZM569.736,1063L569.769,1063L569.697,1062.99L569.736,1063ZM568.967,1062.9L569.066,1062.91L568.848,1062.89L568.967,1062.9ZM567.939,1062.8L568.277,1062.83L567.858,1062.79L567.939,1062.8ZM567.596,1062.77L567.616,1062.77L567.488,1062.76L567.596,1062.77ZM565.868,1062.65L565.952,1062.65L565.653,1062.63L565.868,1062.65ZM565.214,1062.61L565.329,1062.62L565.027,1062.6L565.214,1062.61ZM564.555,1062.58L564.698,1062.58L564.398,1062.57L564.555,1062.58ZM561.905,1062.48L562.1,1062.49L561.876,1062.48L561.905,1062.48ZM557.008,1062.41L557.282,1062.41L556.952,1062.41L557.008,1062.41ZM460.368,1058.99L460.371,1059L460.353,1058.95L460.368,1058.99ZM460.332,1058.91L460.334,1058.91L460.315,1058.87L460.332,1058.91ZM460.291,1058.82L460.293,1058.83L460.275,1058.79L460.291,1058.82ZM460.247,1058.74L460.248,1058.74L460.237,1058.72L460.247,1058.74ZM459.168,1057.43L459.205,1057.47L459.141,1057.41L459.168,1057.43ZM543.764,1057.21L543.876,1057.29L543.757,1057.21L543.764,1057.21ZM543.649,1057.14L543.716,1057.18L543.634,1057.13L543.649,1057.14ZM543.032,1056.81L543.053,1056.82L542.967,1056.79L543.032,1056.81ZM542.9,1056.76L542.913,1056.76L542.814,1056.72L542.9,1056.76ZM542.35,1056.55L542.423,1056.58L542.33,1056.55L542.35,1056.55ZM542.207,1056.51L542.265,1056.52L542.178,1056.5L542.207,1056.51ZM541.764,1056.38L541.791,1056.39L541.706,1056.37L541.764,1056.38ZM541.612,1056.34L541.63,1056.35L541.545,1056.33L541.612,1056.34ZM541.458,1056.31L541.467,1056.31L541.384,1056.29L541.458,1056.31ZM540.986,1056.21L541.036,1056.22L540.978,1056.21L540.986,1056.21ZM540.498,1056.12L540.508,1056.12L540.487,1056.12L540.498,1056.12ZM539.826,1056.02L539.904,1056.03L539.762,1056.01L539.826,1056.02ZM444.733,1016.73L444.72,1016.75L444.75,1016.71L444.733,1016.73ZM444.849,1016.58L444.834,1016.6L444.855,1016.58L444.849,1016.58ZM444.958,1016.44L444.958,1016.44L444.959,1016.43L444.958,1016.44ZM637.002,927.176L637.018,927.141L637.075,927.007L637.086,926.982L637.002,927.176ZM637.352,926.376L637.274,926.551L637.31,926.469L637.352,926.376ZM637.495,926.058L637.611,925.806L637.611,925.805L637.584,925.865L637.495,926.058ZM621.624,925.993L621.745,925.994L621.755,925.995L621.863,925.996L622.193,925.999L622.158,925.998L621.755,925.995L621.624,925.993L621.558,925.992L621.55,925.992L621.624,925.993ZM616.275,925.875C616.275,925.875 616.479,925.882 616.479,925.882L616.839,925.893L616.735,925.889L616.553,925.884C616.553,925.884 616.275,925.875 616.275,925.875C616.275,925.875 616.193,925.872 616.193,925.872L616.166,925.871L616.275,925.875ZM632.475,925.88L632.345,925.884L632.557,925.877L632.475,925.88ZM635.719,925.754L635.493,925.764L635.271,925.774L635.225,925.776L635.085,925.783L635.271,925.774L635.377,925.77L635.493,925.764L635.709,925.755L635.875,925.747L635.719,925.754ZM611.572,925.663L611.631,925.666L611.595,925.664L611.572,925.663ZM608.232,925.443L608.281,925.446L608.26,925.445L608.232,925.443ZM410.932,923.961L410.932,923.961L410.933,923.961L410.932,923.961ZM411.068,923.96L411.066,923.96L411.07,923.96L411.068,923.96ZM411.204,923.956L411.202,923.957L411.206,923.956L411.204,923.956ZM494.985,813.644L494.966,813.67L494.985,813.644L494.985,813.644ZM497.304,810.418L497.268,810.47L497.36,810.336L497.304,810.418ZM498.401,808.781C498.401,808.781 498.361,808.843 498.361,808.843L498.346,808.866M498.362,808.843L498.301,808.937L498.42,808.752L498.362,808.843ZM498.401,808.781L498.361,808.844L498.319,808.909L498.361,808.843L498.401,808.781ZM498.999,807.817L499.021,807.781L499.04,807.749L499.02,807.782L498.999,807.817C498.999,807.817 498.934,807.924 498.934,807.924L498.89,807.999L498.999,807.817L498.999,807.817ZM499.334,807.244L499.285,807.329L499.39,807.142L499.334,807.244ZM499.375,807.17L499.337,807.236L499.304,807.295L499.375,807.17ZM500.189,805.605L500.183,805.615L500.191,805.6L500.189,805.605ZM500.317,805.327L500.309,805.345L500.325,805.309L500.317,805.327ZM501.27,802.746L501.266,802.759L501.281,802.704L501.27,802.746ZM501.31,802.598L501.308,802.607L501.323,802.549L501.31,802.598ZM501.388,802.3L501.379,802.333L501.388,802.298L501.388,802.3ZM501.493,801.849L501.488,801.869L501.502,801.806L501.493,801.849ZM501.638,801.086L501.633,801.116L501.643,801.053L501.638,801.086ZM501.662,800.932L501.66,800.947L501.668,800.888L501.662,800.932ZM501.725,800.464L501.726,800.457L501.725,800.465L501.724,800.471L501.721,800.501L501.72,800.504L501.724,800.471L501.725,800.464ZM501.774,799.991L501.773,800.002L501.777,799.949L501.774,799.991ZM501.807,799.511L501.805,799.551L501.807,799.501L501.807,799.511ZM501.815,799.349L501.813,799.385L501.815,799.325L501.815,799.349ZM501.824,799.025L501.824,799.032L501.825,798.988L501.824,799.025ZM501.825,798.532L501.826,798.571L501.825,798.519L501.825,798.532ZM501.822,798.366L501.823,798.398L501.821,798.339L501.822,798.366ZM501.817,798.199L501.817,798.218L501.815,798.162L501.817,798.199ZM501.81,798.032L501.81,798.036L501.808,798.008L501.81,798.032ZM501.767,797.41L501.767,797.418L501.765,797.392L501.767,797.41ZM501.738,797.123L501.741,797.151L501.736,797.103L501.738,797.123ZM501.665,796.542L501.668,796.566L501.659,796.508L501.665,796.542ZM501.619,796.248L501.625,796.283L501.616,796.232L501.619,796.248ZM501.568,795.951L501.57,795.962L501.562,795.919L501.568,795.951ZM501.51,795.652L501.518,795.69L501.503,795.618L501.51,795.652ZM501.447,795.351L501.452,795.374L501.446,795.345L501.447,795.351ZM501.377,795.046L501.383,795.072L501.366,795.001L501.377,795.046ZM501.301,794.739L501.313,794.785L501.294,794.713L501.301,794.739Z" style="fill:rgb(137,91,183);stroke:white;stroke-width:1.07px;"/>
    </g>
</svg>
