<?xml version="1.0" encoding="UTF-8" standalone="no"?>
<!DOCTYPE svg PUBLIC "-//W3C//DTD SVG 1.1//EN" "http://www.w3.org/Graphics/SVG/1.1/DTD/svg11.dtd">
<svg width="100%" height="100%" viewBox="0 0 297 321" version="1.1" xmlns="http://www.w3.org/2000/svg" xmlns:xlink="http://www.w3.org/1999/xlink" xml:space="preserve" style="fill-rule:evenodd;clip-rule:evenodd;stroke-linecap:round;stroke-linejoin:round;stroke-miterlimit:1.5;">
    <g id="sadan" transform="matrix(1,0,0,1,-698.83,-633.872)">
        <path d="M751.296,637.721C754.108,637.119 757.869,636.133 760.368,634.767C764.809,632.34 771.712,642.824 778.998,645.181C786.284,647.538 809.091,640.453 811.65,640.237C814.209,640.021 814.692,652.73 824.436,653.76C834.18,654.789 850.885,640.331 855.188,645.065C859.49,649.798 862.849,647.807 863.294,653.249C863.739,658.692 870.424,659.933 870.424,663.676C870.424,667.42 871.057,673.663 871.057,673.663L881.715,684.601C881.715,684.601 882.636,691.939 883.77,697.747C884.904,703.555 896.197,701.375 901.243,702.982C906.288,704.588 910.901,708.089 910.901,708.089L910.137,714.76C910.137,714.76 908.122,715.888 912.309,718.018C916.496,720.148 912.506,727.931 912.506,727.931L913.831,738.442C913.831,738.442 910.345,744.072 907.655,749.395C904.965,754.717 900.694,756.67 900.778,761.568C900.862,766.466 899.543,770.488 897.872,772.602C896.201,774.716 892.813,777.662 897.009,785.046C901.205,792.429 900.247,808.92 898.283,812.623L904.322,821.05L904.426,824.667C904.426,824.667 916.742,836.89 920.199,843.068C923.655,849.246 928.619,851.771 934.529,856.745C940.44,861.72 944.097,864.369 947.691,863.871C951.285,863.373 953.678,861.234 953.678,861.234L963.405,860.324C963.405,860.324 977.328,857.046 980.066,861.291C982.805,865.536 982.492,873.498 982.492,873.498C982.492,873.498 995.328,884.808 995.206,891.643C995.2,891.967 995.185,892.281 995.163,892.585C989.803,892.86 984.229,894.019 980.458,897.1C980.458,897.1 975.72,898.212 974.067,898.107C972.414,898.002 968.774,898.901 967.586,903.523C966.398,908.144 961.33,907.263 961.33,907.263C961.33,907.263 953.399,917.545 952.739,921.868C952.079,926.191 941.735,925.865 941.735,925.865C941.735,925.865 930.831,933.025 925.14,935.279C919.449,937.534 912.133,941.891 912.133,941.891C912.133,941.891 909.742,946.234 904.139,947.26C898.939,948.212 892.366,947.366 886.329,953.541C885.329,952.83 884.355,951.898 884.522,951.05C884.852,949.379 880.603,940.452 880.603,940.452C880.603,940.452 877.252,938.916 872.562,940.982C867.871,943.048 868.672,937.685 868.672,937.685C868.672,937.685 870.059,934.013 870.504,928.241C870.95,922.469 865.793,914.156 865.793,914.156C865.793,914.156 864.509,912.3 863.547,916.37C862.586,920.44 858.669,920.578 858.669,920.578L855.62,910.477L846.237,909.498L844.573,906.27L841.589,908.044C841.589,908.044 839.86,906.871 838.884,904.976C837.907,903.081 830.575,896.8 830.575,896.8C830.575,896.8 823.319,892.999 823.319,890.869C823.319,888.738 820.535,880.701 820.535,880.701L806.655,879.636C806.655,879.636 802.174,879.636 801.788,876.638C801.404,873.653 799.062,872.75 799.041,872.742L792.186,872.742L790.586,869.519C790.586,869.519 790.911,867.719 786.458,866.9C782.004,866.081 786.303,861.917 788.611,860.813C790.92,859.709 787.558,852.687 787.558,852.687L781.579,851.067L780.667,847.297L775.119,845.917L767.385,845.659C767.385,845.659 763.106,846.105 761.494,846.837C759.881,847.57 756.912,845.589 756.912,845.589L750.019,840.348L746.42,838.113C746.42,838.113 742.542,839.45 742.542,836.5C742.542,833.55 741.34,834.721 739.806,833.651C738.272,832.582 730.027,823.796 730.027,823.796L724.915,821.313L722.271,817.153L716.987,815.454L715.041,808.549L710.773,805.748C710.773,805.748 707.665,805.391 707.665,802.656C707.665,799.92 706.529,794.364 706.529,794.364C706.529,794.364 701.713,795.4 702.296,788.328C702.555,785.184 701.345,782.566 699.92,780.628C702.709,776.486 704.141,772.669 703.152,768.845C701.327,761.787 701.158,759.277 699.814,751.871C698.469,744.466 700.134,739.647 704.878,732.307C709.621,724.967 720.741,721.289 720.925,713.668C721.108,706.047 721.214,706.791 724.127,702.854C727.04,698.918 726.513,696.38 726.647,686.924C726.78,677.468 731.885,681.151 732.966,675.589C734.047,670.027 734.889,669.402 737.044,665.419C739.199,661.436 742.673,659.033 742.831,655.716C742.959,653.033 748.901,644.692 750.911,637.802L751.296,637.721Z" style="fill:rgb(0,121,128);stroke:white;stroke-width:1.07px;"/>
    </g>
</svg>
