<?xml version="1.0" encoding="UTF-8" standalone="no"?>
<!DOCTYPE svg PUBLIC "-//W3C//DTD SVG 1.1//EN" "http://www.w3.org/Graphics/SVG/1.1/DTD/svg11.dtd">
<svg width="100%" height="100%" viewBox="0 0 255 265" version="1.1" xmlns="http://www.w3.org/2000/svg" xmlns:xlink="http://www.w3.org/1999/xlink" xml:space="preserve" style="fill-rule:evenodd;clip-rule:evenodd;stroke-linecap:round;stroke-linejoin:round;stroke-miterlimit:1.5;">
    <g id="sanggalangi" transform="matrix(1,0,0,1,-730.038,-1130.36)">
        <path d="M737.296,1295.77C737.824,1294.74 738.301,1294.08 738.699,1293.96C741.599,1293.06 752.255,1280.85 752.569,1276.78C752.882,1272.71 759.632,1252.3 759.632,1252.3C759.632,1252.3 760.074,1236.48 783.891,1232.4C807.707,1228.32 816.698,1220.7 816.698,1220.7C816.698,1220.7 830.717,1210.47 835.069,1204.61C839.42,1198.75 861.686,1180.2 865.307,1177.45C868.928,1174.7 881.427,1151.3 881.427,1151.3C881.427,1151.3 885.419,1142.92 885.419,1139.58C885.419,1136.23 886.446,1132.56 886.446,1132.56L884.907,1131.58C886.906,1131.1 889.48,1130.63 890.306,1131.07C891.72,1131.82 892.956,1133.09 894.446,1132.93C895.935,1132.77 900.476,1132.77 900.476,1132.77C900.476,1132.77 903.669,1134.89 906.22,1133.98C908.77,1133.08 911.37,1137.02 911.37,1137.02C911.37,1137.02 915.232,1142.09 917.956,1142.52C920.681,1142.95 927.803,1149.35 930.048,1149.35C932.292,1149.35 933.562,1150.85 935.047,1153.36C936.532,1155.88 937.493,1156.13 937.493,1156.13L937.694,1158.32L937.694,1160.76L943.995,1160.76C944.014,1160.76 944.488,1160.86 947.851,1162.79C951.285,1164.77 951.285,1166.57 951.285,1166.57L951.918,1172.94C951.918,1172.94 957.527,1171.11 958.503,1175.85C959.48,1180.6 964.116,1184.47 964.116,1184.47C964.116,1184.47 961.299,1190.1 960.997,1191.19C960.695,1192.28 963.042,1195.98 964.341,1198.09C965.64,1200.2 964.806,1202.95 963.496,1203.74C962.186,1204.53 959.045,1208.07 959.835,1209.06C960.626,1210.05 971.691,1214.39 974.985,1214C978.279,1213.61 981.407,1217.93 981.407,1221.44C981.407,1224.94 983.692,1229.4 983.692,1229.4L983.692,1237.84L983.518,1240.27C983.518,1240.27 979.94,1245.67 981.271,1251.99C982.601,1258.31 981.541,1264.62 981.541,1264.62L978.694,1280.26C978.694,1280.26 973.284,1290.29 972.814,1291.53C972.344,1292.76 954.358,1285.52 945.686,1295.23C940.82,1300.68 925.211,1287.87 913.648,1286.05C902.086,1284.23 898.623,1280.46 893.358,1293.03C888.094,1305.6 888.094,1308.21 888.094,1308.21C888.094,1308.21 889.643,1333.82 880.65,1347.76C871.657,1361.7 875.081,1371.9 875.081,1371.9C875.081,1371.9 869.028,1384.33 857.292,1388.48C853.117,1389.96 847.318,1391.96 841.578,1393.93C839.936,1391.19 838.369,1388.16 837.273,1385.12C833.736,1375.31 827.859,1367.64 827.859,1367.64L819.624,1349.68L814.003,1349.57C814.003,1349.57 807.359,1351.26 801.875,1352.18C796.392,1353.11 797.923,1351.15 790.715,1351.57C783.508,1352 774.558,1351.68 773.017,1352.39C771.475,1353.1 770.736,1351.32 763.314,1349.06C755.893,1346.81 746.958,1347.48 746.958,1347.48L736.992,1345.54L736.481,1337.63C736.481,1337.63 732.867,1334.48 734.812,1329.84C736.757,1325.19 736.541,1313.99 736.541,1313.99L738.178,1298.85L737.296,1295.77ZM736.513,1294.98L737.146,1295.25L736.398,1294.93L736.513,1294.98ZM734.77,1294.25L734.847,1294.29L734.36,1294.08L734.77,1294.25ZM730.594,1292.52L730.668,1292.55L730.571,1292.51L730.594,1292.52Z" style="fill:rgb(138,183,131);stroke:white;stroke-width:1.07px;"/>
    </g>
</svg>
