<?xml version="1.0" encoding="UTF-8" standalone="no"?>
<!DOCTYPE svg PUBLIC "-//W3C//DTD SVG 1.1//EN" "http://www.w3.org/Graphics/SVG/1.1/DTD/svg11.dtd">
<svg width="100%" height="100%" viewBox="0 0 143 122" version="1.1" xmlns="http://www.w3.org/2000/svg" xmlns:xlink="http://www.w3.org/1999/xlink" xml:space="preserve" style="fill-rule:evenodd;clip-rule:evenodd;stroke-linecap:round;stroke-linejoin:round;stroke-miterlimit:1.5;">
    <g id="sesean" transform="matrix(1,0,0,1,-731.584,-969.052)">
        <path d="M764.058,1064.04C761.46,1065.1 747.458,1064.92 747.458,1064.92C747.458,1064.92 738.113,1063.14 737.296,1058.55C736.479,1053.95 732.344,1049.68 732.344,1049.68L732.165,1047.87C732.133,1047.92 732.117,1047.95 732.117,1047.95L732.163,1047.87C732.628,1047.06 736.678,1040.21 747.509,1027.15C759.062,1013.22 772.483,976.458 772.483,976.458C772.483,976.458 773.837,972.652 772.839,969.585C776.328,970.722 780.507,972.319 782.883,974.062C787.487,977.439 792.115,980.161 798.75,975.976C805.385,971.792 813.138,972.537 814.155,972.696C815.173,972.856 822.387,973.821 822.387,973.821L831.637,971.901C831.637,971.901 837.218,976.006 840.886,976.005C844.555,976.004 848.259,977.101 846.766,984.317C845.273,991.533 854.246,991.314 854.246,991.314L865.608,991.314L873.062,992.43C873.062,992.43 873.209,998.109 870.471,999.757C867.732,1001.4 869.669,1006.03 869.669,1006.03C869.669,1006.03 868.854,1009.66 863.896,1014.59C858.937,1019.52 865.072,1024.66 866.421,1028.06C867.77,1031.46 868.266,1031.88 868.266,1031.88C868.266,1031.88 872.299,1031.91 872.984,1034.12C873.668,1036.34 872.273,1040.06 872.273,1040.06L872.182,1048.55C872.182,1048.55 866.545,1054 865.682,1057.46C864.819,1060.92 859.132,1060.37 859.132,1060.37C859.132,1060.37 861.308,1072.42 858.986,1072.2C856.664,1071.97 852.925,1066.08 850.103,1068.95C847.281,1071.83 845.582,1076.61 845.582,1076.61C845.582,1076.61 837.777,1073.27 836.758,1075.89C835.739,1078.52 832.256,1085.65 829.427,1086.85C828.127,1087.41 824.943,1088.68 821.88,1089.9L819.629,1089.04C819.629,1089.04 812.449,1082.02 809.824,1079.39C807.199,1076.77 806.068,1071.91 804.403,1067.87C802.739,1063.84 797.616,1059.74 792.287,1060.14C786.959,1060.55 783.374,1062.26 779.532,1063.9C775.689,1065.54 768.409,1062.26 764.058,1064.04Z" style="fill:rgb(66,153,162);stroke:white;stroke-width:1.07px;"/>
    </g>
</svg>
