<?xml version="1.0" encoding="UTF-8" standalone="no"?>
<!DOCTYPE svg PUBLIC "-//W3C//DTD SVG 1.1//EN" "http://www.w3.org/Graphics/SVG/1.1/DTD/svg11.dtd">
<svg width="100%" height="100%" viewBox="0 0 160 142" version="1.1" xmlns="http://www.w3.org/2000/svg" xmlns:xlink="http://www.w3.org/1999/xlink" xml:space="preserve" style="fill-rule:evenodd;clip-rule:evenodd;stroke-linecap:round;stroke-linejoin:round;stroke-miterlimit:1.5;">
    <g id="seseansuloara" transform="matrix(1,0,0,1,-613.979,-918.848)">
        <path d="M680.289,919.381C683.238,926.313 688.642,935.854 696.348,936.948C708.602,938.686 720.145,934.957 724.749,933.477C729.353,931.998 740.258,938.341 752.468,949.016C764.678,959.691 765.649,964.098 770.374,966.599C775.1,969.1 772.483,976.458 772.483,976.458C772.483,976.458 759.062,1013.22 747.509,1027.15C735.955,1041.08 732.117,1047.95 732.117,1047.95C732.117,1047.95 725.427,1043.84 721.513,1049.33C717.599,1054.83 712.76,1041.16 713.743,1037.31C714.727,1033.44 733.348,1017.57 725.187,1008.68C717.025,999.783 705.046,1009.16 701.396,1018.97C697.746,1028.79 696.552,1031.63 691.395,1033.96C686.238,1036.28 686.996,1043.72 682.83,1045.41C678.664,1047.11 670.64,1037.11 665.832,1040.89C661.025,1044.68 659.579,1044.63 657.113,1049.33C655.332,1052.72 649.338,1057.86 644.386,1059.65C643.012,1052.37 641.719,1044.23 641.72,1039.79C641.72,1032.88 638.901,1019.31 637.133,1012.64C635.365,1005.98 633.481,1001.47 635.011,998.571C636.541,995.672 636.408,993.991 635.072,991.969C633.736,989.948 627.222,993.286 624.346,980.092C622.699,972.536 618.123,966.502 614.512,962.725L615.482,962.803C615.482,962.803 621.834,950.91 626.183,946.575C630.531,942.24 633.355,939.047 634.375,934.756C635.105,931.69 636.481,928.356 637.208,926.703C637.132,926.874 637.05,927.063 636.963,927.268C642.072,925.303 649.059,923.05 652.537,923.85C657.154,924.912 673.258,924.939 680.289,919.381ZM637.352,926.376L637.274,926.551L637.31,926.469L637.352,926.376ZM637.479,926.095L637.43,926.203L637.466,926.122L637.479,926.095ZM637.612,925.805L637.495,926.058L637.584,925.865L637.612,925.805ZM637.453,925.664L637.359,925.669L637.684,925.65L637.453,925.664Z" style="fill:rgb(89,169,96);stroke:white;stroke-width:1.07px;"/>
    </g>
</svg>
