<?xml version="1.0" encoding="UTF-8" standalone="no"?>
<!DOCTYPE svg PUBLIC "-//W3C//DTD SVG 1.1//EN" "http://www.w3.org/Graphics/SVG/1.1/DTD/svg11.dtd">
<svg width="100%" height="100%" viewBox="0 0 143 190" version="1.1" xmlns="http://www.w3.org/2000/svg" xmlns:xlink="http://www.w3.org/1999/xlink" xml:space="preserve" style="fill-rule:evenodd;clip-rule:evenodd;stroke-linecap:round;stroke-linejoin:round;stroke-miterlimit:1.5;">
    <g id="sopai" transform="matrix(1,0,0,1,-579.551,-1120.64)">
        <path d="M597.071,1225.91C596.65,1223.87 596.292,1221.58 596.324,1219.79C596.398,1215.62 593.621,1208.45 590.878,1207.27C588.135,1206.09 588.442,1195.56 586.712,1191.7C584.983,1187.85 582.186,1181.6 582.186,1181.6C582.186,1181.6 577.907,1177.41 581.558,1171.91C585.209,1166.41 586.09,1165.18 586.09,1158.63C586.09,1152.08 587.42,1151.91 586.792,1145.95C586.164,1139.98 584.124,1138.6 583.733,1133.51C583.342,1128.42 584.787,1126.75 584.787,1126.75L584.771,1126.7C587.767,1125.39 590.47,1124.08 592.225,1122.96C598.597,1118.9 615.431,1122.56 618.147,1125.87C620.863,1129.17 625.949,1132.37 631.062,1130.43C636.174,1128.5 640.689,1129.55 643.641,1136.66C646.593,1143.77 660.541,1147.98 666.096,1146.47C671.651,1144.95 673.539,1145.16 671.329,1148.43C669.12,1151.7 668.116,1156.21 669.699,1158.53C671.283,1160.84 671.027,1164.24 675.674,1163.58C680.322,1162.91 686.599,1164.62 689.826,1172.44C693.053,1180.26 710.927,1175.87 714.93,1177.57C718.933,1179.27 716.991,1181.17 716.991,1181.17C716.991,1181.17 713.745,1183.87 719.597,1188.05C725.448,1192.23 715.712,1206.33 703.257,1210.41C690.801,1214.49 689.291,1230.58 687.302,1231.52C685.312,1232.47 672.826,1242 675.212,1244.21C677.597,1246.42 669.719,1254.91 667.664,1258.41C665.609,1261.92 668.974,1263.49 671.908,1263.23C674.842,1262.98 670.71,1268.41 670.472,1273.09C670.234,1277.77 671.999,1279.68 670.026,1283.58C668.052,1287.47 667.765,1285.22 668.672,1287.92C669.578,1290.62 676.363,1294.79 671.894,1299.38C670.054,1301.27 669.981,1303.83 670.532,1306.19C665.425,1307 663.419,1307.78 662.822,1308.4L663.951,1309.88C663.951,1309.88 661.976,1309.29 662.822,1308.4L660.446,1305.3L662.089,1301.16L655.746,1300.29L655.746,1291.11L649.619,1291.11C649.619,1291.11 642.094,1282.56 631.424,1271.12C620.754,1259.67 620.193,1258.89 620.193,1258.89C620.193,1258.89 619.302,1246.96 613.358,1241.24C607.414,1235.52 607.327,1227.81 601.639,1226.76L597.071,1225.91Z" style="fill:rgb(36,91,176);stroke:white;stroke-width:1.07px;"/>
    </g>
</svg>
