<?xml version="1.0" encoding="UTF-8" standalone="no"?>
<!DOCTYPE svg PUBLIC "-//W3C//DTD SVG 1.1//EN" "http://www.w3.org/Graphics/SVG/1.1/DTD/svg11.dtd">
<svg width="100%" height="100%" viewBox="0 0 101 94" version="1.1" xmlns="http://www.w3.org/2000/svg" xmlns:xlink="http://www.w3.org/1999/xlink" xml:space="preserve" style="fill-rule:evenodd;clip-rule:evenodd;stroke-linecap:round;stroke-linejoin:round;stroke-miterlimit:1.5;">
    <g id="tallunglipu" transform="matrix(1,0,0,1,-722.438,-1059.58)">
        <path d="M723.184,1109.33C723.305,1109.82 723.365,1110.12 723.365,1110.12L728.043,1102.9C728.043,1102.9 728.905,1100.69 731.621,1100.27C734.338,1099.84 735.642,1088.59 735.642,1088.59C740.13,1086.58 739.949,1080.25 739.949,1080.25C739.949,1080.25 739.644,1075.01 742.468,1074.14C744.743,1073.45 746.591,1067.89 747.223,1065.76C753.343,1065.56 761.46,1065.1 764.058,1064.04C768.409,1062.26 775.689,1065.54 779.532,1063.9C783.374,1062.26 786.959,1060.55 792.287,1060.14C797.616,1059.74 802.739,1063.84 804.403,1067.87C806.068,1071.91 807.199,1076.77 809.824,1079.39C812.449,1082.02 819.629,1089.04 819.629,1089.04L822.366,1090.09C822.366,1090.09 819.522,1100.85 815.939,1105C812.355,1109.15 811.187,1111.61 811.994,1115.29C812.8,1118.98 815.68,1128.74 812.755,1133.54C809.829,1138.34 801.27,1148.62 801.27,1148.62L796.826,1152.4C796.977,1152.25 797.062,1152.15 797.062,1152.15L794.609,1147.17C794.609,1147.17 790.726,1144.48 787.654,1141.42C784.582,1138.37 779.854,1138.3 778.501,1141.48C777.147,1144.67 774.226,1141.91 768.506,1144.21C762.787,1146.5 760.917,1143.24 757.863,1141.89C754.808,1140.54 755.501,1136.95 751.352,1134.02C747.203,1131.09 745.831,1135.26 742.266,1138.25C738.7,1141.24 740.433,1138.86 739.923,1136.13C739.414,1133.4 738.865,1124.89 738.61,1120.54C738.355,1116.19 731.557,1117.34 726.138,1116.08C723.809,1115.54 723.163,1112.56 723.184,1109.33ZM723.029,1108.75C723.089,1108.96 723.14,1109.16 723.184,1109.33C723.14,1109.16 723.089,1108.96 723.029,1108.75ZM722.989,1108.6L723.003,1108.65L722.971,1108.54L722.989,1108.6Z" style="fill:rgb(121,0,128);stroke:white;stroke-width:1.07px;"/>
    </g>
</svg>
