<?xml version="1.0" encoding="UTF-8" standalone="no"?>
<!DOCTYPE svg PUBLIC "-//W3C//DTD SVG 1.1//EN" "http://www.w3.org/Graphics/SVG/1.1/DTD/svg11.dtd">
<svg width="100%" height="100%" viewBox="0 0 105 115" version="1.1" xmlns="http://www.w3.org/2000/svg" xmlns:xlink="http://www.w3.org/1999/xlink" xml:space="preserve" style="fill-rule:evenodd;clip-rule:evenodd;stroke-linecap:round;stroke-linejoin:round;stroke-miterlimit:1.5;">
    <g id="tikalasuloara" transform="matrix(1,0,0,1,-643.604,-1004.58)">
        <path d="M644.137,1058.31L644.386,1059.65C649.338,1057.86 655.332,1052.72 657.113,1049.33C659.579,1044.63 661.025,1044.68 665.832,1040.89C670.64,1037.11 678.664,1047.11 682.83,1045.41C686.996,1043.72 686.238,1036.28 691.395,1033.96C696.552,1031.63 697.746,1028.79 701.396,1018.97C705.046,1009.16 717.025,999.783 725.187,1008.68C733.348,1017.57 714.727,1033.44 713.743,1037.31C712.76,1041.16 717.599,1054.83 721.513,1049.33C725.427,1043.84 732.117,1047.95 732.117,1047.95C732.117,1047.95 732.133,1047.92 732.165,1047.87L732.344,1049.68C732.344,1049.68 736.479,1053.95 737.296,1058.55C738.113,1063.14 747.458,1064.92 747.458,1064.92C747.458,1064.92 745.292,1073.28 742.468,1074.14C739.644,1075.01 739.949,1080.25 739.949,1080.25C739.949,1080.25 740.13,1086.58 735.642,1088.59C735.642,1088.59 734.338,1099.84 731.621,1100.27C728.905,1100.69 728.043,1102.9 728.043,1102.9L723.365,1110.12C723.365,1110.12 722.315,1104.79 720.112,1103.3C717.909,1101.81 714.221,1105.18 714.221,1105.18C714.221,1105.18 701.219,1104.24 697.579,1111.88L696.013,1114L691.913,1114C691.848,1114.06 686.373,1118.67 680.77,1118.55C677.559,1118.48 671.57,1117.58 667.012,1116.81C666.188,1114.19 665.296,1111.3 664.744,1109.31C663.495,1104.82 659.616,1108.4 661.496,1099.68C663.377,1090.96 661.246,1088.14 656.164,1086.33C651.083,1084.53 648.235,1077.86 646.535,1070.17C645.864,1067.13 644.971,1062.83 644.137,1058.31Z" style="fill:rgb(79,46,113);stroke:white;stroke-width:1.07px;"/>
    </g>
</svg>
