<?xml version="1.0" encoding="UTF-8" standalone="no"?>
<!DOCTYPE svg PUBLIC "-//W3C//DTD SVG 1.1//EN" "http://www.w3.org/Graphics/SVG/1.1/DTD/svg11.dtd">
<svg width="100%" height="100%" viewBox="0 0 183 136" version="1.1" xmlns="http://www.w3.org/2000/svg" xmlns:xlink="http://www.w3.org/1999/xlink" xml:space="preserve" style="fill-rule:evenodd;clip-rule:evenodd;stroke-linecap:round;stroke-linejoin:round;stroke-miterlimit:1.5;">
    <g id="tondong" transform="matrix(1,0,0,1,-811.217,-1049.1)">
        <path d="M886.171,1132.38L881.762,1129.57C881.762,1129.57 876.997,1127.63 875.23,1131.81C873.462,1135.99 858.464,1138.3 858.464,1138.3L852.317,1137.05L842.462,1137.54C842.462,1137.54 839.787,1135.91 834.534,1132.38C831.02,1130.02 820.397,1130.39 813.746,1130.9C814.811,1125.77 812.671,1118.39 811.994,1115.29C811.187,1111.61 812.355,1109.15 815.939,1105C819.522,1100.85 822.366,1090.09 822.366,1090.09L821.88,1089.9C824.943,1088.68 828.127,1087.41 829.427,1086.85C832.256,1085.65 835.739,1078.52 836.758,1075.89C837.777,1073.27 845.582,1076.61 845.582,1076.61C845.582,1076.61 847.281,1071.83 850.103,1068.95C852.925,1066.08 856.664,1071.97 858.986,1072.2C861.308,1072.42 859.132,1060.37 859.132,1060.37C859.132,1060.37 862.652,1060.71 864.573,1059.17L866.551,1061.47C866.551,1061.47 868.131,1061.27 872.1,1061.37C876.068,1061.47 880.734,1050.54 886.414,1050C892.094,1049.46 904.218,1048.94 905.699,1052.82C907.18,1056.69 921.724,1067.88 936.08,1069.89C950.437,1071.91 987.449,1071.8 993.23,1069.5C993.23,1069.5 992.556,1072.33 991.344,1074.52C990.132,1076.7 990.876,1078.3 991.12,1078.55C991.363,1078.79 993.947,1081.86 989.918,1085.59C985.889,1089.31 988.522,1094.54 989.179,1096.82C989.836,1099.1 993.039,1102.39 993.039,1102.39L987.135,1105.36C987.135,1105.36 978.243,1100.49 973.969,1103.29C969.695,1106.09 965.577,1103.75 973.129,1115.25C980.681,1126.75 980.816,1128.27 974.6,1130.71C968.383,1133.15 968.426,1141.4 969.45,1149.88C970.474,1158.37 968.336,1161.46 968.336,1161.46L971.067,1171C971.067,1171 970.723,1175.98 970.121,1176.84C969.775,1177.33 966.305,1180.89 963.413,1183.83C962.078,1182.54 959.242,1179.44 958.503,1175.85C957.527,1171.11 951.918,1172.94 951.918,1172.94L951.285,1166.57C951.285,1166.57 951.285,1164.77 947.851,1162.79C944.515,1160.88 944.022,1160.76 943.995,1160.76L937.694,1160.76L937.694,1158.32L937.493,1156.13C937.493,1156.13 936.532,1155.88 935.047,1153.36C933.562,1150.85 932.292,1149.35 930.048,1149.35C927.803,1149.35 920.681,1142.95 917.956,1142.52C915.232,1142.09 911.37,1137.02 911.37,1137.02C911.37,1137.02 908.77,1133.08 906.22,1133.98C903.669,1134.89 900.476,1132.77 900.476,1132.77C900.476,1132.77 895.935,1132.77 894.446,1132.93C892.956,1133.09 891.72,1131.82 890.306,1131.07C889.48,1130.63 886.906,1131.1 884.907,1131.58L886.171,1132.38ZM813.467,1131.96L813.46,1131.98L813.469,1131.95L813.467,1131.96ZM813.521,1131.79L813.52,1131.79L813.523,1131.78L813.521,1131.79ZM813.572,1131.62L813.568,1131.63L813.577,1131.6L813.572,1131.62ZM813.62,1131.44L813.615,1131.45L813.622,1131.43L813.62,1131.44Z" style="fill:rgb(158,96,79);stroke:white;stroke-width:1.07px;"/>
    </g>
</svg>
